<mxfile host="app.diagrams.net" agent="Mozilla/5.0 (Windows NT 10.0; Win64; x64) AppleWebKit/537.36 (KHTML, like Gecko) Chrome/131.0.0.0 Safari/537.36" version="26.0.2">
  <diagram name="PÃ¡gina-1" id="peODW9032dgPuG_YMecS">
    <mxGraphModel dx="1562" dy="810" grid="1" gridSize="10" guides="1" tooltips="1" connect="1" arrows="1" fold="1" page="1" pageScale="1" pageWidth="827" pageHeight="583" math="0" shadow="0">
      <root>
        <mxCell id="0" />
        <mxCell id="1" parent="0" />
        <mxCell id="52dAqy6KReUIFX3L-IGi-3" value="" style="shape=image;verticalLabelPosition=bottom;labelBackgroundColor=default;verticalAlign=top;aspect=fixed;imageAspect=0;image=data:image/png,iVBORw0KGgoAAAANSUhEUgAABQwAAAMiCAYAAAArbI5+AAAABHNCSVQICAgIfAhkiAAAAAlwSFlzAABcRgAAXEYBFJRDQQAAABl0RVh0U29mdHdhcmUAd3d3Lmlua3NjYXBlLm9yZ5vuPBoAACAASURBVHic7N1nXBXZsjfgfxMUFXN2zDmMYxpFUQEzCoIJDEgQMWDA7JhQMWLGhCASJGdEUcyKEXOaccw5J1RQ0A273w9ezjvnXM+1Xd2NLKzny706vcr6nbaX7Fq9qwQQkj8IAHoA6AOgI4DKAEr/0IwIIYQQQgghhBBCCpY0AE8AHAeQAGAPAPE/LxLyOClCvsYUwGoALX90IoQQQgghhBBCCCE/kXMAJgM48s/f1P0xuRDyLyMBRAH45UcnQgghhBBCCCGEEPKTqQLAAcAnfHnrEAAVDMmPtRDACgA6PzoRQgghhBBCCCGEkJ+UDoCuAN4DSAXoK8nkx/kDgOePToIQQgghhBBCCCGEAAByAHQGcIQKhuRHqAXgJugNV0IIIYQQQgghhJD85BKAllQwJHlNH8BFAI1/dCKEEEIIIYQQQggh5H8xpze8SF5bCcDqRydBCCGEEEIIIYQQQr7qAxUMSV6yALAO1DuTEEIIIYQQQgghJL8yoMINySvVAFwAUFbKxV26meX4BHg9UzclQsiPVLhQoUI6ejp0cEUIIYRIoKerp6tfSL/Qj86DEEJI/nXr+u0PHdr0KKfRaOSGekMFQ5IX9AEcAdBWysUVK1XAyfP7UbFSBXWzIoQQQgghhBBCCCkAtFrxXdsWnYv/deVvHSXiKRKEkG9YAYnFQh0dHWzZup6KhYQQQgghhBBCCCHSaKdMmKmnVLEQoIIhUZ81ADepF8+YMxmdu5mqmA4hhBBCCCGEEEJIwbF9W/LjzRuDikm8PFvKRfSVZKKmegDOACgp5eKOZsbYuS8GurrU0owQQgghhBBCCCHkW549eX69fo2WDXJycqQuiQPQ/1sX0RuGRC0GAKIgsVhYvkI5BIZ6U7GQEEIIIYQQQgghRIJsTc6z7mZ96n1HsTAZwEkpF1LBkKhlE4AWUi7U0dFBQMhGVK5SSeWUCCGEEEIIIYQQQgqErJHD3UrcvnVXam3vKQBHAKKUi6lgSNTgAsBJ6sV/zJlEfQsJIYQQQgghhBBCJAoPjnkZFRpXVOLlWgAOAF5KjU89DInSfgOQCqCIlItNO3fAjj1R9FXkAiYzMwt+3oHIzs5BTk4O3qen/9t/f5v27t9+nZGegezs/993deLUsWjVunme5EqUkf4+HWdPX/jXr7OyPiEzM+tfv87JyUH6+3//e/Du7XuIoghBEOAy2gHFSxTPs3yJfFlZnzB9kjvS3qTh3bt0aLXaf/23DxkfoNFo/vXrzMwsfMr69K9ff/78GTPdp2DYiKF5mjORJ/19Orb4BEMUxa/u7bnPdK6MjA/I/sffg7kLZ6Be/Tp5li+R7/279/D3DWG+5/MWzUTderXzLF8i35vXabh04cq/fp2ZmYWsf+zf2RoNMjI+/Nua3J/rdHV1MGrccBgYFM6bZIki0t+nY8qE2cj8mIm0b/yM/vFjJj5/+vyvX3/69Bmr1i2GVd9eeZYvke/li1cICYwEAGg0GmR8+Pozneuffw90dHSwdOV8VPmlct4kS/6r27fuXm7esP1v//wZ/Bs8AMz/n/9/MoBV31qgx5YaIV9VCkA8JBYLf6laGcERvlQsLGBEUcSYEZMRHR7PtH7Q0AFULOSMRqPBEBsXHNyXwrR+2qwJVCzkjCiKGDtyCiJDY5nW2w7uS8VCzmg0GgwdOBL79xxiWj9u4kgqFnJGo9HAznYE897uNsWVioWcyczMQv/eQ3E69RzT+iXL51KxkDO5z/mBvYeZ1o9xc6FiIWcyM7MwsK8TTp08y7R+/qKZVCzMBzSfNdd6denf9DuKhSkAFn7vn0NfSSZKEQD4A5D0aUBPTw9B4T4oV76sulmRPDdr+gLmYuFvzX/Fep8VCmdE1CSKIsaNmsr8gbJTVxO4e0xXOCuitrmzFjMXC3/9rTE2bP7mgSbJZ6ZNdGcuFrZr3wYLPd0VzoiobYrbbOa93bRzByxcOlvhjIiatFotnIeOYS4WWvezgNsUV4WzImqbNtGduVjY1rg1Fi+fp2xCRFVarRbD7ccyFwstrc0xdaabwlmR7yekDXcYU/PRwydSvzH8EsAQAJKnouSigiFRylQA/aRevGiZO4w7GKmYDvkRAv1CsW7VJqa1pcuUQkRcAIoWlfSCKsknli5YhdCgKKa11WtUxdZwH3rLmDNb/cOxetkGprWlSpdERFwAihWT2mqF5AfLF3vBb1MQ09qq1aogIi4AhQrpK5sUUdXSBavg7xvMtLZa9V8QHOELPT36IhNP/pg8F9sTdjGtbdK0Efy2rocgULcrnixbtIZ5b69UuSJCo/1ob+fMzKnzkRi/k2ltvQZ14Be0jp7zH0+7xScoMy56h4HU6wHYA3jC8ofR3SZKaIcvr7hK+hfDwqoHohKCaLMpYPbsOgDbPo7/1udEKl1dXcQnhaJrj04qZEbUEhO5DcPsXP+tf5VURYoYYP/RHWjesqkKmRG17Nt9EAOsHJiecx0dHcRuD0GPXl1UyIyoJTYqEU5DRjM954ULF8LelET83qaFCpkRtcjZ2w0MCmNvSiK1FuHM+jW+mDGF7U2xUqVL4sip3ahTt5bCWRE1ydnb9fX1setALL38wRl/32C4ubJ9q8ewuCFSTu5Cw8b1Fc6KfK+//7p+3qh555Y5OZJfFlwC4Guv/EvqYUhvGBK5KgCIgcRiYZ26tbCFTiALnIvnr8Bh0EimIgIALPKcQ8VCzhw7kopRw9yYftAEgLXey6lYyJmrf16Dw+DRzM/53AV/ULGQM8ePpmKk03jm53z1+qVULOSM3L19zQZPKhZyJjlpH2ZPX8C0VkdHBwEh3lQs5IzcvX3NhqVULOTM7p37MWncTKa1giDAN8CLioX5QFbWp7O9e9hKLhaWL1/uBv7/kBMmVDAkcugACAXwi5SLDQwKIyRqM0qULKFuViRPPXn8FLZ9HP7XxDyprPtZYPzk0QpnRdR0/e+bGNjXEZ/+MSXve7hNHg07R1uFsyJqevrkGfpaDMH7d++Z1lPPG/7cvnUXQwYMZ37OR7g6wcnFTuGsiJrk7u2jxznDwXmwwlkRNZ0/ewmOg0fhO95U+TfuHtPpIIgzN67dwsC+TszPufNIexpaxpkL5y7DYdBI5ud8hvtk9OlvqXBW5HuJonjPzmZEs6dPnku6vlTpkgiJ8t0KQCPnz6XXvIgci/D111u/ysffC/bDBqmYDslr6e/T0dXEGn9evsq0vknTRjh0Yif1M+PIq5ev0cnYAndu32Nab9zBCLsOxEJfn3re8CIjPQNdTaxx5dJfTOvrNaiDI6nJdFjEkdev3qCTsQVu37rLtL5N21bYfSgBhQsXUjgzopZXL1+jc3tL5ntu1O537D6UQP3MOHLv7gN0MrbAi+cvmdZbWpsjMj6QvjXEEbl7e2ujlthzeBvt7Ry5f+8hzNr1Yn7Ou3Q3Q8LOMOo3/uNleq/bkj5t4pwKUi4WBAGR8YGw7NNzXjGh4n97hZy+kkxU1QuA5PeaHYcPoWJhAaPRaDDExoW5WEjDD/iTmZkFG2sH5mJh1WpVEB7rT8VCjuQ+56zFQsPihoiMC6RiIUdyn3PWD5QVK1VAWMwW+kDJEaXuORUL+ZH25i36WgxhLiLQ8AP+yH3OK1Qsj7AYf9rbOZL+Ph021g7Mz3nderUREulLxcJ84MrFP2/MnDpfUrEQANymuMLS2hzQiuXl/tlUMCQsqgHYCol/f5o0bYSVaxermxHJU6IoYtyoqTi4L4VpPfW84Y9Wq8UwO1ecTj3HtN7AoDDCYwNQvkI5hTMjapo20R0H9h5mWks9b/ij1Wox3H4sTp08y7ReX18fIVGbUeWXygpnRtSi1WrhPHQM896ur6+P0Gg/VK5SSeHMiFo+f9bAztYFN67dYlpPB0H8UWJvD47cjF+q0t7OC41Gg0H9nfHXlb+Z1hsaFkNEXABKliqpcGbke33I+Hi0X2/7ZlJ7iLdq3RzzF315r0v8Mm9CFioYku+lDyASgKRP/YbFDREa5YeiRYuomxXJU0sXrEJoUBTz+jnzp1HPG85MmzgHO7YlM6+nRvj8Wb7YC36bgpjX/zFnEvW84czMqfORGL+Tef3yNQvRvmNbBTMiaps+yR3bE3Yxr1+1bjENP+CIKIoY5TwBKQePMa0XBAFbtq6ngyDOzJgyT9bevnTlfHQ0badgRkRNoihi9PBJOHzgKNN6QRCwyd8LjX9tqHBm5HuJonjF2X6M8ZPHTyVdX7JUSQRHbv7XG/86AugNQ5Ln1gAwlnJh7tsl9RvWVTklkpdiIrdhyYJvtjv4ryytzTF99kQFMyJqW7/GFz4bApjXjxo7jBrhcyY+ZgcWzF3GvL5rj06YNXeKghkRtQVsDsEGr83M64c42GLkGCflEiKq2+C1GZvW+zOvt3O0xfBRDgpmRNS2cN5yRIfHM6+f4T4Zvfv0VDAjoraAzSHYuNaPef1gexu4jh+uYEZEbYs9ViIyNJZ5/eQ/xqGfTW8FMyIsRIgvN3htrpaUuFvyd8J9/NegZq3q/4gh/w1DajxBvsdAfHm7UBK3Ka5YumKeiumQvHb8aCp6d7dlnqxWv2FdHElNRvESxRXOjKhl9879sO3jyDxZra1xayQfjKfeVhw5efw0LLvZICvrE9P6evXrICV1F32NhSN7kw/CxtoBUr/u8p+at2yK/Ud3oEgRA4UzI2rZs+sAbKwdmPd2GmzDn9CgKIxynsC8vmuPTohPCqV+ZhyRu7c3a9EUB47R3s6TmMhtGGbnClEUmdZ37maKbbvC6Tn/8XKuXLp6vWObHo01GmlDjse4uWCF16L//O2XxXQq/beioaShJ1QwJFLVB3AGgKSGJW3atsKew9uoSFCA3Ll9D52MLfDq5Wum9YbFDXEkNRkNGtVTODOilovnr6C7qTU+fPjItL5S5Yo4dmYP9bbiyL27D2DWrhdevnjFtN7QsBgOn9yFRk0aKJwZUcvVP6+hS0crvH/3nml9hYrlcezMXuptxZGL56+gh1kfZGR8YFpfsVIFHDuzh3pVcuTYkVRY9WA/8KWDIP5cunAF3U3Zn/PyFcrh2Jm9qFqtisKZEbXIfbGjRs1qOHp6D8qWK6NwZuR7ffjw4VDrpmad7t97KOn6Fq1+w4FjSV87xMspKlQsLAjC104HaUoyUUwxAPGQWCwsX6EcTcsrYN68TkPfXkOYi4U6OjoICttExUKOPHn8FLZ9HJiLhYULF0JUQhAVCzmS9uYt+vQazFwsFAQBPgFrqVjIkadPnqGvxRDmYiE1wufP0yfPYNvHgbmIQINt+HPj2i0M7OvIXESg4Qf8+fKcOzI/53p6egiJ3EzFQo7cuX0Pg/s7Mz/nxYoVRUxiMBUL84cTw+3HmUktFhoaFkNg6Kb/9sa/bgaeybqpVDAkUngDaCLlQh0dHfgHb6AfJAuQrKxPsO3jiFs37zDHcPeYjp6W3RTMiqgpIz0DfS3s8PiRtAa7X7N6/VL83qaFglkRNWk0X6Zm3rx+mznGDPfJ6DuAhpzwIiPjA/pZDsWjh0+YY6zwWkiN8DmizN6+hAbbcOT1qzcYYGWPt2nvmNbTQRB/MtIzZO/ty1YvQEczSS3rST6Q+2LH61dvmNYLggDvLWvQpGkjhTMjDO5s8NrcfMe2ZMnfBF7vswL1GtT5vy6R1ceQCobkW1wBSO5oPXveVHTpbqZeNiRPiaKIsSOn4OTx08wxLK3NMW0We88ckrdycnLgZOeKPy9fZY4xauwwOLnYKZgVUZMoinB1mcw8NRP40ttqpvtkBbMiasrJyYHz0DG4fPFP5hhDHGwxwtVJuaSIqnJycjBs6BhcufQXcww7R1s4j7RXMCuipqysT7CxdsDtW3eZY9BBEF9ycnLgbD9W1t4+2N4Go8c5K5gVUVPucy7nxY7Jf4zDgIHWCmZFGGWcPXMB7jMWFpW6wGW0I2yH9PvWZVQwJKppgy9TkSUx69KRCkMFjIe7p6wpW/Ub1sWWreshCNQulRdTJ8xGctI+5vVtjVvDc9UCBTMialvisQoRITHM6+vVr4PgCB9qkM2R6ZPcsXP7Hub1rY1aYoPvSgUzImqbNnEOdu3Yy7y+TdtWWO9D95wXXw6CJuHUybPMMeggiD9y9/ZmLZpivc8KBTMiahJFEWNGTEbqiTPMMTp3M8W8hTMUzIqwev/u/QWHgSNrf/4sbchJk6aN4LnK45vX6QLl5eRFBUPy35QBEAWgsJSLq1arguAIX/rAWICEBEZixZK1zOuLlyiOyLhAmojMkTXLN2KzdxDz+kqVKyI02o/6l3IkJnIbli78Zr/j/8qwuCH1tuLMutU+8NkQwLy+QsXyCIvxp+m4HPFa4Q3fjYHM6ytWqoCwmC10zzkyd9ZiRIfHM6+ngyD+KLG3R2/bShOROTJ/zlJEhcUxr69RsxqCwjbRc54PiBB3j3By6yi1b2GxYkURGuUn9XmlNwyJ4nQAhAGoKeVifX19BIX7UJPUAuRoykm4uU5jXk9DTvizLS4Jc2ctZl5PQ074c/xoKkYNc4MoikzrBUGAj78X9bbiyO6d+zHnj4XM678MvPCjISccSU7aJ2tvpyEn/NnqH47VyzYwr6chJ/yRu7fr6ekhmIaccCUkMBIrl65jXk9DTvIPEbi8ynNdl6TE3ZLXrPVehvoN60qLr5X3hqGenMWkwPIAYC714qUr56Nd+zYqpkPy0rWrNzCwrxOkvg79NXPmT4O5RVcFsyJqOnPqPFwcxkGr1TLH8Nq4jIaccOTm9dsY2NeJeZoeAPwxZxL1tuLI+bOX4DBoJHJycphjLF+zEB1MaOAFL86eviD7nq9at5iGnHDk4L4UTBjzB/N6QRCwJXgDHQRx5PzZS7AfOELWc+65yoMGWHHk8IGjGD+a/cUOQRCwyd+LhpzkAyLElyeOnKq4cO4KyV/Pchw+BIPtbb7nj6E3DImiLADMknpxf1sruI4frmI6JC+9fvUGtn0c8e4t2zQ9AOjdpyemz56oYFZETffvPYRtH0dkZmYxxxg9zhkOzoMVzIqo6c3rNAywskfam7fMMSysemD2vKkKZkXU9OTxUwzq54QPHz4yx7BztMXIMU7KJUVUdf/eQ9hYO+Djx0zmGC6jHTF8lOS5d+QHu3b1BoYOHAmNhv3Ad6b7FPTu01PBrIiacvd2Oc/5YHsb+izHket/34SdrYus53zqTDf0t7VSMCvCKPv181cPHAaPqpidnS1pQaMmDbBy7Xd+a0CQ94YhTSIg/1QLwFl86V/4TfUb1sXRU7thWNxQ3axInsjMzIJF1wGyGmQ3aFQPKSd3Ud9CTqS/T0eXjlb468rfzDHatW+DXQfiqG8hJ7KyPsGym42syef1GtTBkdRklChZQsHMiFoy0jPQpaOVrMnnbdq2wu5DCdTDjhNK7O1G7X5H8sF4uueceP7sBcza9cKD+4+YY1hY9UBkfCB0dOh9Eh4osbc3b9kU+4/uoL6FnHj96g06GVvImnzepbsZEnaGUd/CfECEuNuqxyDzg/tSJF1frFhRHDm1Gw0b1//eP+eooU5lk6/8p8kAvtnInP5FILkMAMRAYrHQ0LAYwmP8qVhYQIiiiBGO42QVC0uVLonY7SFULOSERqPBwH7DZH2grFb9F0TEBVCxkBO5UzPlFAtLlCyBmG3BVCzkRHZ2NuxsR8j6QFmpckWEx9KQE15kZ2dj8IDhsvb2Kr9URkRcAN1zTnz8mIkBVvayioUNGtWDf/AGKhZyIicnR/beXrFSBcQkBlOxkBOZmVno33uorGJh3Xq1ERJJQ0rzAxE47DF7aQ+pxULgS9/C7y0WAoAOBJqSTBSxAUArqRd7bfSk/iYFyGKPlUiITWJer6Ojg8DQTahdp6ZySRFVTZvojpSDx5jXGxgURliMP8pXKKdgVkRNK5aslTU1U0dHBwEhG1GvQR0FsyJqmjl1PvbvOcS8Xl9fH8GRvjTMiCPTJ7nj0P4jzOsNDAojIi4AFSvJanlE8ogoihg7YjLOn73EHMOwuCHCY/zpwJcjs6Z5KLC30zAjXoiiiLEjp+DMqfPMMQwNiyEyPpCGGeUPd1IOHG25evlGyd/2dRnt+L19C/9FpB6GRAH2ACQ3rxg7YQTzX1iS/yTG74TnwtWyYixcOgfde3ZWKCOiNp8NAfDbFCQrhtfGZWjVurkyCRHV7diWjIXzlsuK4e4xHT0tuymUEVFbaFAUvNdtkRVjzYalNPCCI8EBEfDdGCgrxur1S2mAFUeWLliF6IgE5vU6OjoICtvE9NYK+TFCg6KwwWuzrBir1y+hAVYcWbl0HaLC4pjXC4IAn4C19LJP/pDx6OFTjcPgUSWkDipq2qwJPFd5yPkzS4uiyPx1MOphSJoBOAmgiJSL27RthT2Ht9FXEAuISxeuoJuJtaxG+H36WyI02g+CQNsJD44dSUXv7jaypmC7TXHF0hXzFMyKqOna1RswM7ZA+vt05hi9+/RERFwAPeecOHHsFCy72ciagj1q7DCsXr9UwayImo4fTYVlN3l7+xg3F6zwWqRgVkRNifE7MdR2BLRaLXOM+YtmYtqsCQpmRdR08vhpWHQdIGtvdxntiLXeyxTMiqgpKXE3Bvd3lvWcz5o7FbPn06C6fEDMydYc7tGpfyep7YFKliqJ42f3olbtGvL+ZEG3SjGh/NP/+F1JPQzpJ/+fW2l8GXJSW8rF5SuUw4lz++j19QLi+bMXMDEyx6OHT5hjNG3WBAeO7UCxYkUVzIyo5d7dBzAxMsfrV2+YY5h16YjE5Ajo6ekpmBlRy5vXaTAxMsfdO/eZY9AwI77cv/cQpm174uWLV8wx2hq3RvLBeDoc5MT9ew9hYmSOVy9fM8cw7mCEnftj6Z5z4vLFP9G1o5WsA1+rvr0QHutPB0GceHD/EUyMzGXv7bsOxFF/Uk4oceBLw4zylZ1/TJ5rIfUNYUEQEBazBdb9LGT/waIgNDcUKv5n7woaekL+TwKAAEgsFurq6iIgZCMVCwuIrKxPGNRvmKxiYekypRARF0DFQk5kpGdggJW9rGJhjZrVEBzhS8VCTmg0GgyxGS6rWFiqdEnEJAZTsZATGRkfYGPtIOsDZeUqlRAa7UeFI07k7u1yioXVqv+C8Fh/uuecePH8JWz7OMoqFjZoVA+bA9dSsZATSuztlSpXRGi0HxULOfHmdRpsrB1kFQvrNaiDLVvXU7EwfziTlLin28a1fpIXjJ88WpFi4f9gHnxCn/p+XnMA9JF68fxFM9G5m6mK6ZC8NGncDJxOPce8Xk9PD+Ex/vJfjyZ5QqvVwsnOFX//dZ05RpEiBgiPDUDZcpIGqZN8YPL4WTh6+ATz+txhRnXq1lIwK6IWrVYL56FjZE3HNTAojKiEIBpywgmtVothQ8fg6p/XmGMYGBRGeGwADbDixOfPGtgPHIGHDx4zx6CDIL5otVoMtx8rayIy7e18yT3wvXP7HnOM4iWKIzIuECVKllAuMcJIfH771r1fRjiNLySKoqQVrY1awmPxLCVzYB58QuXmn1NnAJIbkPXq3R2Tpo9VMR2Sl1Z5rkdwQISsGEtXzodJp/YKZUTUNmuaB5KT9jGvz22W3LxlUwWzImpat9oHAZtDZMVY5EnDjHgyf85S7Ny+R1YMGmbEF/eZi7Brx15ZMdZ6L0fL35splBFR26RxM3DsSCrzejoI4o+HuyeSEnfLikHDjPiixIEvDTPKNzSfsjT3HAaNrPL+3XtJC0qXKYXgyM2KvvWvI2NSMhUMfz7VAEQC0JVycZ26teAfvIG+slBA7E0+CA93T1kxBtvbYIybi0IZEbWFbY3G+jW+smJMnemGAQOtFcqIqO3A3sNwnyFvcIHtkH6YMHWMQhkRtcXH7MDqZRtkxXCbPBr2wwYplBFRW0RIDLxWeMuKMXHaGAx1GqhQRkRtXiu8EbQlTFYMOgjiS3zMDqzyXC8rxtgJI+A4fIhCGRG1rV/jK/vAd97CGTC36KpQRkQecd+UCbOMLp6/IunqL4c63qheo6qyWWjZv5JMVaCfiz6AQwAkvRpmYFAYB48noVkLequoILj+902YGVtA6unG1zRr0RQHju1AkSIGCmZG1JJ64gx6dekva5pel+5mSNgZBl1dSWcM5Ae7ef02TNv1wru375hjNG3WBAePJ6Fo0SIKZkbUcuHcZXQ3tcbHj5nMMWiYEV9OnTyLnp37ydrbO3U1wbZd4XTPObF/zyH0sxyKnJwc5hi2Q/ohMFRekZnknYvnr6CbiZWsvZ2GGfHlwN7D6Gc5FNnZ2cwxaJhR/iECh2IiEkyH2blKfklv5twpmDN/mhrJ+BXTrTTyP36XpiST/8UbgKvUi30D1tLJcwHx+tUbmBiZ497dB8wxKlaqgKOn9+CXqjT4hgdKTNOrV78OUlJ3oWSpkgpmRtSS9uYtzNr1wq2bd5hjlK9QDkdO7Vb8ZJOo4/GjpzAxMsezp8+ZY9SsVR1HTu2m/qScePTwCTq26YEXz18yx6hdpyaOnNqN0mVKKZgZUYsSk1KbtWiK/Ue300EQJ548fgoTo554+uQZc4waNavhyKndKFe+rIKZEbXcuHYLZsYWsg58f/2tMQ4c2wFDw2IKZkZYCMC163/frNSxbc9SGekZktaYdGqPpL3Rar2kkVhMp9J/zq+gKcnk3wzGdxQLR7g6UbGwgNBoNBg6cISsYqGBQWFExAVQsZATSkzTK16iOCLiAqhYyImcnBw424+RVSzU19dHSJQfFQs5kZmZhSEDnGUVCw2LGyJ621YqFnIi957LKRYaFjdEVEIQFQs5kfbmLWz7OMoqFlaoWB7R27ZSsZATmZlZGNzfWVax0NCwGKK3baViISfepr2DbR9HWcXCMmVLIyIugIqF+YAApH/48EE72Ga45GJhhYrlERjqreY3upi/kkwFw5/DrwAkz/D+vU0LLFu9QMV0SF6a4jYbRw4dlxVj4+ZV6ZFXYAAAIABJREFUMGr3u0IZETWJoogxLpNkTdPT1dVFUNgmNGrSQMHMiJqmTZyDvckHZcVYs2EpOpq2Uygjoqbc5/zs6QvMMXR0dBAQshFNmjZSMDOiFlEUMdp5As6ducgcI7cRfuNfGyqYGVGLRqOBna0Lbt+6yxzDwKAwIuMDUbVaFQUzI2pRbG8P9cavvzVWMDOilpycHAwb6oqbN24zx9DX10d4bABq16mpXGKElShCODVh7MzG167ekLRAT08PIVF+qFS5opp50dAT8l8VBxANQNJxQ+kypbA1wheFCxdSNyuSJzau9YO/b7CsGFNnumHQ0AEKZUTUtmDuMsRFb5cVY9nqBdQsmSPBARHw3RgoK8bEaWMwbMRQhTIialu6YBWiIxJkxVjkOQcWVj0UyoiobbHHSsRGJcqKsWTFPPS07KZQRkRt0ya6I+XgMVkx6MCXL8sWrZG9ty9YMpv2do5Mn+ROB74FirDd33dr1/DgaMkr5i2cgQ4mbVXMCYCMgiH1MCzYBAAxAPpLuVhHRwfxSaHoZk7T0wqCg/tS0NfCTlbj3O49OyN2ewgNvOBEQmwS7AeOgCiKzDEcnAdj05Y1CmZF1HT8aCosu9ng82cNc4xu5p0Rt4Oec15sT9gFOxsXaLVa5hhDHGzhF7ROwayImhLjd8LOxkXW3m7naIvNgXTPeeGzIQBT3GbJijF1phs8FsuLQfKOEnv7YHsbbNkqb6oyyTshgZEYPXyirBgTp43B4mVzFcqIyCEApy9fvvpbp3a9DDIzsyStMbfoitjtIXkypKaokFlEEGr9MzEaekIwHcAyqRe7e0zHDPfJKqZD8srNG7dh1q4X3qax98Jo2Lg+Dp/YieIliiuYGVGLEtP02nc0QtI+mqbHi/v3HsLEyByvXr5mjtGgUT0cPrETJUqWUDAzopbLF/9E145W+PDhI3OMtsatsetAHH2TgBOXLlxBNxNrWfe8Xfs22Lk/lu45J44dSUXv7vIOgnr06oKYxGA6COLElUt/oUuH3rS3/0ROHDsFi64D6MC3wBAev3v/XmtqZF7t5nVpXy+vVv0XnDi3H2XKllY5ty8EIad6UeGXh//4LSoY/uTMAOwDoCfl4s7dTLFtVzhtOAVA+vt0mBlbQGrfhK8pW64MUlKTUat2DQUzI2p59vQ5TIzM8fjRU+YYNWtVR0pqMjXI5kRGegY6tbfE1T+vMccoU7Y0Dp/chTp1aymYGVHLi+cvYWJkjocPHjPHqF6jKlJSk1GhInPva5KHnj97ARMjczx6+IQ5Ro2a1ZCSmozyFcopmBlRy727D2BiZI7Xr94wx6ADX768fvUGpm174u6d+8wxaG/nCx34FjgaaHHWbqBLu21xSZIW6OvrY8/hhLxtGSFoWxUTqpz/x+/QlOSfWCUA4ZBYLKxeoyqCwjZRsbAAyMnJgeOQ0bKKhfr6+giL8adiISeysj5hUL9hsoqFhsUNEZMYTMVCTmi1WgwbOkZWsVBfXx9h0VuoWMiJz581sB84Qlax0NCwGGISg+kDJSdy93Y5xcLcvZ2KhXzISM/AACt7WcXCsuXKIHZ7CBULOaHRaGBnM1xWsTB3IjLt7XzISM+AjbWDrGJhmbKlEZMYTMXC/ELQ2b3Oy0dysRAAPFd55Hl/WRF6TH0MJRWUCFf08GXISWUpFxsYFEZ4bADKliujblYkT8yYMg97dh2QFcNroyc1zuWEKIpwdZmEM6fOf/vi/4KmZvLHfeYi7NqxV1aM1euXwKRTe4UyImqbNG4Gjh1JZV6vo6MD/5CNNDWTI5PGzcDp1HPM62kKNl+0Wi2c7Fzx91/XmWPQgS9/Jo2biaMpJ5nXC4IA7y1r0LRZEwWzImrJPfD968rfzDHowDd/ESEeOJt6xmLerMWS1/S3tcLocc4qZvXfiEynCvSGYcGzAkBHqRevWrcELVr9pmI6JK+EBkXBe90WWTEmTR8LJxc7hTIialu+2AvR4fGyYixdOZ+mZnIkIiQGXiu8ZcUYP2kUnEfaK5QRUZvXCm8EbQmTFWP+opmwtDZXKCOitlWe6xEcECErxsKlNAWbJ7OmeSA5aZ+sGHTgy5e1K70R6BcqK8b8RTPR39ZKoYyI2ubOWkwHvgWICPHvt6/ftnAcPFpHai/KuvVqY+Pmb34LWC1MbxhSD8OCpQ+AeEi8r4OGDoB/8AZ1MyJ54sSxU7DsZoNPnz4zx6DGuXzZsS0ZQwYMlzVNb6jTQPgGrFUwK6KmUyfPomfnfrKe8649OiFuRwj09OgLBjzYv+cQ+lkORU5ODnMMmprJl73JBzHAyl7WPacp2HwJ2xqNkcPcZMWYNH0sFnm6K5QRUZsSe3s/m94IjtycJ9NViXwRITFwcRwvK8b4SaPgucpDoYyIPEKaNkf7qF9vu6b7dh+UtMLAoDAOHk9CsxZNVc7t6wRRWFZUt+KMf/wWDT35ydQHcAaApGYGv/7WGIdO7ETRokXUzYqo7v69hzBt2xMvX7xijkGNc/ly7eoNmBlbIP19OnMM4w5GSNoXQ9P0OPH0yTOYGPXEk8fsvSrrN6yLwyd2omSpkgpmRtRy49otmLbrhffv3jPHaPl7M+xNSUSRIgYKZkbUcv3vmzAztpB1z2lSKl9ST5xBry796cD3J3Lj2i2YGVvg3dt3zDFatPoNe1MS6XMcJ86fvYTuptbIzMxijkEHvvmKFhD3LVvk1WPB3GWSF/n4e8F+2CAV0/oGEYHFdCv987vQNPTkJ2IIIAESi4WlSpdERFwA/SNTAGRkfICNtYOsYmGZsqURuz2EioWcePM6DQOs7GUVC2vUrIbwWH/6QMmJzMwsDOzrJKtYWLpMKcRuD6FiISfS3rzFACt7WYWjylUqISohiIqFnMjd2+Xc8+o1qiIiLoD2dk48uP8Ig/oNk1UsbNCoHoIjfKhYyIm0N29hY+0gq1hYuUolRG/bSp/jOPH0yTMM7Oskq1hYv2FdBEf4ULEw/0g8evhkj8UeKyUvGGjX/8cWCwFAAFMPQ/pbVzB4A5DUyVwQBPj4e6F2nZrqZkRUp9VqMdx+rOzGueEx/vT3gRMajQZDBjjLm6ZHUzO5IooiRjtPwLkzF5ljUINsvmg0GtjZuuD2rbvMMYoUMUD0tq2o8ouk+WfkB8u953du32OOQVOw+UIHvj+f7OxsDB04Ardu3mGOUaSIAaISgmhv5wQd+BZE4qnnz16ZO9m5Sm4p0PjXhtjgK724qCKmHob0hiH/3ABI7l4/bdYE9O7TU8V0SF6ZP2cpkhJ3y4qxev0SdDQzVigjoja50/R0dHQQGOpNUzM5sthjJWKjEmXFWLl2EUw7d1AoI6K2aRPdkXLwGPN6QRDgG7gOLX9vpmBWRE1T3GbjyKHjzOtpCjZfRFHEGJdJ+PPyVeYYdODLn6kT5uDwgaPM6wVBgE/AWrRq3VzBrIhaRFGE6/CJdOBbsDzMydZWGu4wtsizp88lLTA0LIbQKL/88kYwFQx/Qu3wZSqyJKadO2DO/GkqpkPySnzMDqxeJm9gjdsUV5qUypF1q31kT9NbvMwdvXp3VygjorbE+J3wXLhaVowxbi5wGe2oUEZEbT4bAuC3KUhWjLkL/qCpmRzZuNYP/r7BsmLQFGy+LJi7DHHR22XFoANfvmz1D5e9t7t7TMeAgdbKJERUt8RjFWIit8mKQQe++UoWgAcecz1rHNp/RPKijX6r0aBRPfWy+j40JfknUxHAOQC/SLm4arUqOH52H8qVL6tuVkR1F85dRndTa3z8mMkco2uPTohPCqWeN5w4sPcw+lkORXZ2NnMMmprJl0sXrqCbiTU+fPjIHKNzN1Mk7AyjnjecOHYkFb272+DzZw1zDJqayZeD+1LQ18JO1t7e39YKWyN86Z5zIiE2CfYDR0AUReYYblNcsXTFPAWzImo6fjQVlt3k7e19B1giJMqPnnNOJMbvhJ2Ni6znfIybC1Z4LVIwKyKLgMTkHfusbawdJN/X0eOcsWrdEpUT+z5FBW0xQaiS++GCpiQXYHoA9gMwlXKxvr4+kg/GoV37NupmRVT37OlzdGxjTpNSfyI3r9+Gabteshpk09RMvjx/9gImRuZ49PAJc4x6Deog5eQues45ce/uA5gYmeP1qzfMMWhqJl9u3rgNs3a98DaNfW+nKdh8uXj+CrqZWNGB709Eib29ecum2HdkO+3tnLh88U907WhFB74FiAhx16P7j3q0a9VNN+3NW0lrWrVujn1Htue7z146gliriFD53v/8kqYkF2DLIbFYCADL1yykYmEBQI1zfz5v095hgJW9rGJh9RpVERkfmO/+wSJfl5X1CYP6DZNVLCxVuiQ95xzJSM/AACt7WR8oaWomX9Lfp2NQv2GyioU0BZsvz54+h20fB1nFwtxJqVQs5ENGegZsrB1k7e2VKldE9LZg2ts58fzZC9hYO8gqFtZrUAehUZupWJhPiBCvfsr81HZQf2fJxcJSpUsiOHJzvvzsJTJ8LZkKhvzpC2Ci1IttB/fFyDFO6mVD8kRug+yzpy8wx8htkE2Nc/mQnZ0NO1sXWdP0cqdm0kRkfkwePxOnU88xr9fT00NY9BbUrVdbwayIWrRaLZzsXPH3X9eZY9DUTL7k5OTAcchoXLt6gzkGTcHmS+5B0ONHdOD7s8jd26/+eY05Ru7e/ktVes55oMSBLz3n+c4bAUL2pPEzy1w8f0XSAkEQ4OPvhZq1qqucGhsRKP+9a6hgyJfGAIIh8avkjX9tiA2bv/mWKeGA58LViI5IkBVj1brFMOnUXqGMiNqmT3KXNU2PpmbyZ5Xnemz1D5cVY4XXIph16ahQRkRts6Z5IDlpH/N6QRCwyd+LpmZyZMaUediz6wDzepqCzRdRFOHqMglnTp1njkEHvvyZ/cdC2Xu795Y1+L1NCwWzImpS4sA3NMqPDnzzD60I8XRIYORvwQERkhdNnDYGvfv0VDEteegNw4LNEEDM//zfb19c3BChUX4oVqyoulkR1W1P2IUlC+QVfsdOGIHhoxwUyoioLTggAr4bA2XF8Fg8i6ZmcmRv8kF4uHvKijFq7DB6o5wjYVujsX6Nr6wYs+dNhc2gPgplRNQWGhQF73VbZMWgKdh8Wb7YC9Hh8bJi0IEvX8KDo7Fu1SZZMWbNnQLbwX0VyoiobfWyDXTgW9AIQvxfl/82nzx+puQlHU3bYf4i6df/IN9dMKShJ3wQAEQDGCDpYkFAaLQf+vS3VDcrojolGud26W6G+KRQ6oXBCSWm6Q22t8GWresVzIqo6frfN2FmbIH3794zx+hg0hY79sagUCF9BTMjakk9cQa9uvTHp0+fmWP06W+J0GiamsmLE8dOwbKbjax7TlOw+bJjWzKGDBgOrVbLHGPshBFYvmahglkRNdHe/vPZt/sg+ve2R05ODnOMUWOHYfX6pQpmReQQIRx5m/a2tUmbHkXu3L4naU2FiuVx4tw+VK5SSd3kZBJEcVVR3cpT/+eXNCW5APkDgORXT6bNmsBDdZt8w4vnL2FiZI6HDx4zx6BJqXy5f+8hTIzM8erla+YYRu1+R/LB+HzZaJf8b29ep8GsXS/cvnWXOUat2jWQkpqMsuXKKJgZUcuD+49gYmSOly9eMcegqZl8uX/vIUzb9pR1z2kKNl+uXb0BM2MLpL9PZ45BB758efjgMUyMzPHi+UvmGM1aNMW+I4n0DTFO0IFvgfQgR9SK9jYjaiTG75S0QE9PDzv3x6KDSVuVU1OAKAYX063s+D+/oinJBUQnAIukXmzauQPcPaarmA7JCxqNBvYDR8gqFlLjXL7kTkqVUyysXKUSwmK2ULGQExqNBna2LrKKhcVLFEdMYjAVCzmRkfEBNtYOsgpHNDWTL0rcc5qCzZc3r9MwwMpeVrGwXoM6CIn0pWIhJzIzszBkgLOsYmHFShUQvW0rFQs5kfbmLWysHWQVC2vVroHw2AAqFuYfWSLEO2uXe0suFgLAgiWz+CgWAoBAPQwLmsoAwgBI+mmharUqCI7wha6urrpZEdVNHDsDx46kMq+nxrl80Wq1GDZ0jOxpetHbtub7V+HJ/zfFbTaOHDrOvF5XVxdbw33QqEkDBbMiasmddv/n5avMMQwMCtPUTI5otVoMtx+Lv678zRyDpmDzRaPRYMgAZ9y9c585Bh348kUURYwa5obzZy8xx8jd26tWq6JgZkQtGo0GQ2yG04FvAaMVsPtYSqrZ9/QU79W7O9ymuKqYldJ0aEpyAaKPL0NOJP2EWLhwIYTHBqBc+bLqZkVU57XCG0FbwmTFWLmWGufyZM6MRdi1Yy/zepqayR/vdVvg7xssK8byNQvRo1cXhTIialswdxniorczrxcEAZtoaiZX5s9ZiqTE3czraQo2fyaNm4mjKSeZ19OBL38WzluuyN7e2qilglkRNU2dMIcOfAue7a+eveg9zM4V2dnZkhbUqVsL/sEbOOs3KtIbhgXIWgCSR6KtXLuYfqAsAPbvOYS5sxbLijF6nDNGuDopkxBRXURIDNau9JYVY97CGTQ1kyMH96Vg5tT5smI4OA/G6HHOyiREVJcQm4QVS9bKijHDfTJsh/RTKCOitviYHVi9bIOsGDQFmy/rVvsg0C9UVgw68OXLtrgkLF/sJSvGH3Mm0d7OEe91W7DFZ6usGHTgm98IF7Ozs9vbDxyp+/TJM0krDAwKIzhyM0qULKFyboqjKckFhB0AyT9xDBo6AP7B8n4oJT/ejWu3YNqul6xeGJ27mSJhZxj1vOHEqZNn0bNzP5qa+RO5eeM2zNr1wtu0d8wx2nc0QtK+WOp5w4mL56+gm4kVPn7MZI5h3c8CodF+0NGhc14eXDh3Gd1NrWXdc5qUypcDew+jn+VQyW+mfM3occ5YtW6JglkRNV26cAVdO8rb26369kJYzBba2zlxaP8R9Ok1RNZz7uA8GJu2rFEwKyKP+AYQHs2avuC373mBw8ffC/bDBqmYl3qyBP2SZYWy70FTkrn1G4CTACR1vG3arAkOHk+iRticS3vzFqZte8rqhVGvQR0cPrELpUpTzxsePH3yDB3bmEPqSdbX0NRMvqS/T4eZsQWuXb3BHKNmrepISU2m9hOcePb0OUyMzPH40VPmGDQ1ky/Pnj5HxzbmePKY/Z7TFGy+3Lx+G6bteuHdW/aDIDrw5cvzZy/QsU0PWXv7b81/xf6j22lv58TdO/dh2rYnXr96wxyDDnzzHa0IYU/yjj09bfs4QhRFSYucXOywcfM362z5lq6gU89AqHALNCWZS6UAxENisbBU6ZKIiAugHyg5p9Sk1Mi4QCoWciIzMwu2fRxlFQtpaiZfcnJy4GTnKqtYaFjcEDGJwVQs5ERW1icM6jdM1gdKmprJl8zMLAzs6ySrWEhTsPnyNu0dBljZyyoWfpmIvJmKhZxQam+PSQymvZ0T6e/TYWPtIKtYWLNWdUTEBVKxMB8RBcTcuXWn53CHcZKLhU2bNcHKtfLah/1oWojfNfiECob5hwAgAEAdKRfr6OggMHQTatWuoW5WRHXTJroj5eAx5vW5jXMbNq6vYFZELaIoYrTzBFnT9GhqJn9mTp2P3Tv3M6/X1dVFUNgmNP61oYJZEbWIoghXl0k4c+o8cwwDg8KIjA+kqZmcyJ2Cffb0BeYYufecpmDzITs7G3a2Lrh18w5zDDrw5YsoihgzYjJOp55jjkF7O19yD3z//us6c4zcA1+aiJx/iMDhT5mfejsMGim5HVjJUl9e1ipSxEDl7NQlfufgEyoY5h/uAPpKvXjW3Cno3rOziumQvOC7MRB+m4JkxVjhtYga53JkscdKxEYlMq+nqZn8CQ2Kwsa1frJiLF05Hz0tuymUEVHbiiVrER0ez7xeEAR4+61Gm7atFMyKqMlz4WpERyQwr6dJqfyZPskdhw8cZV5PB778Wbl0HaLC4pjXC4KAjZtX0d7OkVnTPOjAt+C5LQA1Jo79o+jF81ckLRAEAT7+awrKy1r0hiGHugKYK/Vic4uu+GPOJBXTIXnh2JFUzJgi+bZ/lePwIRg1dphCGRG1JcbvhOfC1bJizJk/jaZmcuTk8dNwc50mK8ZQp4EYO2GEQhkRte3YloyF85bLijFt1gQMtOuvUEZEbdsTdmHJAnn9jGgKNl+CAyLguzFQVgw68OXL3uSDsvf2qTPdMGjoAIUyImoLDYrCBq/NsmLQgW++80EE7gf6hdYKCYyUvGjKjPGw6ttLxbTy1He9YUhDT3686gDOASgn6eIaVXH87D6UKVta3ayIqu7dfQATI3NZvTA6mLTFjr0x1AuDE5cuXEE3E2t8+PCROUbfAZYIiaKpmbx4cP8RTIzM8fLFK+YYxh2MkLQvBoULF1IwM6KWa1dvwMzYAunv05lj0NRMvly++Ce6drSStbfTFGy+HD+aCstuNvj8WcMcw3H4EHj7yTtAJHnn2tUb6NTeUvJXF7+md5+eCI/1p+ecEyePn4ZF1wH49Okzcwz7YYPg4++lYFZENkGIv3Lxz36djC2QmZklaUlHM2Mk7Y0uMH1mRRFehrqVJoGmJHPBAMBRAL9LutigMA4cS0Lzlk3VzYqoKiM9A2bGFrJ6YdSsVR1HTu2mXhiceP7sBUyMzPHo4RPmGDQ1ky8ZGR/QpUNv/Hn5KnOMGjWr4cip3TTkhBNvXqfBxMgcd+/cZ47RtFkTHDi2gxrhc+LF85cwMTLHwwePmWPQpFS+3L/3ECZG5nj18jVzDDrw5cub12kwbdsTd27fY47RsHF9HD6xE8VLFFcuMaIapQ58d+6nicj5TMK7t++t2v/eTVfqz2oVK1XAiXP7UKlyRZVTyzuCiPCiupXsQFOSubABEouFAOC1cRkVCzmn1WplN84tXqI4YreHULGQE7nT9OQUC2lqJl+0Wi2G24+VVSykich80Wg0GGIzXFaxsELF8jQ1kyMajQYOg0bKKhbSpFS+ZKRnYICVvaxiYc1a1REeG0BFBE7k7u1yioVly5VB7PYQKhZyIiPjA2ysHWQVC2vUrIaIOHrO8xfhPCB2HD18ouRioZ6eHkKiNheoYiEAiML39TAsGO9V8mkkgOGSLx7jBPthg1RMh+SF2dMXIDlpH/P63Ma5jZo0UDAroqZJ42bInqYXlRBEUzM5Mn/OUiQl7mZer6Ojg8BQbzRp2kjBrIiaJo+fhaOHTzCvL1RIHyFRfqhW/RcFsyJqmjh2Bo6mnGReT5NS+aLVajFs6Bhc/fMacww68OWPEnt7WIx/QRmUUODRgW+B9UIEdFctXV9ue8IuyYsWes5B+45tVUzrh6EpyRxoDkByQ4PWRi3huWqBiumQvBC2NRrrVvvIiuG5ygPmFl0VyoiobZXnegQHRDCvz52I/HubFgpmRdQUH7MDq5dtkBVj8TJ39OrdXaGMiNrWrfZBwOYQWTG8Ni5DB5MC+UNpgeS1whtBW8KY19MUbP64z1yEXTv2Mq+nA1/+bPDaLHtvX7PBEx1N2ymUEVGbh7snHfgWPNmAePrY4ePNvmdokYVVD4yfNErFtH4oGnqSz5UBcBZALSkXl69QDsfP7qO3iziXeuIMenXpT41zfyJ7kw9igJU9cnJymGPMmjsVs+dPVTAroqYL5y6ju6k1Pn7MZI5h52iLzYHrFMyKqOnA3sPoZzkU2dnZzDGmzBiPBUtmK5gVUdP+PYfQz3KorL19+uyJmLdwhoJZETVFhMTAxXG8rBgrvBZhjJuLQhkRtR3cl4K+Fnay9vZJ08dikae7glkRNcXH7IDDoJEQRZE5xtKV8+E2ebSCWRG5tAIiXj59Mdi4VTc8e/pc0pq69Wrj6OndKFGyhMrZ/TDZRYWKhQRBmAQaepLv6ADYCcBcysW6urpI2BmGLt3NVE2KqOvB/UcwbdsTL56/ZI5BjXP5cv3vmzAztpA1Tc+6nwXCYrbQRGROPHv6HB3bmOPJ46fMMdq1b4Od+2NpIjInbl6/DdN2vfDu7TvmGN17dkbs9hDo6uoqmBlRy41rt2BmbCHrntOkVL6cOnkWPTv3owPfnwjt7T+fi+evoJuJFR34FjACcOhzdraRRZf+RY8fPSVpjYFBYRw8noRmLQr23AiN8KlMKaHGMNDQk3xnISQWCwHAY/EsKhZyLjMzC0MGOMsqFlLjXL68eZ2GAVb2soqFzVo0hd/W9VQs5ERmZhYG9nWSVSysXqMqIuICqFjIibdp7zDAyl7WB8qGjetja7gPfaDkRNqbt7LvedNmTbAleAMVCznx9Mkz2Nm4yCoWGncwwrpNKxTMiqjpbdo72Fg70N7+E3n29Dls+zjIKha2a98G631WKpgVkUsL8bYWqDl3xiLJxUIAWOu9vMAXCwFAB3qSv5ZMP7Hknd4AZkq92NLaHBOnjVExHaI2URQxapgbLpy7zBzDsLghYreHUONcTmg0GtjZusiaplexUgVEb9tKUzM5IYoixrhMwtnTF5hjGBoWQ0xiMMpXKKdgZkQtOTk5GDbUFbdu3mGOUaZsacQkBhfkr7sUKLl7++1bd5lj5E7BNjQspmBmRC25B0FPnzxjjkEHvnzJycmBs/0Y3LxxmzkG7e18yX3OHz+iA98CJkNXEO7tTNxda/0aX8mLho9ywFCngSqmlX/oQ6CCYT5TF0AwJH4FvF79OvALWkdvF3FuwdxliIvezrxeR0cHQWGb0PjXhgpmRdQ0xW02jhw6zryepmbyx3PhakRHJDCv19HRQUCoN379rbGCWRE1TZs4B3uTDzKv19fXR3hsAGrXqalcUkRV0ya6I+XgMeb1NAWbL6IoYrTzBJw7c5E5Bh348uePyXOxZ9cB5vX6+voIj/GnvZ0TdOBbcAkCdt28cafLCCc3yT0pmzZrgmWrf54hsyJ0y0u9lgqG6isCIBpAKSkXGxoWQ0RcAJ1McS4hNgkrlqyVFWPJinnoadlNoYyI2jau9YO/bzDzepqayZ/tCbuwZMGvT3ZVAAAgAElEQVQ3W3/8nxYsmQ0Lqx4KZUTUFhwQAd+NgbJirNmwlKZmcsR3YyD8NgXJikFTsPmy2GMlYqMSmdfTgS9/QgIjsWm9v6wYq9cvQUczY4UyImpbtmgNHfgWQAKEmI8fs/o7DBoluT1UqdIlEREXgCJFDFTOLv8Qv2NSMhUM1bcJQAupF3tvWYNGTRqomA5R28XzVzDSabysKVt2jrYFeZR7gXNwXwpmTfOQFWP67IkYaNdfoYyI2q5c+gsuDuOg1WqZYwy2t8Gk6WMVzIqo6fjRVEwYM11WjInTxmDYiKEKZUTUduxIKmZMmSsrxpQZ4+E4fIhCGRG1JcbvhOfC1bJi0IEvX04cOwU312myYrhNcYXzSHuFMiJq256wC4s95PUcpAPf/EeEeA5Ap4lj/9C9dOGKpDWCIMDH3wu1atdQN7n8R3LBkL7zqi43AJJfM3ObPBpLV85XLxuiuqdPnqFjG3NZPW/adzRC0j6aiMyLm9dvw8y4F96msTfItu5ngdBoP2qEz4nnz17AtG1PPHzwmDlGW+PW2HUgjnrecOLO7XswbdsTb16nMcfoadkNUQlB1AifE7du3oFZu15Ie/OWOYaFVQ9ExgfS3s6JC+cuo7uptazhBw7Og7FpyxoFsyJqunvnPkzb9sTrV2+YY/To1QUxicG0t3Pi8sU/0bWjFT58+MgcY4iDLfyCaCJyPvMcgvDU32drczdX6Ye702dPxLyFM1RMK58SsaGYbqW7kDAlmQqG6mkLIAWApE+DbY1bI/lgPBWJOJaZmQXzTn1l9cKoUbMaUlKTqRcGJ96mvYNZu16yGmT/1vxX7D+6nYaccCIr6xN6demPUyfPMseoXqMqUlKTUaGi5PYh5AfKSM9Ap/aWuPrnNeYYDRrVw+ETO6ndCCfS36ejU3tL/P3XdeYYDRvXx6HjSXTPOfHs6XOYtu2JRw+fMMdo174Ndu6PpYMgTtDe/vOhA98CSyMISL588S+rTsYWyMzMkrTIpFN7JO2N/imL/aKIKEPdSqchoWBIR57qqAggFhKLhRUrVUBotB8VCzmmSOPc4obUOJcj2dnZsLN1kVUsrFCxPE1E5ogoihg7coqsYqGhYTFEb9tKxUJO5OTkwMnOVdYHSpqayZecnBw4Dhktq1hI95wvmZlZGNRvmKxiYe5EZCoi8EGJvb10mVL0nHMkK+sTBvUbJqtYSBOR8ydRECPT3ryzGtzfWXKxsGKlCggK2/RTFgsBQEegHoY/kh6AKACSRuHp6+sjJGozKleppG5WRFWLPVbKb5wbshFNmjZSMCuipqkT5uDwgaPM63MnItPUTH4sX+yFyNBY5vWCIMB7yxo0bdZEwayImmZMmYfkpH3M6/X19REWvQV16tZSMCuipmkT58iflEpTsLmRe+B75tR55hh04MufmVPny97bw2P8aW/nhCiKGDNiMk6nnmOOQQe++ZMIcTe06D96+ETcvXNf0hp9fX2ERvuhYiXJNbMCRwRoSvIP5AnAVOrFi5fPRfuONDmPZwmxSbIbZC9cOoca53LEe90W2VMzV69fCqN2vyuTEFFdYvxOLJq/QlaM+Ytmor+tlUIZEbUFB0TAe90WWTFWr18Ck07tFcqIqG2rfzhNwf7JLPFYRQe+P5nggAhsXOsnK8aqdYtpb+fIskVrEBUWx7yeDnzzJwHCTUBosHyxV9Ed25Ilr1u8fC6MOxipmBkXaOjJD9IXQBwk/u9qM6gPgsJ91M2IqEqJBtnUOJcvB/YeRj/LocjOzmaOMXWmGzwWz1IwK6KmSxeuoJuJtawG2f1seiM4cjMEgf7Z5cGxI6no3d0Gnz9rmGOMnzQKnqvkTU8neefgvhT0tbCTtbdPmDoGS5bLm6pM8k5CbBLsB46AKIrMMRYvm4uJ08YomBVR0/GjqbDsJm9vHzdxJJatXqBgVkRNifE7MdR2BLRaLXMMj8WzMHWmm4JZEbkEIF0LnEo5cLSrlfkg5OTkSFrXz6Y3QqLkHRgUEDklC1WdkZ2d/c23IeiTi3IaAjgFQFIji8a/NsThk7uodxnHnj55BhOjnnjy+ClzDGqcy5cb127BzNgC796yT0Tu3rMzYreH/LQ9M3jz/NkLmBiZy+pt1aLVb9ibkoiiRYsomBlRixJTM7v26IS4HSHQ09NTMDOiFiWm3Xcz74y4HbS38+Li+SvoZmJFB74/kXt3H8DEyFzW3t6luxnik0Jpb+cEHfgWWKIgIOrhgyeD2v/eDa9evpa0qG692jh2Zg+Klyiucnp8qFXlt3kvnr345sk2fSVZGcUBxENisdCwuCFCo/yoWMixzMwsDOzrJKtYSI1z+ZL25i1srB1kFQsbNq6P4Ahf+kDJiaysTxjY10lWsbBylUqI3raVioWcSH+fDhtrB1kfKOs3rIvgCB/6QMmJ3L1dTrGwQaN6CI7wob2dE0+fPINtHwdZxcK2xq2xwXelglkRNaW/T8cAK3tZe3u9BnUQEulLezsnnj19Dts+jrKKhS1a/QbfwHVULMxnBBFRnz9n2zgNGS25WFisWFFExgdSsfAfypcrayjlOtrx5BMABAGQ1LxEEAT4BnihQaN6qiZF1COKIkY7T8C5MxeZYxgaFkNMYjA1zuWERqOBna0Lbt28wxyjbLkyiN0eQv9QcUIURbjKbIRfpIgBohKCUOWXygpmRtSixHTc0mVKIXZ7CEqWKqlgZkQtGo0GQweOkDXtniYi8yX3wPfxIzrw/VnQ3v7zUWLyOR345k8ChBOigK5TJ8zWPXn8tOR1azZ4olGTBipmxp+SpUoUk3IdvWEo31wA/aRePHWmG/r0t1QxHaI2D3dPxEYlMq/X0dGBf8hG/PpbYwWzImqa4jYbKQePMa/X19dHWIw/atWuoWBWRE1LF6xCdHg883pBELAleANatW6uYFZETVMnzJY9HZcmIvNl2kR3WdPu6Z7zhQ58f06KTD6P8UfderUVzIqoRYnJ53Tgm289E4GiUWGx5bb4bJW8aOQYJ9g52qqYFp9KlCou6S0WKhjK0wtfCoaSdOpqAneP6SqmQ9QWGRqLlUvl9auZt3AGLK3NFcqIqG39Gl/4+wbLirFx8yqamsmRbXFJWLJglawYc+ZPo8MhjvhuDMRm7yBZMVatWwzTzh2USYioTolp914bPWlSKkcWzF1GB74/GSUmn6/wWkjPOUfkTj6nA998SwPg9J+X/2o+btRUyYtatW4Oz1U0pOhrDIsZ0huGKqsJIBgS/zesVv0XBIVtov42HDt/9hLGjZoqa5peP5vemDJjvIJZETXt33MIs6fL+0dm4rQxdKrFkYvnr2CE43hZz3mf/pb4Y84kBbMiajq4LwXTJ7nLiuE6fjiGj3JQKCOitgN7D2Pm1PmyYoybOBJOLnbKJERUFx+zAyuWrJUVgw58+XJwXwrcXOW9qDF6nDNGuDopkxBRXUJsEpYulHfgO3veVDrwzY8EMext2jurwf2dJfefLVO2NEKjt1D7iP+iaBEDST0MqYMnmyIAjgFoKeViA4PC2HdkO1r+3kzdrIhqHtx/BNO2PfHi+UvmGDQplS/X/74JM2MLvH/3njlG1x6dEJ8USgcFnHj29DlMjMxl9bZq1qIp9h/dTs85J5SYjtupqwm27QqnRvicUGLafedupkjYGUb3nBPnz15CD7M+soac0KRUviixt3cwaYsde2NQqJC+gpkRtSgx+bxPf0uERvvRc57P6AC7ckTRbHB/56I7tiVLW6Ojg/ikUHQz76xydvyaMm7mCR/vQONvXUdvGLLZBInFQuBLk00qFvIrI+MDbPs4yioWVqpckRrncuTN6zTYWDvIKhbWb1gXIZE0EZkXSjTCr1ipAmISg+k550Tam7cYYGUv6wNlrdo1sDWcJiLzIveeyykW1mtQB6FRm+mec+Lpk2cY2NdJVhGhecumNCmVI0pMPq9ZqzrCYwOoWMgJJSafN2vRFJuD6DnPh66KQEPPhaslFwuBL62BqFj4fytcVNobhlQw/H7/j737Do+qWt8G/OxJJgmQ0Lv0XgRBkF6kSm8hoYQECL1XpYTee+8lQAKENCB0aVJEioggiAgqVQGVHgQSMvP9wcnvOwXNzqy1SFby3Nd1zrmOrv3mxXE2zLv2rGcogM5mF/fs2wV+/h0UtkMq2Ww2dPPth4sXvne4Bg/O1UtsbCw6enXDzz9dd7hGfJoeUzP1YLfb0afbYJw9863DNdzcXLFl6zq8l4fvcx3Ep+OKJJ97pPdAeFQQsmTNLLEzUkXGvT1jpgwIjwpiUqomoqOfo3VTH/z2q+MbQW82fLkRpAsZyefuHu6I2BHMe7smZG34hm3fgHTp0krsjCR4DMO4c/jgsULTJ88zfVHjZg3w6ehBCttKGVxdXDkwVKA6gBlmF1eqUoGHbGpu3Oip2BW1z+HrDcPAsjXzUbFSeYldkUpD+o/C8SNfOXw9UzP1M3n8LIRv2e7w9YZhYNnqeahUpYLErkil4YPGCKXjOjk5Yf2m5ShZurjErkilYQMDcOyLEw5f7+TkhHUbl6NoscISuyJVZGz4urm5InTbem4EaUQ0+dxisfDerhEZyefxG7558uaW2BlJYLcb2Hv75p2GnTv2RlxcnKmL8hfIi1XrFsFi4ZgrIa6uLhwYSpYLQDgAU8+mZ8+RDZvCecimzjYHhWH+rKVCNUaOHQrvDq0ldUSqzZ+1FOtWbxSqMXvBZCalamRr+E7MmrpAqMbwUQPRzsdTUkek2pIFq7BmxQahGtPnTECjpvUldUSqLZq7XDjtftb8yWjYmF9v0sX4gGnCG77L1y7ghq9Gli5cLZx8Pm32eDRu1kBOQ6ScaPI5AG74JlN2Oza/evHKu2Nbfzz486Gpa9zcXLE5IhCZs2RS3F3K4OLCgaFMVrwZFpraYnR2dkbQllX8CqrGTp44g8REtr9Ni9ZNMHrcMEkdkWr79x7G+IBpQjWYpqeXb7/5Dr26DhRKRG7YuC7GThRLYaR3R0byeacu7dBvUA9JHZFqB/YdxpiRU4Rq+HZtj979/SV1RKptDgrDvJlLhGpww1cvh/YfwehPJwrV8OnsjQFDeknqiFSTkXzODd9k64RhoOHQAaOczp29YPqihctmodyHZRS2lbJYXaymztrgqZ7mrATQ0+zi2QumoO/A7grbIZVu3riN2lUa44/f/3S4Rtly7+Pg8R08C0MTVy5fRZ3qzYRCTpimp5e7v91DrcqNhc62KlGqGI58tRse6T0kdkaqyEjHrVq9EnYfjOC3BzQhI+2+Wo3K2H0wgvd2TZz66ms0qeeJV69iHK7RonUTbApfw6+0aYL39tRHRvJ5w8Z1EbEjmOGEyY5xxw7b3Q1rNn/Ur6f5B2969u2C+UtMnxxHABbNW4FRwyckuI6/EybMF4kYFnp3bMNhocain0XDq6Wf0LAwe45sPDhXIw/+fIi2LXyFPlAyTU8vL168hHerzkLDwsxZMiE8KojDQk08fPBIOB03X/48CIkM5AdKTcS/5iL39vwF8iIkkvd2Xdy6eQft23QVGhaW+aA01gQt4bBQEzKSz3lv14uM5PMSpYphw+YVHBYmP68Mw3bm4vnvPxo+KMD0RR9V/pC5EQrxd8N/Vh5vni405f2ypbB01VyF7ZBKNpsNXTv1xfcXf3C4houLFcGhq5E333sSOyNVYmJi4ePVDdd/uelwDabp6cVms6GrTx8k5isO/81qtWJz+FoUKlxAXmOkTGxsLHy8uwul47q7p0N4VBCyZc8qsTNSJT4R+Zefbzhcw93DHeFRQciaLYu8xkgZGRu+WbJmRkhkIDd8NSEj+Zz3dr3ISD6P3/BNnyG9xM5ICgMbHz540qaDpz9evHhp6pLMWTJhQ8hKDvwVck7qBpKxLAAiAZj6bnfGTBkQEhmItGlNLadkKOCzSdizc79QjflLZqBGrSqSOiLV+vYYiuNHTzp8PdP09DNhzHTs3L5XqMa8xdNQ8+Nqkjoi1YYOGC2UjmuxWLA2eCneL1tKYlekkmjavcViwbqNy1C6TEmJXZEqNpsN/r79cOm7yw7XsFqt2BS+FgUL5ZfYGakkmnxuGAaWrZnPe7smZCSfc8M3ObPvtsXZO/j79sWN67dMXRH/OSx/gbyKe0vd+ITh2zkB2AygoJnFFosFgcHLePPR2Mb1oVg0b4VQjSGf9UOX7j6SOiLVZk9biJDgcKEaTNPTS0hwOObOWCxUY8CQXvDv6SupI1Jt4ZxlCFwVLFRjwpRRaNaykaSOSLV5M5cIp91Pnj4GTZo3lNQRqRYwYjJ27/hcqMaCpTNQs3ZVSR2RajKSz8dPHglP7xaSOiLVRJPPAW74JmOXDBglp06ck3b/3sOmL5o4dTTqNfxYXVcEgKEnf2c2ANMRueMmjcCIMUMUtkMqffXlaTRr4CV05k39T+pg666NPAtDEzu27YGPV3fYbDaHa/h09saqdYskdkUqyTgIv17Dj7F110Y4O/PhfB0c2HcYns19ERcX53CNNl7NEbRlFQyDf1zSwf69h9G2hdhr3sHXC2s2iG0s0LuzcX0oevkPEqox+NO+mDpznKSOSDXe21OfzUFh6NFloFCN/oN7YuY8nnOX/BiPAPvX+3YfbOjV0s/0Z7OmLT5B6Lb1fA8LMBt6wn/C/6s13nwV2dQ/mybNGyJ023oejqypG9dvoXaVxvjzjwcO1yhWogiOntzDszA08d35S6hfswWeP//L4RpM09PLrZt3ULtKY/x+/w+HaxQtXhhHT+5BhowZJHZGqshIPi9foSz2H43iUSOauHL5Kj6u1hTPnj5zuEblqhWx9/BW3ts1wQ3f1EdG8nm5D8vgwLEdvLdrQsaGb90GtbFt9yZu+CY/Nrth33T7xq++1Ss2wMMHj0xdVKRoIRw/s4+fvQUxJdkxJQCsh8lhYZGihbCWSWraij8gW2RYmClzRkTsCOYNSxP37/0Or5Z+QsNCpunpJTr6Obxa+gkNCzNmyoCIHcEcFmri4YNH8GrpJ/SBMmeuHAjbvoEfKDURn3YvMizMlTsnNoat5r1dEzdv3EYHT3+hIUKxEkUQvGUlh4WakJF8/ubeHsR7uyZkJJ8XLV4YG0NXcViYDNntxsZXL2I6dvDsanpYmC5dWoREBvKz9zvEd87/5wFgKwBT//a5u6fDlq3r+C+rpuLi4tDFpw8uX7ricA2r1YpNYWtQuIipoy4pib18+Qrt23TFndu/OVyDaXp6sdls8O/UV+ggfCcnJ6zbuBxFihaS2BmpEhsbi45t/YXScdOkcUPotvXI/V4ueY2RMi9fvoJXSz+htHu+5nqJfhaNti18ueGbishIPndzc0XotvV4Lw/f5zqQkXyeMVMGhEcFccM3GTJgPw4DjQf3G+F0/txF09ctWDoDpd4vobAz+m8cGL5h4M2Thabi8OJTtZiMqq+Rw8Zj764DQjXmLJyC2nVrSOqIVLLb7ejbYyjOnPrG4RpM09PPmJFThA/CnzV/Mho2riupI1JtcL+RQsnn8e/zipXKS+yKVLHb7ejXcxhOnzzrcA3DMLAicCEqfFROYmekCjd8UyfR5HPDMLCc93ZtyEg+j9/wLVqssMTOSJJbNsBtzfL12YLXbTF9Ud+B3dHRz1thW/Q2/C7tG+MAtDG7ePCnfZmqpbGgwBAsW7RGqEafAd3QvXdnSR2RajMmz0PopkihGkzT08umDWFYOGeZUA0//w7o3d9fUkek2twZi7F+zSahGqPGDoN3h9aSOiLVZk9biC0bI4RqBIwfjrbtWkrqiFQbNXyC8Ibv7AWTueGrERnJ5yPGDIF3R9Mf9SiJyUg+54ZvsvUSsJ395sz5j0YMNR82ValKBUydNV5hW/R3GHoCNACwF4CpA0xq162BHfu28BwETX157BSaN/RCTEyswzXq1K+F7Xs2898BTURt3Y1O3j2EEpGZpqcXGQfhV69ZGbsORMDFxSqxM1Ll8z2H4NXSTyg1s2WbptgYtprnEmtCRtp9K89m2Bi2mvd2TQQFhqBP9yFCNXr398fcRdMkdUSqyUg+b9G6CTaFr+G9XRMyks/9/Dtg+Zr5kjoiqQysfvTgcY/qFRvg5o3bpi7JniMbTpzdz2NDJGNKsjkFAJwFkMXM4jx5c+PE2QPIms3Uckpmrv9yE7WrNMaDPx86XKNAwXw4dnofsmTNLLEzUuXCtxfRoFZLoZATpunp5eaN26hdpbHQmTf5C+TFsdP7eK/XxA/f/4g61ZsJBV6ULfc+Dh7fgXTp0krsjFSRkXb/QfkyOHAsiq+5Jk4cP4VmDcQ2fGvUqoKd+8O5EaQJGcnnZT4ojUNf7uT7XBMyNnyr1aiM3Qe54ZscGTAi4mxxTVo39Ul78PMvTF3j7OyMXQfCUbN2VcXdpT5MSU5YGgCRMDksdHNzxeaIQH6A1NSzp8/g1dJPaFjokd4DETuCOSzUxL2794UTkZmmpxcZB2S7e7gjYkcw7/Wa+P3+H2jdtKPQB8rsObIhbPsGfqDUhIy0+xw5s/M118iN67fQwdNfaFhYoGA+bI4I5BBBEzKSz7NkzYyQyEC+zzUhI/k8f4G8CInk+zyZugjYP5wwZrrpYSEATJ4ewGFhEkvNA8PlAD40u3je4uk8EFtTcXFx6NyxN374/keHazg5OWH9puUMutHEixcv0a51F/x6567DNZimpxebzYYuPn3w/cUfHK5hsViwbuMypq9pIj75/PatXx2u4eJiRXDoauTN957EzkgVGWn3bm6u2LJ1HfLkzS2xM1Ll2dNnaNvClxu+qUhMzJu0e5Hkc6vVik3ha1GwUH6JnZEqMpLP3T3cER4VxA3f5OkhDOO33Tv3F5o3c4npi5q3aowBQ3srbIvMSK0DwyEATCdWdO/dGZ27dVTYDqk0fFAAPt9zSKjGtNnj0ahpfUkdkUp2ux19uw/B2TPfOlzDMAwsX7uAaXoakXEQ/pQZY9CkeUNJHZFKMtJxAWD+khmoUauKpK5IJbvdjj7dhwil3QPA0lVzUalKBUldkUoyNnwtFgs3fDXTt8dQfHnslFCNBUtn8KkkTchIPo/f8C1dpqTEzkgSGwxj509Xf/6km19/2O12UxcVLVYYq9cv4hnDyUBqHBhWAzDD7OKPKn+IWfMnK2yHVFqxJBCrlq0XqtGpSzv0H9xTTkOk3NSJcxAWsk2oxogxQ5iUqpHgdVuwZMEqoRodfL0waHhfSR2RarOmLhBOxx3yWT906e4jqSNSbcbkeQjbvFWoxvBRA9G+U1tJHZFqnw4eww3fVGb2tIUICQ4XqjFoeF/e2zUiY8N38nRu+CZbBta/+OtFJ7/2vfD0yVNTl7i7p0NIZCA80nsobo7MSG0j21wAvvnX/yYoe45s+PLr/fxKoqYOHziK1k198Pr1a4drVK1eCbsPRsDV1UViZ6TKtohd8G3Xw/Tu1dswTU8vMg7Cr1y1IvYe3sr3uSZkJJ83aFQXkTuD4eTkJLEzUkXGa96wcV1E7OBrrosNazejb4+hQjV8Ontj1bpFkjoi1WQkn9f/pA627trI97kmZCSfd/D1wpoNiyV1RDLZgUMGULZHl4HZNgeFmb4uaMsqeHq3UNgZAUxJfhsrgMMAaphZzEQevV378Wd8XK0JHj964nCNfPnz4NjpfciWPavEzkiVb7/5Dg1rt8Rff71wuAbT9PRy4/ot1K7SWOjMm1y5c+L4mX3IlTunxM5IFRnJ58VKFMHRk3uQPkN6iZ2RKjJe8+Ili+LIV7v5mmvi+NGTaPGJt9BGEDd89SIj+bxYiSI48tVuZMiYQWJnpAo3fFO8mwDuLVu0pvKng8eYvmjgsD6YPnu8uq7o/zAl+X8thslhIfDmKwwcFurp0cPHaNvCV2hY6O6eDuFRQRwWauLub/fg3aqz0LCQaXp6iT8IX2RYmCaNG8K2b+CwUBP37/0O71adhT5QZsqcERE7gjk40oSMtPvMWTLxNdfItR9/Rvs2XYSGCPny50FIZCCHCJqQkXwef2/nsFAPMpLPc+XOiY1hq/k+T55eGob96zOnvqkc8NlE0xdVqfYRJk0brbAtckRqGRj6AuhldrF3h9boN6iHwnZIldjYWHRq1wM/XfvF4RoWiwVrg5fi/bKlJHZGqsQnIv/2q+OJyEzT00v8AdkiB+EbhoEVgQvxYcUPJHZGqrx8+QrtWncRSse1Wq3YFLYGhYsUlNgZqSIj7T7+NS9UuIC8xkiZRw8fw6ulHzd8UxEZyee8t+tFRvJ5mjRuCN22Hrnf47FhyZHNQND9e3+29fHqbnoonCNndmwMWw2r1aq4O0qs1DAwLA9gpdnF75cthSWr5ipsh1QaPmgMjhw6LlRj/OSRaNaykaSOSCW73Y7e/oPwzdfnheowTU8vnw0Zi327DwrVGDPhU7Rt11JSR6RSfDru16fPCdWZs3AKatc1/UUDSkIy0u4BYO6iqahVp7qkrkil169fo1O7Hrh29WeHaxiGgeVrF3DDVxN2ux19ewwVTj6fvWAy7+2akJF8Hr/hW+GjchI7I1nsdsuWuNjXnfza9zT9MIfVakVw6Cp+4yeZSukDw2wAtgNIY2ZxxkwZ+JVEjS1ZsAprVmwQqtHGqzmGjRwgqSNSbdK4mYgIjRKqwTQ9vWxYuxkrlgQK1Wjl2Qwjxogdsk3vzrSJc4XTcfsM6IbuvTtL6ohUk5F2339wT3Tr5SepI1JNxobvhCmj0MaruaSOSLUZk+chdFOkUI1e/bqiR58uchoi5WQknweMH84N3+TrrGHYKo0bNTXt8aMnTV80bfZ4VK9ZRWFbJCIlh544A9gPoI6ZxRaLBRE7gvFJk3pquyIlDn7+BTyb+wolIpevUBb7j0YhbVpT82VKYlvDd8KvfU+hRGSm6enly2On0Lyh2AHZH5QvgwPHorgxpIntkbvQyVss+bxO/VrYvmcznJ2dJXZGqshIu6/boDa27d7E1zdhK8gAACAASURBVFwTyxatQWIOxX+bNl7NEbRlFQwjJX+0STlkJJ/XqFUFO/eHw8WFX2HUgYzk81aezbAxbDXf58nT74D93LaI3Y0S83u4V/tWWL95heLW6G2YkgwsADDI7OKxEz/DyLFiNzFKGlev/ISPqzXFk8eOn3mTM1cOHD+zj2dhaOLc2Qv45ONWQiEnTNPTi4zk8xw5s+PY6X3Ikze3xM5IlfPnLqJBrRZC7/OChfLj6Km9yJI1s8TOSBUZafdFixfG0ZN7eG/XxKH9R9CmWSehDd9yH5bBgWM7uOGrCRnJ5wUK5sOx0/t4b9fE4QNH0bqpj9D7nBu+yVocDCP42pWfutSs3AjPnj4zdVGxEkVw/PQ+uHu4K26P3ia1pyT7IBHDwibNG+KzgMEK2yFVHj54hLYtfIWGhW5urjw4VyN3f7uHdq27CH2gZJqeXh4/eiJ8EL6bmyu2bF3HYaEm7t29D+9WfkLvc4/0HgiPCuIHSk3ISLvPmCkDwqOCeG/XxNUrP8G3fS+hIULOXDkQtj2Iw0JNyEg+d/dwR8SOYN7bNXHtx5/h276n0Ps8R87sCNu+gcPC5MrA2uinz3zbe3Y1PSx093DHlsh1HBZqICUODMsBWGV2cZGihbBmw2JYLCnxH0XKFhsbCx/v7vj5p+sO14g/ILtipfISOyNVoqOfo3VTH/FEZKbpaeP169fw8e4ufBD+stXzUKlKBYmdkSoy0nGdnJywftNylCxdXGJnpIqMtHsnJycEBi9D0WKFJXZGqsQnIsvY8H0vDzd8dSDj3m6xWHhv14iM5HNu+CZ7B+w2e+te/oOdrly+auoCwzCwYu0CFC9ZVHFrJENKm5JlAbAVgKntB3f3dAiJDOROtKaGDhiNY1+cEKoxcuxQeHdoLakjUslms6Gbbz9cvPC9UB2m6elFxkH4w0cNRDsfT0kdkUp2ux19ug0WTsedNns8GjWtL6krUklW2v3MeZN4DrUm4jd8f7r2i8M1uOGrF1nJ59Nmj0fjZg0kdUUqxcbGCiefA8DSVXO54Zt8/QTD8JgxeV627ZG7TF80dER/tG7bTGFbJFNKGhg6A4gAYOqxIcMwsGzNfJR6v4TarkiJhXOWIXBVsFCNFq2bYPS4YZI6ItXGB0zDrqh9QjV69/dnmp5Gli1ag9XL1wvVaNi4LsZO/ExOQ6Tc5PGzEL5lu1CNTl3aof/gnpI6ItUmjp0hnHbv27U9+gzoJqkjUm3YwAAcPfylUA1u+OpFRvK5T2dvDBjSS1JHpNqng8dK2fBt36mtpI5Isud2u/3coc+/qDJ98jzTF9WqUx3jJo1Q2BbJlpJCTxYBGGB28dAR/TF5ulgiGyWNA/sOw7O5L+Li4hyuUbbc+zh4fAfPwtDE5qAw9OgyUKgG0/T0IuMg/BKliuHIV7vhkd5DYmekiozk86rVK2H3wQi4urpI7IxUiQzbgc4degm95tVqVMbugxG8t2vC7CHr/6RF6ybYFL6GxwlpQkbyeZVqH2HPoUje2zWxdOFqfDZkrFCNho3rImJHMJycnCR1RTLZDGPF9Wu/9K5ZqZHpoyXey5MLJ84eQLbsWRV3R2aktpTkTgBMP25Wp34tRO0N4Q1IQ1cuX0Wd6s3w9MlTh2tkz5ENx07vQ95870nsjFQ59dXXaFLPE69exThcg2l6epGRfJ45SyYcPbUXhQoXkNcYKSMjHTdf/jw4dnof/yCqiXNnL6Bh7ZZ48eKlwzXyF8iLY6f3IWu2LBI7I1UOfv4F2jTrJLThW+aD0jj05U5u+GqC9/bUR9aG7xcndiF9hvQSOyNZ7HZs+uuvv1p/XLVJ2suXrpi6xmq1Yu/hSFStXklxd2SW2YGhs/pWlCsPYKXZxfkL5MWGzSs4LNTQwweP4NXST2hY6OJiRXDoag4LNXHr5h20b9NVaFjIND29yDgI32q1YnP4Wg4LNSEjHdfdPR3Co4L4gVITt27egWfzTkLDQncPd4RHBXFYqIkff7gG3/a9hIaFWbJmRkhkIIeFmuC9PfWRkXyeOUsmhEcFcViYTNlh/9oOe5W+3YeYHhYCwIKlMzgs1JTuz/JnBxAFkyEnadOlRXhUEAcHGoqNjUXHtv745ecbQnXmL5mBGrWqyGmKlIp+Fg2vln744/c/Ha7BND29yDgIHwDmLZ6Gmh9Xk9QVqfTixUt4t+oslI5rsViwNngp3i9bSmJnpEp09HN4t+qM3+//4XANi8WCdRuXoXSZkhI7I1VkbPharVZsCl+LgoXyS+yMVJGRfB5/3jzv7Xp49PAx2rbw5YZvynYfwJ+L5qwonJizh7v18kOX7j7quiKldB4YWgGEAshrZrFhGFi+Zj7/cKmpwf1G4vjRk2I1Pu3Lm5UmbDYb/H374dJ3l4XqME1PLzIOwh8wpBf8e/pK6ohUstvt6NV1IM6dvSBUZ/zkkWjWspGkrkglWWn3k6YFoEnzhpK6IpViY2PR0asbfv7pulCdBUtnoGbtqpK6IpVkJZ+PnzwSnt4tJHVFKsl6n89dNJUbvsnXaxjYeezwicbjA6aZvqhSlQqYvWCKwrZINZ0HhvMBfGx28dAR/dG2XUt13ZAyc2csxvo1m4Rq1P+kDiZNC5DUEakWMGIydu/4XKgG0/T0smjeCqxdGSRUo17DjzFlptgh2/TujA+YhsiwHUI12ng1x7CRpvPOKImNGz1VOO2+g68XhnzWT1JHpNqQ/qNw/MhXQjW44asXGcnnbbyaY/gosbA7eneGDQzAsS9OCNXoP7gnuvXyk9QRyWYxjNV3bt7p6tfB/FfOs+fIho1haxhWpDldQ098AZj+ZFm3QW1s37OZ5xZq6PM9h+DV0k/ozJtiJYrg6Mk9PAtDExvXh6KX/yChGkzT04uMg/CLFi+Moyf3IEPGDBI7I1VCgsPRvbPYoK98hbLYfzQKadOmkdQVqSQj7b5y1YrYe3gr7+2amD9rKcaMnCxUo/4ndbB110b+GV4TMpLPy31YBgeO7eC9XROL5i7HqE8nCtWo26A2tu3eBGfnlBCvkBLZP3/54lWFBrVbZjX7rRCr1Yqd+8P4ZHgylpJTkssDOAHA1O8i+fLntZ84u9/InCWT2q5Iuh++/xF1qjfDs6fPHK6RKXNGHD21F4WLFJTYGany1Zen0ayBl1DICdP09PLjD9fwcbWmQmdbZcyUAUdP7UWRooUkdkaqyEg+z5krB46f2Yfc7+WS2BmpcvLEGTSt31boNc+VOyeOnd7L11wT+/ceRtsWvsIbvke+2s2NIE3ISD7PmSsHjp3eh/fy8H2ugwP7DsOzudj7nBu+yZsB46od9od9ug+pEhQYYvq6uYumoXd/f4WdkSizA0PdvpKcA8AOmBwWpk2X1h65M5jDQg39fv8PtG7aUWhYaLVasSlsDYeFmrh54zY6ePqLJSIzTU8rMg7Cd3JywrqNyzks1MStm3eE3+dp0rghdNt6Do40IePeztdcL1cuX0Xnjr2FhgiZMmdExI5gDhE0ISP53M3NFaHb1nNYqIkff7gGvw5i7/OMmTIgPCqI7/PkK9pmt327YklgooaF7Xw8OSxMQXQaGMaHnOQxs9gwDKxYu8Ao9X4JtV2RdC9fvkK71l1w+9avQnXmLpqK2nVrSOqKVHr65CnaNPPBn388cLiGxWLBmqAlTNPTRExMLNq36SJ8QPas+ZPRsHFdSV2RStHPotG2ha9QOq5hGFi5bhEqViovsTNSJf41F0m7NwwDqzcsQYWPyknsjFSJ3/AVTUTeHL6WG76akJF8bhgGVgQu5L1dE3/+8QBtmvkIvc+dnZ0RvGUVihYrLLEzkshuNxB45tQ37UYNH2/6ojIflMaSlXMUtkXvmk4DwwUAaptdPHzUQCZrachut6Nfz2E4c+oboTq9+/vz4FxNxCciX7l8VajOuEkj0LxVY0ldkWrDBo7GieOnhWr4+XfgDqYm4t/n31/8QajOyLFD+Xu7Jmw2G7p26ovLl64I1QkYPxyt2zaT1BWpFBMTC7/2PXHr5h2hOrMXTEatOtUldUUqyUo+HzFmCLzat5LUFakUGxuLTu164Mb1W0J1Zs6bhLoNTH+0p3fMYjc23P/tfg8fr+6IiYk1dU2mzBkREhnI80dTGF0Ghr4A+ppdXLd+LfvYiZ8pbIdUmTN9EbZsjBCqUad+LcycN0lSR6TaqOETsHfXAaEaTNPTy6K5yxG4KlioRvWalbFw2SxJHZFqY0dNEU4+b9G6CUaPGyapI1ItYMRk7Nm5X6hGyzZNMXLsUEkdkWpD+o/E8aMnhWr07u+PHn26yGmIlJswZrpw8nmL1k0QMH64pI5INRnJ575d23PDN3k7/So2pppf+55p7v52z9QFFosF6zYuQ8FC+RW3Ru+aDgPDDwGsNLs4b748cRtCVhpMU9PPzu17MWncTKEaBQrmw4bNK5iypYmN60OxZMEqoRrlPiyDlesWwTB0zHBKfQ5+/gXGjJwiVCN/gbzYHBEIFxerpK5Ipc1BYVgwe5lQjbLl3seaoCWwWHT4Ywtt2hCGRXOXC9X4oHwZrN6wmPd2TcybuQTr12wSqlGjVhVMnyOWtkrvTkhwOObOWCxUo8wHpXlv18jCOcuwbvVGoRrValTGouWzJXVECtwD8GDYoIBiifkm0OTpY9CgEY8ISomS+5/CcgA4C5PnFqZJ4xZ37PQ+J55bqJ+LF75H/ZotEB393OEaHuk98MWJXShZurjEzkgVGYnITNPTi4xEZHcPd3xxYhd4n9eDjETk7Dmy4djpfcib7z2JnZEqMhKRc+TMjmOn9yFP3twSOyNVZCQiFyiYD8dO70OWrJkldkaqyEhEzpI1M46e2ssnkjQhIxE5f4G8OHZ6H7JmyyKxM5IoFoZtfUhQZI/unQeYvqhF6ybYHLGWG3yaSQkpyVYAYUhEyMmq9Ys5LNTQgz8fooOnv9Cw0MnJCes3LeewUBMyUjOZpqcXGYnI8V934H1eDzISkV1crAgOXc1hoSZkvOZubq7YsnUdh4WakJGI7O7hjogdwRwWauLub/fg3aqz0LDQarViU/haDgs1ISMR2d3DHeFRQRwWJmeGfeX5c5e6Dej9qelLipUoglXrFnJYmIIl54HhIgC1zC7+LGAw2ng1V9gOqRATEwsfr264/stNoTrTZo9Ho6b1JXVFKkU/i4ZXSz+hRGTDMLB8zXym6WkiNjYWPt7dhRORJ08fgybNG0rqilSSkZoJAPOXzECNWlUkdUUqRUc/h1dLP6FEZABYumouKlWpIKkrUknWRhA3fPXx4sVLeLfqDLPnmv2d+Uumo2btqpK6IpVkbviWLlNSYmck2Y7f7/7ZoV2rLhazmwHuHu7YErkOHuk9FLdGSSm5Dgz9APQ2u7hOvZqveViunmQckN2pSzv0H9xTUkekUnxqpmhS6ogxQ+DdsY2krki1YQMDcOyLE0I1Ovh6YfCnprOvKAnJSs0c8lk/dOnuI6krUslms8G/U19c+u6yUJ3howaifae2kroilWJjY9GxrT9++fmGUJ1ps8ejcbMGcpoipex2O3p1HYhzZy8I1Rk0vC+69ugkqStSiRu+qYMB48fY2Ngcfh17Zblz+zdT18Rv9hQvWVRxd5TUkuPAsAoA0ykI+fLnebUpfI0zQ070I+OA7KrVK/HgXI0EfDZJODWTaXp6WTx/JdauDBKqUblqRSxdNVdSR6SajNTM+p/UwcSpoyV1RKrJSMFu2Lguxk0aIakjUm1I/1HCG74+nb0xYEgvSR2RahPGTEdk2A6hGvU/qYPJ0wMkdUSqccM35TOAZza77dsxIyZXTkz69ehxw7jZk0okty+bJyrkxNXVNfbE2f1Wfo1BPzIOyM6XPw+Ond6HbNmzSuyMVNm4PhS9/AcJ1SjzQWkc+nIn0qVLK6krUung51/As7kvXr9+7XCNXLlz4viZfciVO6fEzkiVkOBwJOag7LcpVqIIjp7cg/QZ0kvqilTaHBSGHl0GCtUoXrIojny1m6+5JubPWooxIycL1ahavRJ2H4yAq6uLpK5Ipa3hO+HXvifsdrvDNYqVKIIjX+1GhowZJHZGqiyevxIjh40XqlG5akXsPbyV7/Pky243sCh887ZBXX36mL6oSfOGCN22nunmmjMbepKcBoZWAAdh/txCe3DoaoPnFurn0neXUa9Gc6GQE3f3dDj05U68X7aUxM5IlRPHT6FZAy/ExMQ6XINJqXq5cvkq6lRvJnTmTbp0aXHgWBQ+KF9GYmekyumTZ9GknidevnzlcI3MWTLh2Ol9PAhfEzISkbNmy4Kjp/aiQMF8EjsjVfbs3I92rbvAZrM5XCN/gbw4emovN3w1cebUN2hct43wvf3oqb0oVLiAvMZIGRkPduTJmxvHTu9DjpzZJXZGUtmx9rsL3/vUr9nc7fnzv0xdUqRoIRw7vZeD/xRAx5TkJUhcyMlrDgv18/DBI+FEZIvFgrXBSzks1MTNG7fh49VdaFjo4mJF0JZVHBZq4tHDx/Bu1VloWGgYBpavXcBhoSbu/nYPnbx7CH2gtFqt2BS2hsNCTdy6eQcd23YTGhZarVZsDF3NYaEmrly+im5+/YWGhe7u6RC2fQOHhZq4+9s9+Hh1F763bwxdzWGhJq5e+QldfPoIDQvTpHFDSOQ6DguTMQPGsQcPHtb28epmeljo7p4OW7au47AwlUkuA8POAEynVtSsXfX5mAmfWhX2Qwq8ehUD71adhQ/Injx9DJq1bCSnKVIqPhFZNDVz2ep5TNPTRGxsLDq09Rc+IHvClFHw9G4hqStS6fnzv9CmWSf89utdoToLl81ErTrVJXVFKsUnIoumYC9ZOQc1P64mqStSSVZSauDGZdzw1cTz53/Bs7mv8L19wdIZqF23hqSuSKWHDx7Bs3knPHn8xOEaFosF6zYtx4cVP5DYGcll3ImNi43u3rl/EbOfyw3DwLI185lonwolh4FhFQArzS7OlTvns9Bt69Mx5EQ/wwaOxskTZ4Rq+HT25sG5mrDZbOji00c4EXn4qIHo4OslqStSbfigMUjMoclv4+ndAsNGip2DR++G3W5Hn26D8d35S0J1Bg7rg87dOkrqilSKf81FE5GHfNYPnbq0k9QVqRQTE4v2bboIb/hOmTEGTVt8IqcpUsput6Nv9yG48O1FoToDh/Zm2r0mXr9+jU7tegi/zydMGYXmrRrLaYpUiIVh3zN53Kwm+/ceNn3R0BH9uZGfSiX1wDAngAgArmYWu7hYX+38PNSDj8HqZ/H8lVi3eqNQjarVK2HxijmSOiLVJoyZjr27DgjVaNG6CcZPHimpI1Jt1bL1WLNig1CNKtU+wuoNS2AYyemIXfo7UyfOEU7NbNCoLqbMGCOpI1Jt0riZ2Bq+U6hGw8Z1mYKtkeGDAnDi+GmhGj6dvTFoODd8dTF90lxEhEYJ1aj/SR1MmTlWUkek2vBBY3D08JdCNTr4enHDN5mzG1i2c9ve7nNnLDZ9zcf1avLzWCqWlJ/IrAAOAahpcr09OHRVXBuvFs4KeyIFDh84itZNfYSSUnlAtl5kpOmVLfc+Dh7fwURkTcgItsmXPw+OntqL7DmySeyMVInauhs+Xt2F3udMx9XL9shd6OTdQ+g1L1GqGL44sYuvuSaWL16L4YMChGpUq1EZuw6EMylVEzu27YGPV3ehsyp5b9dLUGAI+nQfIlSjSrWPsOdQJN/nyZgBbL9y+Wqtj6s3y2z2eIl8+fPgy6/3I0vWzIq7o3dNh9CTpTA/LMSQT/s94bBQP9eu/gzf9j2FhoXuHu4IjwrisFAT589dRK+uA4U+UObImR3hUUEcFmri5o3b6Ni2m9Cw0N09HcKjgjgs1MTFC9+jR+cBQu/zzFkyIWJHMD9QauK785fQs4vYvT1L1sx8zTVy5NBxjBw2XqhG/gJ5sTliLYcImrh44Xt0Fwy2yZwlE8Kjgvg+18RXX57GoL6fCdXIlz8PQiID+T5P3i4+fvIkd0fv7qaHhW5urtgcEchhYSqXVAPD/gB6mF1crUbl3ydND8iosB9SIPpZNDp4+uPxI7GDc9dvWo7SZUpK7IxUuX/vd3i38sNff71wuIabmyu2bF2HPHlzS+yMVIkPP/jzjwcO1+BB+HqJT7s3m6r3NlarFZsjApmaqYnf7/8Br5Z+Qq+5i4sVm8LXMgVbEzeu34Jfh17CG74RO4K54asJaff28LUoXKSgxM5IlVs376CDp7/Yhu+/Huzghm+y9thut33Xs8ugSlcuXzV90dJVc1G+QlmFbZEOkmJgWBPAXLOLs2TL/CByZ3B2iyWpj1ukxIgPvPjh+x+F6kyfMwGNmzWQ1BWp9PLlK7Rv0xW/3nE8Tc8wDCxbPQ+VqlSQ2BmpYrPZ0M23n3CwDQ/C10dsbCw6tvXH9V9uCtVZsHQGk881ERsbC992PXDn9m8O14i/t/M110P0s2h4tfTDgz8fOlzDyckJ6zctR6n3S0jsjFSJjY1FR69uwvf2+UumM/lcE9I2fIOXcsM3ebMbhrFu2sR5Prui9pm+qN+gHmjfqa3CtkgX7/orvgUARAIw9byyk5PTX/sOb83ER9r1EzBisnDghW/X9ug/uKekjki1oQNG4cypb4RqjBo7DO18PCV1RKpNGjcTifnDx9vwIHy9DB0wGsePnhSqMWzkAKZmamRwv5H48tgpoRqfjh7EtHtN2Gw2dO3UF5cvXRGqww1fvQwbGIDjR74SqjF0RH907dFJUkekkqy0+6kzx3LDN7mzY9X2rbv6zpgyz/QlVap9hCkzxylsinTyLh/bcwewA4DZ55Xta4OWvCpVugQfLdRMSHA4Fs1dLlSjes3KWLR8tqSOSLX5s5Ziw9rNQjVaeTbD6PHDJHVEqm2P3IU50xcJ1ahWozKTzzWydOFqBK4KFqrxSZN6TNrTyKJ5K7B+zSahGi1aN8HYiWLnY9G7Mz5gGvbs3C9Uw8+/A/oNMn3yECWx5YvXYu3KIKEaDRvXxYQpoyR1RKpNHj9LOO2+U5d2GDisj6SOSAUDOPL9pcsNevkPdjV7LmnOXDmwMWw1XFysirsjXbyrlGQDQCgA09vL/Qb3uDlr3mQedKOZb7/5Dg1qtcCLFy8drlGgYD4cPbUXWbNlkdgZqXLw8y/QplknxMXFOVyj3IdlsP9oFENONHHh24uoX7OF0FmVTD7XyxcHj6FVk45C55mV+aA0Dh7fAXf3dBI7I1UOHziK1k19hF5zpt3rZWv4Tvi17ykUbFO9ZmXsOhDBD5uaOHH8FJo18BI6w65EqWI48tVueKT3kNgZqRK1dTd8vLoLvc+ZfK6FW/fv/XGlQa0WDX/+6bqpC6xWK/YejkTV6pUUt0bJQXJLSZ6ERAwLy3/4wbUZcyZyWKiZe3fvw7tVZ6FhoUd6D0TsCOawUBPXfvwZfh16Cw0Lc+bKgbDtTETWxZtgm85Cw0Imn+vlxvVb6Nyxt9DgKHuObAiPCuKwUBPXrv4M3/Y9hV5zpt3r5fy5i+jVVSwFu0DBfAiJXMdhoSZuXL8lHHgRn3zOYaEevjt/CT06DxB6n+cvkJeJyMnfq9e217t7dxtkelgIvDmDlMNC+m/vYmDYBkCA2cXp07vf3ns4oghDTvTy8uUrtGvdBb/96njgRfwB2SVLF5fYGany+NETtG3hiyePHU/BTpPGDaHb1uO9PLkkdkaqxMSIhx/Ev8+ZfK6H6GfRaNvCVyj8ID75PG++9yR2Rqo8e/oM7dt0xeNHjt/bmXavlzcbQX5CG0HxG75ZsmaW2BmpIiPYxs3NFeFRQUw+14SMtPv45HM+2JG82Q37ktHDJvbev/ew6Wu69ujEM0jprVRP5coBCILJrz5bLJbHx8587uGR3uNdfVWaJLDb7ejTfQjOnvlWqM7sBVPQqGl9SV2RSnFxcejaqQ9+uvaLwzUMw8DytQtQsVJ5iZ2RSkP6j8SJ46eFavAgfH3ISLuPT8etXLWixM5IlfjX/Mrlqw7XMAwDy9fMZ9q9JuI3fH+9I7bhu2HzCm74akJGsI1hGFi6ai7v7ZqQkXbP5HM9GLBHBq8N6bl04WrT85TKVSti7qJpKtsijakcGObAm5ATs98/er1l6/rfixYrnFFhT6TA3BmLEbZ5q1CNnn27oFe/rpI6ItVGfzoRidm1epsxEz6FV/tWkjoi1RbNXS4cfsCD8PUybvRU4bT7zwIGM/lcIwEjJmPf7oNCNUaOHQrvjm0kdUSq9e81HF+fPidUY87CqfikST1JHZFqMoJtPh09CO07tZXUEak2oPenwmn3M+ZO5IZv8vfdV1+eKTZ0wGjTZwTkzJUDm8LX8Cvm9LdUDQyteBNyktfsBYOH9znZtEXDYor6IUUO7DuMSeNmCtWo26A2Zi+YIqkjUm1zUBiWLFglVKONV3OMGDNEUkek2uEDRzF21FShGtVrVsbCZbMkdUSqhW6KxPxZS4VqtGzTFGMmfCqpI1Jty8YILJq7XKhGK89mCBg/XFJHpNqC2csQEhwuVKN3f3/07NtFTkOk3PbIXcL3diaf62XJglUIXrdFqIaffwf0HdhdUkekhvHo9o1fr3Xu2LuM2TwBNzdXhG5bj1y5cyrujXSm6qu/KwH0NLu49Psljpz57sjHinohRa5e+Qm1qzbB0ydPHa5RtHhhHPlqDzJmyiCxM1Ll9MmzaFy3DV69inG4RvkKZbH/aBTSpk0jsTNS5cb1W6hZ6RM8fPDI4RoFCubDsdP7eLaVJmSkYH9QvgwOHGPyuS7On7uIBrXEXnOm3evl0P4jaN3URyi0rG6D2ti2exOcnZ0ldkaqfHf+EurVaC70PmfyuV6+OHgMrZp0FAqwqlGrCnbuD2eYUfJmexXzcl7zBu2GJ+booOVr5sPPv4PCtig5S8qU5EFIxLAwXbq0506c3f+hgj5IocePnsCrpZ/QsDBT5owIjwrisFAT9+7eRyfvHkLDwly5JhBAywAAIABJREFUcyJs+wYOCzURH3ghMizkQfh6iT8UXeQD5Zvk8w38QKkJGYEXTLvXy5sU7F5Cw8KixQsjeMsqDgs1IePezuRzvdy8cRudO/YWGhYWLJQfmyMCOSxM7gxjxeC+owYnZlg4cFgfDgvJFNm/yzcAMMfsYsMwbl28diqd1cUlveQ+SKG4uDj4+/YVCrywWq3YGLoaRYsVltgZqSIjBTtNGjeEbd+A3O8xEVkH8YeiiwRe8CB8vcQfii4SfsB0XL28fPkK7dt0FXrNmXavl+hn0WjfpiuePHY8BTtT5oyI2BHMDV9NxMbGwq99T6HAi/ivLvLerofo6Odo28JXKAXbI70HwqOCuOGbzNlh/2LhrGWeQYEhpuc6derXwuTpASrbohRE5hOGxfHm3EKz/7K+2LZr08UcObPzk6RmAj6bhM/3HBKqMXvBZHxcr6akjki1wf1GCKVgG4aBlesW4cOKH0jsilSaMGa68KHosxdM4UH4GhnSf5TQoejxyecfVeaXBnQxdMAonDn1jcPXM+1eLzJSsOM3fIsULSSxM1Jp6IDROH70pMPXxyef896uB7vdjt7+g4RSsJ2dnRESsZYbvsnfzT0796eZMGZ6DrMXFCpcgE+HU6LIGhhmBrATQCaT6+0DhvTa2KBx3aaSfj69IyHB4Vg8f6VQjf6De6JHny5yGiLl5s9aKnxY8sSpo+Hp3UJSR6Ta9shdmDdziVCN3v39mXyukaULV2Pd6o1CNQLGD4d3h9aSOiLVFs1bgQ1rNwvVGDvxM6bda0RG8vmchVO44auR5YvXInBVsFCNUWOHMflcI5PGzcS2iF1CNWYvmII69WtJ6ogUefnjlWtH+3YfWiU2NtbUBe7u6RC6bT0yZc6ouDVKSWSEnlgB7ANQ1+wFRYsXXnH+hxOdAfAgM418+813aFCrBcwmL71N/U/qIHJnMHc1NCHjUPQOvl5Ys2GxxK5IJRmHovMgfL0cOXQcLRt3EDrnqHXbZggOXQ3DUJWlRjLJOAi/jVdzBG1ZxddcE9sidsG3XQ/Y7XaHawwY0gsz5k6U2BWpdOL4KTRr4IWYGHPDhLdp5dkMG8N4b9dF1Nbd8PHqLvQ+7zOgG+YsnCqxK1LhybOnC+tXazHw8vdXTL05DcNA0JZVaOPVXHVrpAmzoScy7v4rAPQyu9jV1XXXH8+vl3SyWHh4nUbu3b2PmpUaCZ1hV6xEERz5ajcyZOSZNzq49uPPqF21idA5R1WqfYQ9hyLh6uoisTNS5ff7f6BmpU+Ezjli8rlebt64jZqVPhE654jJ53q5cf0WalVuxNc8FZGRfM4NX73cvHEbtSo3wp9/PHC4RrkPy+DAsR18n2vi4oXvUa9Gczx//pfDNbjhqwe7zbapdVMfrwOff2H6A1bA+OEYPX64yrZIM+8qJXk4EjEsBHDhl7sXbBwW6iX+UHSRYWHmLJkQsSOYw0JNPHv6DO09xQ5Fz5c/D0IiAzks1ISMQ9F5EL5eZByKzuRzvUQ/i4ZXSz++5qnI7/f/gHerzkLDwuIliyIoZAWHCJqIjn4Or5Z+QsPC+ORzvs/18PDBI3Tw9BcaFhYtXhgbQ3m2nQa+Htjn07qJGRY2b9UYI8cOVdkTpWAid4TmAGYmYv3v+4/t2J0xY8bRAj+TksCenfuRN997yJvvPQCAs9UKd/d0b13r7OwEdw/3//nrLVs3ReEiBZX2SfKMD5iGVy9foWCh/P/x1/9pEJQhY4b/+8qKxWLB9NnjkT1HNqV9kjw//nANDRvVQ8NG9ZA2XVq4uFjfui5t2jRwcXV9698rVbo4D8LXSFTkbpQoWRQlShYFAFhdXJAuXdq3rrVanZHuLff99h09mXyukW0Ru4Rf8w4+bfmaa8Jut2PUpxNhtVr/4/dzwzCQIWP6v70uY6b/f76V1eqMeYunc8NXI5cvXUH7jp4AAHcPdzg7O711nbt7Ojhb3/57fbkPyzD5XCOhm7eifIWyKF+hLADAxdX1b4e9rq4uSPOWv+ffw5fv8+Tv4fIlga8DV28y/eYsXrIoVq9fBItFZtYtpSaOfiW5FICvAJi9q8R079lp8MIVcxYA4ONGREREREREREQJsx0+cDTEs3knH7PnkmbKnBHHTu9DocIF1HZGWlL5leQcAPbC/LDQnj9/3iELV8wJAIeFRERERERERESm3P3tXlAXnz4dzQ4LrVYrNoau5rCQhCV2YOgGYBuAfKZ/gMUy/fL1My0AvJfIn0VERERERERElCrFvn59oGl9rw4P/nxo+tuhcxZOwcf1aqpsi1KJxAwMLQCCAFRNxDWRj17cigOMTxLXFhERERERERFRqvVT2+a+ZX+8cu3tB4i/Rd+B3dG9d2eVPVEqkpjQk7kAvBKx/ttvf/wy0NnqvCORPRERERERERERpVYvRgwbH33w8y+KmL2g/id1MH3OBIUtUWpj9gnD4QAGJ6Lu3WEj+/YqVrTIegBvj+YiIiIiIiIiIqL/EBqy9diS+SvLmV1ftHhhBIWsgLNzYp4JI/pnZgaG7QDMTETNFx4eHp6Tpo2dByCbY20REREREREREaUu31+8crCHX3/Tx7plypwRETuCkSGj2VxaInMSGhjWBrDBxLp4dgD+dx9fbQsYNYQ6IyIiIiIiIiJKJZ4+eXa5Xs1mdePibKbWxyciFylaSHFnlBr90/OqpfEmEdn0AZsAptWrV/mLX+/86moYRlex1sQ5u7h4GDBS3Feina1O6ZH4hOtkY/6speMA/E/KU8YMGWAYb/5yyVLFj9eoVfXcu+5NBYuTJWNS96CAYXFySoFbWDaLk8UpfVJ3IZvFMCywWDySug/ZDNidYbG4J3UfshmA1TAs6ZK6D/nsLoZhpE3qLoiIiIiSo7i4uAc1KzXM9+xptOnP+rMXTGYiMinzdwPDAgD2AciUyHoBhw6dDiiev6JQU0QAav7rP0RERMmWq6sL0qRNk9RtSOfm5oY0adySug3p3NK4wc0tMXvhekiTJg1cU+CvK23aNHB1dUnqNqRLmy4tXFxS3q/L3T0dnK0p7/w0D3f3FHkunEd6dzg5pbhna5A+Q3pYLHo+W7NqWWDmn65d/58Ha/5OnwHd0KNPF4UdUWr3tjtfPgDHAOR5x70QERERaeXVqxi8ehWT1G0o8CSpGyAiIkptTA8L6zX8GDPmTlTZC9Fbv9baCUDed90IERERERERERH9vTIflMamsNUp8slXSl7+e2A4BcDUpGiEiIiIiIiIiIjeLm++97Bt9yZ4pE9xx5NTMvTvA8POAAKSqhEiIiIiIiIiIvpfFosF6zctR67cOZO6FUol4geGhQGsTMpGiIiIiIiIiIjof9lsNqxasSGp26BUJH5gOAVAyotWIyIiIiIiIiJKAcJDtuH8uYtJ3QalEhYARQC0S+pGiIiIiIiIiIjo7Ww2G+bOXJTUbVAqYQHQBomI7yYiIiIiIiIiondv/97DePnyVVK3QamABUDDpG6CiIiIiIiIiIj+WXT0c5w6cSap26BUwAKgYFI3QURERERERERECbtx/VZSt0Aa+/LYSVPrLACYyU1EREREREREpIG7v91L6hZIU0cOHcfeXQdMrXUGkNaBn/Ho3/+P1Wq1Ojs7OztQh1InNxNrXv/rP0RERPTfjJR1/nSK+sXEM4wU9ctKUb+YeCnsfZTSGG/+K4W9RinslwPASHGv0bsXExNrefUyJlH/HP968UJVO5SC3bxxG34desFms5la78iQz3bTvs/73/9CZpTq4Yy03n93gXx22FLYLMmOONhh7kXThQ2xIpc7w7F/P5WxIw5IQa+RHYBd7DVKduyw/et1SjkE30fJzpvXKOW8j4CU+Brx9yMiIiKid2XF7AhM+ywwqdugFO7587/g3aozHvz50PQ1iR7IGAYMA7b/eH7xES4ltgwREREREREREREpZLfb0afbYFz67nKirrMo6oeIiIiIiIiIiIiS0KypCxAZtiPR13FgSERERERERERElMIc/PwLTJ04x6FrOTAkIiIiIiIiIiJKQa79+DN82/dCXJxj5/xzYEhERERERERERJRCRD+LRnvPrnj65KnDNTgwJCIiIiIiIiIiSgFsNhu6+PTBlctXhepwYEhERERERERERJQCTBw7A3t3HRCuw4EhERERERERERGR5qK27sbcGYul1HJgYGhI+cFEREREREREREQk7tJ3l9Gj8wDY7fYE1xar+FGCa/iEIRERERERERERkaYePXyMDp7+eP78rwTXFilXHgMWLklwHQeGREREREREREREGnr9+jV8vLvjl59vJLg2U46cmLg1yu6SJk2CazkwJCIiIiIiIiIi0tCo4RNw9PCXCa5zdnHB2JAwe9b38hhmvrbMgSEREREREREREZFmQoLDsWzRGlNr+y9cgtLVa7wJJuHAkIiIiIiIiIiIKGU5f+4iBvT+1NTatkOGo7F/9//7/3zCkIiIiIiIiIiIKAW5f+93eLfyw4sXLxNcW6F+Q3SfNuM/JoQcGBIREREREREREaUQsbGx8G3XA7/euZvg2jzFiiMgJMxmWCzGv/91DgyJiIiIiIiIiIhSiCH9R+HE8dMJrnPPlAmTt++0p0uf/n9nfxwYEhERERERERER6W/VsvVYt3pjgussTk4YuWEjchcuYrzt75t5wtA58e2Raq9jX+P8mav48dINXL18Gz/9cAv3fn2Av6JfIPrZCzx5FI00aV3h6uaCbDkz4b182VCoeB68X74wKlQrhYJFcyf1L4GIiIiIiIiIiCQ5eeIMRgwda2ptr9lz8dEnjf/279tttgRrcGCYTPx+9yF2R3yJY/vP4dSRi3ge/eIf17/46xVe/PUKjx8+w7XLt3Bk3zf/9/fyFcqJhi2rwtOvHkqXK6S6dSIiSiF+vnIbnZuON71+2vL+qNXwQ4UdERERERHR7Vu/ooOnP2JiYhNc29CvC1r1G/iPa/iEYTIXF2fD4d1nELLmcxzZexavX8dJqXvrl3tYM38b1szfhnKViqPfKG80aFEF/3XGJRER0X/45uQV3Prlnun1hUvkVdgNERERERG9fPkKPl7d8Mfvfya4tnS16hi0dIUdwD8OgDgwTKZsNjv2Rn6JOeM24ucrt5X+rPNnfkSP1pPx/odFMGlRb1SsXkrpzyMiIn19e/pH02vjj8QgIiIiIiJ1BvX9DN98fT7Bddnz5cf48K12ZxeXBJ8WY0pyMvTF3rOoV6oX+nhPVz4s/HeXzv0Ez5qfYsLglXj1Muad/VwiItLHha+vml5brlJxhZ0QEREREdGC2cuwcX1ogutc06TBuNAIZMiazdxXSzkwTD7+vP8YAzrOQucm4/Dzj3eSpAe73Y7AhVFoVXUofr31R5L0QEREydPLFzG4cvGG6fXlKhVT1wwRERERUSp3+MBRjBs9NcF1hmFg+Jp1KPphBdO1+YRhMnF4z9eoV7o3okKOJHUrAIDvz/+CVlWH4vvzvyR1K0RElExcOvcTXse+Nr2eTxgSEREREalx4/otdPHpg7i4hLMufMeOR6223omqz4FhErPb7Vg+Mxz+zSfg0YOnSd3Of7j/2wP4NBiNq9/fTOpWiIgoGUjM+YWGYaBsxaIKuyEiIiIiSp2io5/Dq6UfHvz5MMG11Vu1QcfRYxP9MzgwTEIvX8SgW8tJmD5yHWy2hF+IpPDwz6fwaTgG9397kNStEBFREjt/xvzAsGDR3MiQyV1hN0REREREqY/dbkefboNx+dKVBNcW/qAcRqwLshuGuWML/+sHJbiEA0MFnke/gH+LiTi483RSt5Kg+789QC/PqYiNMf81NCIiSnkS84Rh+SolFHZCRERERJQ6TZs4F1vDdya4LlP2HJi4NQquadM6MC0EbDZbgms4MJQs+tkLtK87Cl8e/DapWzHt3KkrWDI94dQdIiJKmR788QR3btw3vZ5fRyYiIiIikmtX1D7MmDIvwXXOVisCNociW568Aj8t4ScMnQWq03+JjXmNnm2m4MLXV4VruadPixJlCqBY6fzImj0D0rmngWEx8PhhNB79+QTXfriNi9/8hFcvYyR0DiydHoYW7WujcPE8UuoREZE+LiTi68gAA0+IiIiIiGS6euUn9Ogy0NSTf/0XLkGZmrWEfp6ZMww5MJTEbrdjSOe5Qk8WZs2REW396qNBi8ooX6UEnJ2d/nF9bMxrfHv6CkIDD2Bn6FG8fOH48DDmVSymjwjEmu3jHK5BRER6SszXka0uzihdrpDCboiIiIiIUo/Hj57Aq6Ufnj5JOCzXc9BQNO7WQ/hnMvTkHVozfzt2bDnq0LV5C+bE/A3DcPpWEEbP8sdHNUonOCwE3nxoq1TzfcxdNwRf/7oRPYa2hpOT4y/pgR2n8f23Pzt8PRER6en8GfNPxpf6oBBcXK0KuyEiIiIiSh1sNhv8ffvip2u/JLj2w3oN0G3aDCk/lwPDd+TcqSuYPnJdoq+zujhj+GRfHLmyCp5+9WB1cfyBzwyZ3DF2bg9EnZqPIiUd+x673W7H6nnbHO6BiIj0Y7fbE3WURrlKxRR2Q0RERESUeowdNQWf7zmU4Lo8xYojYHMonJwlfVGYA0P1Xvz1CgM6zsLr2MSlDOcrlBM7zyzAwDEdhAaF/61sxaKIPD7b4QPp90R+iWdPnkvrh4iIkrfr137D44fPTK/n+YVEREREROK2R+7CwjnLE1yXNn16jA+LhHvGjNJ+Np8wfAcWTNyE29fvJeqaCtVKYueZBSj1gZozoDJlSY+Qg9McGhq+fBGDPZEnFHRFRETJ0flEB57wCUMiIiIiIhHfnb+EHp0HJDi4szg5YVTwZuQrWUrqz+fAULErF29g9fztibrmoxqlEbxvCjJlSa+oqzc8MqTDkpARSOeeJtHXfrH3rIKOiIgoObqQiPML02dMh0LF8yjshoiIiIgoZXv44BE6ePrjr79eJLi258zZqNSoifQe7CbSmDkwFDBj1PpEfRW5SMm8CNwxHu4eiR/iOaJAkdwYO7d7oq/78uC3iItL+F8eIiLSX2ISkstWLAbDMBR2Q0RERESUcsXGxqKjVzfcuH4rwbUNfDuj9YDBSvrgE4YKXfj6Kg7vPmN6fTr3NFgbNR4ZMrkr7Op/te/eCIWKvZeoa54+fo4b135V1BERESUXMa9icflCwols8fh1ZCIiIiIix302ZCyOH/kqwXWlqlbDoKUrlPXBgaFCCyeHJGr92LndUbBobkXd/D2LxUDXgS0Tfd33581/gCQiIj1dvvALYl7Fml7PwBMiIiIiIsds2hCGVcvWJ7gue958GBcWCaurq7pmODBU49dbfyTq6cKSZQuiffdGCjv6Z20710v016Cvfn9TUTdERJRcnE/E+YUAnzAkIiIiInLE6ZNnMaD38ATXuaZJg7GhEciUPYfSfviEoSJhgfthsyX8DzfeqJn+sFiS7syndO5pULF64hJ17tz4XVE3RESUXHx76orpte/ly4bsuTIr7IaIiIiIKOW5d/c+Onn3wKtXMf+4zjAMDFsdiGIVKirviQNDRSKCDple+1GN0vi4UQWF3ZiTmIFhmrSuyJknq8JuiIgoObjwtfknDD/4iE8XEhERERElxsuXr9C+TVf89uvdBNd2GjMOtb3avYOuzA0Mnd9BHynKTz/cxu3r90yv9/Stq7Ab8z6qUfof/75HhnSo36wSGrWpho8bVUSatAq/K09EREnuyaNoXL/2m+n1H/D8QiIiIiKiRBk6YBS+Pn0uwXXVW7aGT8C4d9DRv3BgKN/Rz78xvdbJyYKGraoq7Ma8Uh8U+p+/ljGzB+o2/QjNvGqiVsMP4eJqTYLOiIgoKXx7+kdTO4vxylfmwJCIiIiIyKxli9Zgw9rNCa4rVPYDfLYuCIbx7o6ys9lsCa7hwDCRTh75zvTaj2qURtbsGRV2Y16GTO7Iki0DnK3O+OT/sXeXAVFt7R7A/wNDl4qBmKCoCIotdouNrditYIGtqCi2otiNjWCL3WIXFiI2SCMl0jHM3A9ez+vx6DBrz9oTuH6f7n3PWnstcIaZ/exnPU/PJujcuynsW9eGpiY7lc4wDPM3IjmOrKmpAdt6VXncDcMwDMMwDMMUHffvPoL7rMWFjjMpWRILj56AroGBAnb1E5ZhSN+7ENm7B9vUrcLjTsgdDVyFKjUqKLUBC8MwDKMaXjx+J/PYqtYVYGikx+NuGIZhGIZhGKZoiIyIhlOfUcjLy5c6Tqilhfl+x1DW4r8nQvnGahhSlp2VS1S/sFzFUjzuhpxVzYrK3gLDMAyjIl48lj3DsG7jGjzuhGEYhmEYhmGKhuzsHAzqOwpJicmFjp24fhNqt2ylgF39F+uSTFn05y8Qi2Wv96SlzWoCMgzDMKonKjweyQmpMo+3a2jF424YhmEYhmEYRv1JJBI4j3bF86eFl7LrNdkVXcaMU8Cufo8FDClLS80kGp+aks7TThiGYRiGO5LsQgCowzokMwzDMAzDMIxUa1duwjH/04WOq9euA8auXK2AHUnBAoZ0pX0jCxi+CQ7naScMwzAMw93zR7LXL9TV00Z120o87oZhGIZhGIZh1Nv1K4HwXLiq0HHlrarB3dcfmkLlVghkGYaUSWRoO/2z+zdeIjcnj6fdMAzDMAw3JA1PbOtVhVCLlTxmGIZhGIZhmN/58P4Thg4cj4KCAqnj9I2NsfDoCRgWL66gnf0ZCxhSZmisTzQ+NSUdp3xv8rQbhmEYhiEnyhch5NlHmcez48gMwzAMwzAM83sZ6Rlw6jMK31K/SR0n0NDA3AO+qFTTRkE7k06WhDgWMCRgWsqEeI7XgoNIJzzKzDCqTiKR4NPbKGVvg2GKnMT4r/j2NYPXNd6FRCAnW/bs9zqNqvG4G0bVZaRnI+lLKmIiEohrORclebn5SE1JR2RYPFKS0iDKFyl7SwzDMAzDKJlYLMbIIS5487rw0ztjV65Go85dFbAr2ciSYcjOGBGoVNUc2jpayMvNl3lOQlwKpo/0xo4T7hAIBDzujgGApIRUvA0OR+jLcLx99RlR4fFIS81E2rdMpH/LRFZGDgyM9GBopAd9Qz1YWJnDwqocqtQoj4bNbVClenll/wgqLSo8Hkf2XMEp30BEhcdj+MRu8PAex44rFnF5ufl4/zoCb199xpvgcHx8E4XkxG9I/5b5z/tLR1cbunra0DfQhXmFUt/fW9XKoXaDaqhnXwO6etrK/jFUVl5uPs4fv4uTB2/g7rXnqGhpBp8AD1S1rsDLeiT1CwH1zDDMSM/Gu5DP/3wehH+Ixbev6fj2NQNpqd8/DwyN9aGrpwN9Ax2Ur1zmn8+Cuo2rfz+GLdRU9o+hUGKxBG9ehuFBYDCC7r9B+PsYhL2P+W1plXKVSsOmjiVs6lZBy471UM++RpH6jhMfk4z7N1/i8Z3XeBfyGWHvYvA1Oe0/44xMDFDTzgI2daugQdOaaNetEfT0dZSwY4ZhGIZhlGGJx2pcOHul0HHthwxDn6nTFLAj2ckSMBQAKHzUzxMEAkmE+HzR+VZIqEdjN6LaTz+MmNQdizdOKFJfqFVBXm4+Ht0OwbVzj3Hj/GNEfIqT63plzE3RokNd9BrcBk3b2kFTUzWTcMPex8DR3o1oTt3G1XHg4hJO692/8RJ7Ngbg2tlHEIv//SejaZva2Hp0HkqUNCa6prvLFpzxvyXz+FJmxXEjdAfRGsqWlJAKR/tpSEuVPWNs0NhOmLtqFI+7kk34h1hcP/cI188/waPbIXJl0+joaqOefQ106t0Ujk6tiV8rijTa0ROP74QQzTl2azVq1KpMvFZi/Ffs33IWvjsvITkh9V//zdBYH5t8Z6Fdt0bE1y3MjFHeOLr3qkxjS5Q0xvMEP5X/7JJIJAh59gnXzz/G9XOP8erph//8rSJhaKwP+1a10K1/C3Tq1RT6BroUd6ta3r+OwLF91xDgF4j4mGRO1yhfuQwcnVph1BRHlDJTfk0eLtJSM3HK9yZO+97E0wdvOF1D30AXHXrYY5hLVzRsrhrHjRiGYRjVt33NcSyftYdozrTZk7BkxXyedsTI4sypCxjUd3ShgTdr+yZYc+UGtHRU66Hidd+DWD1quNQxLC2IUJsuDTgFDPdtPotvXzOwYsfkIn3joShP7r7Goe0XcCXgITIzsqld90tsMo7vv4bj+6/BrJwpnMZ2wqgpjjApbkhtDRrKVyqNjLQsFBTI3ojn80fyYOqNC0+waam/1Jun+zeD0b2RK3wCFhIFTewaVsPBbedlHv/tawbev45ANRv16dY6e+xGRIXHyzy+goUZJs934nFH0iUlpOKIzxUc23cVYe9jqF03NycPDwKD8SAwGEtn7Ea7ro3gMqefSmaulTIrTnwkOCEuhei1HxedhO2rj8Nv96U/Hg3OSMvCaMfFmLVsOJxn96MasHvx+L3MY+s0qq7SwcLPH2NxaPsFnD4ciIS4FGrXzUjLwrWzj3Dt7CMYGumh+4CWcJ7dD5WrmlNbQ9mC7oVi84qjuHnhiUxPmKWJ/vwFW1Ycxb5NZzFuem+Mm9EbBoZ6lHbKr8T4r9i17hQObT+PjHT5vk9kZeYgwC8QAX6B6OhojzkrRvKWKcwwDMMwjPK8e/MB40ZOLfQ7lGlZcyzwP6ZywUKANT3hRff+LTnfPJ3yvYnujVzxITSS8q7+DpkZ2Ti0/QIc7CaiT4uZOOV7k2qw8FfxMcnwXuSLphYjsXbhQWRl5vC2FiltHS2Yli5GNOd3x6n+5MXjd+jdfAZGdPWQKdMiKjwevZpOx6VT92Veo1lbO5nH/nD7yjPiOcri73MZV888lHm8hoYAXntcYWik+JvsoHuhmDxoNRpXGIZV8/ZRDRb+Kj9PhEun7qNHYzcM7bSAqPmGIphXKEk8JyVJtvdWRloWVszZi5ZWY7B305lC6wiKxRKsnLsPUwavIao5WNgePr6R/TPIrqHq1S8UiyW4EvAQQzvTADP/AAAgAElEQVQtQOvqY7Fz7UmqwcJfZaRnw2/3ZbS1Hg/XYV6IiUzkbS1FiI1KhMuAFejdfAZunH8sd7DwZ5kZ2fBe7It2NScg6F4otevyQZQvwg6vE2hVbQy2rzkud7DwV1cCHqJjbRdsWXFUrmxXhmEYhmFUy9eUVPRzHIb0tHSp43T09LDo+CmYllXNB84sYMiDqtYV0KJDXc7zP4RGfs/GWn+aFcyWUV5uPvZsCEDzKqMxz3kz3gSHK3T99G+Z2LDED+1tnXHjwhOFri0NaZ2k7KzcQsckfUmF61AvONpPI77Zy8zIxvg+y7De87BMf3zKVSqNSlXKEq2hLgHDyLB4eLrtJJozfFIPNGldm6cd/d7zR+8wsN1c9G4+AwF+gcjPU+zfpFuXn6JHYzcsmb5LZQLyevrkGeCFvbckEgn8fS6jhdUYbFt17Lc14aQJ8AtEnxYzEBedRLy3XwUHkR3VtVOxhidXzzyEg50LxvT0xK3LTxUaiBGJCnDy4A20t5kAn/WniTK8VcWJA9fR3mYCzh29w+s6sVGJ6N9mDk4fDuR1Ha4+volCt4auWDbTh3qg8GciUQFWzduHKYNXK/zvK8MwDMMw9BUUFGDUUBd8+ig9JiEQCDBtpw+qNWiooJ2RYwFDnrgtGizXEa2szBwsdtsJhzqTcPfac4o7K1oKCsQ4tu8qWlUfi0WuO/5T40vRoj9/wYiuHpg7YTNR4xu+kDaRyMvN/+PNtUQigd/uy2hjPQ4nD93gnHEikUiwzuMQnPuvkCkARJpl+PDWK+Jgi6IVFIjhNnwt0U2oZbVymLNiBH+b+sWH0EiM7bUEPZtMw/0bLxW27u+IRAXYte4UHOwmKvxhwO9waVgg7TX56W0U+reejVljNsj1N+zV04/o1nAqnt7nVlvtB5KSGgKBQGWOjT+89Qq9mk7HaEdPvAuJUOpeMjOysdhtJ/q3ns1rZiNNebn5cB3mRfy3SR6ifBFch67hPThJ6pTvTXRtMAWhL8MUtuYZ/1uYPHg1yzRkGIZhGDXnPssTVy7eKHTcoHkL0Lr/QAXsSA4sYMiP+k2s0WdYO7mv8yE0EoM6uGNk90UIDvpAYWdFx/vXEejdbDqmj/RGTESCsrfzL747LqBfq1mci8PTQtqZWEdXGxoa/w10x8ckY3DH+Zg9dgNx7bY/uXD8Lno3m1Hov11TwoBhTnYeHt95Lc/WeLdjzXE8uSv7HjU1NbB23zSFdNbMy83Havf9cLCbiMunH1A9iiiviE9x6NlkGgL8ApW6D6EWeWfc3wXvJRIJdnufgkOdSXh0m6yJyp8kxn/FgLZzZG5Y8jskHZIrWJRReoOar8lpcB3qhf6tZ3NuRMGXJ3dfo0v9KXIHcfn27WsGhjjMx8mDhX+5pU0slsBt+FqVKT2wefkRuA71kinjnrYLx+9incdBha/LMAzDMAwd/oeOY5N34U04m/boiaHzFypgR/IRiws/LcMChhwt3jAeFS3NqFzr+rnH6N7IlQUO8T0jYeNSP3SpP4XoxlbRnj96hz4tZhI1tKCNNNPOyET/P//bpVP34WA3kZdM19CXYejWcKrUYEnTNnbE2bqqfCz59YswrPU4RDRn3PTeqN/Emqcd/c+zh2/Rqe4kbF5+BCJRAe/rcZGdlYspg9dg3+azSttDbg559rCxicG//v+EuBQMcZgPz2m7qGcj5+XmY8Yobyxy3cHp35G04YkyXThxD+1sJuDkIcUHumSVEJcCp/ZzVfbvUvq3TDi1n4eHt14pbQ+5OXmYMmSN0rPD18w/gNXu+5X6oGTLiqMqH2BmGIZhGOa/Xj5/hckTZhY6zrK2HWbtPQCBhuqH2tiRZB4ZmRhgx4n5MDT+bxCGC4lEguvnHqNbw6kY3NEdd67+fUeVP3+MRffGbvBacFAljvwWJio8Hv1azUbEJ/LuwzSQNkEobvq/TCGRqACe03ZhXO+lRM1QSCUnfoNT+3nw3XHht/+9ZJliqG5L1vX41uWnNLZGXV5uPlyHriGqU1XNphKmew7lcVffj0ivnLsPfZrPwMc3UbyuRYNEIoHHlO3Y7X1KKevnZJNnHhX76b316HYIOtWdxPvf8D0bAjCs80KkpkgvtvyzuOgkfImVPTO6jpLqF2akZ2OS0ypM6LsMSV+UW4pCFjnZeRjt6KlSNW6B7/sa1mWhSmT3fXwTpdQHAdtWH8emZf5KW/+HggIxPKZuV6nsboZhGIZhpEv4koj+PYcjK0t6WRdjU1MsPHoCeoaGCtqZnFjAkF82dSyx+9QC4lpyhblz9TkGd3RH57qTcMr3pspmA9F04/z3YOnr55+UvRUisVGJGNHVg9pRXhKkgQ3r2hYAgKSEVAxqP09hARlRvggeU3f8MbOjSRuyY8nvQiKIgh6Kstp9P1FtNaGWEN77p0NbR4u3PaUkpWFopwXYuvKoWjVokEgkWDJ9t1Jqn3HpRmxduzIAwGf9aTi1m6uwINfda88xtNMCmcs2kNQvBJSTYfjpXTQc7d1wxv+WwteWR25OHlz6r1CJ4NwPc8ZvVKlstq0rj1Hr9k3ixvnHWDV3r8LX/ZPgoA+4euaRsrfBMAzDMIwM8vPzMWzgOERHxUodJ9TSwgL/YyhrYamgnclPlgeYZEXQmP9o2tYOBy8txcjui5CRlkX12q9fhGHqkDVY7b4fY1x7YuAYBxgY6lFdQ9kkEgnWex7GBs/DalsM/NO7aDj3X4EDFz0hFJLXP+MqO5MsYGhbrwo+vonCsC4LEf35C7V9mJYyQXXbSqhsVQ6Vq5aFhVU5WFiZw8jEAPoGujAyMfht7cQfmrezw96NATKvJ5FIcOfqc/Qd3p7G9ql4EBhMHICdNLc/atWvytOOvjfJGNdnqcrVAJWVRCLBtBFrUdHSDLUbWCls3awMsoYQ5SuXgZGJAeaM34TDOy9S24dQS4jqtpVgYWX+z3vKolo5lCpTHMbFDKCrp0P8sOoFQZkHoZYQtvX4e33+zpWAh3Ad5kX9s1RRsjJzMNrRE2cfr0fpsiWUupdD2y9QqVlYoqQxDIz08TU5Te5/l6/JaTjjfwv9R3aQe1+yiolIwJQha+T+fqGnrwPT0sWQnZWL1OQ0uR/A7N9yFh0d7eW6BsMwDMMw/Js+xR13bj0odJyL90bUbtma/w1RxAKGCtK4pS3OPvKGc/8VePvqM/Xrx0QkYLHbTqz3PIyhzl0x2rUnTEuZUF9H0fLzRJhKuYOiVc2KqNOoOqxrV0alKmVRxtwUunraEAgEyMnOQ3xMEj5/jEPIs494dDsEsVGJVNa9e+05tqw4iqkLnKhcrzDZWbnIJAxsZGXkoFez6XJnQxY3NYZ9q1qwb10LzdrawapmRbm6hjduWQuamhpEN2C3Lj9TmYBh+rdMTBuxjuiG1KZuFUyZz1/XrGtnH8FlwApq2TzFShihnn0N1KpfFRZW5VDR0gy6etowMjFAWmomMjOyEfEpDh9CIxF0LxTBQR+oZEbnZOdh4sCVuPxyC/QNdCn8JIVLTvxGNN6yWjmMoXAcVSjURO0GVrBvXRtNWtdCw+Y21H9mkvqF1W0rUc+el2bXulNYOmM3taOaZuVMUbdxDdRuYIWKlmYoV6k0dPW0oaung8z0bKSmpCPiUxzevvqMx3dC8C4kgsracdFJmDZiHQ5eWiLX30V5xEQmYvksH05zK1qaoeeg1ujUqymq2VT6VwZ0VHg8rp9/gn2bziDsfQyn6wf4BSo0YDhn/CakpWYSz9PT10G3/i3RqVcT2LeqBaOf6pSmf8vEo9shOLzrEq6fe8zpdXPv+gskJaSiZOlixHMZhmEYhlGM3dv3w2fHgULH9Zw4BV3HjlfAjihjAUPFqVKjAs48Wo+Fk7fB3+cyL2t8+5qBzcuPwGf9aQwe3wXjZ/RGGXNTXtbiW052Hib0XUal5lOt+lUxYFRHtO/eGOYVShU69mcvn7zHiQPXcWzfNeIA3K82LPFD+26NYFO3ilzXkUVyAvmRxw1L/DjfEOvoaqOjoz36Dm+Plh3rQVOTXjUD42IGqFXfiui45N1rzyEWS6RmLiqKx9QdRFl82jpa8N4/nbjLtawC/ALhNnwdRPmy11L8HeNiBug3ogO69GmGek2sC/03t29V65//OyUpDeeP3cGBreeIjmn/TsSnOCyb6YNlWyfKdR1ZJSWQBQzvXH0uV6DJurYF+o1oj56D2/AaPCgoEBM11VLkceR1Hoew3vOw3NcpW74kBo5xgEPPJqhpV/hxkBYd6v7zf0d//oLThwNxcNt5xEUnybWP21eewXfHRQyZ0EWu63DlMWUbMtLJPs8MjfUxbdFgDJ/YHVrav//bVMHCDCMmdceQ8Z2xafkRTicDHt56hYz0bBga8X9a4oz/LU41b3sNboM5K0eibPmSv/3vRiYGaN+9Mdp3b4y7157DddhaJMSlEK0hFksQeDFIZR58MQzDMAzzbw/vP8FM1/mFjqvbtj3GrfZSwI7oY01PFExXTxurd0/FZr/ZKGVWnLd1srNysdv7FJpZjsL8iVuRGP+Vt7X4kJGWhWGdF8gVLNTSFqLnoNY4dX8tzgdtxDCXboUGC3/HrmE1eG5yxsPI/Rg/o88fb5RkIcoXYdbYDQo5Wp3EIWDIJahRrlJpLNnsgqDYQ9jiPwdtOjegGiz8oWlbsjqGyYnfVKLe5cWT93B8/zWiOW4eg1GjVmVe9nN450VMHbJGrmBhjVqVsXLHZDyOPggP73Fo2NyG+N+8REljDHXuiivBW7H79EJYWJlz3g/w/XilomqxkQbjubyvhFpCDBztgIvPNuHyyy0Y49aL90yjD6GRRA9FFNHwRCKR/JM9L48mrWtj+3F33AvfCzePwTIFC39VvnIZTJo3APfC9mD5tklyZ/Evn+WjlM/mZw/f4krAQ6I55SqWwsm7Xhjj1kumz0ChlhBuHoOxYscU4v3l54mIAtdciUQFWLvwINEcTU0NLN3igg2HZv4xWPir5u3r4tit1ZyOoAepUH1JhmEYhmH+Jy42HkP6j0VenvRGrGaVLTD34GFoCtUzD48FDJWkx8BWCHy7E6OmOvJa0y4vNx8Htp5DS6sxWO95GFmZObytRUt2Vi6GOMzHw1uvOM0XCAToOag17oXtxUbfWajfxJrKvkyKG8J9zWhcer6Z083mD6+eflRIsX6+myqYVyiF5dsm4fb73Rg+sRtMivPb6akZYcAQ+J7Fo0yJ8V8xd/wmojl1G1fH+Jl9eNmP744LmDthM+eAdUVLM/gELMSV4K0YNK4zleOwAoEAHR3tcS1kOybM7Ms5I1QikWAZxyOWpJK+8BfkEQo10X9kBwS+3YnVu6cqJBv5B1VseOIxZTt81p/mPL9u4+o4+3g9jtxciS59mlH5vBVqCTFkQhcEvtuFLn2bc75ORno2vBf7yr0fUhuX+BGNNy1lgmO3VnN6iOE0xgH9RpAfLw59wf/DnjN+txD+QXpx8l+t3DkFw1y6Ea9lYWUOrz1uxEfQQ1+EEa/FMAzDMAy/cnJyMaDXCMTFxksdp2dkBM9TZ2BSUraHjKpIAhYwVBojEwMsWj8eF55tQiuH+ryulZmRjXUeh9Cq2lgc23eVWg0o2kSiAjj3X4FnD99yml/dthKO3FyJjb6zYFaOn6PYVjUr4swjbzg6teZ8jTXzD8h9HLQwMZF0ai/+SltHCzOWDMXtD7sxZEIXuTIuSTRoVpO4WzCXo2a0SCQSzByzASlJaTLP0dXTxrp903h5iHD59APMn7iV03tfV08b0xYPwfXX29GhBz9F+LW0hZi3ehR2n17IORAZdC+UOHOKlEhUgC+xZEcLZWXfqhauvd4Orz1uqGhpxssa0pDULzQ00kNV6wo87gbYvPwI9m0+y2muaSkTrN49Fafur4NdQ34yIU2KG2L7sXlYuG4s50C3/+7LnGv9cREVHo/AS0EyjxcIBNjiPwflK5fhvOa81aOgo0tW65KPWs+/Orj9PNH4QeM6Y8CojpzXa92pPtp0bkA05/3rCLVt9sYwDMMwRZXrxNl4+uSF1DECDQ3MPeCLSjVtFLQrfkjEhfcQYAFDntWoVRkHLy3BybtexMcuSX2JTcb0kd4Y1nkhbwElriQSCeaO34Qb5x8Tz9XU1MB0z6G4+Hzzv+qk8UVbRwsbfWdyyjQAvt+0XThxj/Ku/i0yLI76Nes3scbFZ5swZb4TcfBOXnr6OqhnX4NoztMHb4jrdNHit+sS8Wt51rLhqFKDfhDmyd3XmDxoFaeunXUbV8f119vhunAQ8U0/F+27N8bha8s51y/b4XWC8o7+LSYigUqzlp8ZGutj+bZJOHJzJSyrlaN6bRIkHZJr1bfipfTAD8f2XcWa+YUXkP6drv1aIPDdLgwc7aCQGqZj3HrB+8AMTmuJRAXYs0H2DvDyOr7/OlEAqnOfZnJ/LzEtZYKu/cgyMT++iZJrzcJ8ehtFVMLAuJgBZi8fLve6wyaSfWfIysxBbKR6drFnGIZhmKJo47rtOLjXv9BxY5avROMu3GIFqoQdSVYhDZrVhP/1FTgauOpfhdb5cOvyU3So5YzDOy+qTLbh+sWHcWTPFeJ5xU2Nse/8Ykxd4MTr8e5fCQQCeG5yRs9BrTnN37vpDN0N/SIyTHqKNAmBQICpC5xw/M4aWNWsSO26pEhvXPPzRHgYGMzTbv7s88dYLJm+m2hO45a2GDW1J/W9fHoXjdGOnpy6IQ8e3wXHbq1GBQvFZrvVs6+B3QEenJq+PLn7mtfalTTfVwBgU8cSV15uwZAJXZTWMRf4Hph4/1r25jN81i+8dfkpZo/bRPzZJBRqwn3NaGw9Mof3Egm/6jW4DZZsduE098SB60j/Rt6ll4vrhA8xXGb3o7Juy471ZBqnp6+DLn2aYdwMfsoy/HD9PFl95IGjHVDc1FjudZu2sZMpK18gEKBOo+qYu2qUwl/LDMMwDMP8XuD1O1gwZ2mh49oNHoq+bjMUsCP+sYChCrJvVQu+V5bhwtON6D6gJW9ZHBlpWZgzfhMmD1qN3BzyYAJNgZeeYsMS8qL2tvWq4nzQBt6PdP+JhoYAq3e7cqpp+PT+G7m7w0pDK7Chb6CLbUfnYrrnUF4zimTBpY6hoo8lFxSI4TZ8LVHzCANDPazdO416NlROdh6c+y1Hako60TwdXW147XHDiu2TFJ5J+kPTNrUxf81oTnN9d16kvJv/oZm5261/C5y8t1au4560hDz7SJQ5acdT/cLYqEROTXlMSxfDoSvLMH5GH6UFXoc6d4XTGAfieZkZ2Th9OJD6fn6VkpSGkGcfZR5frlJp1Kpflcra0moJGxrpwdGpNbYfd8eLRH9sP+6OLn2aUVn3T0jr23amtB9dPW3Y1Pl9XVINDQEaNreBh/c43P+8D2ceecN5Vl8YmRhQWZthGIZhGO4iPkdhmNN4iETSv6Na1auPqVu2K2hXCsAChqrLtl5VbPGfg1vvd2OYSzfo6vFzHPCM/y30bz1baZ2U42OS4TbMi7hOj32rWjhxZ43Sb7Z19bSx0Xcmp1p+F07c5WFH34NWnz+SFXP/nRIljXHizhq5CvvTVKdRdRgYkh1VVXTjk22rjhF36523ehQvNes8pmwjrgWmp6+DAxc90X8keaMC2kZNdZQ5M+lnl08/4K3u16d3dOrNuczpjy3+c6Cnr0PlevJ6TnAcGeAnw1AkKsAkp1VEdT8BoGz5kjh9fy2atqlNfU+kFm2YgEpVyhLPu3jyPg+7+bc3L8OI3hfVbSpRC76Wq1T6XycATIobou/w9thzxgPPE/yw6fAsdOnTTGHvh9eEzUSq21SitvbPrw9NTQ00a1cHS7e44HH0QZy4swajXXuiXMVS1NZjGIZhGEY+GRmZ6Oc4DMlJ0uuYlzAri0UnTkNHj1tpJVXEMgzVQEVLMyzd4oIHEfsxdYETipUwor7G80fv0KOxK68Zb7/z4wYxOfEb0bxGLWyx7/xilbnZrmZTCeM5HKG6fOoBD7sBwt/HIDsrV65rFDc1xuFryxXapbUwWtpCNGxek2hO+IdYRIXTPUb6JyHPPhJ3PW3evi6GTOhCfS+nfG/Cb/dlojm6etrYc8YDTVorP/Dyw/Jtk4hrJybGf8WzB2RBW1mFvpS/a+nEuf0xZ8UIpR5B/hVJw5PSZUvAvAL9gMaa+QcQdC+UaE4Zc1P431jJKUjHBz19HSzdQn40+eGtV8SZwKTeh0YSjTfgWEf0d4RCTVjbWWDQuM44dHkpnn85jHX7pqF998YKqY36s+TEb0hOSJV5vIaGAPqED6qkqVTFDG06N8CqXVPxNP4w/K4txzCXbihdtgS1NRiGYRiGoUMikcBljBtev5J+b6Gjp4dFx0+hpLny6pHzgQUM1YhpKRNM9xyKBxH74OE9jvoT6JjIRDi1n4tP76KpXlearSuP4vGdEKI59ZtaY9/5xZw7qfLFeVZf4mBu6MswJH2R/caF5LryMDIxwOFryzkdteYblwL8ty7zn2WYm5OHqUO9kJ8n+1FKIxMDrPFxpR44iolMhLvzZqI5Orra8AnwQLN2dajuRV4VLc0waFxn4nl8HUV/8zJcrvnjpvfG7OUj6GyGohePZc8w5CO78EFgMHasOU40p5RZcfjfWAELK3Pq+5FHK4f6xNmOonwR7t94ydOOviP9rAmj/F3gfNBGrNwxGS071uNUn5QW0t+DWCxB+Ht6v4sZS4Zh/wVPOI1xQImS8tdFZBiGYRiGP6uWeuPEUem9BwQCAdx27Eb1ho0UtCsFYgFD9WNgqIfRrj1x56MP1h+Ygeq29I7KJH1JxRCH+cQZf1x8/hiLTcuOEM2pUqMCDl5cwrmDKp+MTAwwYlJ34nlPeciECpUjqKGpqYEt/nNgU0f1goUA0KwteUBLEceSV87dhw+EGTx8BP6B70eRSbpDCwQCbPSdyXuzJa6cZ/Ulbmj07OFb6vuIjUrE12Sy47I/69SrKeat5laXkU+J8V8REyF7J9Y6lOsX5ueJMM95C9FxWT19HRy6vBRVqpenuhdaJs0bQDyHj8+Cn2WkZRGNf/0ijPcgpjKQ/h4AYJf3aR52wjAMwzCMKjt/5jKWLfYqdJzTHHe0GeCkgB0pHsswVGNCLSF6D22Lyy+3YsOhmdQ6mcZEJMCl/wqiAvhcuLtsIWq2oqevg+3H5sHQWJ/HXcln4BgH4sYgfBydfPX0A+e57mtGo3Un5TSRkYVN3SrEmZz3brzk9fV8/8ZL7N0YQDSnXbdGvNQJvHz6Aa4EPCSaM3ZaL3TuzW+TAXmYlTNFu25kT+yeP3pHvY5hyDPu3Zdr2lnC+8B06o1taCDJLgToZxhuW30Mn95GEc1ZtnUirGtbUN0HTc3a1SHOfHz2gH6Q+2ekXacBYMHkbUhLVUwHZ1V2xOcy7t8MVvY2GIZhGIZRkA/vPmHM8MkQi8VSxzXp7ohhCxcpZlNKUNjPD7CAocrT0BCg1+A2CHy7E4vWj0dxU/mPuDwIDMaudaco7O73AvwCcefqc6I5y7dNoppNyQfzCqXQqIUt0RzadSMlEglePpG9HtnPOjraY4xbL6r7oU1DQwD7VrWI5qR/y8RzHjLOACAtNRPTRqwjCk4VK2GEVTunUN9LZkY2PKaQdeVq0Kwm5qwYQX0vtPUc1JpofEZaFmIjZc+ak8XzR9xeQ3r6Oth6dC5xwx5FIalfKBAIULsBvYAhl0xzpzEO6Du8PbU98EEgEKDHwFZEc9695reGsHEx8m67H0IjMajDPN7rKyoSl99DQYEYo7ovYkFDhmEYhvkLpKelY2CfkUj7Jv1kUUXrmpi1Zz8EGkU4ZMYyDIsOLW0hRk11xPXQ7ejWv4Xc1/NedAgRn+Io7OzfcnPysHzWHqI5TmMc0GdYO+p74UOHHo2JxkdSbsgR9j6GU0aIaSkTrOQhiMUHLnUM+TqWvHDyNsRGJRLN8dzkzEuB+51eJ4n2Ylq6GLYemavUemKyatWpAbR1tIjmRIZ/oboHksDaz+auGgXLaqpbAJkkw9CyenlOAZc/WTF7L1GmuU0dS3hucqa2Pp869LAnGp+RlkXcIZqEZTVux7eDgz7AwW4i7l1/QXlHylHR0oz4JAAAZGXmYEhHd6z3PMz7CQyGYRiGYZRDLBZjxGBnvA2V/r3f2NQUnicDoG9ctOsRsyPJRVDJ/w8CbD/ujpJlinG+Tk52HrwXkXV8lYW/zxXERSfJPN68Qiks9B5HfR98Ic1+i/78hdNRsT95yTGosXjjBJQszf31okjNVCRgeP7YHZw8dINoTpc+zYiz5WSRlpqJ3evJ6mwtWj8OZuVMqe+FD4ZGeqhVryrRnMgweg88xGIJgoPIj/o3bmmL4RO7UdsHbaQZyTSPI4e+DMOlU/dlHi8UasJr7zSFd9XlyrZeVeISGnx2dK/XpAbnuXHRSRjc0R3TR3ojPiaZ4q4UT0dXG7aEf0t+EIkKsM7jELo3nFok6zsyDMMwzN/Ow305Lp2/JnWMUEsL8/2OoqxlFQXtSnlYwLAI69KnGS4934z6Ta05X+P04ZsI/xBLbU95ufnYuvIo0ZxFG8ar7FG+36lR2wJ6+joyj8/JzkNmRg619bkcm2zUwhbdB7Sktge+VbWuQJyhFxz0geqxui+xyZjnvIVojmnpYli2bRK1PfzMZ/1ppH+TPbO0RYe6cHRqzcte+FKnMVmzjRSKzZvC3kUT/X6B78fnF60fT70LNk1h76KJMpJpNjzZ4OlH9LBk5JQeKtuM6Xc0NASwa0gWYOWz4VjlquZylfUQiyU4tu8qWlUbgxWz9yApgazbsCpx6NlErvmvX4RhYLu5GNHVA88fkdUAZRiGYRhGNQWcPA/v1YXf37ms2wC7Vm0UsCPlYwHDIq502RI4cmMlOvVqymm+WCyB/+5L1Pbjt/syUXZh45a2nPeuLEKhJiysyI4fZmXI3tG2MKTHJgUCATy8x4uld2oAACAASURBVKl0UONXAoEATdvUJppTUCDG3Wt0jtRJJBLMGrOBuGPu8m0TYVrKhMoefpaWmgmfDbJnF2poCDDfawz1ffDNyroC0fisTHqBeNLGIADQb0QH2NRV7SePpH8vaGUYkmYXmhQ3xNQFg6isrUjValYkGp9N8TX7OyMn95D7GtlZudi2+jiaW46C57RdRJ/pqmLgaAeiB3t/cuPCEzjau2FopwV4eOsVhZ0xDMMwDKMMr16+xtjhkwsNkPVwnoSu4yYoaFcqQIaAoeoXt2Kk0tbRwtajc+Hcbzkun35APP/koZuYs3Kk3AElsViCnWtPEs1xGtsJkWH8HdHiSwnCoBCtwEZebj5CX4YRzWnXrRFq1ed2PEuZmra1w+nDgURzbl95RqW+56HtF3DzYhDRnF6D2/DWidh350WiLLGWHevBwFBP7d5bpEdRszJzqa1NGlgTCjUx2X0gtfX5QpIdpa2jhZp2dDL8dq49SZRd2HtoO6SmpKtd8w0DI7LseJpB7t8ZMNoBvjsv4tXTj3JfKyszB7u9T2H/lrPoPaQtJszqiyrVudVJVLSSZYrB1WMwVswmq6f8J7cuP8Wty09Rv4k1nGf3Q4cejdXqIRzDMAzD/M2+pqTCqc8oZGZmSR1Xq0VLjF/tpaBdqQZZvq+zgGERIBRqYqPvLPRpMRMhz8huFL7EJuPtq8+wrm0h1x7uXX9BXJ/Jdejf8YakVcLw9Ysw5OeJiOaoQ1Djd5RVxzDsfQyWzfQhmlPG3JS3Rg0SiQRHfC4TzQm89BTNq4ziZT+qRCwWU7sWaYZhD6dWqGhpRm19vpD8XDZ1LKGlLf9XgrTUTFw4fpdozt6NAdi7MUDutVUdSbd1LjQ1NbByxxQ4NpkGUT7ZZ8Wf5OeJcGTPFRzbdxUOPZvCZU4/4qPYyjDWrScCDgcSP2ST5umDNxjT0xNWNSvCZXY/OA5qDaFQk9r1GYZhGIahSyQSYVC/0QgPi5A6zqyyBRb4H4dQWz1qadPCjiT/RfT0dbDJdyZ09chf5DSKe/sTBjX+Jlz+TX6HNKhhU7cK6hLWhVMVFSzMUMGCLCATG5WID6GRnNcUiQrgNsyLOAto1a4pMCluyHldaR7feY2w9zG8XFvd0ThyCHzv7P4mOJxoztAJXamszSfSn4tW/cLTh28iJ1v2zsh/E1qfBdLUql8Va/e6QUODbgacWCzBxZP30L2RK0Z2X4TXzz9RvT5tQi0hfM54wLxCKerX/hAaCbfha9GmxjicPHgDBQX0Hl4wDMMwDEPPnOkeuH3zntQxekZGWHwyACYlSypoV6pDIkMCBgsYFiFValTA2Gm9iee9C5EecS/M1+Q0Tseh/xa0AhukHZL7j2hPZV1lUXSW4ZYVR4kL3A8c7YC2XRpyXrMwLBD/Z7p6dN5XIc8/EWXuVqleXq5mU4pC+nPZUapf6LebvWb/RE9fVyHr9BrcBks2u1APGv5w/dxjdKk/BZOcVql0jcNyFUvB9+oylDIrzsv1Iz7FwXWYFzrWdsGdq895WYNhGIZhGG78Dh7Dtk3ST44JNDQwZ/8hVLaxVdCuVAvLMPwLjZvem7jr8Kd30XKtefbIbeTl5st1jaJKKNSEcTE62WckGYZa2kI4DlLv7k7N2ikuYBgc9AEblvgRzSlXqTQWrhvLaT1Z5GTnER/t/JuUKGlM5Tqkgfi+w9UjEE/6c9HIMHwXEqHymWfKROs1K4uhzl3hE+AB42IGvFxfIpHgjP8ttKkxDpuXH4FIVMDLOvKqUr08zgdtRD37Gryt8SE0EoM7umNsryWIjUrkbR2GYRiGYWTz4tkrTJ4ws9Bxo5Yuh33X7grYkWqSpXQaCxgWMSbFDdHR0Z5oTnJCqlxrBl56Ktf8oqxkmWJUsjxSU9IR/iFW5vFtOjdQ6M0pH5q2sSMuLP/w1ivk5pAdh8zJzsPUoV5ENb8EAgG8fFxhaKxPtBaJR7dfITuLXmOPoqZ02RJUrkMSiBcIBOg9tC2VdflG8nOZFDeEhZW53GsGXiJrFvS3ofWalVW7bo1w9vEG1G/CX0ZsVmYOVrvvR+9mM4g+oxTJrJwpjgauwhi3XtDU5O9r7+XTD9CxtgvO+N/ibQ2GYRiGYaT7Ep+A/j2HITtbepmpdoOGoP/0WQralYpiGYZ/p/bdGxONz0jP5rxWfp4ID24Gc55f1JUxN6VynZdP3hN1HW3dqQGVdZWplFlxWNWsSDQnOysXT+6+JpqzYs5efHobRTRnmEtXNGtXh2gOqVuX5W/iUpSVMacVMJQ9E6+aTUWULa8e9U1Ifq7aDayodH1lr9k/EwgECg8YAoCFlTlO3PXC8m2TeMs2BL4HqLvUm4wLJ6TXCVIWbR0tLFw3FgEPvWFbrypv66SlZmKS0yrMGrOBWuMZhmEYhmFkk5+fj6EDxiImOk7qOKt69TF1y3YF7Up1sSPJfynSDobyHCcOuh+KzAzuAceijkbWDkB28w8ATTnU/1NF3OoYyl5L6s7V59i36QzR9StVKYu5q/jvQkyj63NRZlmtvNzX+JqchohP0r9Q/IzvIDEtpD8XjeZIXIL1fxPzCiUV0vTkdzQ0BBgyoQvufPTB+Bl9eNtHZkY2XPovx/4t53i5Pg21G1jh3JMNWH9wBq+dzv19LmO0oydxEy2GYRiGYbhzmzQX9+48kjqmhFlZLDpxGjr6/J0UUxcsYPiXKlepNFG2iJEJ96wDVuhbuio1KlC5DsnxwjLmprCsVo7KusrGJfApa6Dt29cMzBjlTZS5qaEhwLp906BvwG/zgviYZLx/LV8zoqKsZJliVLKlXj75QPTv36R1bbnXVIQXj8kykkkfMv3Oo9shxOUA/iaW1eUPcMuruKkx3NeMxu0PPhg11ZGXv2NisQQLJm2Fz/rT1K9Ni4aGAL2HtEXg251YuXMKKlel82DvVzcvBmFY54VEzYcYhmEYhuFm++Y92LvrkNQx2rq6WHT8FEqaF417ZbmxgOHfSVNTg6i2mjw33iHPPnKe+zeoQukmkSTDkM/i7opm36oWcc2pN8HhSIhLKXTc/IlbiTt8jnHrhYbNbYjmcMEaR0hXlVIg/vmjt0TjaWTiKQLJAwaATsMT9pqVjtZnAQ1m5UyxaP143P+8D64LB6G4Kf16t0tn7Maty6pd31ioJcSgsZ1w8+1ObPabDZu6Vaiv8fhOCOY5b6Z+XYZhGIZh/uf+3UeYO8ND6hiBQIBpO3ajesNGCtqV6mMZhoQy0rPl7hisKkhq55gU597F9/3rSM5z/wZVash/kxj9+QtRY5o6ahLUkIVJcUPimziJRFJo5usZ/1sI8Askum5V6wqYuXQY0RyuWHahdLSytUg6CZerVFopNei4ePFI9oBhuYqlUMqsuNxrstesdLSyzWkqUdIY0xYPwYOIfVi8cQIqWNA7oltQIMbEgSsRH5NM7Zp80dTUQI+BrXDx2SYcvroMLTvWo3r9I3uuwG/3ZarXZBiGYRjmu6jIGAzqOxp5edLLrA2cNRdtBg5S0K7UgywBQ6EC9qESRPkixMckIzYqEdERCYiLSkJsVCJioxIRE5GA2KhEpKVmwqycKR5HH1T2duWSl5tP1F21DMeb4Iy0LKIMrTqNqvPaVVYVWVjJn+5MWr9QXbKgZNWsrR2Cgz4Qzbl95Rn6DGv32/8WH5OM+RO3El1PKNTEun3ToKOrmBpk7wiCL2XMTYmbw6g7LrUtf+flE9nfW+ryvpJIJEQ/lx2F7EKALGBoWa0czCuWprKuurBraKXsLfyRvoEuRk7ugaHOXXHh+F1sX3OCyumBtNRMeC04AK89bhR2qRjN29dF8/Z18fpFGHZ6ncDZI7chEhXIfd3V7vvRfUBLGBrpUdglwzAMwzAAkJ2dg0F9RyExQXpMoqFDZwzzWKygXakPiVhc6JgiHzD8mpyGjrUnIjE+BWJx4RFUPo7mKJosxzF/VqO2Bad13odGEtXJ8j4wXaWOZakLkmOTQqEmajdQ3RtTLpq2tcO21ceJ5ty++hxisQQaGv+u5SmRSDBjlDdSU9KJruc8ux+VY5uyIsnc7dKnGRZvnMDjboqmyLB4JCd+k3l83cbqcdQ/MiweKUlpMo+v00j++oUFBWJ8fCt7dv74mX3hNMZB7nUZuoRCTfQY2Ao9BrbC1TMP4bXgIN4Eh8t1zRMHrmO0a09Yc/yeoSw2dSyx4dBMuC0aDO9FvgjwC5TpO+SfJCekYtuqYwrLUmcYhmGYv4HLGDc8C3opdUzFGtaYe/AwNDQ1FbQr9cGOJANITcnAl9hkmb/oFTc14nlH/At9SfYFv6Ydty/y0Z+/EI0vCsFYZSDJMKxuW4n3hhyK1rC5DbS0yZ5tJCekIvTFf2uq7d9yjrj7sHVtC7guVGz6Osl7q3hJ9r7igrTOn7pkGD4nOI4M0KlfmBj/lajhSVH4nC3qOvSwx8Xnm7F2rxtKyPE3pqBAjL0byTrRq5LKVc2x4dBMXHi2CfWbWMt1rQNbzyEvV/pxKYZhGIZhZOO9eguO+p2SOsaoRAksPhkAAxMTBe1KvbCAIYC01Ayi8cWKQFCL9CiRTR1uhb7Tv2XKPFZDQyBXrcS/lUhUQPTvWUdNsqBI6Bvocsru+jUw+OldNFbM3kN0DS1tIdbtn04csJRXRlqWzGNZIJ4bkkC8UEsI23pVedwNPSSBUE1NDdSqL//PRfJ6BSBXAIpRHA0NAfqN6IAbb3aiS9/mnK9z4cRdKsd6lammnSVO3PWC5yZnaOtocbrGt68ZxA+sGIZhGIb5rxtXb8HDfbnUMUItLSzwPwbzKurxHV4ZWMAQZEEtAChWQv0zH0g6E1pYmaNkmWKc1kn7JvtNopGJAXG3WwZ4FxJBVI+ynr16ZEGR4lKz7ucbM5GoAK5DvYh+lwAwZb4TbOpYEq8tj6zMHKKbaxaI54YksFbTzgK6eoqpXykvkkYuVjUrwsBQ/ppqaYSfsybF1f9z9m9SoqQxth2dixlLhv6nzIMs0lIzqdREVDYNDQFGTOqOIzdWcm4UdO+G9GNTDMMwDMNI9zk8EsMHTUBBgfT7Jee162HXqo2CdqWmWMDw+xdVIgQ1+VTRl9hkosyZjo5NOK9FklUiylfv7AJleUFQvxAA6tkXvQxDAGjSpjbxnCf3QpGZkQ0A2LjEj6gRBADY1quKiXP6Ea8rL9KHHCQd0ZnvRPkiogCGvEcRFUWUL8Lr3xzF/xNax6zZa7boEwgEmDLfCbOXj+A0/03wZ6r7Uab6Ta1x5MZKGJkYEM99++oz/Q0xDMMwzF8iIyMT/RyHISX5q9Rx3Se4oNt4ZwXtSn2xDEMA6YRHpUgzkFRNgN8tokYkHXo05rxWRnq2zGOzs3KI9sV89/KJ7N2BjYsZwKJa0WwqU7+JNfT0dYjm5OeJ8DDwFV48fofNy48QzdXR1caGgzMg1FJ8X6jMjByi8VmZZOOZ7zftOdmy19yzo9AYRBFCX4aT/VwN6fxc7DX793Ce3Q89B7UmnhcVHk9/M0pU1boCNhycQTyvqP0eGIZhGEZRJBIJJoyaitAQ6Qk1ts1bYMKadQralXpjAUOAqBA7QB5gVCUFBWLs23xW5vGmpUxQv2lNzutpacneaUgsliAxXvqTAOa/SI5N1mlUndNxMXWgpS1Ew+Y2xPMunboPt2FrietnTfccAquaFYnXo0EoJOvg9SWWrCs6Q1a/EFCfDsmkjVzsKHX+JvksANhrVt0t9B5H3Fwrk+ABo7po370x2ncne+hKWu+TYRiGYZjvli32wqnj56SOKVOpMhb6H4dQWz1KCSkdCxiCOCspLiqRp53w7+KJe0TdVfuN6CBXXUHS321UOFlX5b9dZkY2PoRGyjxeXbq4csWljuGRPVfw6V000ZwGzWpi7LTexGvRQv6+YhkrpEgCa8VNjVG5alked0MPSSBUT18H1W0rUVmXvWb/LiVLF0OnXk2VvQ2VMGR8Z2VvgWEYhmGKvHMBl7BqqbfUMXpGRlh8MgAmpUopaFfqTywWFzrmLwgYkj0FjyIIuKmS/DwRVrvvl3m8pqYGhrl0lWtN0gyDN8Hhcq33twkO+oCCgsLfxD8U9YBhUw4BQ1J6+jpYu3eaUhv06LH3Fe9IAmt1G1eHQKAembvPH8keCLWtV5U4m/VPSD9n2WuWDlG+CDERCXh8JwTJid8UunajlrZE442Lkdf7I5GUkIrgoA8KrxHYqGUtor8PxsVYkyqGYRiGIfH+7UeMGT5ZanBLoKGB2fsOwsK2lgJ3pv5kOZKs+AJdCkaa+ZCWmomYiASUq1Sapx3xY8/GAHz+GCvz+A497FG+chm51ixdtgTR+KD7oRgyoYtcayqDsl4PJEENgUCAOmpybJIr23pVYVzMgLyREYE5K0fCwsqct+vLwtBID4ZGejLXCP0QGon0b5mcCvArU1x0EkqXLaHw4GxGejY+vpE9c7eOmgTi01IzEf5e9mzaOhTrMpYxJ/0seENtbUVS9GdBRloWYiITEf35C2KjEhETmYjYyARERyQgJiIBCXEp/zxUOv1gHUxLmShsb2blTInGy9PNPT9PhLjoJMREJiA2MhFRn78g7v9/HzGRiYiJ+PJP7c6RUxyxeMN4zmuRMjTSg6GxvsyNf1hXe4ZhGOb31OPhtKKlfv2Gvj2GIj0tXeq4kZ5L0aRbDwXtqghhAUOglFlx4jnPH71Tq4Dhp3fRWOdxiGjO2Gm95F63ggVZwPHutRcQiyVqVWdv17pTWDF7D4ZN7Ibpi4coNCjzkuDYZKUqZVGipDGPu1E+TU0N2LeqhSsBD3m5ftM2tTFiUnderk2qfOUyMmfKiMUS3Ln2Al36NON3UxRFf/6Cnk2no5RZcSzbOlGh3b2Dgz5ALJa9AZO6ZO4GB70n+rnqUKpfCABm5UtCKNSUuVZo9OcvCHsfA8tq5ajtgW9P7r7GoA7uaNqmNhZvnIDKVfl9sOC14AA2LvWXebyOrmJr9ZB2xub6+3oXEgEHOxeZX9u6eor9PYhEBcgmaOKj7AdSDMMwDKMuxGIxRg5xxqeP0k+mtOzTD/1nzFbQrooWCVgNQ1S0NCOec/f6Cx52wg9RvgiuQ72Iujt3dLTn1EDiVxUsyH63CXEpCLr3Wu51FeXskdtYNnM3RKIC7NkQgNY1xuHkoRsK6/ZMemzyb8CljqEsDI304LXHTWWOnpK+ty4cv8vTTuhLTUnH0M4LkRCXgtfPP6F3s+mYNWYDUpLSFLI+SSBeIBBQDazxieQ4MkA3w1Ao1ETZCmT1Yi6euEdtfb59fBOF0Y6eyM3Jw82LQehQywXrPA4RdaQmXvMtWe1VRQfKSGsSW9tZclon7H00USBc0b+HuKhEoqZa1rUteNwNwzAMo65U4w5EtbjPXoIrF29IHVO1bj3M2L1XZe7h1A3rkgygWAkj4qywy6cfENWOU6ZFrjvx8onsgSWhlhDzVo+msnbZ8iWJj0Ad2XOVytp8e3jrFdyGr/3XjUpi/Fe4DvXCgDZz8C4kgtf1E+JSEEvQgEddjk3Kq2nbOrxcd/7asXIf0afJtm4VovFXAh4oLOAmj5zsPIzqsRif3kb987+JxRL4+1xG6+pj4bvjAlFwgAuSwJpl9fJqc4SQ5AGDaSkT4qB0YUhfs0f3XuH935qGhLgUDO28AKkp/zsKk5uTh/Weh9HedgKun3vMy7pfYpKJxuvqkZVfkderpx9lHluipDHKVeRWgDye9Peg4ExLkt8D8L20BsMwDMP8Fwt4/eyI7wlsXLtN6pgSZmWx+MRp6OjrK2hXRQ8LGP6/KtXLE41PTkjFrUtBPO2Gnr0bA3Bgq/TW4r8a6tyV6jEwO8LsmwC/QCR9SaW2Ph+e3H2N0Y6eyMvN/+1/f3jrFTrXm4ylM3bLXGeOFMnNPwCFHulUpmo2FVGyTDGq12zdqT6cxjhQvaa87Aizv3Ky83B450WedkNHdlYuxvVegqB7ob/976kp6Zg7YTMc7d2IHoKQIumQrE6ZuyQ/F+nfbVmQZiyGf4jFzQtPqO+Dpi+xyRjUwR0xEQm//e+RYfEY2X0RRjt6Uu/8TNrEJCdL9mOx8kpLzcQNgn+71p0bcF4rOYHs+wLJaQsaTvnelHmsgaEeGrWQ/3QHwzAMwxRlwS9CMGn8DKljtHV14XHsJEqWI4vzML9gAcPv6je1Jp6zy/s0Dzuh5+TBG/CctotoTrmKpTDDcwjVfdSzJ7vxzMvNx4Ylh6nugaabF4MwxGF+ofWZRPki7Fx7Em2tx+HskdvU90Fy86+jq42aHI97qRuBQIBmFLMMjYsZYPVuV5VLY6/buDpxrc+da0/+KwtKlaSlZmJwR3cEXnpa6NiXT97D0d4Ncydspv7zxMckE2UsqUvAMCYyEYnxX2UeT/M48g/1mpB/znotOKCyWYYRn+LQu/lMvH9deDb51TMP0c5mAjYs8fvjgyZSpAFDRWYYnz1yC7k5sh/H7tjDnvNaSQmq+3tITvxGFDht2bGewmtNMgzDMIw6SUn+Cqc+o5CVJT0px237LtRo1FhBuyq6WIbh/2vYrCbxnHvXX+D+jZc87EZ+Jw5cx/SR64iOTWtoCLB233TqTTvadW1EPMd3x0WZGzoo0tkjtzGmpydRhkJ8TDL8fS4T1TCSBcmxSdu6VaClXeT7F/2jKcU6hp4bnYm7fSpCcVNj1CXsep2akk7c/EgRkr6kYkCb2X/MLPwdsViCkwevIzKMbtYWSSAeUJ/M3ReP3hKN56MuY/0mNYiPb79+EQZ/n8vU9yKvdyER6NNiJlHW4I8sX1pBbomYrCwKaYCRq8yMbKJmLEYmBmjVqT7n9VT19wAAaxceRH6eSObxPQa25HE3DMMwDKPe8vPzMajfaHwOj5Q6bsDMOWjrNFhBuyraWMDw/zVqYcupM6/H1O1EXwb5JpFIsHn5EeJgIQCMmtoTTdvUpr6nmnUsiTtKi0QFcBvmpTK/W7FYAu/Fvpg8aBXxnqrUqIBtR+dBKNSkup/goA8yj/9b6hf+QKvxiUPPJug9tC2Va/GhY88mxHMObD2nUg86Xj55jx72bnj9IoxonkAgwLp901C7gRXV/ZAc9dfT10H1WpWprs8Xkp9LIBDAriHd3yvwvT4ulwdIS2fsRvRnsgYafLp06j76tJiBhLgUonn6BrrYc8YDpcuWoLIPXX2ymoQknxny2LjED3HRSTKP7zeiPQwM9Tivp2egSzReUb+HV08/wm/XJZnHm5UzhQOHv+kMwzAM87eY6boAdwLvSx3ToGMnjFi8REE7KvpkeTD7VwQMS5Ypxqkr8LuQCCyd6cPDjshlZeZg8qDVWO2+n/gIV636VTF7+XBe9iUQCNC1b3Piea9fhGHBZOmFTBUhKSEVQxzmw3uRL/HvtVgJI+w96wHjYnSzNsPeRRd6JPpn6pIFRUtFSzO5G5SUKGmMFdsnU9oRP7r0aUb8oEMslmDKkDWIiZS9YQ5f9m0+iz4tZnIKBk1bPARd+7WgvieSDMNa9a2oPgjgE8nPValKWRQ3NeZlH137kX8WZKRlYUK/5QqvPfcrUb4IntN2YXyfZUhLlf3vL/A9g9/7wHTYEDZ+kcaY8DTAnavPqa39J4/vhGD3etnLtWhoCDB8Yne51jQyJitkHhUej88fY+VaszAZ6dmYMcqb6MHtUOeuEGr9PScBGIZhGFKqVR5J0Xz3H8WubfukjqlQvQbmHfKDhqZ6fD9XByzD8Cc9BrbiNG/vxgAcJniKzIenD96gU51JOON/i3iuWTlT+AR48Fo3Z/D4LpwyOA/vvIhNy2Q/2kTbnavP0bnuZNy9Rn6jpaevA5+Ahahc1Zz6vkiPTapLnTWa5M0yXLZ1IvXmKbRVqlIWLTvWI56XEJeCkd088DVZOV2TkxO/wbn/CiycvI1TPbeBox0wZf5A6vsizdxVl/eVSFRA1KmVj/qFP7Tt2ohTN9zgoA+YOHCl0rLOw97HoG/LWdjtfUqmL06/WrB2LDr3bkZ1T6QPRV49/UC98crPwt7HYGyvpUT/Rn2Ht4eFlXyfkVy6eV88cU+uNaURiQowccAKvAkOl3mOaeliGDm5B297YhiGYRh19uhBECZPkN7kxKhECXieOgMDExMF7ervwAKGP+nStznnoNm8CZtwdO9VyjsqXPq3TCyb6YO+LWZyemL+PajlwXuNNgsrc7ToQB7YAIA18w9gncchTjdpXMVFJ8FlwAoM7uiOL7GyN0D4QVtHC7tOLeCUtSoLkuOFpcyKy51tp47kqWPYfUBLXrLX+DDMpRuneW9ffUb/1rOJj1XKo6BAjIPbzqN19bE4f+wOp2v0GNgKK3ZM5qUJzcc3kchIy5J5fF01ydx9/zoCWZmyd8jlo37hD5qaGhg8vgunudfOPsLYXksUmmmYnZWLNfMPoGNtFzx7SFYH8ofpnkMx2rUn5Z19f2BA4ntpDX4aisVEJGB4l4VEDyH0DXQxY8kwudcm/T0AwA6vE8hIl14snQuRqABzxm3EzYtBRPOmLx4CQ8JMSYZhGIb5G8THfcGQ/mORm/vnZmqaQiHm+x2FeZWqCtzZX4IFDP/HtJQJ+o1oz2muWCzBjFHeWDbTB6J8/jMg8vNEOLT9AlpWG4sdXieI6xUC3+tJbfSdhVr1FfPGmjRvAOe56z0Pw7n/Cl6+4P8sMyMbW1ceRVvr8Th3lFtAQyjUxBb/OZwyv2RFkmGoLllQtHGtx1nKrDiWbnGhvBv+tO3aiHMH7HchEehSfwoe3wmhvKv/ehAYjB6NXeHusgXfvmZwukaHHvZYf2A6NDX5+VgiCcQD6vPeIv257HjMMAS+H70kbX7yw40LT9CzyTSEf+D3SGlBgRhnj9xG25rjsWmZP+fOxs6z+mLqAifKu/uOS/3OU4du4On9N1T38SAwGN0aTkXEpziieVPmD6TysNKmjiXx34SUpDR4LTgg99q/XnNIR3fih8e2tbhuHQAAIABJREFU9api4BgHqnthGIZhmKIgJycXA3qNQGyM9O8YzmvXo05r1a07r85YhuEvJszsK1dNqh1eJ9C1wVTqX8h/yEjLwg6vE2heZRTmOW9GckIqp+sItYTYfHiWQgtsN25pi3bdyAve/3Dh+F20t5mAy6cfUNzVd19ik7Fy7j40rjAMK+fuQ2YGt8Ckjq42th935/X3mpuTR3TUibSTblFRxtwUVa0rEM9buWMyb/Xb+KChIcDsFSM4z0+IS8GANnPgMWU7UXadLESiApw9chvdGk7FgDZziI7F/qpL3+bYdnQurzW+SALxZuVMUbZ8Sd72QtMLgo7qQi0hbOrQq7P3OybFDeEypz/n+W+Cw9GpzkRsW32c+gO6rMwc7N9yDq2rj8XEgSsRE5HA+VqT3Qdi7qpRFHf3b41a2BLPKSgQY7TjYio1/ESiAmxfcxyDO7gTdx6u39Qa42f2lXsPAGBorA9rDg9N9mwIgO+OC1T2EHQvFF0bTMH9m8FE83R0tbHh4Ay1qYXKMAzDMIo0bfJcBD2WXhrMYcQodJ+gPske6oYFDH9R0dIMA0bL96T3TXA4ejWbjhHdFuH2lWfEjTJ+lZ8nwrWzjzB50Go0MB+CZTN9iDoQ/kqoJcRmv9nowqERibzmrhwJLW3uN/yxUYkY22sJejWbjhvnH3PKrPwhIy0LZ/xvYUK/5WhqMRJbVx4lLmT/MyMTAxy8tAQdHe05X0MWIc8/EdWIUpcsKD6Q1jHsO7w9OvTg99+PD206N0CLDnU5zy8oEGPvpjNoajESG5b4Ed/8/0wikeDF43dYMWcvWlQdjYkDV8rdlXTw+C7Y4j8H2jpacl2nMCSZeOrUSIgkEGpduzJ09firZ/vDyMk9ONWe+yE7KxcrZu9By2pj4bvjAtGR61+JRAW4c/U55jlvRpNKI7Bg0lbibLmfCQQCLFo/HjOXyn/cVhoLK3NONXJTktLQq9kM4mOzP0gkElw/9xhd60/B8ll7IBIVEM03NNaH9366mcJtuzTgNM/dZQtWzt3HOfD8+WMsXId5oU+LmZyCy3NXjoRVzYqc1mYYhmH+Nn9X05PN63div4/0Uiq2zZpjyqatCtrR30mWgKEAAFHESyAQSCLE59X2Ff3tawbaWI9D0hdu2Xu/Mq9QCm27NkSztnaoVd8KFS3/fJMkFksQG5mAsPcxePnkPR7eeoWn99/IdTP0M30DXWz0ncV7UEuajUv94LXgIJVrlTE3RZc+zdC8fR3Ua2IN01J/LnIaF52E0BdheP3iE549eIu7119wPmb2K7Nypth7bjFs6nA7Gkpiz4YALHLdIdNYTU0NvPp6DIZGejzvSjVdPHkP4/ssk2ls2fIlcfXVNuodrRUlJiIBHWo5Uzm2L9QSopVDPbTp3ABNWteGRbVyf8yAyc7KxZvgcIS+CEPIs48IvPQUsVF0OjALBAK4LhwEt0WDqVxPmpzsPNQ06Stz4GDe6lGYQClDik+ZGdmwLdZP5ocrQ527YtnWiTzv6rsHgcFwajdX7odqAGBgqIcOPRqjlUN9NGphg/KVy/yxzmVaaiZCnn9C6ItPCA76gMBLT5Gaki73HoDvGWNrfFzRc1BrKtcrjPciX3gv9uU0VyAQoEvf5hjj1hP1m1gXOj768xdcPHkfR/dewbuQCE5rampqwOeMB9p2achp/p98ehuFNtbjOc+vblsJ46b3hqNT60IfTGSkZ+P2lWc4efA6rp/j/uCy34gOWLvXjdNchmEY5u+zY81pLJu1k2jOtNmTsGTFfJ52xJ/A63fg2NkJItH/sXfXYVGmbRvAzwkaERQURbG7u13XjrW7a9fu7lawO3DtXLvW7k4kFLA7CQNphpnvj331c12BZ2aemWeGOX9/vO+h3M91nx7HMgzX3JH8+/LMOXJi6eXrSO+m/WV6JNyc7l1wetuWFMdYXMMQAA7+dR4D2s82SG2lUgHnjOngnCHdt62PMVGx+BIZg/dvPiA+LvkDPfWRNbsb1h6YhCKlDLvdLDUqVRKaVx6OgJvanaslRHoXR3h4ZoK9oy0UCjkiP0Uj8lMUPn+MMtj5h2WrFIbP7vFwc3cxSP0fDeo4B/u3nRM0tmCxnDgRaLmfunz68AUl3dql2pCQyWTYfGy6Qc+dNIbta45j9B+LRa+rtFLCM1dmODrZw8nZEV8+R+Pzx6hv31v6rPRNjoOjHeavH2q0ldC+V0LQvMpwweN3nZ+DCtW13xJqbFfPBaLtr2MEj5+/fihad6tjwET/NnmwD9YvOSB6XVs7a3jmzgIHR1vYO9r9679XXc/QTI27R0as3jvBoJfG/Oj181BUy/e73luzs2Z3Q9kqhZG3UHa4ZHSClZUC8XEJCA/9jCcPXuPu7Ud6rbr8asqi3ugxuKnedX6m9S+jcP2CfuexOjjaoWSFAiheNh/cMjvD3sEWarUGHyMi8fLpe9y/+wx3fB9pvaryR+WrFcX2U7P02nFBRESWZfXc/ZhhAQ3DF89foVr5eggPS/7iUTtHRyw8fxm5ihYzYjLL5N21E87+lfJKT4t8N9Ok3S+4eSkIG5f/LXptlSoJ4e8/ibaCUYjSFQviz30TjdbUSolSqYDPnvFoXH4Iwt59FLW2IX8Z/JmOvRti2pI+Rn3Tr822SUvejgwAzhnSoXDJPLh7O+Wz8zr0amD2zUIAaP97PQTcfIBtq4+KWleVqMKTB69FrZmSnHmzYvXeCShYLKfR5tRm265SqTDaZVH60vbCE2M2uwBgwtyeCAl4gmvn74haNy42AQ+CdFsFp4uyVQpj1a5xyJQlg9HmBACPHJnQotOvWl+08aM3L8Nw8K/zIqX6uaFTOhqsWQj8c2bk9Qv6/VIUHRWLy6f9cfm0v0ip/qtUhQJYf2gym4VEREQ/iI2NQ/uW3VNsFsrkcozesJnNQmPhGYbJm7SgF8pVLSJ1DL3I5TL0HtESO8/NNolm4VdZs7thzf5JRjkryxAyuDrBZ894eK0aYNQ3/R8jIrVa5VHSQi88+V5q5xhmz+WOCfN6GimN4c1Y1lfnG6JNQbue9XDk9lKjNgsBwE+Li0EKFMsJewdbA6YRT4AWjVBHJ3vkKaj9RUH6sLJWYtXu8ciRJ4tR5xWL0kqJ4dM6Y+e52UZvFn41bGonkz92YtjUThg62bBHC1SvWxq/1Ctj0Dn0VapCAWw5PgPp0pvn0RdERESGotFo0KfHYPjfTvlD5G5Tp6NSY8N9AEn/xktPUmBlrcSGv6cYfcWFWDw83bD9tBfGz+1p8MsCdPHPp+xTzOYX769q/VYeJwJXoEGLKkafO+DmQ0HftF+Z08UMhlI5hYahXC7D/PVD4eBo2r9sa0NppcTag5NR8Rfz+tTNzd0Ff+6biDlrBkvS/NBmhaE5rdzVphFavExeyOXGP00kg6sT/jrjrdMFHlLKV9gT+y7Pw+CJ7SW95TZrdjeMnNlVsvlTorRSwttnIIZM6mCU+Wat7G+yr+f1m1fGtlOz2CwkIiIdmfWJb6maO2sxdu9I+Ziaai1aoe1I4UftkP7YMExFuvQO2HJ8hqADwU2FXC5Dhz/q40TgClSqYdorjarUKolNR6eZxUUTWbK5wmfPeKw/NEWylSTaNDUc09khbyHjrhYyReWrFYHS6uerQLsNbGJ2jTUhHBztsPHINJNfbQP8cwlC1/6/4dy91ajXrJIkGT6ER+LFk3eCx5tLw/D9mwi8fRUueHwJCT8c8/B0w85zs83ixlg7exuM8eqG4/7LUKJcfqnjAAC6DWhstPM+hcrg6oRtJ2eiQ68GRpszey53zFs3JNkLb6Qgk8kwaEI7+OwZb7LNTCIiIimdOn4WM6bMTXFM3pKlMHLtBpP6GW8J2DAUwMnZATvOeqNNd+MdBK+rir8Uw2HfpfBePchsPsUuX60oDt1YbPQtiEI5ONph0IR2OBPiI8mqwu9pcx5Z8XL5oVBY/LfvP4fYl//vL/W583tg9Kxuxg9kJHb2NthweCr6jGxlsj9Yq9YuhUM3FmH6sn6Svl5p04gHzGflrvbnF0rb/HL3yIgD1xZK/jqbHLlchhadauJMsA/6jWmT7AcRUpDJZFiwYRjKViksdRQAwK8NyuJE4ApJPpBp1LoaRs8yjRWXWbO7YdvJmRgxvYvJvg4TERFJ6eGDx+jSvg+SkpK/UMwlszum7j0AG3t7IyYjADzDUChrGyvMWzcUs/8cbJKNuPxFcmDVrnHYeW42ipTMLXUcreXKlxX7ry5Ah14NTOZNtZ29DXoMboqLj9dixPQuJrEyQJvzyMylqWEMP55jqFDIMX/DMNjZ20iUyDgUCjnGzekBnz3Gu8VbiDKVC+Gv017YdnImipaW/vKQAC0aa07ODshdIJsB04hH20aoKRy/4ZjODqt2j8Pkhb1M5rgKuVyGes0q4Zj/cizaPAIeOTJJHemn7B1ssenodElXTTtnSAdvn4HYcHiqZCvxAaDfmDYYO7uHZO8n5HIZ2nSvgxOBK1ClVklJMhAREZm6qC9RaNeiOz5/+pzsGGtbW0zetReuHubx/jut4QpDLbX/vR5OB60ymRUQ5aoWwbqDk3HyzgqT246kLXsHW3j7DMTuC3NQoGgOyXJkzOSMoVM64urzjZiyqDdcMzlLluV7L568Q0RY8i+mPzKXbZPG8OM5hr1GtDSrYwb0Vb95ZZwNWY1OfRpKckYd8P9Nl72X5mHf5fkpni1pbNo01kqWL2AyH2qkRpvzCzNnzYgs2VwNmEY4mUyGnkOa4XTQKtT6rbxkOWxsrb/9zP9z30STXQX/Pcd0dth2cia6DWhs1HmVVkp0H9gEFx6uMZkP/vqOaoU/9000+oe85aoWwcHrizBv3VCzOG6FiIhICmq1Gt069sW94JQ/uO+/aCkKVahopFT0IyENQ9PZc2Mi3D0ywmfPePjfuI+FU7bi7NFbRp3fydkBDVtWRdueddNk06Nc1SI4HrACf++8gGWzduDenWcGn1OpVKB6vTJo070O6jSuYNSbj4XSdrVQKd6Q/E2ZSoVga2eNuNgEFCiaA8OndpI6ktE5OTtg1soB+H1ocyybtQP7t52DKlFl8Hlz5cuKll1qoXW3OibTkPqeRqPRauuuuazcVas1CLz1UPB4qbcj/4xHjkxYf2gKfK+EYMmM7Ub7WVuiXH607lYbTdvXQHoXR6PMKSallRLTlvZF7cYVML7fcjx//NZgc9nZ26BN9zr4Y1gLeOZ2N9g8uqrbtCJOB63CxAErcHz/VYPOVaVWSfQZ2RLV65Y2iYYpERGlNWnrZ8u0SbNx9O+TKY5pM3wU6nfvaaRE9DMatTrVMabXOTERJcsXwMYj0/Aw+AW2rzmOvZtP40N4pEHmcnSyR/U6pdCs46+o2bCcSd56LCa5XIYm7X5B47bVcfVsIPZuOYMjey4jKjJGtDkyuqVH+WpFUadJBdRuXAHOGdKJVtsQtGlqZMuZGa6ZTWNlpCmwtrFC2SpFcO38HSzcODzNf/+kJHd+DyzYMAwjpnfG/q1nsXfLWTwIei5afaWVEiXK5kO1OqVQr3llkz8i4cWTd/gYIfx1u6SZrNx9fO+lVq+XprAdOTllKhfCxiPT8CDoOfZsPoMD287hzcsw0erbO9iiVMWC+LVBWTRoURnZc5le40sX1euWxplgH+xYdwKr5u7W6mKf1BQrkxdN29dAq661kcHVSbS6huDukRF/7puIW5eDsWjaNlw86Sfo03IhXDM7o3Gb6mjTvQ6KlMojSk0iIqK07uC+I5jntSTFMWXr1EP36TONlIiSI+Q9kwyAVu+sZDKZ5rn6cNpqgQugUiXh9tUQnDvmiytnAhAc8ARxsQk61crolh5FS+dFpRrFULlmCRQrk8/iL7CIj0uA75UQXDt/B9fO38GDoOeCG7ROzg7wzJ0FBYrmQPlqRVG+amHkKWheNwgf3nVR8C98nrnd0ah1NQMnMi/LvXYiIT4RQ6d0lDqKyXl8/xWunQvE1XN3EHDzAV4/D4VKlfzBw18prZTIliMTcuXLilIVC6J8taIoVaGAWZ0N+fzxWxzZfUnw+I69G5rFNsMnD17j+L4rgsfXa14ZufN7GDCReNRqDYL8HuPa+Tu4ei4Qwf5P8PZVuKA3NDa21vDM7Y68BbOjbJXCKFulMIqVyQulUmGE5NJRqzW4ejYAh3ZexLmjt7RuuKZL74Dy1Yqg8q8lULNROeQxk3M8f+bFk3fYu+UMzhy+icBbD6BWC3+Lq1QqUKxMXlT8pRiq1SmFSr+WsPj3ZkREZByr5x7EjFGrtHpm2OgBmO41wUCJdHM3MBg1q/yG6OjkP9jOXqAgFl24AkdnLoCR2pRWzXH10IEUx7BhqCOVKgmPQl7iyYPXePcqHK+ehyImOg5fPkdDrdZAqVTAIZ0d0rs4wsHRFu4ershbKDvyFMhmltugpPD5YxSePnyNyE/R+PI5GtFRcZDJ/lkxki69A9K7OMIztztcMpr2CggyvNcvwpA5i4tJ3WxqqlSJKrx4+h5vX4Yh6kssYmPiERMVCydnR9jaWcPRyR4enm7Ikt0tzTdayDzExSbg2aM3CH//EZGfYxAXE4/4+EQ4pbeHnYMt0jnZI3sud2TOmoHbRQG8fh6KQN+HeP74Ld6+DMenD1+QkKCCTAY4Of/zniRz1ozIUyAbchfIBs/c7mmyMRYVGYM7tx/h/t3nePsyDBFhnxEdFQcAcHC0hYOjHZwzpkPu/B7InT8b8hTMZjKX8RARkWVJCw3Djx8+oXqF+njy+FmyY9JlyIDFF6/CI28+4wWjZE1p2QxX/z6Y4hj+dq0jpVKBgsVymsVB6eYqvYujSW+lI9Ph4ekmdQSzobRS/u8XZPNYcUZka2f9z89a/rwVxCNHJpO97dmYHJ3sUalGcVSqUVzqKERERGlaUlISunfql2KzUK5QYPSGzWwWmhDekkxEREREREREZKLMfX/E2BFTcPLYmRTH9J2/EOXqNTBSIhKCDUMiIiIiIiIiIpNlvi3D7Zt3YfniP1McU7drdzTpO8BIiUgoNgyJiIiIiIiIiEhU/rfvYGCfkSmOKVqlKgYvW2mkRKQVNgyJiIiIiIiIiEyV+a0wDH0fhjbNuiA2Ni7ZMZk8c2Dijt1QWlsbMRkJpVarUx3DhiEREREREREREaUqMTERndv+gdev3iY7xs7REdP2HoCzGy9iM1lcYUhERERERERERGIYNnAcLl24luzXZTIZhvmsQa5ixY2YirTFMwyJiIiIiIiIiEhvf67cgHWrN6c4puuUaajeqo2REpGu2DAkIiIiIiIiIjJR5nKC4bUrNzFq6MQUx1Rt3hLtRo8zUiLSBxuGREREREREREQmy/Rbhq9evkG7Ft2RkJCY7Ji8JUth5NoNkMlM/99D4BmGRERERERERESkm7i4eHRo1QNhoeHJjnHJ7I4pe/bD1sHBiMlIH1xhSEREREREREREOhnSfzR8b/on+3WltTUmbNsBt2zZjZiK9MWGIRERERERERERaW3xvBXYvP6vFMcMWLwMRatWM1IiEotGo051DBuGRERERERERET0zdlTFzBp3KwUx7QaOgINevxupEQkJq4wJCIiIiIiIiIyWaZ3ScjzZy/RtUMfqFSqZMeUrVMPPWd6GTEViYkNQyIiIiIiIiIiEiQqKhqtmnRGRPiHZMdky18AY7dsh1yhMGIyEhUbhkRERERERERElBqNRoO+PYcg+O69ZMc4urhg2r6DcHR2NmIyEhtXGBIRERERERERUaq8ps3H3l2Hkv26XKHAmI1b4JE3nxFTkSGwYUhERERERERERCk6fPA4vKYvSHFM77nzUa5eAyMlIkNiw5CIiIiIiIiIyGRJf+nJw/uP8XvXgVCr1cmOqdulG5r1H2TEVGRQbBgSEREREREREZkmqduFXyK/oG2Lboj8HJnsmCKVq2DQspVGTEWGxhWGRERERERERET0H2q1Gt069sX9kIfJjsnkmQOTdu6BlY2NEZORoaW0mvQrNgwpzXoU8hJjei3Bl8/RUkchIiIiIiIiMimTxs3EscOnkv26jZ0dJu3YDWe3TEZMRUbBFYZkqVSqJAzrtgDb/jyGXwv1xpnDN6SORERERERERGQS9u/5G4vmrkj26zKZDCPWrEe+0mWMmIqMhVuSyWItm7UD/jfuAwBC335A98ZTMab3UkRHxUqcjIiIiIiIiEg6dwKC8Ee3QSk2jTpPmoLqrdoYMRUZExuGZJGC/J9g6cy//vV3Go0G21YfRd3i/XHt/B2JkhERERERERF9z7jXnnyI+Ij2LXsgJjom2TFVmrVAh7ETjJiKjI4NQ7I0iQkqDOs6H4kJqp9+/eXTd2j76xiM6b0UsTHxRk5HREREREREJA2VSoWObX7H0yfPkx2Tp0RJjFq3ETKZ1Pc3kyFxhSFZnAVTtiAk8GmKY76uNvyt3GAE3HxgpGRERERERERE0hk1dCIunL2c7NddMmXG1L0HYOvgYMRUJAU2DMmi3L52D6vm7BY8/mHwCzSvPBxeY9YnuyKRiIiIiIiIyNxt27QTPsvXJ/t1pZUVxm/bAbds2Y2YiqTChiFZjPi4BIzsuQhJSWqtnlOpkrBy9i40KjsIQX6PDZSOiIiIiIiISBo3rvmif68RKXaIBixehmLVqhsrEklMo069d8KGIaUJZ47cxKOQlzo/f+/OMzStNAwrvHdq3XQkIiIiIiIi0o1hzwp8/y4UHVr11CQkJCQ7UcvBw9Cg5x8GzUGmhSsMyWI0aFEFuy/MQY48WXSukRCfCO+xG9CiynA8vqd785GIiIiIiIhIaomJiejU9g+8ffMu2WZhmdp10XOWtzFjkQlgw5AsSrmqRXD09lJ06NVArxud/K7fR4PSA7Fy9i6o1al/ExERERERERGZmiH9x+DKxevJfj1b/gIYt/UvKJRKI6Yik8CGIVkaRyd7ePsMxKaj0+DukVHnOnGxCfAasx6tqo/Es0dvRExIREREREREZFgrl67FhjVbk/26vZMTJu/cA0dnZyOmIlPBFYZksX6pVwan7q5Ch14N9Kpz63Iw6pXoj3WLDwj6hiIiIiIiIiISyhAnGF65dB1jRkxO9hdYuUKBsZu3wbNQYQPMTuaADUOyaE7ODvD2GYhVu8Yho1t6nevExsRjyhAfdGkwCW9fhYuYkIiIiIiIiCybuC3DF89foW2zbkmqRFWyhXvNnovy9RuKOi+ZGTYMiYCGrari5N2VqN+8sl51zh/3Re2ifbFt9VGRkhERERERERGJIzY2Du1bdE/68OGjIrkxdTp3RfOBQ4wZi0wQVxgS/Y9rJmes3jsBK3eOhXOGdDrX+fI5GmN6L0W336Yg9O0HERMSERERERER6Uaj0aBPj8Eaf787yTYLC1eqjMHLVxkzFpkotVqd6hg2DMmiNGpdDaeDVqF24wp61Tlz+AbqleiPo3svi5SMiIiIiIiILI84W5IXzF6G3TsOJFssU3ZPTNq5B1Y2NqLMR2aOKwyJ/svN3QXrDk7Gwo3D4ZjOTuc6EWGf0bvlTPRt44WPEZEiJiQiIiIiIiIS5vSJc5gywSvZDpCNnR0m7tgNl0yZjRmLTBi3JBOloGWXWjgRuAKVfy2uV53Duy6idtG+OHnwmkjJiIiIiIiIiFL38MFjdGjVU6VWq3+6ulAmk2H4n+uQv0xZY0cjE8aGIVEqsuXMjG2nvDBpwR+wtbPWuU7Yu4/4vdl0bFl1RMR0RERERERERD8X9SUKrZt0SYiKilYmN6bThEn4pXVbY8YiM8CGIZEAcrkMvw9tjpN3VqJc1SI613HOkA71mlUSMRkRERERERHRf2k0GvzeZWDCwwePk135UqVpc3QcP8mYschcsGFIJFyOPFmw46w3xnp3h7WNldbPz1zRH27uLgZIRkRERERERGmTbpeeTJ80W33owNFkm4W5i5fAqPWbIJOJc6kKpS1cYUikJaVSgb6jW+PwrSUoWjqv4Ocat62O39pUM2AyIiIiIiIiIuDRgyeYPXNRsp3A9K6umLRzD2wdHIwZi8wIG4ZEOipQNAcOXluAsd7dobRK9jgIAEBGt/SYuqSPkZIRERERERGRJTty6HgSklmaqLSywoTtu5AlV24jpyJzolGrUx3DhiFRMpRWSvQd3Rp7L81FnoLZkx03a9UAuGZyNmIyIiIiIiIislQqVZIiua/1X7QUxav/Ysw4ZIa4wpBIBCXLF8Axv6XoO7o1FIp/f8u06V4HDVpUkSgZERERERERmTMxTxhsPnAIGv7eS8SKlFaxYUgkEhtba4z17o7dF+YiV76sAAB3j4yYOP8PiZMRERERERGR+RKnZVi6Vh384T1HlFpkAQQ0DFM+nI2I/qVM5UI4cnspZoxYi4YtqyC9i6PUkYiIiIiIiMiCZcuXH+O3/gWFki0eEkbICkP+10SkJQdHO3itGiB1DCIiIiIiIrJw9k5OmLRzDxxdXKSOQmZEAzYMiYiIiOh//lywD2eP3pI6BhHpQJWoQnRUnKjnnf0/Q1Q1VFJmNQzx6xrm3/9PZXOoKRNY18Ulg+5zyOUYu2krchQuonMNslBcYUhEREREAHDm8A3MHLkWarVa6ihERET0P2XKlNH52T+856B8g0YipiFLwUtPiIiIiAivn4diWNeFbBYSERGlEbU7dUHLwcOkjkFmSsh7QjYMiYiIiNKw+LgE9G45Cx8iPksdhYiIiESQMasHhqzwkToGmTOuMCQiIiKybOP7rUCg7wOpYxAREZFIKjdtCisbG6ljkBnjlmQiIiIiC7Zl1RHsXH9C6hhEREQkIjuHdFJHIDPHhiERERGRhQq4+QBTh6yWOgYRERERmRg2DImIiIgs0KcPX9C/7RzExydIHYWIiIiIzBAbhkRERERpiFqtwYAOc9Qvnr6ROgoRERGlws/Pz0/qDGR5NLwlmYiIiMiyzJu4GReO+/I9HhERkRmq/HjxAAAgAElEQVRQqwV0bohExi3JRERERBbk1KHrWO61Q+oYRERERGTK2DAkIiIisgzPHr3B0C4LBH1iTERERESWS8jCVjYMiYiIiMxcXGwC+redg8+fvkgdhYiIiLTgnDtvbqkzkOUR8gGz0gg5iMiIVIkqbPE5ik69G0BpxW9xIiJLMLb3Uty5/UCfErcBjBYpDpEl+QgA6XLksHFwdbcR+pCDa0YbpZOTtZCx1k5ONlZ2doJq29jb28hs7QXVBQCFlY2twtZa0HgrG2sbKK0E5ZBbWdnI5UrBOZTWShsoFIJqy+QKG7lSWG25TG4LpUJwDplCaSODTNi/USm3gUxYbZlcZgO5sLoAIJfJbaCQC6sNuT1kMr7pNyAbp3SQKRQGqx+8bZPLNa8ZBqtP9FNsGBJZniUz/sKiaduwbfVRLNw4HEVK5ZE6EhERGdDG5X9jz+bT+pT4CKA1gCfiJBLXUI3GzuYzbIWOV1vBLjFR4HhFgp1cLhM2Nklmp5YLzwG1zE4mEzheBjuNRmAOGexkai1yyNR2GqE5NLADBObQwA5C6wKADHbQCB4vPAfUWoz9WltwDkcAVlrUJiLSmpWDo9QRyAIZZoWhDDJdwhCR4QX5PcYyr50AgHt3nqFxhaEYOK4tBk1sD4WCJxAQEaU1ftfvY8bwNfqUUDdYt+V5wdZtjwLCVqhoAFvZP00XIeQA0useD0BUEuK1WdihBiB4vAKC76aUAdDmeEiZFsM13/5H0FiNVu/GtQmiXVmtaJ1B6AP81YSIiEhb3JJMZEES4hMxpMs8qBJV3/5OlajCwqlbce7YLSzYMAx5CmaXMCEREYkpPPQT+rTyQnx8gs41ivfsdb9g63YltXmG7RkiIiIi8yakYcglR0RpxNwJm3D/7vOffs3v+n00KD0QK2fvglrN2zOJiMydWq3B0M4L8PZVqM41XPLlf1Rz/tJCIsYiIiIiInPAhiGRZfC9GoI1C/elOCYuNgFeY9ajVfWRePbojZGSERGRIcwetwHnT9zS+Xmlnd37ticv5DLkIe5EREREZJq4wpDIAsTGxGNY1/lIShJ2CNOty8GoV6I/1i0+IOhFgoiITMvJg9ewas5u3QvIZPGtj5y2tsvoym4hERERkeUR1Ahgw5DIzM0atRZPH2q3YjA2Jh5Thvigc/2JePsq3EDJiIhIbE8fvsHQLgv0+sDnl1lzX7qXLe8iYiwiIiIiMhcC30eyYUhkxoL8HmPTisM6P3/hxG3ULd4P+7aeFTEVEREZQlxsAvq18Ubk5yida+SsUy+k9IAheUWMRURERERmRMMVhkRpX5FSebBixxg4Z0inc43PH6MwuNNcdGs0GaFvP4iYjoiIxDSuzzIE+T/S+Xm7DBmfN966m5ecEBEREVkwoTtV2DAkMnONWlfD6aBVqN24gl51zhy5iXol+uPo3ssiJSMiIrGsX3IAuzed0vl5mULxuf25a5mUdnYipiIiIiIiM8QVhkSWws3dBesOTsbCjcPhmE73XwYjwj6jd8uZ6NvGCx8jIkVMSEREurp97R5mjlynTwl14y07Y9LnysVuIREREZGl4wpDIsvTskstnAhcgcq/FterzuFdF1G7aF+cPHhNpGRERKSL8Pef0LeVFxISEnWuUbJX33t5fmuaRcRYRERERGS+uMKQyBJly5kZ2097wdtnIOwdbHWuE/buI3o2nYYhXeYh6kusiAmJiEiIpCQ1hnSej7evw3SukbFQ0fs15i4uLGIsIiIiIjJjGoGHGLJhSJQGyWQydOjVAMcDlqN8taJ61dq7+QzqFOuLK2cCREpHRERCeI9ZjwsnfXV+Xmln967NsdN5ZXK+3SMiIiKib9gwJLJ0OfJkwV9nvDDWuzusbax0rvP6eSja1x6HMb2XIiY6TsSERET0MycOXMPq+Xt1LyCTxbc5etbWNkNGhXipiIiIiMjc8ZZkIgIAKJUK9B3dGodvLUHR0nl1rqPRaLBt9VHULd4P1y/cFTEhERF978mD1xjWdYHgN3M/U8N7/pvMZco6ixiLiIiIiNIGrjAkov9XoGgOHLy2AGO9u0NppdS5zosn79D219GYPNgHCfG6H8JPRET/FR0Vi94tZiHyc5TONXLXbxhcqt+gXCLGIiIiIqK0gisMiehHSisl+o5ujb2X5iJPwew611GrNVi/5AAalhmEO76PRExIRGTZJvRbgftBT3V+3j5Tpse/bdnFS06IiIiIKDlcYUhEP1eyfAEc81uKvqNbQ6HQ/WXgQdBzNK04FF5j1iMxQSViQtJW2LuPUkcgIj2tWbgPezaf1vl5mULxud3pK1kVNjYipiIiIiKitIRnGBJRimxsrTHWuzt2X5iLXPmy6lxHpUrCytm78Fu5wQgOeCJiQtLG2D5L8TEiUuoYRKQj36sh8B6zQZ8S6sbbdsWkz5nTTqRIRERERJQGabjCkIiEKFO5EI75L0ff0a0hl8t0rhMS+BRNKw7Dytm7kJSkFjEhpUaj0eDa+TtYNmuH1FGISAfh7z+hbysvJCTofi5sqb6D7uVp2CSLiLGIiIiIKC1SC1tiyIYhEcHO3gZjvbtj87EZyJrdTec68XEJ8BqzHq2qjcSTB69FTEgpefn0PSI/RWPDskN4+vCN1HGISAsqVRL6tfHGuzfhOtdwLVLsfo3Z83luIREREREJwYYhEWmnWp1SOBG4Ai271NKrju/VECz32ilSKkrN163giQkqzBm/UeI0RKSNWaPW4dqFQJ2fV9rbv25z4lxeyHRfIU5EREREloNnGBKRTpycHbBw43BsPDINmbNm1KlGpiwZMHH+7yIno+SEBPz/jaqHd13EzUtBEqYhIqGO77+KtYv2615AJotrc/SMg41TeoV4qYiIiIgojeMKQyLS3a8NyuJ00Cq06FRT62fn/DkIzhnSGSAV/UyQ/+N//XnGiDWCPzUiImk8vv8Kw7ou0Ot7tcbshW8zly7rLGIsIiIiIkrjNBB25wAbhkSULCdnByzaPAIrd46FS0YnQc+0/70eajYqb+Bk9L0g/3/fTu13/T7+3nlRojRElJroqFj0bjELXyKjda6Rp1HjoFJ9B+QSMRYRERERWQauMCQicTRqXQ2ng1ahbtOKKY7Lks0V4+dyK7IxRX6KxpsXYf/5e68x6xEflyBBIiJKiUajwcgei/Eg+JnONewzZX7UaNOOIuKlIiIiIiKLwTMMiUhMrpmdsWb/JKzcORbpXRz/83WZTIa5a4fAydlBgnSW667f459uaXz17D3WLz0oQSIiSsnq+Xvx964LOj8vVyo/dDx/zUNhbS1iKiIiIiKyIFxhSETia9S6Go75L0eVWiX/9ffdBjRG9bqlJUpluYJ/OL/we8tm7cCH8EgjpiGilPheCcGccXrdZJ7UePvueMds2e3EykREREREloW3JBORwXh4umHbyZnw9hkIB0c7eOZ2x6hZXaWOZZGCv7sh+UeRn6KxeNo2I6YhouSEvfuIPq28kJio0rlGmUHDH+au/1sWEWMRERERkYXRCOwYKg0dhIjSJplMhg69GqDSryUQ/SUGDo5c8CKFkIAnKX5988rD6NSnIfIV9jRSIiL6kSpRhX5tvPH+bbjONVyLFr9XfYZ3QRFjEREREZFl4pZkIjK8XPmyomjpvFLHsEiJCSo8CH6R4hiVKgmzx20wTiAi+qnpw9fg+sU7Oj+vtHd43eb42XyQyURMRUREREQWig1DIqK07EHwCyQmpL698cSBa7h82t8IiYjoRwf/Oq/XBUQymSym3elL9jZO6RUixiIiIiIiS8UzDImI0raULjz50YwRa6BWC/vBQETieHzvJcb0WqZXjRrzlrx3K1rMRaRIRERERGThNFxhSESUtqV04cmPgvyfYP/WswZMQ0Tfi/oSi14tZiHqS7TONfI2bX63ZK++uUSMRURkMSJfPMfHRw+kjkFEZHI0AheS8NITIiIzFeyf8oUnP/Ieux4NWlaBnb2NgRIREQBoNBqM7LEID0Oe61zDPrP7o4brthYVMRYRUZqkVqnw8eEDvPfzxYd7IYgICcI735uIj/yMjpduSh2PiMgU8ZZkIqK0LCRQ+ApDAHj3OgJrF+3HgHFtDZSIiABg1ZzdOLz7os7Py5XKiA7nr2VTWFuLmIqIyPzFR35GeNBdhPr5IuJ/zcFQ/9tQxcX9Z2zlCVOQsWBhCVISEZk4gWcYsmFIRGSGXr8Iw6cPX7R+boX3TrTrWQ+umZ0NkIqIrpwNxNwJm/QpoWq251B8Oo9sGcXKRERkjqLevkGo/22897uND/eCERESjIj7IYJ+0c1YuAjKDh1lhJREROZHLXBPMhuGRERmKMhP+IUn34v6Eov5k7fAa9UAkRMRUejbDxjccR5UqiSda5QdOuphjpp1CokYi4jIpKkTE/Hx0UO89/NFqP9tRNwLRmiAP+I+ROhUTyaXo/aSVeAqbSKiZLFhSESUVmm7Hfl7O9YeR/eBjZG/SA4RExFZNlWiCv3azMb7t+E613ArVuJetakz2SwkojQrNjwMoYEBCLvjj7DAAITdCcDHhw+gVqlEm6NknwHIWqGSaPWIiNIaGRuGRERpl64rDAFApUrCrFHrsOHwVBETEVm2KUNW48alOzo/r3RweNXm+Nl8kMlETEVEJJ3vtxR/PXPw8zPtLmzTVrrsnqgyaZpB5yAiMncanmFIRJR2BWl5Q/KPzhy5iQsnbqN63dIiJSKyXPu3ncOmFX/r/LxMJotud+qSg3U6J4V4qYiIjCMpIQGfHj/6tqX4vZ8vwgIDkBgTbfQsNecvgZWDo9HnJSIyJxquMCQiSpuiImPw6tl7vevMHLkWVWqVhEIhFyEVkWW6d+cZRv+xRK8atZeueu9WtFhukSIRERlM3KePiAgJRqifL97730ao3218eHgfmiTdz24VS6F2HZG7wW9SxyAiMn1cYUhElDYF+T8RvIw8JSGBT7F74ym07VFXhFRElifqSyz6tZmN2Jg4nWvkb97qTtGuPYuJGIuISG+apCREvnyOiJDgb1uK3/v5Ivr9O6mj/ZRthoyoPmuu1DGIiMwFVxgSEaVFwf66n1/4o9njNqBR62pwTGcnWk0iS6DRaDC820I8uvdc5xqOWT0eN1i7mc1CIpJUQtQXfHz4EBEhQd+2FIcG+kMVEyN1NMF+nbMQ9m6ZpI5BRGQWNGquMCQiC5cQn4jO9Sei64DGaNiyitRxRBMcoPsNyT8Kf/8Jf87fi6FTOopWk8gSLJu1A0f3XtL5eblSGd7+7BUPuZWViKmIiFIW9fYNPtwLQURI0P9vKX5wDxq1WupoOstZpx4Ktu0gdQwiIvMhcLsaG4ZElGZ5j92Aq+cCcfVcIBq1roZZK/vDJaOT1LH0pu+FJz9aOWcX2vasi6zZ3UStS5RWXTkTgAWTt+pTQtVi3+EEx6wetmJlIiL6nlqlwseHDxBxL/jbmYPvfG8iJixU6miiUtrbo+aCpVLHICIyK7z0hIgs2q3LwVi/5MC3Px/edRE3Lt6Ft89A1GlSUcJk+lGpkvAw+IWgsVVrl8KlU36pjouLTcDCKVsxd+0QfeMRpXlvXoahf7s5SNLjgP8KI8c9zF6jViERYxGRBUv4Eomwu3fw4X/Nwfd+vggN8IMqNlbqaAZXdcpMpM/JO6OIiLRjoBWGMu2TEBEZVUx0HIZ1W4CkpH9vrwl79xE9m05Di841MWN5f7M8t+9RyEvExyUIGtuqay1YWSlw9uitVMfu2nASXfv/hqKl8+obkSjNUiWqMLD9XESEfdS5RuYyZYMqT5pWRMRYRGQpNBp8fv4UYYEBCLsTiLA7AQi7E4DIF7qfpWrO3MuWR8ne/aWOQURkdoReoMkVhkSU5swYsQbPHr1J9ut7N5/B9Qt3MX/dUFSuWcKIyfQXrMV25Bx5smCMd3ecP+4LdSoH26rVGswYsQZ/nfHWNyJRmjVp4CrcvHxX5+etHRxetTp0oqCIkYgojVInJuLjo4d47+f77czBtzevIzYiXOpoJkGuVKL24pWQyeVSRyEiMkfckkxElufSKT9s9Tma6rjXz0PRvvY4tP+jPiYt+AP2DuZxlFhwgBYNw9xZ4JrZGQ1bVcXfOy+mOv7K2UCcOXITNRuW0yciUZq0b+tZbPE5ovPzMpksuu2ZKw7W6ZwUIsYiojQg/vMnhAcHIdTPF+/9b+PDvWCEBwchKT5e6mgmq/yIsXArbl4f+hIRmQquMCQii/PlczRG9lwk+AVQo9Fg2+qjuHTKD/PXD0OF6kUNnFB/Qi88cXC0Q8ZM6QEAI6Z3wbG9V6BSpX7m2vTha1C9bmkolexpEH0VEvgUY3rpdai+pvbyP9+7Fi7Cg7aILJhGrcbnp48RGhjwv23F/gi7E4ioN6+ljmZWMhQohPIjxkgdg4jIfGm4wpCILMykQavw+kWY1s+9ePIObX8dja4DmmD8nB6wtrEyQDpxhAhcYeiZ2x0y2T+nzubO74FWXWvjr7XHU33u8b2X+GvNcXTq01CvnERpxeePUejdYhZiY+J0rlGgVds7RTt3Ky5iLCIycUkJCfj0+NE/F5D438Z7P1+E3QlEYnSU1NHMmkwuR+2lq6CwsZE6ChGR+eIKQyKyJFGRMQi4+UDn59VqDdYvOYCrZwOwcONwFCmVR8R04nj7KhwfwiMFjfXM7f6vPw+b2gn7t51FXGzqF6YsmLIFzTrUgKOTvU45idIKjUaDkT0W49lj3Vf/pMvmeb/+nxvZLCRKw+I+fURESPC3LcWhfrfx4eF9aPS4TZ1+rvjvfeBRqYrUMYiIzJpa4JY8NgyJKE1wdLLH0dtLsWDKVqyet+c/NyQLde/OMzQuPwR/DG+BEdM6w8radF4mtb3w5HvuHhnRsXdDrF20P9Vnw99/worZuzBqZletMxKlJYunb8ex/Zd1fl6uVEa0O3Mph1xpOq8jRKQ7TVISIl8+R0RIMN773f7WIIx+91bqaBbBMUtWVJk0TeoYRERpABuGRGRhbGytMda7O+o2rYhhXefj6cPkb0pOiUqVhJWzd+Hc0VtYuGk4CpcwjWPHgvwfCx774wpDABg4vh12rD2OqC+xqT7/54J96NirATxyZNIqI1Facfm0PxZP265PicTm+w8nOGbJmlGsTERkPAlRX/Dx4UNEhAR921IcGugPVUyM1NEsVs2Fy2CT3lnqGEREZk/GW5KJyFKVqVQIxwNWYOHUrfCZuxtqtbAzGn4UEvgUTSsOw7ApHdFrREsoFHKRk2onOOCp4LE/rjAEgAyuTug5pBkWT0+9CRIfl4C5EzZh0eYRWmUkSgtevwhD/3ZzkKTHdsKKYyY+9PylVmERYxGRgUS9fYMP90IQERL0/1uKH9yDRq3bbgUSX4FWbZGnUROpYxARpQm8JZmILJqt3T+rDavWKomRPRfhzUvtL0MB/mmceY1ZjxMHrmH+hmHInd9D5KTCabMl2TP3fxuGANBreAtsWnEYHyNSPwtx39az6D6oCUqUyy94XiJzlxCfiD4tZ+FD+Ceda7iXLX+30vjJpn/tOpGFUatU+PjwASLuBX87c/Dd7VuICX0vdTRKga1LBtSYvUDqGEREaYaGtyQTEQHV6pTCyTsrMHPUOmxbfVTnOr5XQ1C/ZH8MndwRvUe2glwuEzFl6qK+xOLFE2FnJCkUcmRLZitxuvQO6DOqFbxGr0u1jkajwYwRa7Dr/BytshKZs4kDViLg1n2dn7d2cnra6vDJQiJGIiIdxH/+hLA7gQgL9P/n/+8GICI4CEkJqV/+Raalutdc2GfKLHUMIqI0gysMiYj+J116B3j7DES9ZpUw6vfFeP8mQqc6cbH/rDa8eMofc9cOgYenm8hJkxcS8ETw1uos2d1SvKylx6Am2LD0IN6+Ck+11vULd3F8/1XUa1ZJcFYic7V38xlsX3NM5+dlcnl0+9MXXazsHRQixiKiVES9fYNQ/9vfrRy8jYj7IULPdCcTlr16DRTp0EXqGEREaYrQMwylPZCLiMiIfm1QFqeDVqFFp5p61bl0yg91ivXVa8WitrQ5v/BnF558z8bWGgPGtRVcb8aINUhMUAkeT2SOggOeYEzvpfqU0NRZ/uf7DAWL8ER+IiO5s2ENVmRzxZ/5PXGgTTNcmjQOIdu3IOJeMJuFaYDS3h51lq8GZMbd1UFElNYJXWHIhiERWRQnZwcs2jwCK3eORQZXJ53rREXGYEzvpejSYCLevdZtxaI2QgKEn1+Y8ycXnvyo/e/1fnoxys88f/wWW3yOCJ6fyNx8/hiF3i1mIS42XucaBdt2DCzSqatpXKlOZCGKdfsdLQ8cg3uZclJHIQOoPH4K0ufkyyoRkdg0ELZ1jQ1DIrJIjVpXw6m7q1C3aUW96pw75ovaRfsYfLVhkFYXnqS8whAAlFZKDJ3SUXDNBZO34NOHL4LHE5kLtVqDQR3n4fmTNzrXcPLMca++z7oSIsYiIoEylymLdmcuo57Peti5Gu+oEDIst+IlUKrfIKljEBGlVWwYEhGlxDWzM9bsn4SVO8civYujznUiP0VjTO+l6NvGCx/CU799WFtJSWo8CHoueHxyNyT/qFmHX1G4hLBP7j9/jMJyr52CMxCZi8XTtuHs0Rs6Py+3tn7X/tzVnDIFjy0kkopMLkfhDp3R9dYdFOv+B2Ry/opjzuRWVqi3aj3kSh63T0RkCBqBZ+PzpykRWbxGravhmP9yVKlVUq86h3ddRK0ifXBs3xWRkv3j8b2XiI0RvlVS6FZjuVyGYVM7Ca67bskBPHuk+yosIlNz8aQflsz4S58Sic33/a2xd8tkK1YmItKdXUZX1F6yEh0u3EDWCrysy1yVHTwCbsWKSx2DiCjN0nCFIRGRcB6ebth2cia8fQbCwdFO5zoRoZ/Qq8UM9G3jJdoWXm22IwPCtiR/VbdpRZSpVEjQ2MQEFeZO2KRVFiJT9fp5KAZ2mIukpCSda1QeP/WBZ/Wawjr0RGQ0mUqURNuTF1DPZz3sM2WWOg5pwTlPPlQYNU7qGEREaRpvSSYi0pJMJkOHXg1wInA5Kv5STK9ah3ddRO2ifXH6b923On4VosUNyU7ODlpvrx7j3V3w2L93XsSty8Fa1ScyNfFxCejdchY+hH/SuUaW8hXvVhgzvoiIsYhITDIZCnfojG5+wSjdfzC3t5oDmQx1lvlAaaf7B7dERJQ6jUYtaBwbhkREP8ieyx3bT3th3JwesLG11rlO6NsP6NFkKib0XwG1wHMifiZYmxuS82bVun6F6kVRtXYpQWM1Gg1mjFgDjUb3fw+R1Cb0X4lA3wc6P2+TPv2zVn+fKCxiJCIyEBun9PjFez663AhAjtp1pY5DKSjW7Xdkq1pd6hhERGketyQTEelBoZCjz8hWOOK7BMXL5tO5jkajgUqVBLlcpnMNbRqGQs8v/NEYr26QyYRlvH3tHo7svqTTPERS27b6KHasO67z8zK5PLLDuavOSjt7vociMiMu+Qqgxb4jaLpzP5w8c0gdh37g4J4FVafNkjoGEZFFELr4g292iYhSkK+wJ/ZfXYCx3t1hZa39dqZsOTNjwrzfdZ7//ZsIhL8Xvm1Sm/MLv1e8bD7Uayb8gPhZo9cjIT5Rp7mIpBLk/wRThqzWp4Sm7sp1Yc558zuLlYmIjCt3g9/Q5WYgyo8YC4WNjdRx6H9qLlgKW2cXqWMQEVkEmYYrDImIRKFUKtB3dGscvrUERUrlEfycXC7D/PVD4ZhO97N4tL/wRPf7F0Z7dYNSqRA09uXTd9iw7JDOcxEZ26cPX9C7xUzExQq/cfxHhdt3DizcoZPwFwEiMklW9g6oMnk6utwMRO76jaSOY/HyNW2BvI2bSR2DiMhiqDXCzstiw5CISKCCxXLi0PWFGDq5IxSK1F8+uw1sgko1ius1Z7CWDUNdtyQDQJ4C2dCs46+Cxy+ZsR0fwiN1no/IWNRqDQZ1nIcXT9/qXMMpR857dVeuKSFiLCKSmHOuPGi66wBaHjyODPkLSh3HItk4pUeNOQuljkFEZFm4JZmISHxKKyWGTumIvZfnI0+BbMmOy5EnC0bO6KL3fNqcXwgAOXTckvzV8KmdYG1jJWhs5KdoLJmxXa/5iIxh/qTNOHfsps7Py62t37U/dzWnTCFsBS4RmRfPX2uh8zU/1Ji9ANaO6aSOY1Gqz5oDx6weUscgIrI0XGFIRGQopSoUwFG/Zeg7uvV/LjSRy2VYsGEYHBx134r8lTYrDK2slXDP5qrXfB45MqHDH/UFj9+04jCePHit15xEhnT67xtY7rVTnxLxrQ+fVNu7utmKlYmITI/cygql+g1CV9+7KNS+k9RxLEK2qtVRtEsPqWMQEVkcDc8wJCIyLFs7a4z17o7dF+YiZ96s3/6+7+jWKFe1iN71Y6Lj8OzRG8Hjs+fMLGirdGoGTWwv+NxFVaIK3mPW6z0nkSG8evYew7sthFqt1rlGlUnTH2WtWCVr6iOJKC1wzOqB+qs3oPWR08hYWP+f5fRzChsb1Fq8ApDJUh9MRESi4i3JRERGUrZKYRzxXYIOvRogX2FPDJnUQZS6IYFPoRZ2Hi0A3W9I/pFrJmd0HdBY8Phj+67gypkAUeYmEkt8XAJ6t5yFDxGfda6RpXylu+VHjmXHgMgCZav2Czpd9kWN2Qtg45Re6jhpTqXxk3luJBGRRGQCDzFkw5CISASOTvbw9hmIQzcWwcbWWpSaxrzw5Ed9R7WGcwbh5zhNH7FGq+YmkaGN77cCd24/1Pl5m/TOT1v9fbywiJGIyMzIlUqU6jcIPe48QKm+AyGT81cnMbgWLYYyA4ZKHYOIyGKpucKQiMj47B3EO+YsOOCpVuM9c4vXMHRydkCv4S0Ejw/ye4wD28+JNj+RPjavPIyd60/o/LxMLv/c4fw1F6WdPd8nERFsM2REjTkL0f7sVbiXLS91HLMmUyhQd8VayK2EXbBGREQGwDMMiasFTFAAACAASURBVIjMW7D/Y63Gi7nCEAB6DG4KN3cXweO9x6xHbEy8qBmItOV/4z6mDf1TnxLqhuu2hjvnyessViYiShsyly6DdqcvoZ7Peti5ukkdxyyVGTAUmUuVljoGEZFlE3iIIRuGREQmSK3W4P7d51o9I9YZhl/ZO9hiwLi2gse/fRWO9UsOiJqBSBufPnxB/7ZzEB+foHONIp26BeZv2TqPiLGIKA2RyeUo3KEzuvkF/7NNWaGQOpLZcPLMiYrjJkodg4jI4qk1wi4EZMOQiMgEPX34GjHRcVo9kz1XZtFzdOrdUKtG5DKvnQgP/SR6DqLUqNUaDOwwFy+fvdW5hlOOnPfqLPMpKWIsIkqjbJ1dUGPOQnS8cAMelapIHcf0yWSovXQVrOwdpE5CRETglmQiIrN19WygVuPd3F3g4Ggneg4rayUGT2wveHxUZAwWTtkqeg6i1MwZvxHnj9/S+XmFjc279mev5uZqISLShlvxEmhz/BwabfoL6bJllzqOySrSqRty1KwtdQwiIgIg4xmGRETmx/dqCLo3noLx/ZZr9ZzY25G/16JzLeQr7Cl4/LbVR/EgSLvt1ET6OHXoOlbO3qV7AZksvtWRU2p7NzdxrjgnIssikyF/81bo6nsXFcdOgsLGRupEJsU+U2ZUnzlb6hhERPQ/vCWZiMiM3LocjO6Np6B55eE4/fcNoefQfiP2hSffUyjkGD6ts+DxSUlqzBq93mB5iL737NEbDOk8X+vvme9VnTLzUdbylbKKGIuILJCVvQMqjZuEztf8kLNOPanjmIxf5y2GrUsGqWMQEdE3vPSEiMjkXTkTgDY1RqNF1RE4/fcNnevkyG24hiEANGhRGaUqFBA8/szhG7h82t+AiYiAuNgE9GszG5Gfo3Suka16Df9yw0YVETEWEVk4l7z50XzvYfy2ZSecPHNIHUdSeRo2Rv7mraSOQURE3xH6QTsbhkREErhw4jZaVB2BdrXG4tr5O3rXM+SWZACQyWRarTIEgBkj1kCt1n3VF1Fqxvddjrt+D3V+3sbZ+Unz3YeKixiJiOibfE1boOutf7YpK21tpY5jdNbpnFBzwVKpYxAR0Y94hiERkem5dMoPzSoNQ6d6E3DrcrBodQ25Jfmr6nVLo3LNEoLHB/k/wZ5NpwyYiCzZ+qUHsWvjSZ2fl8nlnzpeuOGitLPjeyEiMhilnR0qjZuEbn4hKNS+k9RxjKrqtFlw9MgmdQwiIvqBRuASQ75JJiIygkun/NCkwlB0qDMet6/dE72+oVcYfjXGqxtkMpng8XPGb0JMdJwBE5Elun3tHmaOWKtPCXWjDdvD0+fK7SJWJiKilKTLlh31V29Ay0MnkLFgYanjGFyW8hVRvEcvqWMQEdHPaNSChrFhSERkIBqNBqcOXcdv5QajQ53x8L9x3yDz2NnbwM3dOH2PkuULoNZv5QWPf/8mAqvn7zVgIrI04aGf0Le1NxISEnWuUaxrz4B8zVvmFTEWEZEgnjVqouOlm6g6dSas7B2kjmMQChsb1F25BjI5f9UkIjJFGm5JJiKShlqtwaEdF1CvRH/0aDIVgbd0P2NNCM/c7lqt+tPX6FndIJcLn89n7h6Evv1gwERkKZKS1BjSaT7evgrVuYZLnnx3ay1ZWUrEWEREWlHY2KDcsNGotWg5lHZ2UscRXYVR45Ahf0GpYxARUTI0YMOQiMio1GoNDu+6iNpF+6B/O2/cu/PMoPM5prNDh14NsGLHWIPO86MCRXOgSbtfBI+PjorFvImbDZiILMXssRtw4aSvzs8rbGzetT11MT9XvRCRlBK+ROLUoL441qsbVLGxUscRlWuRoig7ZKTUMYiIKAUagVuSlQbOQUSU5qnVGhzdcwnzJm3B43svDT6fZ253dOzVAB16NUB6F0eDz/czI2d0weHdl5CYoBI0fuf6E+ja/zcUKZXHwMkorTpx4Bp85u3RvYBMFt/m6Bm1naurtXipiIi08/zMKZzs/we+vDL8+wVjk8nlqLV4JRTWfJklIjJlMoFbktkwJCLSkSpRhQPbz2PpzL/w5MFrg89XrmoR9BjUBPVbVIFCIe0Kqey53NGme11s9TkiaLxarcH0EWvw12kvAyejtOjpwzcY1nUBBF7o9lPVp3k/dC9XoaiIsYiIBEuMjsKF8aMRuG41oMdrmSkr1XcgslaoJHUMIiJKhdD31GwYEhFp6WujcPH07Xj26I1B57K2sULjttXRe0RLFCyW06BzaWvo5A7Yu/k0YmPiBY2/ciYA5475okb9MgZORmlJTHQcejWficjPUTrX8KxRy6/MkOE8t5CIJPHm+lUc790Dnx4b9kxjKTl55kTlSdOkjkFERAIIPcOQDUMiIoESE1Q4+Nd5LJq2Dc8fvzXoXJmyZEDH3g3QtX9jZHB1MuhcusqUJQO69PtNq22i04atRtXaK6BUKgyYjNKS8X2X437QU52ft82Q8UGz3QdLihiJiEgQVVwcrs2ahluL50GjFnZelLmqvXhFmr31mYgozVGr2TAkIhJDQnwidm88hcXTt+Ptq3CDzlWsTF70HNwMTdpVh9LK9F+i+41pja2rjyIqMkbQ+EchL7Fz3Ql06NXAwMkoLVi7aD/2bD6t8/MyueJzh/NX3RU2Nsa7RpyICMC7WzdwvHcPfHhwT+ooBleofSfkqF1X6hhERCSQmluSiYj0ExMdh7/WHMfKObvx/k2EweaxslaibtNK+H1oM5SpVMhg8xiCS0Yn9BreAgsmbxH8zNyJm9Gk3S9wdLI3YDIyd75XQ+A1er0+JdS/bdoelj5n7rxiZSIiSo06MRHX53rh+pyZ0CQlSR3H4OwyuuKXWXOljkFERFoR1jFkw5CI6AdfG4UrZu9C6NsPBpvHNbMzWnerg+4Dm8DdI6PB5jG0P4Y1x8blfyMi9JOg8RGhn7Bq7m6MmN7FwMnIXIW//4R+rb2RkJCoc43iv/fyz9u0RWkRYxERpSg86C6O9+6G0AB/verYuboiNtywOxrEUmPOQti5ukkdg4iItCHwlmRpr9kkIjIh0VGxWLf4AKrm6YEpQ3wM1iwsWjovvH0G4uqzDRjr3d2sm4UA4OBoh/5jWmv1zOr5e/H6RZiBEpE5U6mS0K+tN96+1v2/D5e8Be7UWrCczUIiMgq1SoWbC+dgW/XyejULHTK7o8mOfchRs46I6QwnZ936KNimvdQxiIhIS7wlmYhIoKgvsdi84m+snLMbnz58McgccrkMNRuVR49BTVC1dtq7rLVz30ZYs3A/3rwU1uSJi03AvImbsHDjcAMnI3PjNXo9rp0P1Pl5ha3tq/ZnL+eHjMcWEpHhRdwLxvHe3fH+tq9edfI3b4Vai5bDNkNGvLl6RaR0hmNl74CaC5ZKHYOIiHTDLclERCn5GBGJDUsPYd2SA/j8Mcogc6RL74DW3Wrjj2Et4OGZdrfs2NhaY/CkDhj9x2LBz+zbcgbdBzZB8bL5DJiMzMnx/VexZuH/sXffUVFdaxvAnxmGXhULoKJYsGIJYO/YoomJJcYWYw1qLLFcSywxdmOJjdhLNDEmMRpjRbGiInZFsaOiKCIgSIeZOd8f3usXE9QzM+dMgee31l13XTjvux9zVwRe9j57h/4NFIrsbvsPK23d3GylS0VE9G+CVotLK5cjfOpEaHJy9O7jULwEghaHoGLHTq8+5uTlJUVEWTX+dhZcy/qYOgYREelBC62o5zgwJKJCJznxBX5cvgtrF/+JtNQMWdaoULk0+gztgO4D28HeoXDMLrr1a43VC7fj7o2Hop7XagXMHLsWvx2dJ3MysgQxt+Iw+vNFoo9I5KfpzO/uePjXrSFhLCKif0m9H4PQwQMQdzLcoD4+bduj9fJVcPTwfO3jzqVKG9RXbh4BdVFr0BBTxyAiIj0pRL7DkANDIio0Ep+mYNWCP7B5xR5kZmRL3l+pVKBhy9oYMPIjtOwQCEUhOxJpZaXE6Gm98GX3uaJrTh+LwsG/TqN1x/oyJiNzl5GehS86zULaC/0H+GWD2lzwHzGK7y0kIvkIAqI2rsWxCWORl6n/31e2rm5oMmMO/PoNyvfzTl6l9O4tNysbG7T5YS0UVlamjkJERHrSCloODImIACAxIQVrFu3AxmV/IStT/2NDb+LkbI+OPZpj0KiPUaFKGcn7W5IPujXBD/N+x7WLd0XXzB63Hi3eD4DKml+SCqtxA5bgVvR9vevt3N1vffTrjoL3clAiMhsvYh/gwNCBeHjsiEF9yrVui9bLV791KGjOA8PAMRPgXrWaqWMQEZEBRM4LOTAkooIr8WkK1ny/AxuW7kR2Vq7k/ctV9EKPgW3RK7g9XNwcJe9viRQKBf4zsw/6dvhGdM3dm4/w8+r9+PzLD2RMRuZq9cLt2PXbcb3rFVZWSb1OnPWwsrUtXFt6ichoordsxpExI5Cbrv/FaDbOLmg6ax78+g7Euy5lcizpAaVKBa1arfd6cihSqTICR48zdQwiIjIcdxgSUeEUF/sMqxdux5bV+5CTLf2gMLBxdfQf0RHtOjeClZVS8v6WrmX7QNRv5ofTx6JE13w/7Sd07t0Czq4cvBYm509dx7yJGw1poflg06/PXUp7V5QoEhHRKxlP4xE2fDBi9u02qI93iyC0CVkD5zLeop5XWFnB0cMTaY/EvRPYGBRKJVqHrIbKzs7UUYiIyECCIO7SE/6kS0QFRmxMPMYPWoImFQdgw9Kdkg4Lbe1s0KVPEMKursAf4fPR4ZMmHBa+xX9m9tHp+eTEF1g++1eZ0pA5ehb/HEM+mYO8PP130NQOHnqpYsePOSwkIsnd2rENmwJrGjQsVNnbo/H02ej85z7Rw8L/cfI0r5uSaw0aglINGpk6BhERSUAQeekJf9olIov38F48JgQvQ/PKg/DL2lCoDRhAvImdvQ1Sn6fj0O4zOHvimiw7FwuSwMbV0eL9AJ1q1i7+Ew/uPpEpEZkTtVqDod3mIv5xot49ivhWjmoxf4m/hLGIiJD5LAG7enbFnj7dkf08We8+nnXro/ep8wgcNQ4Kpe4/cjmZ0U3JTp5eaDh1uqljEBGRRBQ8kkxEBd3dGw+xbNav2PnLUWg04rZV6yv1eTrCdkUibFckAEClskLVWj4IbFwdNf0roV4zP5TyLi5rBkszYW4/HAs9D63Il+rm5aoxf/ImLP9lvMzJyNRmjl2HyHDxR9b/ycre/mHPwxG+73oPGBGRLm7t2IbDo4YhK0n/X2ao7OxQ/+upCBgxxqCbhJ3NaGDYcnEIbF1cTR2DiIgkIvZIMgeGRGRxbl17gB/m/Y6dW+QfFL6JWq1B1Pk7iDp/59XHSnq5I6BRNdRtXA0Bjaqjep0KUCoL70Cjak0ftO/aGLt/Cxdds+vX4+g3vCP8G1aVMRmZ0q5fj2P9kj/1b6BQZPYIO25j4+piK10qIirMclJTED5lIqI2rDGoj4d/INquWo+ilQ3/GmYuR5Irf9IdFdp/aOoYREQkIbFHkjkwJCKLkpz4An9sPoyYm3FQmNnuoqePk7Dn93Ds+f3lgMzJ2R6161VBYONqCGxUDf4Nq8HeoXDNOMbO6IP9209BrdaIel4QBMwatw5/hM83u/9/yXB3bz7ChC+WGdSj2az5McVr1qkhUSQiKuTuH9iPg8ODkf44Tu8eSmtr+A8bhYZTvoXS2lqSXOZwJNmuqDuaz11o6hhERCQxQRB3AowDQyKyKEWLuWDi3H4AgMyMbFyIuI7wsEs4e+IaLp25Jcv7C/WVnpaFE2EXcSLsIoCXx5jLVy79312I1VGvaQ2UKlvCxCnlVd63FLp+3gpb14WKrjl3Mhr7tp9C+y58uXpBkpGehS86zULaiwy9e/i0e//ce8O/0u3lmERE+chNe4Hjk8YbvKvQvVp1tFu1ESVq15Eo2UtOXqUk7aePZnMWwKFESVPHICIiiQki3xnFgSERWSwHRzs0blUHjVu9/CY9Iz0LF0/fMNsBolqtwa1rD3Dr2gNsWb0PQOE4xjz62974c8sRZGeJvyhm9rh1aPVBXdjYSrNTg0xLEASM7bcYt68/0LuHnXuxmx/+/AcvOSEigz04HIaDXw5C2qOHevdQqlTwHz4aDSZPg5WNjYTpXnIqZdqBYZlmLVCtR2+TZiAiIrmI22LIgSERFRiOTvavDRDTUjMQefwqIo5eQcTRKFy/HGOydx6+yT+PMTs62aNa7fKvdiEGNq4OFzdHE6c0jEcpd/QKbo91i8W/ty42Jh6bftiNgaM6yZiMjGXl/D+wZ5v4d1n+k8LKKrH3ybNeVjY2BWuaTkRGpc7MxOm5M3FuyQIIWv2/H3CvUg1tV65HSX/5Njw7eZaCQqk0KKe+VA4OaLVsJXixFBFRwST2UkoODImowHJ2dUSrD+uh1Yf1ALy+A/FE2EVcu3hX9F+WxpKRnoWzJ67h7IlrWDHvd1hZKVGhSpm/DRCroYyPh6lj6mz4pO74dV0o0tOyRNcsmfELuvQJQhF3FxmTkdwijl7B/Ek/GtJC/fFvO587lypTSapMRFT4PI6MQGhwf6Tcva1/E4UCfn0HovnchVA5OEgXLh9WNjawL1YcmQlPZV0nP42mTIebTwWjr0tERMahAC89ISJ6zes7EPshPS0LlyLNe4Co0WjfeozZz78Satf1hcravP86L1rMBQO++hhLZvwiuib1eTqWztyKb77/QsZkJKdn8c8xoucC0Zfe5KfO4OGXyrVpx/cWEpFe1NnZOD17usG7Cl3L+qDNynUo3biphOnezsnLy+gDw5L+AagzZLhR1yQiIuMSRN56Yt4/YRIRycjJ2fIGiMC7jzEHNKoG1yJOJk75b1+M6YxNP+zB86QXomt+DNmNPkM/gE8lLxmTkRzUeWoM+WQOnj5J1LtH0cpVrjT/bhGHhUSkl/hzZxAa3B/Jt27o3+S/uwqbzZkPa0fjfm119iqNhEsXjbaeUqVCqyUrobCyMtqaRERkfLwlmYhIR5Y6QHzXMWY//4qoVM3b1DHh7OqIweO6Ys749aJr1HlqzJu4ASu3TZIxGclh+ui1OHPiqt711vb2sT0On6rCd2gRka60eXmInD8Hkd/NgqDRf4ezi3dZtA5ZA+/mLSVMJ55TqdJGXS9w1DiUqFXbqGsSEZHxKXjpCRGRYSx1gJjfMeYSnkVRM6ASAhtVQ2Dj6qgV6AtrG+N/Ceg/oiM2LvsLTx6J33W294+TOBN+FXWb1JAxGUlp5y9HsXH5X/o3UCgyPj0Ubmvj4iL91aNEVKAlXruK0OC+SLh8yaA+vp26ImjpCti5FZEome6cvIy3u75IRV/UHfe10dYjIiLT4aUnREQS++cAMelZKi6evoGzJ6NxIuwirl64K3p7t7ElPElG2K5IhO2KBAA4ONqhep0Kr3Yh+jesCreizrLnsLWzwbCvP8WkoSE61c0cuw47Ty+CgrvNzN6NqPsYP2iZQT1aLlp+t7hf7ZoSRSKiQkCrVuP8skWImDkNmtxcvfs4lvRA0NIVqND+Q+nC6cnJy0g7DBUKBC0OgcrOzjjrERGRqXGHIRGRnNyLu/7tFmbLGiBmZmTne4zZz7/iq12Ich1j7jGwLVYv3I4Hd5+Irrl05ib+2noMH/VoLksmkkZ6WhaGdpuLzAzxt2H/U/n2H5ytNTA4UMJYRFTAJV2PRujgfnh64bxBfXw7dUXQ4hDYFXWXKJlhnI10JLlmv0Eo06yFUdYiIiLTE7Q8kkxEZFT/HCAmJqTgUuRNixgg/v0Y8x+bDgEAinsUQa1A31cDxJoBlWBja23wWiprFUZN64WvPlugU93scevR5qMGsHewNTgDSU8QBIzt9z3u3IjVu4d9sWI3Ptj8Gy85ISJRBK0Wl1YuR/jUidDk5Ojdx6F4CQQtDkHFjp0kTGc4YxxJdvTwROPps2Vfh4iIzIfIeSEHhkREcilWwu1fA8TIY1E4cyIa505eM+sBIgA8i3/+2jFmewdb1Hiv4qtdiA1b1kIRdxe9en/cswVWL9iO6MsxomuePErExmV/Ycj4T/Rak+T1w9zfsfePE3rXK6ysEnudPFfKysaG586J6J1S78cgdPAAxJ0MN6iPT9v2aL18FRw9PCVKJh1jXHrSctEy2Lq6yb4OERGZEZE/hHJgSERkJMVKuKHDJ03Q4ZMmAIDEpymIPG45A8SszJxXx5jXL9kJAPAu74HAxtVf7UKsWLWMqPcMKpUKjP62NwZ+PF2nDMtmbcUnfVujWEn+cGNOTh2+jAVTNhvSQt3pt50pzl6lK0qViYgKKEFA1Ma1ODZhLPIyM/RuY+vqhiYz5sCv3yAJw0nL2sERdm5FkJ3yXJb+vp26ouKHH8vSm4iIzBoHhkRE5qxYScseIAJAbEw8YmPiXx1jLlbSDbXrVn41QPTzrwhbu/wvum3zUX34N6iK8xHXRa+XnpaFJTO2YMbyoZLkJ8M9fvgMX3afB41Go3eP94Z/dbFsm3Z8byERvdWL2Ac4MHQgHh47YlCfcq3bovXy1XDyKiVRMvk4ennJMjC0dXFFs7kLJe9LRETmT9BqRT3HgSERkZn45wDxWfxznAm/ivCwSzh74hpuR+v/bjhjSXya8toxZpW1ClVrlnu1C7FBi1ooWuz/jzFPmNsPnzQbp9MaP6/ah8+GdIBv9bKSZifdqfPUGN5jPpKepejdo1iNmheazV7AYSERvVX0ls04MmYEctPT9O5h4+yCprPmwa/vQEDEbnhz4FyqNJKir0net+mc+RYxMCUiIukJ3GFIRGTZinsUsfgBojpPjajzdxB1/s4bjzE3CqqNk4cuie+p1mDuxI1Y/9c3csUmkb4ZsQpnT17Vu97a3j7209CjNSSMREQFTMbTeIQNH4yYfbsN6uPdIghtQtbAuYy3RMmMw8lL+vcYlm7SDDU+6yd5XyIisgyClpeeEBEVKP8cID5++AwRR64g4ugVRByNwsN78SZOKM4/jzGrrHX/UhS2KxKnjlxBwxY1pY5HIv255Sg2r9yjfwOFIuPTw6dsbVxc8j+zTkSF3q0d23Bo5FBkP0/Wu4fK3h71J05BwMixUCiVEqYzDql3Aars7dF6+SqL2WFJRETSU4CXnhARFWheZYqjS58gdOkTBABIeJKMsyeuITzsEk6EXURsjGUMENV5ar3qpo9ajb0XlkGp5A89xnb9yj2MH7TUkBZC0Pchd4vX8OPEl4j+JfNZAg6NHIo7u/40qI9n3fpou2o9ilT0lSiZ8TmXknZg2ODrqXArz/uliIgKM41W3BZDDgyJiAqIEp5FX9uB+PRxEs6djEZ42CWEH7xoMTsQxYq+HIMdPx1+NTAl43iRkoHgzrORlZmtd4+KH350tuaAL+pKGIuICohbO7bh8KhhyEpK1LuHys4O9b+eioARY6CwspIwnfFJeSS5uF9NvPflV5L1IyIiy8QjyUREhVxJL/fXBogP78Uj4mgUTh25jNNHo/D44TMTJzTcd5N+RPuujWHvYGvqKIWCIAgY238x7t+N07uHY0mPqx02/cpLTojoNTmpKQifMhFRG9YY1MfDPxBtV61H0cpVJUpmWlIdSVaqVGgdshZKa2tJ+hERkeXikWQiInpNGR8PlPHxQLd+rQG8vgPx+IELeHT/qYkT6u7Jo0SsWbQdIyb3MHWUQmHZrK3Yv+Ok3vVKK6tnvU6c8VaqVDxHTkSv3D+wHweHByP9sf6/jFBaW8N/2Cg0nPJtgRqKOUl0JNl/+GiUrPOeJL2IiMiyCQJvSSYiorf45w7Evw8Qj4WeR9yDBBMnFGfFvG3oPqAtSngWNXWUAu3koUv4ftoWQ1rkddq+J93Rw6u4VJmIyLLlpr3A8UnjDd5V6F6tOtqt2ogStetIlMx82LkVgbWjE/Iy0vXu4VrWB/UmTJIwFRERWTKtoBX1HAeGREQE4N8DxNiYeJw9cQ1nT0ab9QAxIz0Li775CXNXjzB1lALr8cNn+LL7d9BoNHr3CPhqzEXvlq343kIiAgA8OByGg18OQtqjh3r3UKpU8B8+Gg0mT4OVTcG9cN3J0wvP79zSr1ihQKtlK2Ht4ChtKCIislgK7jAkIiJDeJf3gHd5j1eXirw2QNx/DnGx5vMOxF/XH0Df4R1Rxa+cqaMUOLk5eRjcZTaSE1P07lHcr9aFJjPmcVhIRFBnZuL03Jk4t2QBBK24HQ75ca9SDW1XrkdJ/wAJ05knp1Kl9B4Y1visH7xb8HIwIiL6fwJ3GBIRkZTeNkA8uu+cSS9R0Wi0mD1uHTbtm2GyDAXV1OErcOnsTb3rrR0cYj49eLyGhJGIyEI9joxAaHB/pNy9rX8ThQJ+fQei+dyFUDk4SBfOjDmX0u+mZMeSHmgya57EaYiIyNLxHYZERCSrfw4Q71x/iIijVxBx9ApOH4tC4lP9d6Tp4+j+8zh+4AKatuFL3aWy/afD2LJmv971CoUivfvhU47Wjo4F96wgEb2TOjsbp2dPN3hXoWtZH7RZuQ6lGzeVMJ35c/LSb2DYYsES2LkVkTgNERFZOkGr5cCQiIiMp2LVMqhYtQw+G9IBwMsdiCfCLuLMiWuIOHIFTx4lyp7h21GrEXo5BCqVlexrFXTRl2MwMXi5IS2ElktW3C1WvUYtqTIRkeWJP3cGocH9kXzrhv5N/rursNmc+bB2dJIunIVw8vLSuaZCh46o9HEXGdIQEZGl04JHkomIyIS8y3ug5xfvo+cX7wN4fYB46vBlxMclSb7m7ehY/L4xDD0GtpW8d2GS+jwdwZ1nIyszW+8elT7qfKZmv4H1JIxFRBZEm5eHyPlzEPndLAgGXJjk4l0WrUPWwLt5SwnTWRYnHY8k2zi7oOXCpTKlISKiAoA7DImIyHz8fYAoCAJuXYvFqSOXcfpoFCKPRyE58YUk6yycuhkduzeFo5O9JP0KG61WwMjeC/Ag5rHePRxLekS137iFl5wQFVKJ164iNLgvEi5fMqiPb6euXBca1gAAIABJREFUCFq6otAfq3XyLKXT801mztV5yEhERIWHVuTrQTgwJCIio1MoFKhcoywq1yiLfsM7Avj/HYjhYZcQceSy3gPEhCfJWPndNoyZ/pmUkQuNJdO34PDeM3rXK1Wq+N4RF8oqVSqFhLGIyAJo1WqcX7YIETOnQZObq3cfx5IeCFq6AhXafyhdOAvmXEr8wLBUoyao2W+QjGmIiMjSKbjDkIiILMmbjjCHh13CqcOX8TxJ/ABx1YI/0GNQO3iVKS5X3ALpRNhFLJ251ZAWeZ2278lyKF7CQ6pMRGQZkq5HI3RwPzy9cN6gPr6duiJocQjsirpLlMzyORQvAStbW2hyct76nJWtLVot+QFQ8Pc1RET0ZoIgiBoYKuUOQkREpI//DRBX/DYRlxO34sTd9Zi7ajg6fNIERdxd3lqbnZWLhVN/MlLSgiEu9hmG9ZgPjQHvGqs7dsIF7xZBPhLGIiIzJ2i1uPjDUvzcJNCgYaFD8RL48Off0WHTVg4L/0mhgGNJz3c+Vn/CZBStXNUIgYiIyJKJnBdyhyEREVmGv+9A1GoF3Lkei3MnoxEedgknD11CSnLaa8//sSkMfYd9CD//iiZKbDlysnMxuMtsJCem6N2jeM065xt9M5OXnBAVIqn3YxA6eADiToYb1MenbXu0Xr4Kjh7vHooVVs6lSuFF7P03fr5Y9RoIGDnWeIGIiMhyiZwYcmBIREQWR6lUwLd6WfhWL/vWAeLMsWvx65G5po5r9qYMW4HL527qXW/t5HS3+8FjfhJGIiJzJgiI2rgWxyaMRV5mht5tbF3d0GTGHPjxnXvv9LZLTBRKJVotXQmltbURExERkaXSarUcGBIRUeHwzwGiRqPFtYt3EXH0CuIeJKBU2RKmjmi2tqzZj63rQvWuVygUqb2OnnZSOTjYSBiLiMzUi9gHODB0IB4eO2JQn3Kt26L18tVw8tLtBuDC6m0Dw/e+HAnPuvWNmIaIiCwZb0kmIqJCy8pKiZoBlVAzoJKpo5i1a5diMG3kKkNaCK1D1jwqUrlKdakyEZH5it6yGUfGjEBuetq7H34DG2cXNJ01D359B/JyDh04eXrl+3EX77JoMOkbI6chIiJLxluSiYiI6I1SktMQ3HkWsrPefuvm2/h26RZZ/bO+3NZCVMBlPI1H2PDBiNm326A+3i2C0CZkDZzLeEuUrPBwfsMOw1ZLV8La0cnIaYiIyJJxhyERERHlS6sVMLL3QsTee6J3D0cPjyvt123mJSdEBdytHdtwaORQZD9P1ruHyt4e9SdOQcDIsVAolRKmKzzyO7pdrVcflA1qbYI0RERkyQReekJERET5+X7aTziy74ze9UqV6knvUxd8FFZWPE9IVEBlPkvAoZFDcWfXnwb18axbH21XrUeRir4SJSuc/jkwtHcvhqYz55koDRERWTgODImIiOh1h/ecwbJZvxrSIqfLnrAsh+IlPKXKRETm5daObTg8ahiykhL17qGys0P9r6ciYMQYKKysJExXODl5ekFhZQVBowEAtFiwBPbFips4FRERWSQeSSYiIqK/i3uQgFGffy/6vSX5qTdu0sXSDRvzvYVEBVBOagrCp0xE1IY1BvXx8A9E21XrUbRyVYmSkcLKCo4lPZD+OA7l2rRD5a6fmjoSERFZKB5JJiIioldysnPxRedZeJ6UqnePknXeO99wyrccFhIVQPcP7MfB4cFIfxyndw+ltTX8h41CwynfQmltLWE6Al7uMsxJSUHLRctMHYWIiCyYVty8kANDIiKiwmDS0B8QdeG23vU2Tk53uu0/6idhJCIyA7lpL3B80niDdxW6V6uOdqs2okTtOhIlo39yKlUaVXv0hmtZH1NHISIiCyZotdxhSERERMBPK/fitw0H9K5XKJSpPY9HOqscHGwkjEVEJvbgcBgOfjkIaY8e6t1DqVLBf/hoNJg8DVY2/CtCTr6dusK38yemjkFERBaOR5KJiIgIl87cxLdfrTakhbbduk2xRSpV5u5CogJCnZmJE9Mm4eLK5YDIY0n5ca9SDW1XrkdJ/wAJ09Gb8L2FREQkBYGXnhARERVuKclpGNb9O+Tk5Ordo0q3HpFVPuneQMJYRGRCjyMjEBrcHyl39X9FARQK+PUdiOZzF0Ll4CBdOCIiIpKfAO4wJCIiKqy0WgHDe85H7L0nevdw9PS63G71Rl5yQlQAqLOzcXr2dJxbskD0zoL8uJb1QZuV61C6cVMJ0xEREZGxCCKPF3BgSEREVAAtmLIZx0LP6V2vVKkef3bqfHmFlZVCwlhEZALx584gNLg/km/d0L/Jf3cVNpszH9aOTtKFIyIiIqPikWQiIqJC6tDuMwiZ86shLbK77g3LsS9W3EuqTERkfNq8PETOn4PI72ZB0Gj07uPiXRatQ9bAu3lLCdMRERGRKQg8kkxERFT43L/zGF99thAiLz/LV8PJ30aVatA4UMJYRGRkideuIjS4LxIuXzKoj2+nrghaugJ2bkUkSkZEREQmJXCHIRERUaGSnZWLod3mITUlTe8eXvXqR9YbP6mehLGIyIi0ajXOL1uEiJnToMnV/8Ijx5IeCFq6AhXafyhdOCIiIjI5jUbLHYZERESFyaShIbh6Uf+bT22cnG932X2wjoSRiMiIkq5HI3RwPzy9cN6gPr6duiJocQjsirpLlIyIiIjMhULkUSQODImIiAqAH0N24/eNB/WuVyiUqb1OnnNR2dnbSBiLiIxA0GpxaeVyhE+dCE1Ojt59HIqXQNDiEFTs2EnCdERERGROtDySTEREVDhcjLyJmWPWGtJC+/66TQ/dyleoIVUmIjKO1PsxCB08AHEnww3q49O2PVovXwVHD0+JkhEREZE5ErjDkIiIqOBLTEjB4K5zkJOj/7vKqnbvFVn5k+4NJIxFRHITBERtXItjE8YiLzND7za2rm5oMmMO/PoNkjAcERERmSsODImIiAo4jUaLUZ8txJNHCXr3cC5d5nzbVRvqSxiLiGT2IvYBDgwdiIfHjhjUp1zrtmi9fDWcvEpJlIyIiIjMnrg7TzgwJCIislTfff0jjh3Q/3IDpcrmca8TZ30VSqVCwlhEJKPoLZtxZMwI5Kbrfxu6jbMLms6aB7++AwEF//UnIiIqTARwhyEREVGBdfCv01g5f5shLbI/2ReWbe9ezEuqTEQkn4yn8QgbPhgx+3Yb1Me7RRDahKyBcxlviZIRERGRJdFqeekJERFRgXTv9mOM6rMIIl8/kq+GU6ZHedVvGChhLCKSya0d23Bo5FBkP0/Wu4fK3h71J05BwMixUCiVEqYjIiIiSyJoxJ1J5sCQiIjIgmRmZCO48yy8SE3Xu0epBo0i6o37mpecEJm5zGcJODRyKO7s+tOgPp5166PtqvUoUtFXomRERERkqXjpCRERUQE0eegPuHH1nt71Ns7Otzr/tT9AwkhEJINbO7bh8KhhyEpK1LuHys4O9b+eioARY6CwspIwHREREVkqrcAjyURERAXKhqU7sW1TmN71CqUypdeJc64qO3trCWMRkYRyUlMQPmUiojasMaiPh38g2q5aj6KVq0qUjIiIiAoCBXcYEhERFRwXTt/ArP+sN6SFtv36nx65la9QQ6pMRCSt+wf24+DwYKQ/jtO7h9LaGv7DRqHhlG+htObvBoiIiOh1PJJMRERUQCQ+TcGQrnOQm5und4/qvfue9u3SraGEsYhIIrlpL3B80niDdxW6V6uOdqs2okTtOhIlIyIiooJGK+7OEw4MiYiIzJlarcHQT+fiSdwzvXu4li13oXXIag4LiczQg8NhOPjlIKQ9eqh3D6VKBf/ho9Fg8jRY2dhImI6IiIgKGll3GG5ZvU+fMslY26jg4Ghn0gxk3uwdbGFjy2M49GZOLg6w4gvg6Q0UCsDFzcnUMQAAG5b9hdPHruhdr7Sxie158mwlhVIpYSoiMpQ6MxMnpk3CxZXLAXHft+fLvUo1tF25HiX9eZcRERERiSHTpSeCIGBC8DKd4xAREZHRZXfbe0ht51rE2dRBiOj/PY6MQGhwf6Tcva1/E4UCfn0HovnchVA5OEgXjoiIiAo0jUYjzw5DQYAAQKFzIiIiIjKqRtNmRXnWaxBo6hxE9JI6OxunZ0/HuSULIGjF/XY/P65lfdBm5TqUbtxUwnRERERUKPDSEyIiosKrVKMmEXXHjG9g6hxE9FL8uTMIDe6P5Fs39G/y312FzebMh7Wjebw2gYiIiCyLIMh0JJmIiIjMm62LS3SXnfv5QjMiM6DNy0Pk/DmI/G4WBI1G7z4u3mXROmQNvJu3lDAdERERFTZa7jAkIiIqfBRK5fOeJ865W9ny5iciU0u8dhWhwX2RcPmSQX18O3VF0NIVsHMrIlEyIiIiKqwErbjL1jgwJCIiKji07TduiXPzKV/D1EGICjOtWo3zyxYhYuY0aHJz9e7jWNIDQUtXoEL7D6ULR0RERIWbyIkhB4ZEREQFRI3P+0f4durayNQ5iAqzpOvRCB3cD08vnDeoj2+nrghaHAK7ou4SJSMiIiICBB5JJiIiKjxcy/qcb71sFYeFRCYiaLW4tHI5wqdOhCYnR+8+DsVLIGhxCCp27CRhOiIiIqKXtDySTEREVDgobWwf9Dp51hcKhamjEBVKqfdjEDp4AOJOhhvUx6dte7RevgqOHp4SJSMiIiJ6XXZampuIx3I5MCQiIrJsQocNP5WxdXVTmjoIUaEjCIjauBbHJoxFXmaG3m1sXd3QZMYc+PUbJGE4IiIion+Lf3D/cxGPPeHAkIiIyILVHvylomLHTtxaSGRkL2If4MDQgXh47IhBfcq1bovWy1fDyauURMmIiIiI8peWnIzMFy/EPHpH94GhQqGAuPcjEhERkYxK1H4PLeYvMXUMokInestmHBkzArnpaXr3sHF2QdNZ8+DXdyD4OgEiIiIyhq8/aIe4O7fFPLpL54GhAkCNAnBcIifluakjkJnQajQQtJp/fzw3D7np6fl+7n8ErRaCVvvmz2nyrxUELQTNW+rkWPMtde9aV9C8Y8031YlZ8w3/HLQaNfjLCaI3sytSFN1Cj5o6BlGhkvE0HmHDByNm326D+ni3CEKbkDVwLuMtUTIiIiKit/t1/jzcOn9O7OOP9NlhiFZLV+hcRkQkFXV2NtTZWfl+TvOWz72qzcrOvzYnG+qs/GvVb/mcqDXflvcNed665ls+J2rNN3zubf983rVuTtqLNw6sSVqOJT3Q68RZWDs4mDoKUaFxa8c2HBo5FNnPk/XuobK3R/2JUxAwciwUSr52lIiIiIwjNjoaG6dOEvt4OoA/+Q5DIrI4Kjs7qOzsTB2D3kYQkJ2a8sZP57548cadqeqsbKiz8x9aatV5yEtPf2Pf7LfsHs9LT4NWrc5/zbcMUbVqNfLS3rxmTmoKhDfshs3LSIc2Ly/fz2lycpCXlZnv5wSNBrlpb363SPPvFvMWVSIjyXyWgEMjh+LOrj8N6uNZtz7arlqPIhV9JUpGRERE9G5ajQZjW7eA9i2n//5hBQANB4ZERCQ9hQJ2bkXe+Om3fY6IyFzc2rENh0cNQ1ZSot49VHZ2qP/1VASMGAOFlZWE6YiIiIjebWqnjkhNfCb28RcAFgMAB4ZERERERH+Tk5qC8CkTEbVhjUF9PPwD0XbVehStXFWiZERERETiHdz8I86G7tOl5CsAjwEODImIiIiIXrl/YD8ODg9G+uM4vXsora3hP2wUGk75FkprawnTEREREYnzNPYBvh+s06XFewFs/N//4MCQiIiIiAq9nBepCJ88weBdhe7VqqPdqo0oUbuORMmIiIiIdCQIwrhWLWI0anUFkRVPAfQH8Orl7BwYEhEREVGh9uBwGA5+OQhpjx7q3UOpUsF/+Gg0mDwNVjY2EqYjIiIi0s3mmdN/j39wv5vIxwUAg/ByaPgKB4ZEREREVCipMzNxYtokXFy5HHjDbediuFephrYr16Okf4CE6YiIiIh0d+9aVMRPM79tq0PJcgC7/vlBDgyJiIiIqNB5HBmB0OD+SLl7W/8mCgX8+g5E87kLoXJwkC4cERERkR406tz44fUDbQG4iiyJBjA+v09wYEhEREREhYY6OxunZ0/HuSULIGi1evdxLeuDNivXoXTjphKmIyIiItKb+ov3ap3My83tIvL5HAA9AWTl90kODImIiIioUIg/dwahwf2RfOuG/k3+u6uw2Zz5sHZ0ki4cERERkQG2zp29+dHNm311KJkA4PKbPsmBIREREREVaNq8PETOn4PI72ZB0Gj07uPiXRatQ9bAu3lLCdMRERERGSb2evThDd9M/hiAQmTJXgBL3vYAB4ZEREREVGAlXruK0OC+SLh8yaA+vp26ImjpCti5FZEoGREREZHh1Hm5D4cE1nECIPablDgAn+Pl7chvxIEhERERERU4WrUa55ctQsTMadDk5urdx7GkB4KWrkCF9h9KF46IiIhIGnnB79U+oc7L6yHyeS2APgAS3/UgB4ZEREREVKAkXY9G6OB+eHrhvEF9fDt1RdDiENgVdZcoGREREZF0fpo9c92jWzeCdSiZCuCwmAc5MCQiIiKiAkHQanFp5XKET50ITU6O3n0cipdA0OIQVOzYScJ0RERERNKJvXVj9+Zvp3aF+PcWHgEwV2x/DgyJiIiIyOKl3o9B6OABiDsZblAfn7bt0Xr5Kjh6eEqUjIiIiEhaGnXe3SHv1SoGoJjIkqcAegEQffsbB4ZEREREZLkEAVEb1+LYhLHIy8zQu42tqxuazJgDv36DJAxHREREJLnsQbVrHFfn5fUT+bwWwGcAnuiyCAeGRERERGSRMhOeYk/fnngUfsygPtxVSERERJZi6/y5y+Nu3x6tQ8kMAAd1XYcDQyIiIiKySLaubsh69kzvehtnFzSdNQ9+fQcCCrGv/yEiIiIyjScxMTs2TP66NwClyJJjeDkw1JnYBYiIiIiIzIqVrS1ah6yGQqn7t7TeLYLQJ/LSyyPIHBYSERGRmRO0mmsD/KoUAeAhsuQZgJ7Q4b2Ff8eBIRERERFZLM+69VFr0BDRz6vs7dF4+mx0/nMfnMt4y5iMiIiISDIZ/atXPa5Rq5uLfF4AMADAY30X5MCQiIiIiCxa4+mz4eZT4Z3Pedatj96nziNw1Di9diUSERERmcKWuXOWPo6584UOJXMB7DJkTX6nREREREQWzdrBEa2WrXzj0WKVnR0aT5+NTw8cQ5GKvkZOR0RERKS/+Lt3fvzxm0l9AViJLIkE8I2h63JgSEREREQWr0yzFqjeu++/Pu7hH4heJ86+3FVoJfb7bCIiIiLTEzSaK/39qpYG4Cmy5DmATwHkGbo2B4ZEREREVCA0m7sATqVKAwCU1tYIHDUOnx48jqKVq5o4GREREZHO0vr5VTmi0WiCRD4vAOgH4IEUi3NgSEREREQFgq2LK4IWh6BY9RrocfgUGk+fDaW1taljEREREelK2DJn5ndP7t79UoeaRQB2ShVAJVUjIiIiIiJTK9+uA3xat+PxYyIiIrJYCbH3V/w4beogiJ/bnQXwtZQZuMOQiIiIiAoUDguJiIjIUgkazZk+VSpVAOAtsiQFQDcAuVLm4MCQiIiIiIiIiIjI9J73qVzxuKDRtNWhZgCA+1IH4cCQiIiIiIiIiIjItIQfp01ZkPDwwVc61CwDsF2OMBwYEhERERERERERmVDsjeglW+bM+hLi31t4BcA4ufJwYEhERERERERERGQiWq3m2Be1/WoA8BJZko6X7y3MlisTB4ZERERERERERESmoMDTHt5elwVBaKVD1WAAN+WKBHBgSEREREREREREZArapUMHL0159myYDjUrAfwsV6D/4cCQiIiIiIiIiIjIyG6dPbdoz9rVoyB+PncZwGgZI73CgSEREREREREREZER5ebmHB7epF5DAMVElqQA6AwgS75U/48DQyIiIiIiIiIiIuN51KO0x20IQkORzwsABgCIkTHTazgwJCIiIiIiIiIiMg71vD69QtJTU7/QoWYRgO1yBcoPB4ZERERERERERERGcD7s0ILDv/4yAYBCZMlpAF/LGClfHBgSERERERERERHJLCcrfe/XHVq3AeAqsiQZQHcAufKlyh8HhkRERERERERERDJSAA+6lfJMBPCeyBItgF4AHsiX6s04MCQiIiIiIiIiIpJPzoQP2q7Ozsjoo0PNTAD75Qr0LhwYEhERERERERERySRiz+55Fw4enKBDyREA0+XKIwYHhkRERERERERERDLISHm+fVrnjl0BOIsseYqXR5E18qV6N5UpFyciIpJL5rMEpN6/h7SHsch8loCspCRkJSVCm5eH3PQ0CGo1AMDGxRVWNjawcXKGysEe9u7F4FrWBy7lysHFuxxUdnYm/pMQEREREZGFut29bKkcANVEPq8G0A3AE/kiicOBIRERWTRNbi4SLl9EwqULSLh8Cc+uXMTz27eRm54mSX8nr1IoUbM2POrWg1fdBijpHwAbJ7G/HCQiIiIiokIq+6sm9X/Lzc6epEPNJADH5QqkCw4MiYjIoghaLeLPncGDQwfw6GQ4npyNhDozU7b10h/HIf1xHGL27wEAKKys4OEfiIodP0bFjp3g5lNBtrWJiIiIiMgyHdyyefb1M2cm6lCyB8B8ufLoigNDIiIye5rcXNwPC8XdXTtxL3QvMp8lmCyLoNHgyZnTeHLmNMInT0CxGn6o1uMzVP+sL+yKFDVZLiIiIiIiMg/JTx7/tKDf558DsBdZEgvgcwCCfKl0w4EhERGZrbiIk7j+y0+4/ecfyH6ebOo4+Uq8GoXjk8bh1MxvUOWTHqgd/CWK16xl6lhERERERGQCgiBc7V2xnDMAsUeR8gB0B5AkXyrdcWBIRERmJTc9DTd/34pLq39A4tUoU8cRTZ2Vhaub1uPqpvXwbhGEZnMWolj1GqaORURERERExpM+uE7NvRq1epwONaMBRMgVSF8cGBIRkVlIfxyHCyFLELV+jWQXlphK7JFD+LlxAKr1+hyNp82EfbHipo5EREREREQy2/nDsgX3r1/7WoeS3wAslyuPIZSmDkBERIVb6oN7ODBkINb7VcL5pYssflj4P1q1Gld/XIcfA/xwfevPpo5DREREREQyevoodt0Po0b2A2AjsuQ2gEEyRjIIB4ZERGQSGfFPcHj0cPz4XnVc+2kjNLm5po4ki6ykROwf9Dl2dPnApJe1EBERERGRPASN5nK/yhW9AZQVWZIN4FMAL+RLZRgODImIyKjUWVmInDcTG2pVweU1KwrsoPCf7h/Yj58bByIu4qSpoxARERERkXRSPq9a8bBGrW6tQ81QABflCiQFDgyJiMho7vy1Az8G+OHUzGnIy8wwdRyjS38ch20dWuHSqhBTRyEiIiIiIsMJP34zddHTBw9G6FDzM4ANcgWSCi89ISIi2aU/eYzDo4fj7u6dRl/b2sERNs7OsHF2gY2zE2zdiiAnNQWanBzkZWQiNz0NWYnPjJZHm5eHI2NHIu3RIzSZPhtQKIy2NhERERERSefR7VsrtsydOQSAlciSqwC+kDGSZDgwJCIiWV3dtB7Hvx6HnNQU2dZQ2dvDvWo1uFephqJVqr76b9eyPlAo372ZXp2VhdQH95B6/x6e376F+HNn8DgyAulxj2TLfG7xfGQmxKPND2uhsBL7/QURUQEjCHh4/Cju7t2FhEsXkJmQAKW1Cq7lysOn7fuo1uMzqBwcTJ2SiIjoX9RqdeTAWtWrAvAUWZIOoBuATPlSSYcDQyIikkVWUiIODguWZ1ehQoHifjVRtkVreLdshVINGkFlb693O5W9PdyrvBw4ol2HVx9Pe/QQ90L34vbO7XgUfgxatVqK9K9Eb9kMAGizYp2owSYRUUFyL3QvTkybhMSrUf/6XNL1aMTs243Tc2ag3Zof4d0iyAQJiYiI3ii5d4VyFwSNZogONUMAXJcrkNQ4MCQiIsnFHjmE/V/0RUb8E+maKhQo1bAxqvf+HD5t28OheAnper+Bc+kyqDkgGDUHBCM7OQnXt/6MS6t+QErMHcnWiN6yGVY2tmi1bKVkPYmIzJkmNxfHJo7F5dU/vPPZjKfx2NHlA3TesRdlmrUwQjoiIqJ30i4dPnTx8/jH03SoWQ7gJ5nyyILbGYiISDqCgMj5s7G9U3vJhoXOZbxRb/xk9Lt8A932H0H13n2NMiz8J7ui7qgzdAT6XozGx9v+god/oGS9ozauReT82ZL1IyIyV1q1Gnv79hQ1LHxVk5eHA0MHQp2dLWMyIiIicW6ei1y+Z/XKryB+pnYWwFgZI8mCA0MiIpJEbnoa/ureGaemT4Wg0Rjcz7NufXz0+04MuHoHDSdPg5tPBQlSGk6hVMKnbXv0OHIKHTZthVuFSpL0PTXjG9za/rskvYiIzFX45PG4s+tPnetexD5AzN5dMiQiIiISLycr8/iIxg0bAigqsuQ5gE8B5MiXSh4cGBIRkcEy4p/g93YtcFeCH+ZKN2mGLrsOoPuhEyjfroP5vttPoYBvp6747PRFBI4eD6XKwLd8CAIODB2E5JsW81oTIiKdxJ8/i4srl+tdHxdxUsI0REREOlLgaY9ype9DEAJEVggA+gO4J2Mq2ZjpT2FERGQpkm/dwNagJki4fMmgPqUaNEK3A8fwyd5D8G7eUqJ08lPZ2aHxt7PQ/dBJuJWvaFCvvIx07P7sU6izsiRKR0RkPs4unGfQDvTs5CQJ0xAREelEO7N7t3UZKSl9dKj5DoDu2+rNBAeGRESkt8enT+HX1s3wIva+3j0cipdA25Xr0S30KEo1aCRdOCMr+Z4/eh4/jQrtPzSoT9L1aJyaNU2aUEQWLi8zA9kpz0X9Jzc9zdRx6S2yU57jXuheg3o4lvSQKA0REZFuTu/ZtSx8+7aROpREAJgiVx5j4C3JRESklzu7/sS+AZ/pvRtOYWWFmgOC0WjqdNi6ukmlT+aCAAAgAElEQVSczjRsXd3Qcet2HJ80DueXfa93nwvLF8O3U1dJL1YhskTbP3ofj0+fEvVs5S7d0H7jFpkTkb6Soq9Bk5trUI+S74k9AUZERCSdjNTnB77p/FEbAI4iSxIAfAIgT75U8uMOQyIi0tmN334x6OhsUd8q6HEkAi0XLi0ww8JXFAo0nT0fTWbM0buFoNHgwNCBBv9wTWTJtGo1Eq6If9VBSQ7YzVp63COD6q0dnVD+/Q4SpSEiIhLtYY9yZbIBVBX5vAZATwBx8kUyDg4MiYhIJ3d370RocD+930NV/bN+6BkeiZJ13pM4mXkJ+Oo/Bg0Nk6Kv4fzShRImIrIsSdHXoM7MFP08d+SaN5W9vUH1AV+NgbWjk0RpiIiIRMkb1azxnzmZmR11qJkK4JBcgYyJA0MiIhLtwaGD2NO3J7Rqtc61Ns4uaL/hZ7T5YQ2sHcTu5rdsAV/9B4Gjx+tdf3bhd8h4Gi9hIiLLEX/hrOhnlSoVStSuI2MaMlSJ2u8BCoVete5VqiFgxBiJExEREb3dvg3rQqJPnwrWoWQPgLly5TE2DgyJiEiUuIiT+KtnF2hycnSuLe5XE71PnUPlrp/KkMy8NfpmBsq30+8YXW56GiJmTpM0D5GliD8nfmBYtErVQvOLCEvlXLoMfNq007nOrkhRdNz6B1QODjKkIiIiyl9C7IMDiwcP+gSAjciSWACfA9DKl8q4ODAkIqJ3enrhPP7s8qFOxwP/p2yrNuh24Bhcy5WXIZn5UyiVaLduE4pUqqxzraOHJ7xbtpIhFZH5e6rDDkMP/7oyJiGpNJ+/GPbFiot+3rVceXx68BjcKlSSMRUREdHrBK32br9qvioApUSW5ADoAiBJvlTGx4EhERG9VXrcI/z5SUfkpr3QubZGn/74+LedsHFyliGZ5bB1cUXHrX+I/uegUCpRa9AQfH7+Knw7dZU5HZH5ycvMQNL1aNHPe/jz9lxL4OZTAV13HXjnL1CUKhVqfTEUPY+fRtHKYt8xT0REJImcQbWrH1Pn5bXUoWYEgHNyBTIVlakDEBGR+dLk5GBX727ITHiqW6FCgYaTp6HeuEnyBLNARX2roPGMOTg8athbnyvuVxNBS1bAM7CekZIRmZ+Ey5d0elcqdxhajmI1/PBZxAVE/7IZt//8A8+uXEb282Q4lCgJ17LlUK7t+6jc9VO4lvUxdVQiIiqENn07be3DmzeH6FCyBcBqufKYEgeGRET0RkfGjkT8uTM617WYvxi1g7+UIZFlqzUgGLd3bMPD40f/9TlrB0c0+Hoq6nw5EkoVvzxT4abL3zsqBwe4V6suYxqSmpWtLfz6DoRf34GmjkJERPRK7PVru36ePb07xJ/GjQIwSMZIJsUjyURElK+ojWsRtXGtznVNZ87jsPBNFAq0Dln9r5f3l2/XAX3OXoH/yDEcFhIBeHpB/KmeEjVr898bIiIiMkhudvbt4IA6pQG4iyxJA9ANgO4vebcQHBgSEdG/xJ87gyNjR+pc13DyNPiPHCNDooLDtVx5BH41FsDLS03artqAj37fCRfvsiZORmQ+4s+K32HI4/tERERkoKz+1XyvaNXqOiKfFwD0B3BDxkwmx1/HEhHRa7JTnmNX727Q5OToVFd3zATUGz9ZplQFS8BX/4FWo0XAyNGwcXYxdRwis5KVlIjU2Puiny9Zx1++MERERFTgLRs25MdncY8G61CyCMA2ufKYCw4MiYjoNYdHDUN63COdaqp064FG02bKlKjgUdnbo+HkaaaOQWSW4s+dBQRB9PMlAwJlTENEREQF2cXDh7bvXrOqjw4lEQC+liuPOeGRZCIieuXOXztwc9uvOtUU96uJ1stWyZSIiAqb+PNnRT9rV6Qo3MqVlzENERERFVTpL1KuTezQtgYAh3c+/FICgE8A5MqXynxwYEhERABeHgMMGzFEpxr7YsXRceuOf13iQUSkL10uPCnpHwAoFDKmISIqOAStFlq12tQxiMyCIAjp/SpXfCRotb4iS7QAegOIkzGWWeGRZCIiAgCETxqPrKRE0c8rVSp0+PEXXtZBr9Hk5uL5ndtIvhGN5Fs3kP74MXLT05CXlvbyvzPSAQC2bkVgZWMDu6LucPEuB9dy5eDmUwHFa9WGjZOzif8UFkgQ8PTiBTw4fACJ164iPe4R1NlZgFIJWxdX2Bd1h6tPBRT1rQyvho3gWtbH1InfSJeBoYd/XRmTyEudlYWnF84h/twZpMTcRUrMHbx4+BDq7CyoMzIgaLVQWlvD1sUVjp6ecC3ng6JVqsIzsD5KvucPawdHU/8R6B2SbkTj/sFQJF69ghexD177+8/G2QVuPhVQpFIleNZrAPfKVQv18FudnY3kG9fx7NoVJEVfQ3ZSEnJepCLnRSpyX6QCCgVsXd1g7eAIx5IecKtYCUUq+aJErTpw8vQydXyzl3Q9GtFbNuPmtq1wLlUaH27ZBocSJU0dK1/avDzEnz+LuIgTSL55A8k3byArMRE5qSkQtFpY2drC1tUNjh4eKO5XCyVq1kbpJk3h4l3O1NHJwkzr+vFfL5KTe+pQMgnAQbnymCMODImICI9OHMe1LZt0qqk/YTLKNG0uTyCyGFmJzxB79DAeHA7Dk8gIpMTcMWj3gsLKCsWqVYdXvYYo16YdvFu0gsrOTsLE8rj95x84u2ieTjVBS1aiZJ33DFo3/twZRG1ch3uhe5ER/0R0nYt3OVTp1gPVe/eBW4VKBmXQR8Ts6Ui+Ef2vj2vy8pD5LEF0n/th+/H8lrQXFAaMHPty56IMUmLu4M5fO3B391+Iv3AO2ry8d9ZkJSUi5d5dxJ068epjVra2KNuiFSp+3Bm+nbqa/fBQnZ2N0OB+ot9NWXPgYIO/vjw5G4kjY4brVFNv/GRU6NDRoHWTb17HlfVrELN3N1Lvx4iucyhREr6dP0H1Xp+jRG2xl3RaLm1eHh6dDMf9A/twPywUz2/f0vtrR5FKlVGmaXNU/OAjeLcIgsLKSuK00jk6fjQeR5x494N/0zpkLYr71dR5LUGjwZ3dO3FpVQgehR979fG0Rw+xpVl9fLjlD4O/BklFm5eH+2GhuP7LT7gXug95mRlvfT4z4Sme3775/38uhQKeAXVRueunqNarD2xd3YyQmizZ8e3bfj+9e1dXHUp2A9DtG70CQIGX10GLL1Aq8VVqoTiuTURUKAhaLX5uEohnVy6LrilRuw56HD4FpbW1jMnIXD2/cwvXt/yEewf34dmVyxC0WtnWsnFyhk+79qjRpz+8m7c02x04sUcO4Y+ObXWqabNyHar3+lzntQStFnf3/IXzSxfh8elTOtf/ncLKCpW7foqGU7413q5DQcCKch7ITk4yzno6KO5XE73Cz0o6cFBnZuLm9t9wZd1qxJ87I1nf/7F1dUONz/vDf/goOHp4St5fCk/ORmJry0ain+95LBIl3zPs9uvUB/ewvoZuw/B64yah4ZRv9Vrv4bEjOL/se9w7sE+nS3vyU65NOzT+ZhaK16xlUB9zI2i1eBB2ANd+2oj7YQeQm/ZC8jWcPL1QtXtv1B4yzCx3Hh75z1e4tHK5TjUdt27XaZCtzcvD9V9/xpn5c5ESc+eNz6ns7dHmh7Wo3PVTnfJIKS8jHVfWr8GF5YuR/liaU552Rd1R7z8TUWvQEFjZ2krSU27nlixA+OQJOtV0GzseA2bNkSlRwZYYF3epdwXvEoIgiP1L4gEAfwDm942LzLjDkIiokIv++UedhoVWNjZou3IDh4WFTG56Gm7v2IarmzYYPKTSdd2b237FzW2/wr1qNdQZMhzVen0OKxsbo2UQw6Ws7kfzU+68+Qe5N3kUfgxHxn2FxKtROtfmR9BocOPXLbi7ayeazJiDWl8MlaTv26TE3DHLYSEANJu7SLJhYW7aC1xcsQwXQpbK+ufNSU3B+aWLcGXtKviPHIPAUf+Byt5etvX0EX82UvSzKjs7FKvhZ/CaLmXKvvwFgw7Du5S7t3Ve51nUFRwd9xUenTiuc+2b3D+wH7GHwxA4ejzqT5wCpcqyf2TLSkrEtZ824sra1TrtutRH+pPHOPv9d7i4YilqfD4AgWPGm9XgUJ/XuGQlPhP3oCDg1o5tOPHNJFH/nNVZWdjbvzcSr0ah4dTpUCiNeL2BIODalk04MfVrZCY8lbR1dnISjk0ci8urV+D99ZvhEWC5r64g6Qka7fMBNaumC4JQW2RJNoAuKITDQoCXnhARFWp5mRk4NeMbnWrqjZ+EYtVryJSIzE1G/BMcmzAGqyuWwYGhg4w6LPynpOvRCBsxBJsCa+L2zu0my5EffY6E5qQ8F/3si9gH2NOnO35vHyTZsPDv8jIzcHjMCBwYOkjUMVlDPDkr/S47KVT6qLMkr1kQNBpcXv0D1lWrgFMzvjHacDQvMwOn50zHz40D8fTCeaOsKdYTHXZWFverJckvBBRKpc6D02wd/p3MTk7C4VHD8HOTQEmHhf+jVasR+d0s7Oz2kSw78YwhOzkJxyeNw9qqPvg/9s47IKpr6+JrYOi9gwVQQBBRRNTYe++995JEk5hiiikak5gYy9OYmGLsJXaxd8UeK6gIKDYEpHcY+pTvDz/zjM9y951zZwY4v7/eS865Z2eYGbjr7r3Wua9mSS4WPouytBQ3VvyKDU0b4ubK3yXthKdgam1N3lNR9OrxXABIvx6JbV3b4eD4kbTXWaPBlf/8iH3DB+rsfVaQmIDt3Tvg2NuTmYuFz5IX/wDburXH7S2bJDuDU+nQfNCxzalShaINYc+7AAzrl6oO4YIhh8PhVGOiVq2AIjVF8HrnoIZo9tFnElbEMRQKHyfh1MfvY01DP0T+uuwfs35DIO/hfRwYMww7enVGQeIjfZcDAKKSwlXlwixebq1bhQ3Ng3F3907yGVRiNq7FkTcnSHpznRZxVbJri0Vubo6232tvTZQeGYEtnVohfOYMkvjEkpy7d7C1SxvcWrtSL+e/iPRrwn/m7s3eYHauiQXtc6kqKxO07uHhA1jftCFurvoDGpVKTGmCeXT8KPYM6QdlSYmk57CkokiBywvmYXWQHyJ+XqLX2ssK8hH+0XvY0aMj6e8dqZCb07t/K0qKX/7vihQ4M2smtnRsiZTLF0XX9fDIQWzt1OaVI8wsuL9/Dza1CkXyxQuSnvMUdUUFjrw1ETGb1unkPI5hE/bzT7vuXL40kLDlLwCrpaqnMsAFQw6Hw6mmKIuLcW3Zf0h72n77Y6UfjeK8mnJFIc5+8QnWBvvjxopfoSwt1XdJL+XxuTPY2KIJYjau1XcpotC8ZlSyODMD+4YPxIn33tapYBu3cxsufDNbsutTxlN1RZN3P9TKw7FcUYjwmTOwpVMrg+juU1dU4MSMaTj/9Zf6LgUlWZnIi38geL17aDMJq3k1r/tMVhQX4cSMadg7bAApnEdbkv8+/yQ0phJwf99urA0OwN/z5hpUZ2TyxQvY3Lb5v8KD9IEYTz1jkxd33D4+dwbrmzVC5K/LmAjX2XdisaVDKySEn9D6Wi8icvlPODBmGMry8yS5/kvRaHBixjQknT2t23M5BkVSXNz1FZ981BFPcjyEcAvAmxKWVCnggiGHw+FUU6LWriSNgtRq2x7eXWmhDpzKxd3dO7E+NAgRvywV3P2mb8oLC3Bs+lScfH+6VunM2iKmg+ZVo2mPz5/FxhYheHBovzZliebaT4uQeOok8+uqysqQeUu4Z6ousPaogeYfi++czoqNweZ2LXDzz98k7zajcnXJAknFXyFQO0rdm7ITDKmfS1Nrm5f+u+zbsfirdTO9dW7e3b0Tt9at0svZQijOzMDB8SOxf/RQFKWn6bucF1KUnoZdfbvhwYG9eqtBaBfrs5jZ2f37GuXlOD/nC+zs0xWFSYmsSgMAlObmYM/gPoj8dRnT6178/huc+fxjvY2GqysqcOTNCXrr/Obol/KSkqxpTYONATgJ3FIIYBiAl7f3VhO4YMjhcDjVELVSieu//Sx8g0yGtt/yJLaqSn5CPMIG9sLBcSOYpRTqmqg1f2LPkL5662hRldE7MS1cXF74z6NWr8Cuft0l9XZ6HRq1GuEfvcdcOM6IumFwYnTrud/DxIruKwYAsX9twJaOLZF7L45xVey4sng+bqz4VW/nUzwrzR2dYF/Hh9nZSuLn0tLF9YX//MGh/djaqTVy799lUZZozs/+HCXZWXqt4UXc2xuGDc0a4W7YDn2X8lpU5eU4MG6E3mpVltIfLpnZO/zzvxXJj7G9ewdcXbpQMvFNrVTizKyZODZtiiiB83mu/bQIl378jkFl2qFIfozLP87Tdxkc3aOe1qxJREV5eSOB6zUAJgK4I2FNlQYuGHI4HE415P6+3ShITBC83rfvAJ4yV0W5t2cX/mrVFAknjum7FK1JOHkcewb3hbJY9w+ExXQY2nl6/+v/qysqcPKDd3Dyg3ckDx4RQu79u4hm3NFkaOPI7k2bI3DkGPI+tVKJk+9Px9G3J+nl/Ubl7BefII0QPMKStGvCf+buTZs9STZmgKqsjNzx+T9p5xoNriyej/0jB6NcUcikLm0ozcvFlcU/6ruMf9CoVDj31SwcGDvcIIXMl6GuqMDhKeOQdOaUzs8W87vCqX4ggCcjyH+1ba6zz3LMpnXY0auzVh2jDw7sxbk5XzCsSjturvwdiuTH+i6Do0PWzv5yz+N7cZQRqcUAdklVT2WDG1FxOBxONYTUXQigxSz9jrRx2KMsKcGZzz9G1OoV+i6FKckXL2DfyEHov32vKK8osZQX0sUEBz//f/63sqQEB8YOR/zRQyzL0prI5cvQaPJbkBkbM7meQQWeyGTouOgnskClLCnBwfEj8fDwAYkKY4+qvByHJozGuCs3RQX0iEajQXrENcHL3UPZPZgSI/A9+5nUqNUI//BdRK35k1lNLIhetxotPp8NM1u71y+WkJLsLByaMAqJp8P1WodY1BUVODB2OEaeugB7Hz+dnfuqAJMXYWptAwffeohev/rJwySG1hvGZmaw864LB18/2Pv6wb6uD2xq1oLc3AKmtnYwsbKE3NxC9Hst78E9HHlzIvAab1BdoiovR9TaVWj11Vx9l8LRAXcuX7qydeH8HoQtFwHo3/zXgOCCIYfD4VQzsu/EkpL0arRoBZeGQrv4OZWB/IR47Bs+EFkx0cyvbWZrBwe/enAMqA/7uj4ws7OHqbXNPyJFWV4uygsKkJ/wCHnxD5AeGYHSnGymNSSEn0D4R++h66+6u9GnBiAYyeVwCmwA4IkP456h/ZF84Zyos50CG6BO155wb9YcVu4eMJLLUZyRDkVKMh4dP4pHJ46KHivLi3+AxNPh8OrcVdT+50kjjKdKTf0Ro8md06V5udg7tD9SLv2t1dkyIyO4N22OWm3awy2kCRx868HK3R1yS0soS0pQnJmB4owMpEVcQfyRQ0i5fFFrf8T8hHhc+c8CtJr9jVbXoZBzL47kGebBsJNdTCiJa3BjAP/1O4vbuU3U2XbedeHdtTtqtmoD6/8XYIoz0lCUnobH587gwYF9ojsWyxWFuLN9C4KnvC1qPwty78UhbEAv0qTC67CuURPuoc1g7+MH29q1YWbvACMTE6grKlCWl4v8xATk3LmN1MsXmfnQlebmPBENT1+CsemLg0VYU5JF68R0adgIF+fNxeVFP2h9tqm1DWq2boNabdujdtuOcA1uzOxh0PNo1Gocmz5VlE2IzNgYtVq3hW+/gXAPbQZrjxowc3BAeWEhcu/GISH8BGI2rhXd+Xh7y0YuGFYDigsK0j/q3N4RgNCnZOkAhgDQ/4iHAcEFQw6Hw6lmxGxaT1rf+M3pElXC0Qfp1yOxd2g/Zqb0JpZW8OzUBbXbdUDt9p3gXD+Q3LGVe/8uHh0/ivv7diP54gUmwRHRG9agRouWaDBWN8miJVmZpPWO/gGQm5ujNCcbYQN6Iv16JGm/kYkJ/IcMR5Pp78O1cchL1zWa/BbKCvLx93dfP/GxE9HpcTdsBzPBsPPPv7+whssLv8fj82cFXcPc3gG9N2zVupZXvW4vojQ3Bzv7dEVmlPjQFpvangiZ9h4Cho6AlbvHC9eYWFrBwskZTgGBqN2uA5p9+ClKc7IRuXwZIn9dhoriItHnX1u2GA0nTIZNbU/R16CQdo3QUSqTwS20KbOzSzJpn0kTK2vY1/WFsrQUB8YMRfzRw7QDZTL49OyDkOkzULt9x5cuCxo3CcqSEkQsX4rLP84T5el5N2yH3gTDzKibCBvQk0lKdK227VFv4BDU6d4Ltp5er9+AJ0JUeuQ1xO3chti/NmgtHmbeisKl+d+h9de68dijvm7p1yOQfPGC6PNMLK3gN2AQAkeNQ83WbWEk183tf/T61aISqb26dEP7Hxb/M4b9LCaWVrByc0ettu3xxmdf4tL873Dtp0VkL8eCxARkxUTDuUEQuT5O5UCj0SinNG5wR1VR0V7gFhWAMQBSJCyrUsIFQw6Hw6lGaFQq3N6ySfB6S1c3+PYfJGFFHF3y6PhRHBg7HBVFCq2uIzMygmfHzqg/fDR8+w0QHRjxFAffenDwrYeQae8hPyEeUStX4NbalSgryNfquuEzZ6BGy9Zw8K2n1XWEQL0JdA0OQbmiELsH9SGLhXV79Ea7+YsE/3eZ2dqh46KfUKdrD+wbNZjcbfjo+BHS+lfh2aHTC/95+MwZgq/hFtoUnh07sypJEGUF+Qgb0FO0WOgUEIimH3yMgGEjYWRiQt5v7uiEVnO+ReO338GFb2YjesMaUXWoysoQsfwndFiwRNR+KhSvNXvvurBwcmZ2djFRxHdp2AgatRqHJo4mi4UezVugw8KlcA8VlvAst7DAG598gTrdemFX324ozc0hnZdy8QLKFYWvTHWWgtQrl7B7UB+U5eeJvoaJlTUCR45B8JvTXygKvY6n3bnuTZuj1exvELX6T1xe+INWNV37aRHqDRwCl0bBoq8hFGqYlbKUHqgFAG4hTRD81juoN2Cw1r+jqShLSnBpPk2AlRkZoe238xH6/kxB6+Xm5mjzzfdw9A/AselTyA8aky+c5YJhFWbhxLHHspOTexG2fA7ghFT1VGZ46AmHw+FUIx5fOEf6YzVo3CSdjelwpCV280bsHdZfK7FQbm6ORpPexITIGAzacxj1R45hfiNi51UHbef9iEm37iJk+gxR4spTlCUlCP/wXYbVvZxiYjeTo38A9o0YRPL0s3JzR//te9B/x15RIqh3tx7o9hs9xESRmoK8+AfkfUIpy88jpc+y9LkTgrK4GLsH9kZ6ZAR5r9zSEm3n/YgxFyMROHqcVu9n4MlDnK6//omeqzeK9uiMXreaLFCJhRR40oztz7WEKOK7NAzG8Xem4sGBvYL3mFrboOvyFRhx4pxgsfBZXIMbo9/WMPLvWbVSidTLl8jnaUPyxQvY1be7aGFObmGBFp/PwdS7Cei0dLkosfB5TKysETrjI0y8cRt+WjzcVCuVODdnltb1CIFFZ+arcA1ujH7bdmPUmctoMHq8zsVCAIha8ycUqbRGra7LVwgWC58lcNRYhL77IXlfhhad4hzD5srhQxfDt2ymjEXsx5OgE84L4IIhh8PhVCPu7Q0jrQ8YPlKiSji6JG7nNhybPkW0WbqRiQkav/0uJsc8QOdlv+nEIN7c0QkdFizByFMX//H6E0Pi6XDc2baZYWUvhurldXPVClJCp2+/gRh7+Qbq9uxDLe1fBAwbCZ9efcn7Mm5c1+rcV5EWcY00Ku3elC7MiEWjUuHghFFIvUIXZ2q364Bxl2+g6fsfMx8DDBg2Ev237RH1QKeiuIj8u0AMypISZEbfErxejOD2KgoSE0nrHx45iNjNGwWvr9myNcZevo6g8ZO1Snau2aoNgkVYf2TcpHUma0P27VjsGzZA9Di8T+9+GHc1Ci2/mCNJWIuFswv6bNqOjouXifbkSzh5HAnh0jcYKR5Lk9BrXaMm+mzajtHnrj75jmeUNk5Go0HUKlqYWuO339XKPqTlV3Nh5eZO2pMVHSX6PI7hkp2akvL1oH51AAh9OncfwDgAhpPMY2BwwZDD4XCqCxoNHuzfI3i5nXddOAVo3wHA0S8PDu7DkTcniPYF9O7aHWMvRqLjop9g6erGuLrX4xrcGKPOXEbAMPHi9d/z5jJNlnwRBQnxpPWFScLEDJmxMdp8+wP6btrObFyz1dfzyHuyb8cyOftFULrQAPbC0qsoVxRCrSK+d2QyNPvoMwzedxR23nWlKQyAV+eu6LpcXLCP2DAPChlRN6CuEO4dTw2geR35En0mAaDxW+9gyMETsPX0Jlb1Ypp/PAsmllakPVJ+Jp9FkfwYuwf1FuUVaOnqhgE796Hf1jDYedWRoLp/0/itd9D3rx2iJyOuLV3IuKJ/U5qXyyyw5R9kMgSNn4xxV6OedFnqSyj8fx5fOEfqGLd0dUObufTfSc8iNzdHw4lTSXty7sYZVHozR3vUKlXF26HByWq1Wqh6XApgOADxfgbVAC4YcjgcTjUhKzaGNCJSpwfF+oNjiCScPI6D40eSbtqfYmZnj56rNmBg2EE4+teXoDrhyM3N0XPVBjSfKW5kLP/RQ8Tt0D4k41UUJLBLC32KqbUNBuzYh2Yffsr0JtA5sME/abBCUaQkMzv/eSjBGLaeXjoVrs3s7DFw5360m7dA0Dix3NISfTdtR5tvvpcsffRZ6o8cgwajx5P3PT5/VlR6KYW0q8KFYGNTU7g0or0nXwdVxBeCkVyObr+tRMfFy7QeL38WCydneHfrQdoj5WfyKWX5eQgb1BuFj5PIez2at8Doc1dQp7tu/5bw6d0P3f9cB5kR/TY38cwpSYXY/Hi270lzRycM2n0IXZevkKRzUwwPDu4jrQ997wMmY9OU7nsrdw/UHzEaKhF/G3EMly/79DxbkJ1NeaL4DgDdtWpXUrhgyOFwONWExNMnSevr9ugtUSUcXZB9JxYHxr/6kcMAACAASURBVAwjB1wAgGfHzhh3+QYCho+SoDKRyGRoPXcemr7/sajtVyXsHCnLz2PeNWLp6oahh8Ph3bU70+s+xad3P9J6bQIFXgfFx1GX3YX/IJMh9P2ZGH787Cs7Bs3s7DFoz2H49huow+KAdj8shLmDI2mPRqWS3AOPEnjiHNQQcnNzpufnMxbxTSyt0H/bHsmS18mfSS1DoV6LRoNj06YgOzaGvDV46jQMPRwO6xo1JSjs9fgPHobmH39O36jRIGo1bZyWQv6jh8yu5dwgCKPOXGSWYM+KhBPHSOvrDRrK5FyXRsGv7NK1qe2JJu9+gGHHzmBqXAI6LfmFe3RXIQ6vXXU5MvzEi1PVXsxqAOLSw6oZXDDkcDicakLS6XDBa02srFGrTTsJq+FISVlBPvaPHIJyRSF5b9P3P8ag3YdgXbOWBJVpT9vv5sNvwGDyvuzbsUiPuCZBRUDu/XtMr2dT2xPDT5yFa+MQptd9FteQUNL6conEiYLER6QgJr0Ihs+cPebva/AfMvx//p25oxOGHg5HzZatdV6XuaMTmn5ADwtIvvS3BNX8l9SrwgVD1kE2pTnZKM3JZnY9M1s7DDl4nNwFSMEtpAlpfVmetILh9T+W4z7BxgQAIJOhw8KlBiHGtPxiDmq80ZK8797eMGjUagkqAvIesPld4d2tB0acPC+p5YEYKoqLkHP3juD15o5OzMb6jeRy2NX599i7fV1fNPvwU4w6fQlTYh6g/fzFqNmytajuU47hkhAbm7Bs2lv1AQgdxYgCMEPCkqoU/NPC4XA41QGNBikE0/4aLVqKTuDk6BeNWo0jk8eRPIQAwNjMDN3/WIO2837UySilaGQydPt9lajgldvb/pKgICArRniww+uwqe2JoYdOwL6OD7NrvginANqYealEHYaUcWQAcG/2hiR1CMXUxha91v6Frr/+CbmlJYAnYtKg3Yfg0rCR3upqOOnNf+oRSk7cbYmqAYoz0lGQ+EjwetZCcFZMNLNrmdnaYdDew8w9Fp/Hvq4vSWSTsus3PTIC5776jLyv/fzFCJn2ngQV0ZEZG6PLLyvIo+NFaalIJYzTU8i8pX3Qhne3Hui3eZde0o9fR87t2ySxlZUv71NsannCKSAQb3z2Fcb8HYmJN++gzbc/wC20qd69HTnSUKpQlL7XqplSo9HYCtySB2AQgGIJy6pScMGQw+FwqgF5jx6Sui1Yd3twdMeVRT/g4ZGDpD1yCwv037YHgaPHSVQVW0ytbdD1lz/INwD39uySxOQ8i5AE+yosXd0w5OBxnXSNWLnSEiXFjLYLgTK2aiSXS9p1SSFo3CSMOnMJHs1bYEDYAbg1oXVsssbc3gF1iV5xeQ/vS1QNkEr4uQKAezO2v3MyGSWgyi0tMXDPIcnFQuBJGr25o5Pg9arycknqUBYX49CEUeTrt/t+IZq8874kNYnFqX6gKI/PR8eOSFCN9oKhV5du6PvXToN9oKtIpflqFqWmiPJYfhk9V2/AuKtRaPXVXL0+wOHojo86tr1RVlIi9AmrBsBkAA8kLKnKwQVDDofDqQZQRzH1ffPLEUdm1E1cWvA9aY+JpRUG7NhncD5Ir6NW2/YIGDqCtEeRmoKce3HMa2HRYSi3tMSA7Xsl7yx89jwjuVzwelNrG0nqoAiGTvUDyUmyUuIUEIgRJ8+LGnuUAqoHXmGi8FRgKumEzlEzO3s4+NZjej6LDkOZkRF6rd4IDx12tVI+Z6bW0nSYXZz/HfLiaffTLWbNRuiMjySpR1uafzKL3DWfcpn9uH5FcZFWI8nODYLQZ+M25l6fLCkroAUplSsKEbdrO7PzzezsmV2LY/j8OevTyAdRN1sQtiwEECZVPVUVLhhyOBxONYCa+udYz1+iSjhSoa6owNFpk0hP641NTdF/+x7Ubt9Rwsqk443PviTfCD4+d4ZtERoNMqNuanUJmbExeq3Z9GRsSodQXjtTW6HTPsJRK5VIv3ld8Hre+fxqarRsRVpfJmFKcuo14SOdbk1CmXuKZUYJf1+9jPbzF8OnT38G1QiH9Jm0Yf+ZzIqJRuSvP5H2eHftjhafz2ZeCytsPb1RpyvNezLt2lVoVCqmdWTeihLtjWjh7IJ+23ZL9uCGFWolvVvw/NdfMPUb5VQPbp45lbhr6eIgwpZTAL6Sqp6qDBcMORwOpxpA8bMzkssNzkib83qu/OdHsnDVedlvlVYsBADHegGo27MPaU8qwctTCLn372qdkNzhx/+Qu8O0RVVWRhozluJGNSsmGspi4TZC7k31F3hSGbD19CalJWtUKihLSpjXoVGrSV3tHk3ZdvApS0qQqaVNQMj0GQiZrntPfEpQlakN2w5DjVqNk+9PIz10sqlVGz1Wrjf4EIn6o8aS1lcUKchdlq+D0k39L2Qy9Fy5HnZedV6/Vs+IEbEVKcnY2bcbSrKzJKiIUxXJTU8r/rxXd3MAQk1fUwGMBqCUrqqqi2F/u3M4HA6HCRTB0LpGTbJJOEe/5D24hyuL5pP2NPvwUzQYM0GagnRIA6LvYu49WhjM66Akwb6IkOkz0PjtdxlVI5wyYuqxFKNeaRFEnzveYfha7Ly9SetV5ey9KXPu3iG9v9wYC8EZN69r5Yvm07sf2s9fzLAi4ZTnC3/dWH8m72zbjJTLFwWvNzIxQe8NW5kHV0iBd9fuZN+//Ph4pjWIFQyDp7wNry7dmNYiFWIfNmdG3cSW9i2RfPEC44o4VQ2VUol3WzRLUimVrgK3VAAYhieiIUcEXDDkcDicagDFq8rS1U3CSjhScOHbOSSD+hotWqH1199JWJHu8O7Wk+Rrl/uAbdBDWgQt5fdZ3EObod28BQyrEU45UTC0r8u+6ziNILaaWFrBqX4g8xqqGtTvbyk8IanCCOuEZG0Sbm09vdB9xRq9dMxpVCqUFykEr7dj6HeqUanI/rfNP/5cp/6O2mBqbUN+n+UnsBYM6b8r7LzqoO28H5nWISVO9QPJae1PyU+Ix46enXD60w/5iLJQNBKkuBk480YNu5WVkkzxTfoAwHmp6qkOcMGQw+FwqjiqsjKU5ucJXm/FBcNKRfr1SNzdvVPwelNrG/RYuY7s/WeoGJuaokar1oLXl+Zkk8b+XkcawavtWUysrNFzzUa9dfPmJySQ1jvUC2BeA6XD0DWkSZV5z0oJRQCUW1hI8v6jCCO2nl6wcqMldr+OdJEivszYGD3+XKe34ISCpARSijtLr+Hb2zaTAjkcfOuh2UefMjtfF7gTxc2itDRmZ5dkZyH/0UPyvrbfLzCooKfXITc3h1fHLqL3a1QqXP/9F6wNDsDVpQtRQRDQqynVSjA8snZ14t979zQkbNkM4Dep6qkucMGQw+FwqjjFmRmkmxC5VeX545QDnP/6c9LPt938RVXOo7JmC1rYQzkxyfFlKEtKkHkrStTejouWwr6uL5M6xJB79w5pPesgpPLCAuTECa/BvSkfRxaCjJB8bWZrJ0kNFBGddXchIN4moNmHn6Jm67aMqxFOThwtwd3Bj81nUqNS4fLCH0h72s770aDTel+EcyAlHwFQFhcxO1tMd2GtNu3g138Qsxp0RaNJb2p9jdK8XJyf8wVWBfrg8qIfUEZ46F2d0FSjDsOkO7eLlk1/S7hJL3ALwFSp6qlOcMGQw+FwqjhlebQ/tOSmNJ8fjv5IuXwRiadOCl7vGtwYQeMmSViRfqB2v7HqMMyIuiHKK82v/yA0GDuRSQ1iySF4ORqbmjIXmdMjI0iJoVIIS1URSoiMuSPl3kv4+Vkx0YLXs/65FmekoyDxEXmfW2hTtPxiDtNaqOTeowmGjv5sBMO7e3aRugs9mrfQeUgTC+zq0L7DKooYCoYiul5bffUNs/N1iXe3HvDu2p3JtUpzsvH3t3Owqn5dnPtqForSuA3ds2goT4srMSUKBd5v1zpXrVYLTXrKAzAIgPBfiJyXIvwxJIfD4XAqJcqyUtJ6SocKR7/cWPEraX27HxYbfJqlGKidespiNsmwaSK80iycXdDl59+ZnK8N2bHCRR2Hev4wYvy9QA884YIhAJTl5/1jW6UuL0fFc11QlGRXex8/prUBQPqNSKiVwoMoqWOiryNVRLCEsakpevy5Tu9hX1mxMYLXmlrbwNbTm8m50etWkdZn3rqJ32u7MDlbl6hVKtJ6lRbBOc9D/b6r2bK1XrtdtaXTkl+woXkwsxT28sICXFu2GNf/+AWBI8ei6Ycf67VD31CQVYMOQ41Gg1k9u94rys8T+gtLA2AyALaG1dUYflfI4XA4VRxVGS0F8/kbUI5hUpyRjvt7wwSv9+rSDbXbdZCuID1iZk8brTSxEmfK/jxiUi/bzJ0Hc0cnJueLRaNSIf16pOD1UqQTU0b0LF3dYOvpxbwGfVJeWICChATkJ8RDkfwYxVlZKMnKRFF6GsoL8lGWnwdlSSmUpaUoy8uFsqyU2c33UxwkEAwpIrqRXA7XxiGMz6d/Jpu8+yEcJfDopEL29GTw8Cc/IR5JZ0+T9ihLSpi/Fw0RuYUFmwtpNOSR5OC33mFztp6w866LHivX4+D4kdAQhdpXoSorw611qxC9cS0Cho1Ei89nw55h+E9lQ1MNPAzXzfkq6c6Vy5RfVt8DEP7HMee1cMGQw+FwqjiUbg8AqFBwk+nKwK31q0nJyKHvfihhNfrF1ErolMr/r2fk3Ub1SnMLaaL3UWQAyL4dSzKTd2/KvruPIrZW5u7CkuwsZN6KQlbMLWTHxiAzJgr58fEGkQJq78u+Q4fS4edUP5B5oAM1hMjaowbe+OwLpjWIoVxRiJw7twWv92jKpjMzZsM6kjVAdcLEgs2DpbxHD0mfd3N7h0o58v08fv0HoevyFTg2fSrJZ1kIGpUKt7dsQtyOrQgaNwmtZn8DC+fK1/WqLRpN1RYMr588Wbh14Y81CFtOApgrUTnVFi4YcjgcThXHhBhiwlPpKgcx69cKXusUEAivTuKTCw0dahctixRUMV5pLb/8xiBGwqnjcazEiacokh9DkZoieL0UgqVU5D96iOQL5/H4wjkk/32e5A2na6ToqqN4tbHuXNWo1UiPjCDtaTbzM4NIoSV7erL4TGg0iN28QfvrVFHMHNikZVO7Xv2HDK90gTIvo8GYCTB3cMSRqRNQXsgmbOxZ1Eolotb8ibthO9Dyy68RPHUaZMbGzM8xWKrwSHJueppmzuB+SkAj9AeaBGAkAHYtrRwAXDDkcDicKg9VMCzOyJCoEg4rsmJjkJ8QL3h9w0lTAZlMwor0S2l+vuC1xmZmTG7GqCb27qHNUKd7T63PZQGlM9LE0gpO9QPZnk8c5ZZiJJoVGrUaadeu4P7+vXhwYC9y7wsPk9EnMiMjuDQKZnrNorRUFCYlCl7v3oztzzXn7h2UFQj/LrD2qIGGE6YwrUEs1M5IFl23mdG3UPg4SevrVFWs3D2YXIf6uyJw9Dgm5xoKPr37YdSZizg4YRQyo25KckZpXi5OffIB7obtQI9V65n5exo6VTX0RFlRgY86tk0uLympJXBLGYDBADIlLKvaov/H3BwOh8ORFOq4Zv6jh3xEycCJP3JA+GKZDL59+ktXjAFQli88CdzOqw6TM6ldI43ffpfJuSygiBOuIU2Yd2yQ/LxkMriFNmV6PgvyHt7H2S8/xUp/L2zt3AbXflpUacRCAHDw84eptQ3Ta1I9PVkLwdTzG06cAmMzM6Y1iIUi4lt71IB1TaH30S8nIfyY1teoyli7MRIMCe9LC2eXSm3B8DIc/Pwx6sxltJu3QNKO3uSLF7CxRRPcI/g7V2qqaIfh4skTUlIePKB8yb0HgB5FzhEEFww5HA6nimNiTRMMlaWlvOvAwHl4+KDgtS4NG8GmtqeE1egfBeH96hzUkMmZqQTRzdzeAX4DBjM5V1sqihTIJniluTeVIPCEMBLt4FsP5vYOzGsQg0atxoOD+xA2sBfWhQQi4uclKEpL1XdZonBrEsr8mqTOVStrOAXUZ3o+RcSXGRkhaPxkpudrA8nTk9FnMuEEFwxfhZ2P9mEa6ooKZEbdELzes33HKjsNYCSXI/T9mRgfEY2gcZNgJJdm0LG8sAAHx43AjT+WS3J9A6PKCYbHN20oOLVtC8W3cBOAlVLVw+GCIYfD4VR5zOzsySOYufcqT6dMdaOsIB+phCTSOt16SViNYZAZfUvwWucGQVqfp1GrkR5xTfB6r85dDcaTKj0ygpRa6cFYMNSoVCSfOUPxL3x07Aj+atMU+0YMQsKJY5W+C9sthL1gSOlcdWsSyrxzlSLiuzYOgXWNmkzPF0vh4ySS8MziM6EsLkbyxQtaX6eqIjc3hx2DsdbM6FtQlpYKXl+rXQetzzR0bGrVRtdf/8S4q1GoP2K0JMKhRq3GqU8+wJXF85lf25DQAJX7F9FzPIqOVi95c7IpYctNAG9JVQ/nCVww5HA4nCqOzMgIdnXqkvakXL4oUTUcbcm6FUUSfNxCmkhYjWGQGS3cF8k5qJHW51G90jw7dtb6TFZQRBWAfUJx9p3btIRmPY/npUdGYGfvLtg9uA8yb0XptRaWuDVhO+ZNFoIZjyNXFBchOzZG8HrPDoYTAqWPUe7MmFvksKjqhF1dHyaCNjlgqlkLrc+sLDj41kOPlesx4cZtBE+dBrmFBfMzLnw7B/f27GJ+XYOhCo0klxQW4tMeXXLUKpXQp6u5AAYBKJawLA64YMjhcDjVAnsfP9L65AtnJaqEoy2Z0TTRwrmh9gKZIUNKRpXJ4M5AKCHf4BvQTSBlbNPKzZ35ODv1BlqKkWghqJVKXPzhW2zp1ApJZ0/rpQapMJLL4dqQbeBJdtwdlCsKBa9n3TmaceM61Eql4PUezdkmf2sDJQRIZmTEZJw8+7ZwcbU64ujnz+Q66QS/VhMrazgHNmBybmXCzqsOOi35BVNiH6LFrNmwcHJmd3GNBkffmoTsO7HsrmlAVBW9UKPRYO6QAZn5mRlCf/hqAGMAPJSwLM7/w1OSORwOpxrgQBQMU69ehqqszGAM4Tn/hdLlZGJlDXtvWndpZSP16mWUZAkLxnNrHMIk+ZIS2mFqbQMn/wCtz2QFJbFTiu4+imBpbGYGFwYdoVTyE+JxZPI4vXVaG5mYwMLJGWZ29jCztYWZvT3MbO2e/H87+ydJ35ZPunFMLK1gbGqKa8uWIO/BPUHXd/QPgNzSkmnN1JRf1qPuaQSbBkB/QvSLoDyAcPQPgKmNrdZnZt8WLqCYWFrB0tVN6zMrE6wSvCnft1KM6VcmLJxd0PLLr9Hsw08QvXEtIn/5CfkJ8Vpft6K4CGc+/xiDdh9iUKWBUUUUw43fzVXcOH3KhbDlWwBV8AdqmHDBkMPhcKoBjv60p+XKkhIknTkF7249JKqII5bs2GjBay1dXKusgfpTHh4Snhhdp3tvJmemXr0keK0h3QQqkh9DkZIseD2rm+ZnoXQYugQ10vlDi4STx3Fw3AjSyDkVmbEx7Ov6wsHXD7aeXrCpVQs2NWvDprYnbGt7wsrdg/yeufDNbMFr3ULYp05ThGBWKb/PQunSs/X0gpWbO9PzxaJWKpFxPVLwelaj3JQOQ78Bg9B9xVom51YnygsLkHP3juD1Hk0Np+tVn8gtLdH4rXcQPOVt3N76Fy7N/05r4TDhxDEkhJ+AVyfDsSJgQVXwMLxx6qRq8w/zKE+wjgOYJ1U9nP+FC4YcDodTDajRohV5z+3tm7lgaIAUZwrrpgMAMzvtO1EMGo0G9/aGCV5ep4f2ATDK4mKSV5q7Ad0EUkQVQCKfOUJnk667wO5s24yj0yZDXVHB7JoyIyM4+gegxhut4PFGC7gEBcMxoD7TEJz8hHiUZGcJXi9JQjIl8ESKzlVKyrCefTGfJTs2BhXFRYLXsxLx8x48ELzW3NGJyZnVjbSIa6RwJCke0FRmZMbGCBw9DgHDRuLmqj/w93dfo7ywQPT1rv7nxyonGKKSpyRnPk7CnIH9SzUajZXALQkARgEQbuTN0RouGHI4HE41wMHPH1buHqQkxgf796KiSAETK2sJK+NQKcvPE7zWzM5ewkr0T8Kpk4LHMK1r1GSSDJt+I5LmlWZAN4GUUWqZkRHcQtl2omVcp712uhR27u7eiSNvTSQFCr0MKzd3eHfriTrdeqB2h04wt3dgUOHLoSR2A+wTkiuKFCQhmPVnQpGagsLHSYLXG9Q4MtXTk5GIT+mgtXDigqEY6IEnhvNwyZAwMjFByLT34DdgMMI/eAcPDu0XdZ3H589CkZJsMOnoTKjEI8kVZWX4vGe3vLKSYqF/qJYCGAxA+NMxDhN46AmHw+FUE2q1bktaX1FchLthOySqhiMKjYY2KlnFx5Fv/LFc8Nqg8ZMhM9L+zx6qV5oU3VRiofjMOfj5w8zWjvH51MAT3bx2KZf+xpEp47QSC02tbdBg7EQMO3YGb95LQrffVsJvwGDJxUIApHRiIxMTJknh/zr/eiTptWPduUoPITIcYSaVMMott7SEc4MgJudSOrXMHRyZnFndoDygsfl/KwLOy7H2qIF+W8PQ8suvRf1to1GrkXTmlASV6Q9NJRYMf5r+liLpbhzlqfY7AIT/suMwgwuGHA6HU02o2aYdec/VpYtJIzXVnZLsLEDCv9/KixSkG/MKhUKyWvRN7r04xB8V5nltJJej4fhJTM6ljPXa1KoNa48aTM7VFo1KhXSKV5oEYh3ltTO3d4CDbz3mNTyPIjUF+0cPhaq8XNR+m9qe6LTkF7z54DG6/bYSNVu21rlQnxYpXJhwDmzAdBwaoAnRrFJ+/32+8P9+I7kcbsEhTM/XBspr59qoMYzk2g+HKYuLSWP3lViT0CvphMAT1iFAVRaZDC1mzUanJb+I2p5+Q/jvwMqAppKOJJ/4a6PqxKYNlPGlPwGskaoezqvhgiGHw+FUE3x69yMb6efei8P9fbslqqhqkf/oIf5q2xx7hw1AaW6OJGdQO+RKc6SpwxA4N/tzwWJ23Z59mIUskLzSDOgmMPt2LCqKhAvIkiQkExNDdSG8nXjvLRRnpJP3WTi7oMvPv2PijTsInjoNJpZCLZjYolGrSaEZUgSeULrkHOuxSfl9Foro5twgiHlCtFjKCwuQE0cIxWDUGVlG9IFTFgn3WOQ8QZH8GIrUFMHrDanrtTIQPOVtBL85nbwvP/6hBNXokUqo5j+Muoklb06mtPPfAPCBVPVwXg8XDDkcDqeaYO1RA7XbdSDvu7zweya+XlWZvPgH2NGzMwqTEvHwyEH81aY52VdMCCYWliTRsCApgWmAg6Hw+NwZPDi4T/D64KnTmJxL9UozpK4RSigFwH5stCgtFYVJiXo7/0Xc2bYZ8UcPk/f5DRiMcVduouHEqTA2NZWgMuHk3L2DckWh4PWuIU2Y16BPEV2jUiGN8F1rSCFE6ZERpA5+VvYG1AdPlKAtzhMoD0cA7l8ohnbf/Uj2I6R4QFcKNJWrw1CRm4sv+vQoUimVQn9x5gAYBKBEwrI4r4ELhhwOh1ONCBg+irwn81YUbq76Q4JqqgZZ0bewvVuHfwlJBYmPsK17e9z88ze2h8lkpE4mtVKJ3PvCQkEqC6rycpz6VPjD5lpt2sGzY2cmZ1NGzADD6jBMo3ilmZvDOagh2/Opr53EYTHK4mKc+/oL0h6ZkRE6LfkFfTZug6WLq0SV0aAHnrDtMFQkP4YiJVnwetaj7tl3btM6Z3XkiykEsojPqHYTYodlfkI8k3OrE6QxeRMTuBrQmHxlQW5piaDxk0l7KKFblQGNlB44jNGo1fhu5NDi3PR0oX/EqgGMBsC/gPQMFww5HA6nGuHXbyDkFhbkfX9/97Wosb2qTvLFC9jeo+ML06dVZWUInzkDhyaMInUAvQ4LZxfS+uSL55mdbQhc+uFbZEXfEry+zTc/MDubMnppJJdL0s0lFoo44dKoMfPOOcoNNAC4NWE/OvssUWtXQpH8WPB6IxMT9Fy1gVm3KivSrwv3gDc2M2MWmvEUii8lIEXgCVV0q5wivqWLK+y86jA5V25O+xsg585tJudWJygJyS4NG4n6u8zQKC8soIWyMcCrUxfSejM7tkFe+kajVlcawXDDd98ob5wKpzytmAPgiFT1cITDBUMOh8OpRpja2CJw5FjyvrL8PITPnCFBRZWXh4cPIKx/j9eOuMTt2o7N7VogKzaGybn2vr6k9Umnw5mcawikXrmEqz8tErzep3c/eDRvwex8ijjhFNhAb752z1OuKCR5pUkhqlBeO1tPL1i5uTOv4SkalQrXf6OZ5rf97kf4Dx0hUUXiKM5Ix4ND+wWvdw5qqFchWG5hwV6wJIhuZrZ2cKwXwPR8baB03bL0FJUZG5MePGXH3UZpXi6z83WF2CAjbdGoVKTkckMak38pGg0UqSlIvXIJcbu249qyxTj18fvYO2wANrYMwW+1nPFrDUfc3rxRp2XZenmT1pvpILVet1SODsPr4SewZf48iu50AMB8qerh0NA+aovD4XA4lYrQD2YiesMa8mjGvT27cPPP30QZTVcpNBpcXboQF76dI9jbMfdeHLZ0bInuf6xBvYFDtDrewccPCSeOCV7/8OghlCsKYWpto9W5+qYoPQ0Hx48U/JobmZig9dx5zM4n3wTqwINPKOmRESQfUtbeixq1mvjaSTs2mhB+AgWJjwSv9+rcFU2mG9YDk/LCAuwe3IfmCylB4Akp5Tc4BEYmJno73y20Kdm/TyoKkxJf2Jn+MliPUtt6eaEkS6A3oUaDx2dPw7ffQKY1SElFcRF29uoC6xo10WHBEtjU9tTZ2dlxNF9RQ/K6fZ6kM6dw/N23oEh5LEiA1XWgkKq8jLTeztNbmkL0h8ELhhmJCfhm2OAyjUZjJnDLIwAT8GQkmWMAGMZvTQ6Hw+HoDPs6Pqg3aKiovWe++IR041/VqCguwsEJo3D+6y/JQTBmtnZwYeALR+3QURYX496eXVqfq0+UJSXYGcUSogAAIABJREFUN2IQKXCk+cxZcAoIZFZD9p3btJtAiT34KFDHNt0YixO59+JIo2pSC4Zxu7YJXiszNkanpct1ktgsFFVZGfaNGISMG9dJ+1iPyNM7qdh+JiqKFMgmjMsakoiv71FuqnByb28Y0/OlRK1U4tD4UUiLuIr7+/dgXdMgXPnPjzrrOEwnjCMDgEdzw+0wzLh5HfmPHgp+7ajj7tqSH0+zt2PtzatvNAYeelJeWorZA/qWlBQWChULSwEMBpAtYVkcIlww5HA4nGpIs5mzRHVaqMrKsG/koGppgp6fEI+tndvgbtgO8l4rdw8MOXgcDn7+WtdRs3Vb8p6IZUtIaZyGhEalwtG3JpKSWJ0CG6D5J58zrYPulWY4N4GUsVELJ2fYe9dlej5ZHJGw40ajViP+yCHB6+t06wn7Oj6S1UNFWVyM/aOHIOnsafJe1oEnWbExqCguErye9c+V2jkrdZAOBVIIkEzGXMSnPnh6cHB/pUmYDf/oPTw8cvCf/68sLsaFuV9hY4sQJJ46Kfn5lO9bc0cn2Nel2YzokkKCzysAnXsxZsdGk9a7NAqWqBL9YOgehj+/O63iUUw05U3xJoBIqerhiIMLhhwOh1MNcQ5sgKBxk0TtVaQkI6xfTxSlpzGuynC5s20zNrdpTgrbeMpTsZCVd5ajnz8sXd1Ie7LvxOLu7p1MztclGpUKh6eOJ9VuJJej+2+rmXu1UbzSTG1s4ehvQF5pBMHOLbQp8266dMINtMzYWNKwmOzYGJRkZwle79O7r2S1UCnNy8Wu/j0Qf/Qwea/cwgJO9dl13AJiRHS2ohc1ZdiQRj/Trgqv3cHHD+aMvdeoDzQqihSIXr+GaQ1ScH7OF7i1duUL/13uvTjs6tcdB8ePJAUeUaEEnrg3bWZQ3cvPU5yZQVqva9/IuJ3Cu8VtPb0MysOUCTLD7TA8sOJ3HN+4nuJB8SsA3ZpgcgTBBUMOh8OpprT55ntYODmL2pv38D7C+veo8qJhcWYG9o8eisNTxokyfbfzrovhx8+w/SNVJoN3l27kbWe//JRpWrPUqJVKHJ46HnE7tpL2NZs564noxRiSV1qTUMPxSnucBEVqiuD1UogqlBtop/qBkobFJF+6QFrv2jhUokpoKFJTsKNHR6Rc+lvUfpeGwTCSs7Uup3RSsUz5/ed8gohv6+lFftAiFWqlEuk3hDfRsBZaAXF+jhE/L0FFkYJ5LSzQqNU4+cE7uLp04WvX3g3bgXWhQbi2bDHUFRVM61AWFyMrRnjXm0czw+lEfxGCfS7/n1LCwxhtyXtwj9S9XrdnHwmr0Q8ajWGGnty+fAm/ffQ+xbfnMoCZUtXD0Q7D+GuWw+FwODrH3NEJbb79QfT+rJhobO3UBjlxwj2kKhP39+3Gxjca4/6+3aL2OzcIwvDjZ2DHeLwTAAKGjSLvUSQ/xtnPP2FeixSU5uVi96DeZLGwTveeaPnFHOb1UL3SPAxpHJky+gj2XmnKkhJkEjpzpfaZo/r+WblLl9YslJTLF7GlYyuSEPE8biHshU9Kh58UvpSUzlkpx9ypZMfGQFlcLHi9FLWb2zuQr1uUnoar/3m9IKdr1BUVODxlHKJWrxC8p6JIgXOzP0f88SNMa8mIukEKlDOk3xUvQlVGCxWhdG9ry8X535FCgv0GDJawGj1hgIJhbkY65g4eUKFSKo0FbskAMAQA7c3G0RlcMORwOJxqTNDYiajVpp3o/QWJj7CtSzsknTnFsCr9okhJxqFJY7B/9FDyOM5TarZsjaFHTsHK3YNxdU/w7NBJ1LVvrVuFmL/WS1ARO3Lv38XWjq3JXlP2dX3Rc/VGSTr7KrVXGqELCzIZ826mjKgbpC4eKbqpniXvwT1Jr88UjQaRvy7Djp6dtB6hZC0YlisKkUMJHGH8c6V2zhqSYEgdpZaqdt++/cl7rv60yKCCz0qyMrF7cB/ywyUAeOPjz+HTi63lAEXElsKbkjXU1OOs2BiJKvk3yRfO4c72LYLXOwU2QC0R/s+VAIMyp1ZWVOC74UOUeZkZQkeRVQDGApDOI4CjNVww5HA4nOqMTIaeazbB0sVV9CWe+mpdmPsV8/EeXaIsKcHlRT9gXUigqJuPpwQMH4XB+48x95x6FpmxMRpOmCJq78kZ0/Do+FHGFbEhZtM6bG7XArn375L2mVhZo++WXTCzs5ekLvINvsQpvxQotdt714W5oxPT80k30JC+w1BZWkpar0hOlqiSV1Oam4MD40bgzKyZTL5XWY/pp0dcIwUpsf65UjtnDWn0kyLiG5uZwSWokSR1+PYdQPbPU1dU4NCkMSjNzZGkJgrJf5/HptZNRQWZ+PUfhFazv2FeE+X7ztHPX9K/E1hgam1DWp90Opz0cE0M5YUFOPH+dFJ3YeO33jFor0ixGNpI8u8zP0DM3xco3hdfADgmVT0cNnDBkMPhcKo51h410HPNJsiMhU4P/C8alQpX/vMjtnZpg+w7sQyrkx5VeTlurvoDa0Pq4+9v55BSP/+FTIZWX81Fz5XrYWxmxrbIFxAy7V2YWFmT96nKy7F/9BA8OsZ2FEsbSrIysX/UEBybNgXlhQWkvcZmZui7eSecAxtIVB3tBt+mtqdknaVU1EolMq4TvNIk6Iyk3ECbWFoxD+Z4HmoHauIZ6VNVnydu13asb9oQ9/bsYnI9Uxtb5mb/JBFdJmMuWFI+k0YmJnANDmF6vjZQPhMuDYMl+31i7+MHz/YdyfvyHtzD/lFDoCwpkaCq16NRqXB16ULs7N0FihS6oO/R7A30+HOdJAISxdfTkDrRX4ZtbU/S+tK8XNE+q0JQK5U4MG4EyQrH1tMLgaPGSVaTXjEgvfD4xvU4sOJ3ypYwAIskKofDEC4YcjgcDgeeHTqh5eeztb5OemQENrVsglMfv4/SnGwGlUlHRXERbq76A+tC6iP8w3e1GvkztbZBn43b8MZnX+nsKba5oxMaTX5T1F5lSQn2Dh+AG38sZ1wVDXVFBa7/9jPWhQTi/v495P1Gcjl6r98Cr05dJKjuv1Bu8A0piTX7dixJAJfGZ074DbRr4xDmwRzPY+nsQlofs3E9yZNMGxTJj7F32AAcmjAKxRnpzK4rRQgPRbBz8PGDuYMj0/MpgqVzgyDILSyYni+W8sIC5Ny9I3i91KPUwVOnidr3+PxZ7BnSV+chKKlXLmFz+zdwfs4Xoj6XLo2CMXD3QfKorRBKsjKRnxAveL0hjcm/DLs6dA/mSwvmSVDJf4NtEk7QGtLazP0ecnNzSWrSN4bSYfjg5g38/O40ynh0HIBJgOGmPHP+CxcMORwOhwMAeOPTL9Fg7EStr6NWKnFjxa9YGxyAq0sWiEoXlpKCxEc499UsrPL3RviH76IgMUGr6zkFBGLkmYvw6z+IUYXCaf7J56KTP9VKJU598gH2jRgk2qtRLBq1+kmoTIsQnP7sI1HvEZmREbqvWAuf3v0kqPC/kL3SDGgcmZLsDLC/gS3JykT+o4d6O/9FWBDtF3LvxeHGil8lquYJJdlZODf7c6xtEoiHhw8wv75TAPuuTcpIMGv/QmrnrCEFS6SRR7ml/T6p26svHPz8Re1NOnsaWzq1JltIiKE4Ix3H33kTW7u0RcbNG6Ku4ehfH4P3HpHMuoI8Jm9A78uX4dIwmLwn8dRJxB89zLSOsvw87B02ANHrV5P21WjRCv5DhjOtxZDQaPTvYViYk4O5Qwaqy0tLhepKhQAGAciXsCwOQ7hgyOFwOJwnyGTo+ssfzJLkSvNycf7rL58IczNn6OSm4mWUFeQjZuNa7OjVGWsa1sO1ZYuZCJkBw0dh5Om/mY/7CcXc3gHt5i3Q6hoPDu7D+tAgRPy8hJyISEVVXo6YjWuxoVkj7B89lNRp8yxGJibo9vtqBAwbybjC/4WcMmxIXmmE7j5jU1O4NGrM9nzqa6cDwdDaowZ5z7mvPmN+Aww8uQn+e95crAnyw7WfFpGScyk4+NVjer3CpEQUpaUKXs9a9MqOjSF1zhpSsARdxJe2diO5HK2//k70/uzYGGxu+wau//azJN51OXfv4MR7b2N1Ax9Eb1gjegTTuUEQhhw4BgtihzEFyvet3NISzkENJauFFW4hoaK6cw9PGsMsACUrJhpbOrRC/NFDpH0mllbovmJNlfQufIq+OwzVKhXmjxulyUhMEKopaQBMBFC5vIuqOVww5HA4HM4/yIyN0XP1Rnh37c7smhXFRbj5529YFxKIze3fwNWlC0ldR2LJe3APN/5Yjj1D+uJPn5o4Nn0qHp87Q+rueBlmdvbotWYTeq7aIMpHkCX1R4xGne49tbpGaW4Ozn75KdY0qocri+ejJCuTUXUANBokX7yAkx+8gz99a+HY9KmihULgiR/bgJ37EThqLLsaXwHJK00uh1vjJhJWQ4M0thnUkPnYFuUGGtBNd6YYLz21Uon9owbj2rLFTL4/ki9ewLG3J2NlPS9cXjAP5YpCra/5Khx8/JheL5UaZMNYRKeGEBmSTQDlM2Hu4Mj8Z/ci/PoNhEfzFqL3lysKcfqzj7CxZQjidm7TWjgsLyzAne1bsGdIP2xo1gi31q0ihxU9S40WrTD0yCnJvWXTIoR/LtwaN5HcfoEFxmZmqNWmHXlfWUE+wvp1FxVI85SS7Cyc/fJT/NW2magHzu3mL4J9XV/R51cKNPod6V31xSxEHD9GUWS/A8DGnJejMwz/m4rD4XA4OsXY1BR9N+/C0bcm4m7YDqbXTo+MQHpkBM7P+QIOvvVQ442WqNGyFTyat4S9jy+MTU1FXbcsPw+ZUTeRHnkN6dcjkHr1stajxi/Ds0MndPt9NWxq1Zbk+mRkMvT4cx3+attc6/9mRUoyLnwzGxd/+Ba127aHT98BqNW6HRz9A0geaPkJ8Ug+fw5JZ08h8XS4KGP6F2FdoyYG7NwPl4bSpIa+CIo44RTYQBJvLDGUKwqRc0e4MbwU6cSU187S1Q22nl7Ma3iemq3awNjMjNxNqyovx7mvZiFux1Y0efdD+A8eBiMTE8F70yKuIulMOO5s34rce3FiSheNVY2aTK9H8fSUIuWXIrqZ2dqJHrmVAspr5xbaVDfdUTIZuv22En+1aaaVMJd9OxaHJo7Gmc8/RsDQEajTvRc8mrd4bYdaRZECmbeikHHzOh4dP4rE0yeZdbvX7dEbvddvkf57WaNBWsQ1wcsNqRP9dQQMHYlHx4+S9xWlpyFsQE8EjZ+M0Pc+EPw5TIu4itjNGxH71wbRHpkNxk5Eo0niPJ4rFTL9dRhe2BOGsGVLKFuOAfhWonI4EsIFQw6Hw+H8D3Jzc/Retxm2nt649pM0IWa59+8i9/5dxPy1HsCT7kabmrVhV6cObGt7wczeHnJzC5ja2kBubgFlaQmUxSVQlZWhNC8XxelpKEhKQEFiIsry8ySp8VnM7R3Q9vsFCBo70eBGXMwdndB7w1bs6NmJSXKluqICCeEnkBB+AsCTm27HgPqw864Da4+aMHOwh9zMHGqVEuWFClQoClGUkY7ce3HIvXdPEiN896bN0WfjNp0KtZXZKy09MkK/XmkaDdIpN9A68n40s7WDV6euor0CM27ewJGp4xH+4bvweKMFarRoBVtPb5g7OsLC0QkajQYVhYVQpCYj7+FDpF69hNQrl5glyjoFNkA2cdTP2t2dydlPSbsqXAh2CWrEPOWXcr5baFPmgS9iKUhMQFF6muD1Uoj4L8PRvz5afjUX576apfW1itJSEfHLUkT8shTGpqawr+sL+7o+MHd0gpGJCdQVFSjNy0VZfh4UKSnIj3/ApHP3X8hkaPbhp2j99Xc6+fnnxT8gBb15VCLB0LffAJh/6iDKxkWjVuPW2pWIXr8aHs3eQM1WbeHSsBEsnF1gZu+A8oJ8lBXkI/f+XWRF30LS2dMku4MXUatNO3T+SVrfWUNBo9aPYBgffQsLJo7TaDQaoX8MPwIwCgB73wKO5HDBkMPhcDgvRiZD2+/mw65OHZz6+H2oKyokPU6jUqEg8REKEh9Jeo4Y/AcPQ/sFS2DlxvbGmyXuoc3QZ+N27Bs5iPnPqqwgH6lXnggfOkcmQ9P3P0brOd8K7uhiBdUrzb2ZIY0+Er3SGNee9/A+SnNzhJ+vQ5+5xm9O1zpcpFxRiISTx5Fw8jijql5P47ffRd0evRE2QLgFgczYmGlCsVqpRPrN64LXs+6koqYMG5KITw7F0PH3Seh7HyH18iVRifUvQ1Vejuw7sci+ozvLMhNLK3T9bSX8Bw/T2ZkU6wrAsMbkX4eJlTUaT3sPl+aLbw7TqNVIuXwRKZcvMqzsf3FrEop+W8NET6tUNvThYajIzcW3wwajrLhYqFhYBKAvAOGKOsegMIxHbhwOh8MxWBpNehMjTl7QW7CHPnFtHIKhh8PRa91mgxYLn1Kne0/0XLWhUngjCcHSxRWDwg6i7XfzdS4WAnSvNF12BL2OVMINrJmtHRx82QZjUM4HdPvaeXXualBp1q/D1NoGvdZsQsdFPyEr5hZpr9zcgmlHdFZMNCmchfXrTE4ZNigRn/aZcGtC99vUBpmREXqsWg+XRvRkXEPBLbQpRp+/olOxEKCJwdY1asK6Zi0Jq2FPyPT3YOnqpu8yXolbk1AM3ndUshRsg0THHoYatRoLJo5DyoP7grcAmAwgWrqqOFLDBUMOh8PhvBa3kCYYfe4Kgqe8bXDjuFJgXbMWuv2+CqPOXBZl+K1P6g0aiv7b9sDU2kbfpYhHJkP9EaMx9tJ1eHXpprcyKF0jpja2cPQ3HFE9nXADK8XYJqmbSiYTFUYiGpkMHRYuhczYWHdniqRm67YYczEC/kNHAADyEx6R9otJOH0V+k75JZ9vQMIwZZTazqsOLF1cJazmxZhYWmFg2EE41Q/U+dnaYCSX441Pv8SI4+f04llJEYMr0zjyU8ztHdBhAcmvTqd4d+2OwfuPVS+xEAB03GG44du5uHL4IGXLYgDbJCqHoyO4YMjhcDgcQcgtLdFp6XIM2nMYTgGV62ZCKNY1aqLj4mWYdDMODcZMMBjvKyre3Xpg2LEzsKntqe9SyDgFNsCww+HosXK93jsaKDeB7gbklVb4OAmK1BTB66Xo7qOIIw4+fjC3d2Bew6vwaN4CzWdq79cmFXJzc7T7fiGGHjoJO++6//zz4ox00nW0Tax9HoqILkXKL+V8W09vvX+HPIU8yq3DEf3nsXJzx9BDJytNp2GNFq0w+vw1tJr9jV460VXl5ci8dVPwekPqeqXgP2Q4gsZN0ncZ/0OTdz/AgB37YGZrp+9SdI4Gap0JhhcP7MOWBT9QtoQD+EKicjg6xDD+suVwOBxOpcGrUxeMuRiJTkuXw8LZRd/lMMHBzx+dli7HxJtxaPzWO8xN+vWBS8NGGHsx8p/OJEPHwskZ7X5YhDHnr6Fm67b6LofsleZuSF5pxNFH1jewqrIyZEZHCT9fT+JIyy/mwLfvAL2c/Sp8evXF2Cs3ETrjo/8RoSnBCsCT9zFLUvWc8kvpXNW1B+CrII9y69njzsLZBcOOnobfgMF6reNVPJ0EGH7sDJwbBOmtjqzoW6R0aUPy1aTSackvqNW2vb7LAPDkb4Y+m7aj/fzFlaJbXAp05WH4+N5dLJo4nmIHkQhgBACldFVxdAUXDDkcDodDxkguR/CUtzHx5h20mDW7UgqHMiMjeHXphgE792NCRDSCp7wNubm5vstiipmdPXqt2YRe6zbDukZNfZfzQixd3dBu3gJMjrmP0Pc+1EuHyIsge6XpsSPoeSiiDsB+bDMzOgqqsjK9nS8UmbExeq7ZBJ9effVy/vM41gvAwLCD6LdtN+zr+LxwjRmxE1OtVJKCe15FWUE+cu/FCV7PunO1IPERKWXYzZDGkcmj3PoXO02tbdBnw1a0+2ER89F2bbBwcka77xdi4vXbaDBmgt5tUtIihH/fGsnlcAsJlbAaaTE2M8OAnftQu10HvdZRt2cfjL18A379B+m1Dn2jC8GwRKHAt8MGo6ggX+iWUgCDAWRKVxVHl3DBkMPhcDiiMbO1Q8svv8aU2/HounxFpfA9sq/jg1ZfzcXk6PsYtPsQ6nTvqfcbDqnxHzwME6/fRssvv4aJlbW+ywEA2Nf1RYcFSzA5+j5C359pMHU9pTLe4D+F0mFoU9uTeaAPZRwZ0O9rJzc3R9/NOxE64yO9fQ841gtAjz/XYdyVm/Du2v2Va63cPcjXL8vLE1vav0gniuisO/zSrlFThg2nk4tSu5GJCVyDQySshoBMhtD3PnziJ9upi15Lsa/jg07/+RlTYh8idMZHBiNiUrpenRsEQW5pKWE10mNiaYWBuw+h0eS3dH62U0AgBu0+hP7b91SKIDrJ0cgkFQw1Gg2WvDkZCbExlG3vALgmUUkcPVA1YhQ5HA6Ho1fk5uYIGj8ZQeMmIencGdwN24H7+/eQ/bakwtG/Pnz79Idv3wFwaxJa5QXCFyG3tESLWbPR+M3piFq7EjdX/gFF8mOd1mBqY4t6A4cgcMx41GzRyqB/DjSvNC+DuXlRK5XIuB4peL0U3X2UG2hjU1O4NNSvV5rM2Bjtvl8I7649EP7Re6QuOm1wb9ocTabPQL3BwwT7X9p5eZPPyb4dy6TDmJ4azjrwhNDJZUiiG2i1OzcIMhgx7Cn2dX0xaO8RPDp2BJcXfo+Uyxd1cq6xmRl8evVFgzET4NW5q0GOnlLEYEOyrtAGY1NTdP7pV3h36YbwmTOgSEmW9Dyn+oEIfX8m6g8fDSM5ly+eotFI62G4deF8nN21g7JlOYA1EpXD0RP8E8fhcDgcdshkqN2uA2q364BO//kZyX+fx729YUg6ewo5cXdI3SnaYOniitrtOqBWuw7w7NAJ9nV9dXJuZcDc0QnNZ85C0xkzEX/0EO7u2YX4wwdRJnzchIRNbU94dugMr85d4dOzT6XprqCM9RpSd2F2bAxpBNVDgtopN9DODRsZjGeoZ4dOGHflJqI3rEHk8mWSCIcWTs6oP2I0GoybBOfABuT9ro2bkPekX78Gr85dyfuehyKi23nVYW5VkUroXHUJamgwoltZQT7ND1WCECJWeHfrAe9uPZB84RxiNq3Hvb1hzH0yTW1sUbt9R/j2HYC6vfroPBCJAnVM35C6Xlng06c/PDt2xvU/liPi56Vkj9VXYWxmBu+uPdBwwmTU6Vb1J0HEoIF0I8nXw09gwzdfU7ZcBDBTonI4eoQLhhwOh8ORBJmxMWq1bf+PQXZpXi5SL19C6pVLSIu4gvz4eBQkJUBdUSH6DGNTU9h6esPexxcuQY3g2jgEro1D/pUqynkxRiYm8OnTHz59+kNVVobHF84h5dLfSL1yEalXLou6CTS1toGDvz+c/OvDPbQZPDt2hoOfvwTVS0tFkQI+vfsJXl+3Vx8Jq6GhKi9Dw4lTBa/36tqD6fkatRpB4ydCqLWSU326aCYlRnI5Gk16E40mTkXSuTO4tzcM8UcOoiAxQdwFZTK4NGyEOl17wrt7T9Ro3kKrLinXxiGkny8AZt2vzg0aCh6JdglqyOTMZ3Fr0lTw+8XjjRbMzxdLaU42gsZPFry+3qChElbDhpqt26Jm67botOQXJIQfx+NzZ5B07jSyom+RHwza1KoN96bNUbNVG9Rs1RYuQQ0NspPwRVB/toYSGMISEytrNJ85C03e+QD394bhzo4tSDp7GsqSEvK1LF1cUatNO3h37Q7ffgNhZmcvQcVVB5lEHoYZiQmYP3YU1CqV0C1pAIYAKJeiHo5+kQEgvdFkRkb4IJ+/FzgcDoejPRqVCoXJSciPj0dRWioqiotQXlAAZWkJKor+mygptzCHsbk5zB0cYensAgtnF1i5u8O2tlelubGobBRnpP9fe/cSo1dZhwH8mSltobUzlEuJSVsKwcpFEhdujEBidGFiEGihQsDLAoNy8YYaQhoVEGRBRFAiIpiQmiARLyywRDRRCkQpl4iUtkgrtAVKL9iZaTt8nctxMRBJQ8N3Zr7h9Jz5/ZJmkknf9zyLposn7/v+0/fSi+l/8T/Zu31bhltvpPXfsbfQuqdPz4w578vM3sMzo6c3h849Ikcs/mDmzF9QcWqYHANbNue1p5/MjjX/ysDmzdm99ZUM7tyRYng4rb7+HDr38MzsHfsz6+h5OepDp+aoU07NkSefkpk9vVXHh/fESKuVXRs3ZNeGf2fg5S0Z2rsnrV19SVGkq7s7M3p7Mn3W7PQsPDa9i45P73HHN27YGMnw4GC2Prk6rz31RF5/fn0GXt6cN3buyNCevenq7s702bMzo6cns46el7kfWJy5Jywe+//yxJOm7EnCJ265KauWX1VqzennLFm9/Nf3dfTth9bgYL758dPzQvtPmwwl+USSVZ3MwcHDCUMAKtM1bVp6Fi5Kz8JFVUdhP7PmHZNZ845p3BUqGI858xdkzvwFOeHMs6uOAgetaTNn5siTTq7FADQmzyGHHZb5p52R+aedUXWURiuKdPydn59ccWmZsjBJroiysNFMSQYAAACoiaLDV5J/d+vNeWjF3WWWrEjy805m4OCjMAQAAACoiaLo3AHDNY89mruuLnUl+ukkl3QsAActhSEAAABAXRTlZlEcyPYtm3PtsqUZbn8I4c4kS5KUn2xD7SgMAQAAAGqiyMSPGA61Wrnu/POya/u2dpcMZ2wi8osT/Tb1oDAEAAAAqIlidOIHDG/7+hVZv/rxMku+neSvE/4wtaEwBAAAAKiJIhO7kvzAHbdn5S/vLLPkniQ/nsg3qR+FIQAAAEBdFKPjvpK89h9/z8++9Y0yS55J8qXxfo/6UhgCAAAA1ERRFOM6Yfj61ldz3WfPzVCr1faSJOck2TOe71FvCkMAAACAmhhPXTg8NJTrLzw/O199pd0lo0kuSrKx/NdoAoUhAAAAQF2M44ThT796WZ59ZFWZJcuTrCz7HZpDYQgAAABQF0VR6g3DP9x2a9khJ/fVlkSEAAADuklEQVQnubFUJhpHYQgAAABQE2XeMHz2kVX5xVXfKbP9+iRfyAQnMVN/CkMAAACAmhhtszDctumlXHv+uRnet6/drQeSLEnSN95sNIfCEAAAAKAm2jlh+MaePfne0rPTt317u9uOJvlckucmko3mUBgCAAAA1MS7FYZFUeRHl1ycjc/8s8y238/Y24WQRGEIAAAAUBtd71IY3nPj9fnbb+4ts+Xvk/xgQqFoHIUhAAAAQE2MFqMHLAyf+NODWXHdNWW2W5vkizHkhP0oDAEAAABq4kAnDLc8vz43XHRBRkdG2t3q9SRnJunvVDaaQ2EIAAAAUBPvNCV5b39/rjlvSfb0tT3geCTJhUk2dDIbzaEwBAAAAKiJ/YeeFKOj+eHnL8ymdWvLbHNlkgc7GoxGURgCAAAA1MT+heGdV1+Vx1c+UGaLu5Pc0tFQNI7CEAAAAKAm3l4YPrTi7tx3801llj+V5CsdD0XjKAwBAAAAauKtwnDNY4/mlsu+XGbp1iRnJRmcjFw0i8IQAAAAoC6Koti26aVcu2xphlqtdlcNJVmWZMvkBaNJFIYAAAAANTEyNNT93SVnZdf2bWWWXZpk1SRFooEOqToAAAAAAO3ZtG7dRwZ3D5RZcmuSOycpDg3lhCEAAABATQzuHnh/ib/+5yRXTlYWmkthCAAAANA8G5NckGS46iDUj8IQAAAAoFn6k3wmyY6qg1BPCkMAAACA5hjJ2MnCNVUHob4UhgAAAADN8bUkf6w6BPWmMAQAAABohruS3FZ1COpPYQgAAABQfw8nubTqEDSDwhAAAACg3jYmWZpkX9VBaAaFIQAAAEB9mYhMx3UlKaoOAQAAAEBpIxkrCw05oaO6k+yuOgQAAAAApV0eZSGToDvJ1qpDAAAAAFDKDUlurzoEzdSdZEPVIQAAAABo26+SLK86BM3VHUdXAQAAAOri4SQXx0wKJlFXkmMzdspwWsVZAAAAADiwXUmOe/MnTJppSfoy9o/twxVnAQAAAODAzkzyXNUhaL6uN38uSLI2yewKswAAAADwzn6b5NyqQzA1vHUNuT/JuiTL8v8SEQAAAIDqvZDkU0mGqg7C1PD2dwvXJtmb5JNRGgIAAAAcDF5NcnqSHVUHYerYf9DJY0nWJPl0khnvfRwAAAAA3rQ6yceSbK06CFNL9zv87r4kJya5I8nIexsHAAAAYMobSHJ5ko8m2VlxFqagd7t6vDDJWRk7cbgoyfwYjAIAAADQKaNJXsvY1ePVSe5P8pck+6oMxdT2PzHWda3lLwuDAAAAAElFTkSuQmCC;" vertex="1" parent="1">
          <mxGeometry x="480" y="150" width="144.97" height="90" as="geometry" />
        </mxCell>
        <mxCell id="52dAqy6KReUIFX3L-IGi-65" value="" style="shape=image;verticalLabelPosition=bottom;labelBackgroundColor=default;verticalAlign=top;aspect=fixed;imageAspect=0;image=data:image/svg+xml,PHN2ZyB4bWxuczp4bGluaz0iaHR0cDovL3d3dy53My5vcmcvMTk5OS94bGluayIgeG1sbnM9Imh0dHA6Ly93d3cudzMub3JnLzIwMDAvc3ZnIiB2aWV3Qm94PSItMC41IC0wLjUgNDY0IDI2MSIgaGVpZ2h0PSIyNjFweCIgd2lkdGg9IjQ2NHB4IiB2ZXJzaW9uPSIxLjEiIHN0eWxlPSJiYWNrZ3JvdW5kOiB0cmFuc3BhcmVudDsgYmFja2dyb3VuZC1jb2xvcjogdHJhbnNwYXJlbnQ7Ij48ZGVmcz48cmFkaWFsR3JhZGllbnQgaWQ9ImRyYXdpby1zdmctZFYyanJpSkNpU09FWTJmNXhOb2wtZ3JhZGllbnQtbGlnaHQtZGFya19mZmU2Y2NfMzYyMTBhXy0xLWxpZ2h0LWRhcmtfZGFlOGZjX2VkZWRlZF8tMS1yLTAiIHkyPSIwJSIgeDI9IjAlIiB5MT0iMCUiIHgxPSIwJSI+PHN0b3Agc3R5bGU9InN0b3AtY29sb3I6IGxpZ2h0LWRhcmsocmdiKDI1NSwgMjMwLCAyMDQpLCByZ2IoNTQsIDMzLCAxMCkpOyBzdG9wLW9wYWNpdHk6IDE7IiBzdG9wLW9wYWNpdHk9IjEiIHN0b3AtY29sb3I9IiNmZmU2Y2MiIG9mZnNldD0iMCUiLz48c3RvcCBzdHlsZT0ic3RvcC1jb2xvcjogbGlnaHQtZGFyayhyZ2IoMjE4LCAyMzIsIDI1MiksIHJnYigyMzcsIDIzNywgMjM3KSk7IHN0b3Atb3BhY2l0eTogMTsiIHN0b3Atb3BhY2l0eT0iMSIgc3RvcC1jb2xvcj0iI2RhZThmYyIgb2Zmc2V0PSIxMDAlIi8+PC9yYWRpYWxHcmFkaWVudD48L2RlZnM+PGc+PGcvPjxnPjxwYXRoIHN0eWxlPSJmaWxsOiB1cmwoJnF1b3Q7I2RyYXdpby1zdmctZFYyanJpSkNpU09FWTJmNXhOb2wtZ3JhZGllbnQtbGlnaHQtZGFya19mZmU2Y2NfMzYyMTBhXy0xLWxpZ2h0LWRhcmtfZGFlOGZjX2VkZWRlZF8tMS1yLTAmcXVvdDspOyBzdHJva2U6IGxpZ2h0LWRhcmsocmdiKDAsIDAsIDApLCByZ2IoMTUzLCAxMDEsIDApKTsiIHBvaW50ZXItZXZlbnRzPSJhbGwiIHRyYW5zZm9ybT0icm90YXRlKDkwLDIzMiwxMzAuNSkiIHN0cm9rZS1taXRlcmxpbWl0PSIxMCIgc3Ryb2tlLXdpZHRoPSI0IiBzdHJva2U9IiMwMDAwMDAiIGZpbGw9InVybCgjZHJhd2lvLXN2Zy1kVjJqcmlKQ2lTT0VZMmY1eE5vbC1ncmFkaWVudC1saWdodC1kYXJrX2ZmZTZjY18zNjIxMGFfLTEtbGlnaHQtZGFya19kYWU4ZmNfZWRlZGVkXy0xLXItMCkiIGQ9Ik0gMTAzLjUgLTk5LjUgTCAzMTAuNSAtOTkuNSBMIDM2MC41IC00OS41IEwgMzYwLjUgMzYwLjUgTCAxNTMuNSAzNjAuNSBMIDEwMy41IDMxMC41IEwgMTAzLjUgLTk5LjUgWiIvPjxwYXRoIHN0eWxlPSJmaWxsOiBsaWdodC1kYXJrKHJnYigwLCAwLCAwKSwgcmdiKDIzNywgMjM3LCAyMzcpKTsiIHBvaW50ZXItZXZlbnRzPSJhbGwiIHRyYW5zZm9ybT0icm90YXRlKDkwLDIzMiwxMzAuNSkiIHN0cm9rZT0ibm9uZSIgZmlsbD0iIzAwMDAwMCIgZmlsbC1vcGFjaXR5PSIwLjA1IiBkPSJNIDEwMy41IC05OS41IEwgMzEwLjUgLTk5LjUgTCAzNjAuNSAtNDkuNSBMIDE1My41IC00OS41IFoiLz48cGF0aCBzdHlsZT0iZmlsbDogbGlnaHQtZGFyayhyZ2IoMCwgMCwgMCksIHJnYigyMzcsIDIzNywgMjM3KSk7IiBwb2ludGVyLWV2ZW50cz0iYWxsIiB0cmFuc2Zvcm09InJvdGF0ZSg5MCwyMzIsMTMwLjUpIiBzdHJva2U9Im5vbmUiIGZpbGw9IiMwMDAwMDAiIGZpbGwtb3BhY2l0eT0iMC4xIiBkPSJNIDEwMy41IC05OS41IEwgMTUzLjUgLTQ5LjUgTCAxNTMuNSAzNjAuNSBMIDEwMy41IDMxMC41IFoiLz48cGF0aCBzdHlsZT0ic3Ryb2tlOiBsaWdodC1kYXJrKHJnYigwLCAwLCAwKSwgcmdiKDE1MywgMTAxLCAwKSk7IiBwb2ludGVyLWV2ZW50cz0iYWxsIiB0cmFuc2Zvcm09InJvdGF0ZSg5MCwyMzIsMTMwLjUpIiBzdHJva2UtbWl0ZXJsaW1pdD0iMTAiIHN0cm9rZS13aWR0aD0iNCIgc3Ryb2tlPSIjMDAwMDAwIiBmaWxsPSJub25lIiBkPSJNIDE1My41IDM2MC41IEwgMTUzLjUgLTQ5LjUgTCAxMDMuNSAtOTkuNSBNIDE1My41IC00OS41IEwgMzYwLjUgLTQ5LjUiLz48L2c+PGc+PHJlY3QgcG9pbnRlci1ldmVudHM9ImFsbCIgc3Ryb2tlPSJub25lIiBmaWxsPSJub25lIiBoZWlnaHQ9IjYwIiB3aWR0aD0iODAiIHk9IjE1OSIgeD0iMTcyIi8+PHBhdGggc3R5bGU9ImZpbGw6IGxpZ2h0LWRhcmsocmdiKDAsIDAsIDApLCByZ2IoMTY4LCAxNjgsIDE2OCkpOyIgcG9pbnRlci1ldmVudHM9ImFsbCIgc3Ryb2tlPSJub25lIiBmaWxsPSIjMDAwMDAwIiBkPSJNIDE4My40MyAyMDQuMjkgQyAxNzguNzcgMjAzLjQgMTc1LjAxIDIwMC4xNyAxNzMuNjQgMTk1Ljg4IEMgMTcyIDE5MS43MSAxNzIuNzQgMTg3LjA0IDE3NS42MiAxODMuNTEgQyAxNzguMTYgMTgwLjI2IDE4Mi4yNCAxNzguNDEgMTg2LjUzIDE3OC41NyBDIDE4OC45NiAxNzUuMDYgMTkzLjM5IDE3My4yNSAxOTcuNzggMTczLjk3IEMgMTk4LjAxIDE3MC4yMiAxOTkuNjkgMTY2LjY4IDIwMi41IDE2NC4wMiBDIDIwNi40NiAxNjAuMTYgMjEyLjU1IDE1OSAyMTcuNzkgMTYxLjExIEMgMjIxLjA5IDE2Mi4zMSAyMjMuNzYgMTY0LjY1IDIyNS4yNyAxNjcuNjYgQyAyMjkuMjEgMTY1LjY5IDIzMy45NiAxNjUuNzggMjM3LjgxIDE2Ny45IEMgMjQxLjUgMTY5Ljc3IDI0NC4xNiAxNzMuMDQgMjQ1LjExIDE3Ni44OCBDIDI0NS42MyAxNzguNTggMjQ1Ljc1IDE4MC4zOCAyNDUuNDUgMTgyLjEzIEMgMjQ5LjUyIDE4NC4zNCAyNTEuOTkgMTg4LjQ2IDI1MS45IDE5Mi44OCBDIDI1MS43OSAxOTYuODggMjQ5LjYxIDIwMC41NyAyNDYuMDYgMjAyLjc1IEMgMjQ1LjQ4IDIwMS44NiAyNDQuNzkgMjAxLjA1IDI0My45OSAyMDAuMzIgQyAyNDYuOTMgMTk4LjY1IDI0OC42NyAxOTUuNjIgMjQ4LjU1IDE5Mi40IEMgMjQ4LjUxIDE5MC4wNSAyNDcuNDkgMTg3LjgyIDI0NS43MSAxODYuMTcgQyAyNDQuNTkgMTg1LjI3IDI0My4zNSAxODQuNTEgMjQyLjAyIDE4My45MSBDIDI0Mi41OCAxODEuNyAyNDIuNTUgMTc5LjQgMjQxLjkzIDE3Ny4yIEMgMjQwLjg2IDE3NC4yMyAyMzguNjIgMTcxLjc3IDIzNS42NiAxNzAuMzMgQyAyMzMuNTIgMTY5LjM3IDIzMS4wOSAxNjkuMTUgMjI4Ljc5IDE2OS42OCBDIDIyNy4xMiAxNzAuMiAyMjUuNSAxNzAuODggMjIzLjk4IDE3MS43IEwgMjIxLjU3IDE2Ny41OCBDIDIxOS45IDE2NS40OCAyMTcuNTUgMTYzLjk1IDIxNC44NyAxNjMuMjEgQyAyMTEuMTkgMTYyLjUyIDIwNy4zOCAxNjMuNjEgMjA0Ljc0IDE2Ni4xMiBDIDIwMi43IDE2Ny45OSAyMDEuMzcgMTcwLjQzIDIwMC45NiAxNzMuMDggTCAyMDAuNzkgMTc3LjYgTCAxOTYuOTIgMTc2Ljg4IEMgMTk0LjE2IDE3Ni41IDE5MS40MSAxNzcuNTUgMTg5LjcgMTc5LjYzIEwgMTg4LjA3IDE4MS44MSBDIDE4Ni42MSAxODEuNjYgMTg1LjE0IDE4MS42OSAxODMuNjkgMTgxLjg5IEMgMTgwLjI2IDE4Mi43OSAxNzcuNTYgMTg1LjMgMTc2LjU2IDE4OC41MiBDIDE3NS42OCAxOTEuMjEgMTc1Ljk5IDE5NC4xMyAxNzcuNDIgMTk2LjYgQyAxNzguODUgMTk5LjExIDE4MS40NyAyMDAuODMgMTg0LjQ2IDIwMS4yMSBMIDIwOCAyMDEuMjEgQyAyMDcuMjggMjAyLjE1IDIwNi43IDIwMy4xOSAyMDYuMjggMjA0LjI5IFogTSAyMTcuMTEgMTg4Ljc2IEMgMjE3LjExIDE4My40NyAyMjEuMjMgMTc5LjE2IDIyNi4zOCAxNzkuMDYgQyAyMzEuMzEgMTc5LjA0IDIzNS40MiAxODIuOTEgMjM1LjgzIDE4Ny45NSBDIDIzNi4xNyAxOTAuNzMgMjM1LjMzIDE5My41MiAyMzMuNTIgMTk1LjYxIEMgMjMxLjcxIDE5Ny43IDIyOS4xMSAxOTguODkgMjI2LjM4IDE5OC44NyBDIDIyMy44NCAxOTguODIgMjIxLjQyIDE5Ny43MiAyMTkuNjcgMTk1LjgyIEMgMjE3LjkzIDE5My45MiAyMTcgMTkxLjM3IDIxNy4xMSAxODguNzYgWiBNIDIwNy4yMyAyMTkgQyAyMDcuNTEgMjE0LjYyIDIwOC4xNyAyMTAuMjYgMjA5LjIgMjA1Ljk4IEMgMjA5LjU4IDIwNC41NyAyMTAuNDYgMjAzLjMxIDIxMS43IDIwMi40MyBDIDIxMy4yMyAyMDEuNDMgMjE0Ljg3IDIwMC41OSAyMTYuNTkgMTk5LjkyIEMgMjE3LjI2IDE5OS40OSAyMTguMTUgMTk5LjU2IDIxOC43NCAyMDAuMDggQyAyMjAuNSAyMDEuODUgMjIzLjQzIDIwMi45MiAyMjYuNTYgMjAyLjkyIEMgMjI5LjY5IDIwMi45MiAyMzIuNjIgMjAxLjg1IDIzNC4zNyAyMDAuMDggQyAyMzQuOTQgMTk5LjYgMjM1Ljc5IDE5OS41MyAyMzYuNDMgMTk5LjkyIEMgMjM4LjE0IDIwMC40OSAyMzkuNzMgMjAxLjMxIDI0MS4xNiAyMDIuMzQgQyAyNDIuNTcgMjAzLjI5IDI0My41NiAyMDQuNzEgMjQzLjkxIDIwNi4zMSBDIDI0NC45NSAyMTAuNDggMjQ1LjY0IDIxNC43MiAyNDUuOTcgMjE5IFoiLz48L2c+PGc+PHJlY3QgcG9pbnRlci1ldmVudHM9ImFsbCIgc3Ryb2tlPSJub25lIiBmaWxsPSJub25lIiBoZWlnaHQ9IjMwIiB3aWR0aD0iMzQwIiB5PSI3OSIgeD0iMzQiLz48L2c+PGc+PGcgdHJhbnNmb3JtPSJ0cmFuc2xhdGUoLTAuNSAtMC41KSI+PHN3aXRjaD48Zm9yZWlnbk9iamVjdCByZXF1aXJlZEZlYXR1cmVzPSJodHRwOi8vd3d3LnczLm9yZy9UUi9TVkcxMS9mZWF0dXJlI0V4dGVuc2liaWxpdHkiIGhlaWdodD0iMTAwJSIgd2lkdGg9IjEwMCUiIHBvaW50ZXItZXZlbnRzPSJub25lIiBzdHlsZT0ib3ZlcmZsb3c6IHZpc2libGU7IHRleHQtYWxpZ246IGxlZnQ7Ij48ZGl2IHhtbG5zPSJodHRwOi8vd3d3LnczLm9yZy8xOTk5L3hodG1sIiBzdHlsZT0iZGlzcGxheTogZmxleDsgYWxpZ24taXRlbXM6IHVuc2FmZSBjZW50ZXI7IGp1c3RpZnktY29udGVudDogdW5zYWZlIGNlbnRlcjsgd2lkdGg6IDMzOHB4OyBoZWlnaHQ6IDFweDsgcGFkZGluZy10b3A6IDk0cHg7IG1hcmdpbi1sZWZ0OiAzNXB4OyI+PGRpdiBzdHlsZT0iYm94LXNpemluZzogYm9yZGVyLWJveDsgZm9udC1zaXplOiAwOyB0ZXh0LWFsaWduOiBjZW50ZXI7IGNvbG9yOiAjMDAwMDAwOyI+PGRpdiBzdHlsZT0iZGlzcGxheTogaW5saW5lLWJsb2NrOyBmb250LXNpemU6IDEycHg7IGZvbnQtZmFtaWx5OiAmcXVvdDtIZWx2ZXRpY2EmcXVvdDs7IGNvbG9yOiBsaWdodC1kYXJrKCMwMDAwMDAsICNmZmZmZmYpOyBsaW5lLWhlaWdodDogMS4yOyBwb2ludGVyLWV2ZW50czogYWxsOyB3aGl0ZS1zcGFjZTogbm9ybWFsOyB3b3JkLXdyYXA6IG5vcm1hbDsiPjxmb250IGZhY2U9IlRhaG9tYSIgc3R5bGU9ImZvbnQtc2l6ZTogNDVweDsiPjxpIHN0eWxlPSIiPlNlcnZlcmxlc3NZQVJOPC9pPjwvZm9udD48L2Rpdj48L2Rpdj48L2Rpdj48L2ZvcmVpZ25PYmplY3Q+PHRleHQgdGV4dC1hbmNob3I9Im1pZGRsZSIgZm9udC1zaXplPSIxMnB4IiBmb250LWZhbWlseT0iJnF1b3Q7SGVsdmV0aWNhJnF1b3Q7IiBmaWxsPSJsaWdodC1kYXJrKCMwMDAwMDAsICNmZmZmZmYpIiB5PSI5OCIgeD0iMjA0Ij5TZXJ2ZXJsZXNzWUFSTjwvdGV4dD48L3N3aXRjaD48L2c+PC9nPjxnPjxwYXRoIHN0eWxlPSJzdHJva2U6IGxpZ2h0LWRhcmsocmdiKDAsIDAsIDApLCByZ2IoMjU1LCAyNTUsIDI1NSkpOyIgcG9pbnRlci1ldmVudHM9InN0cm9rZSIgc3Ryb2tlLW1pdGVybGltaXQ9IjEwIiBzdHJva2Utd2lkdGg9IjIiIHN0cm9rZT0iIzAwMDAwMCIgZmlsbD0ibm9uZSIgZD0iTSAyMzkgMTY5IEwgMjgyIDE0OSIvPjwvZz48Zz48cGF0aCBzdHlsZT0ic3Ryb2tlOiBsaWdodC1kYXJrKHJnYigwLCAwLCAwKSwgcmdiKDI1NSwgMjU1LCAyNTUpKTsiIHBvaW50ZXItZXZlbnRzPSJzdHJva2UiIHN0cm9rZS1taXRlcmxpbWl0PSIxMCIgc3Ryb2tlLXdpZHRoPSIyIiBzdHJva2U9IiMwMDAwMDAiIGZpbGw9Im5vbmUiIGQ9Ik0gMjgyIDE0OSBMIDMxMiAxNDkiLz48L2c+PGc+PHJlY3QgcG9pbnRlci1ldmVudHM9ImFsbCIgc3Ryb2tlPSJub25lIiBmaWxsPSJub25lIiBoZWlnaHQ9IjMwIiB3aWR0aD0iNDAiIHk9IjEzOSIgeD0iMzIyIi8+PHBhdGggc3R5bGU9ImZpbGw6IGxpZ2h0LWRhcmsocmdiKDAsIDAsIDApLCByZ2IoMjM3LCAyMzcsIDIzNykpOyIgcG9pbnRlci1ldmVudHM9ImFsbCIgc3Ryb2tlPSJub25lIiBmaWxsPSIjMDAwMDAwIiBkPSJNIDM0OS45IDE2OSBMIDM0OS45IDE2NS45IEwgMzU4LjA1IDE2MS44MyBMIDM0OS45IDE1Ny4yMyBMIDM0OS45IDE1NC4wMiBMIDM2MiAxNjAuODUgTCAzNjIgMTYyLjggWiBNIDM0NC43MyAxNjkgTCAzMzIuNjMgMTYyLjggTCAzMzIuNjMgMTYwLjg0IEwgMzQ0LjczIDE1NC4wMyBMIDM0NC43MyAxNTcuMjMgTCAzMzYuNTggMTYxLjgzIEwgMzQ0LjczIDE2NS45IFogTSAzMjMuOTggMTY2Ljg4IEMgMzIzLjAyIDE2Ni44OCAzMjIgMTY2LjAyIDMyMiAxNjQuODUgTCAzMjIgMTQxLjA0IEMgMzIyIDEzOS44MSAzMjMuMDQgMTM5IDMyMy45OCAxMzkgTCAzNTUuOTUgMTM5IEMgMzU3LjEyIDEzOSAzNTcuOTQgMTQwLjA1IDM1Ny45NCAxNDEuMDIgTCAzNTcuOTQgMTU2Ljc3IEwgMzU2LjQyIDE1NS45MiBMIDM1Ni40MiAxNDQuMTYgTCAzMjMuNTIgMTQ0LjE2IEwgMzIzLjUyIDE2NC44NSBDIDMyMy41NSAxNjUuMTMgMzIzLjY4IDE2NS4zMiAzMjQuMDIgMTY1LjM0IEwgMzM0LjE1IDE2NS4zNCBMIDMzNy4xNSAxNjYuODggWiBNIDM0OC44MyAxNDIuMSBMIDM1MC4zNSAxNDIuMSBMIDM1MC4zNSAxNDAuNTUgTCAzNDguODMgMTQwLjU1IFogTSAzNTEuODcgMTQyLjEgTCAzNTMuMzkgMTQyLjEgTCAzNTMuMzkgMTQwLjU1IEwgMzUxLjg3IDE0MC41NSBaIE0gMzU0LjkxIDE0Mi4xIEwgMzU2LjQyIDE0Mi4xIEwgMzU2LjQyIDE0MC41NSBMIDM1NC45MSAxNDAuNTUgWiIvPjwvZz48Zz48cGF0aCBzdHlsZT0ic3Ryb2tlOiBsaWdodC1kYXJrKHJnYigwLCAwLCAwKSwgcmdiKDI1NSwgMjU1LCAyNTUpKTsiIHBvaW50ZXItZXZlbnRzPSJzdHJva2UiIHN0cm9rZS1taXRlcmxpbWl0PSIxMCIgc3Ryb2tlLXdpZHRoPSIyIiBzdHJva2U9IiMwMDAwMDAiIGZpbGw9Im5vbmUiIGQ9Ik0gMjUwIDE5MiBMIDI4MiAyMTkiLz48L2c+PGc+PHBhdGggc3R5bGU9InN0cm9rZTogbGlnaHQtZGFyayhyZ2IoMCwgMCwgMCksIHJnYigyNTUsIDI1NSwgMjU1KSk7IiBwb2ludGVyLWV2ZW50cz0ic3Ryb2tlIiBzdHJva2UtbWl0ZXJsaW1pdD0iMTAiIHN0cm9rZS13aWR0aD0iMiIgc3Ryb2tlPSIjMDAwMDAwIiBmaWxsPSJub25lIiBkPSJNIDI4MiAyMTkgTCAzMjIuMTYgMjE3Ljg4Ii8+PC9nPjxnPjxyZWN0IHBvaW50ZXItZXZlbnRzPSJhbGwiIHN0cm9rZT0ibm9uZSIgZmlsbD0ibm9uZSIgaGVpZ2h0PSI0MCIgd2lkdGg9IjUwIiB5PSIxOTkiIHg9IjMzMiIvPjxwYXRoIHN0eWxlPSJmaWxsOiBsaWdodC1kYXJrKHJnYigwLCAwLCAwKSwgcmdiKDE2OCwgMTY4LCAxNjgpKTsiIHBvaW50ZXItZXZlbnRzPSJhbGwiIHN0cm9rZT0ibm9uZSIgZmlsbD0iIzAwMDAwMCIgZD0iTSAzNjMuMDQgMjI2LjY4IEMgMzYzLjA0IDIzMC42NiAzNjYuMzcgMjMzLjEzIDM2OS42MSAyMzMuMTMgQyAzNzMuMTQgMjMzLjEzIDM3Ni4wNSAyMzAuMTggMzc2LjA1IDIyNi43NCBDIDM3Ni4wNSAyMjMuMDYgMzcyLjkxIDIyMC4yOSAzNjkuNjMgMjIwLjI5IEMgMzY2LjQyIDIyMC4yOSAzNjMuMDQgMjIyLjY4IDM2My4wNCAyMjYuNjggWiBNIDM2MC4yMiAyMjUuMDQgTCAzNTcuNjQgMjI0IEMgMzU3LjI3IDIyMy43OSAzNTcuMTEgMjIzLjUgMzU3LjI2IDIyMy4wNyBMIDM1OC4yNCAyMjAuNzcgQyAzNTguNDYgMjIwLjQyIDM1OC43NCAyMjAuMjIgMzU5LjE3IDIyMC4zOCBMIDM2MS41OCAyMjEuNTggQyAzNjIuMzQgMjIwLjY4IDM2My4xOCAyMTkuOCAzNjQuMTEgMjE5LjAyIEwgMzYzLjA2IDIxNi40OCBDIDM2Mi45OCAyMTYuMTggMzYyLjk1IDIxNS44OCAzNjMuNCAyMTUuNiBMIDM2NS44MSAyMTQuNTkgQyAzNjYuMjYgMjE0LjQ1IDM2Ni41MyAyMTQuNjQgMzY2LjY4IDIxNC45MSBMIDM2Ny43NiAyMTcuNTIgQyAzNjguODUgMjE3LjMxIDM2OS45MiAyMTcuMjEgMzcxLjE4IDIxNy41NyBMIDM3Mi4yNyAyMTQuOTMgQyAzNzIuNTEgMjE0LjU2IDM3Mi44MiAyMTQuNDYgMzczLjE4IDIxNC41OSBMIDM3NS41OCAyMTUuNiBDIDM3NS45OCAyMTUuODQgMzc2LjAyIDIxNi4xNCAzNzUuOTIgMjE2LjQ1IEwgMzc0Ljg1IDIxOS4wNSBDIDM3NS43OCAyMTkuNzkgMzc2LjY1IDIyMC41OSAzNzcuMzYgMjIxLjQ4IEwgMzc5Ljk0IDIyMC40NCBDIDM4MC40IDIyMC4zMiAzODAuNjggMjIwLjQ5IDM4MC44NSAyMjAuODMgTCAzODEuODYgMjIzLjIgQyAzODEuOTIgMjIzLjU1IDM4MS44NSAyMjMuODQgMzgxLjUgMjI0LjA0IEwgMzc4Ljg3IDIyNS4wOSBDIDM3OSAyMjYuMSAzNzguOTggMjI3LjM4IDM3OC44NyAyMjguNSBMIDM4MS41IDIyOS41NSBDIDM4MS44NSAyMjkuNzYgMzgyIDIzMC4wNCAzODEuODkgMjMwLjQxIEwgMzgwLjk0IDIzMi42MyBDIDM4MC43NiAyMzIuOTIgMzgwLjQ5IDIzMy4wNiAzODAuMTIgMjMyLjk3IEwgMzc3LjQ3IDIzMS45MSBDIDM3Ni43NiAyMzIuODUgMzc1Ljg5IDIzMy42OSAzNzQuOTIgMjM0LjQxIEwgMzc1Ljk2IDIzNi45NiBDIDM3Ni4xMyAyMzcuMzcgMzc1LjkyIDIzNy43MiAzNzUuNjcgMjM3Ljg1IEwgMzczLjEzIDIzOC44OSBDIDM3Mi43OCAyMzguOTUgMzcyLjQ3IDIzOC45MyAzNzIuMzMgMjM4LjUgTCAzNzEuMjUgMjM1Ljg5IEMgMzcwLjI4IDIzNi4xNyAzNjkuMDcgMjM2LjIzIDM2Ny44NCAyMzUuOTIgTCAzNjYuNzggMjM4LjQ5IEMgMzY2LjYxIDIzOC43NyAzNjYuNDEgMjM5IDM2NS45NCAyMzguODggTCAzNjMuNDYgMjM3Ljg2IEMgMzYzLjEgMjM3LjYyIDM2Mi45NSAyMzcuMzEgMzYzLjE3IDIzNi45IEwgMzY0LjM1IDIzNC41OCBDIDM2My4zIDIzMy44IDM2Mi40NCAyMzIuOTcgMzYxLjc1IDIzMi4xIEwgMzU5LjIyIDIzMy4xMiBDIDM1OC44MiAyMzMuMjcgMzU4LjUgMjMzLjE3IDM1OC4yNyAyMzIuOCBMIDM1Ny4yNiAyMzAuNDEgQyAzNTcuMTUgMjMwLjA5IDM1Ny4yMyAyMjkuNzMgMzU3LjYgMjI5LjU1IEwgMzYwLjIzIDIyOC40MiBDIDM2MC4xMiAyMjcuMjkgMzYwLjEyIDIyNi4xNyAzNjAuMjIgMjI1LjA0IFogTSAzNzMgMjAyLjc1IEwgMzc0Ljg5IDIwMi43NSBMIDM3NC44OSAyMDAuODggTCAzNzMgMjAwLjg4IFogTSAzNjkuMjEgMjAyLjc1IEwgMzcxLjEgMjAyLjc1IEwgMzcxLjEgMjAwLjg4IEwgMzY5LjIxIDIwMC44OCBaIE0gMzY1LjQzIDIwMi43NSBMIDM2Ny4zMiAyMDIuNzUgTCAzNjcuMzIgMjAwLjg4IEwgMzY1LjQzIDIwMC44OCBaIE0gMzU2LjMxIDIzMi42NSBMIDMzNC41OCAyMzIuNjUgQyAzMzMuMTYgMjMyLjY3IDMzMi4wOCAyMzEuNTggMzMyIDIzMC4zMSBMIDMzMiAyMDEuNDYgQyAzMzIuMDggMTk5LjgxIDMzMy40MiAxOTkgMzM0LjUyIDE5OS4wMSBMIDM3NC4zMiAxOTkuMDEgQyAzNzUuNzEgMTk5LjAxIDM3Ni44IDIwMC4yMyAzNzYuNzkgMjAxLjQ2IEwgMzc2Ljc5IDIxNC4xNSBDIDM3Ni41NiAyMTMuOTMgMzc1LjU5IDIxMy41OCAzNzQuOSAyMTMuMjkgTCAzNzQuOSAyMDUuMjQgTCAzMzMuODkgMjA1LjI0IEwgMzMzLjg5IDIzMC4xNyBDIDMzMy45MSAyMzAuNTUgMzM0LjExIDIzMC43NyAzMzQuNTEgMjMwLjc4IEwgMzU1LjU0IDIzMC43OCBDIDM1NS43OCAyMzEuNDEgMzU2LjA1IDIzMi4wMyAzNTYuMzEgMjMyLjY1IFoiLz48L2c+PGc+PHBhdGggc3R5bGU9InN0cm9rZTogbGlnaHQtZGFyayhyZ2IoMCwgMCwgMCksIHJnYigyNTUsIDI1NSwgMjU1KSk7IiBwb2ludGVyLWV2ZW50cz0ic3Ryb2tlIiBzdHJva2UtbWl0ZXJsaW1pdD0iMTAiIHN0cm9rZS13aWR0aD0iMiIgc3Ryb2tlPSIjMDAwMDAwIiBmaWxsPSJub25lIiBkPSJNIDEwNSAxNTkgTCAxMzggMTU5Ii8+PC9nPjxnPjxwYXRoIHN0eWxlPSJzdHJva2U6IGxpZ2h0LWRhcmsocmdiKDAsIDAsIDApLCByZ2IoMjU1LCAyNTUsIDI1NSkpOyIgcG9pbnRlci1ldmVudHM9InN0cm9rZSIgc3Ryb2tlLW1pdGVybGltaXQ9IjEwIiBzdHJva2Utd2lkdGg9IjIiIHN0cm9rZT0iIzAwMDAwMCIgZmlsbD0ibm9uZSIgZD0iTSAxMzggMTU5IEwgMTc4IDE4NiIvPjwvZz48Zz48cmVjdCBwb2ludGVyLWV2ZW50cz0iYWxsIiBzdHJva2U9Im5vbmUiIGZpbGw9Im5vbmUiIGhlaWdodD0iMzUiIHdpZHRoPSI0MCIgeT0iMTM5IiB4PSI1MiIvPjxwYXRoIHN0eWxlPSJmaWxsOiBsaWdodC1kYXJrKHJnYigwLCAwLCAwKSwgcmdiKDE2OCwgMTY4LCAxNjgpKTsiIHBvaW50ZXItZXZlbnRzPSJhbGwiIHN0cm9rZT0ibm9uZSIgZmlsbD0iIzAwMDAwMCIgZD0iTSA4MS44NyAxNDIuOSBMIDgzLjU1IDE0Mi45IEwgODMuNTUgMTQwLjk2IEwgODEuODcgMTQwLjk2IFogTSA4NS4yNCAxNDIuOSBMIDg2LjkzIDE0Mi45IEwgODYuOTMgMTQwLjk2IEwgODUuMjQgMTQwLjk2IFogTSA4OC42MiAxNDIuOSBMIDkwLjMxIDE0Mi45IEwgOTAuMzEgMTQwLjk2IEwgODguNjIgMTQwLjk2IFogTSA4OS43MyAxNzIuMDUgQyA5MC4xNiAxNzIuMDUgOTAuMzEgMTcxLjcyIDkwLjMxIDE3MS4zOCBMIDkwLjMxIDE0NS40OSBMIDUzLjY5IDE0NS40OSBMIDUzLjY5IDE3MS4zNCBDIDUzLjcgMTcxLjcxIDUzLjgxIDE3MiA1NC4yNCAxNzIuMDUgWiBNIDUyIDE3MS40MiBMIDUyIDE0MS40NiBDIDUyIDE0MC4zOCA1Mi44MyAxMzkgNTQuMzcgMTM5IEwgODkuNyAxMzkgQyA5MS4wMSAxMzkgOTIgMTQwLjIgOTIgMTQxLjU1IEwgOTIgMTcxLjMzIEMgOTIgMTcyLjYzIDkxLjE4IDE3NCA4OS43IDE3NCBMIDU0LjE5IDE3My45OSBDIDUzLjAxIDE3My45OSA1MiAxNzIuOCA1MiAxNzEuNDIgWiIvPjwvZz48Zz48cGF0aCBzdHlsZT0ic3Ryb2tlOiBsaWdodC1kYXJrKHJnYigwLCAwLCAwKSwgcmdiKDI1NSwgMjU1LCAyNTUpKTsiIHBvaW50ZXItZXZlbnRzPSJzdHJva2UiIHN0cm9rZS1taXRlcmxpbWl0PSIxMCIgc3Ryb2tlLXdpZHRoPSIyIiBzdHJva2U9IiMwMDAwMDAiIGZpbGw9Im5vbmUiIGQ9Ik0gMTQyIDIxOSBMIDE4MiAyMDIuNSIvPjwvZz48Zz48cGF0aCBzdHlsZT0ic3Ryb2tlOiBsaWdodC1kYXJrKHJnYigwLCAwLCAwKSwgcmdiKDI1NSwgMjU1LCAyNTUpKTsiIHBvaW50ZXItZXZlbnRzPSJzdHJva2UiIHN0cm9rZS1taXRlcmxpbWl0PSIxMCIgc3Ryb2tlLXdpZHRoPSIyIiBzdHJva2U9IiMwMDAwMDAiIGZpbGw9Im5vbmUiIGQ9Ik0gMTA1IDIxOSBMIDE0MiAyMTkiLz48L2c+PGc+PHJlY3QgcG9pbnRlci1ldmVudHM9ImFsbCIgc3Ryb2tlPSJub25lIiBmaWxsPSJub25lIiBoZWlnaHQ9IjQwIiB3aWR0aD0iNDkiIHk9IjE5OSIgeD0iNDMiLz48cGF0aCBzdHlsZT0iZmlsbDogbGlnaHQtZGFyayhyZ2IoMCwgMCwgMCksIHJnYigxNjgsIDE2OCwgMTY4KSk7IiBwb2ludGVyLWV2ZW50cz0iYWxsIiBzdHJva2U9Im5vbmUiIGZpbGw9IiMwMDAwMDAiIGQ9Ik0gODQuMzQgMjE2Ljc2IEMgODUuODkgMjE3LjMxIDg3LjAyIDIxOC4xMSA4Ny45NyAyMTkuMDEgQyA4Ny40MyAyMTkuMzIgODYuODYgMjE5LjYgODYuMTkgMjE5Ljg2IEMgODUuNTEgMjE4LjI4IDg0LjkyIDIxNy40NCA4NC4zNCAyMTYuNzYgWiBNIDg2LjY3IDIyMS4wMSBDIDg3LjQ5IDIyMC42OCA4OC4yNiAyMjAuMyA4OC45NyAyMTkuODcgQyA5MC42MiAyMjEuNzIgOTAuOTkgMjIyLjk3IDkxLjQyIDIyNC4xNCBDIDkwLjI2IDIyNC45MyA4OS4wMyAyMjUuNiA4Ny42NyAyMjYuMDEgQyA4Ny41MiAyMjQuNDkgODcuMzEgMjIyLjkyIDg2LjY3IDIyMS4wMSBaIE0gODcuNjkgMjI3LjIgQyA4OS4yNSAyMjYuNzQgOTAuNTcgMjI2LjE0IDkxLjY2IDIyNS4zOSBDIDkyIDIyNy40OCA5MS44NSAyMjguNzQgOTEuNjIgMjI5Ljg1IEMgODkuODYgMjMxLjE0IDg4LjQ3IDIzMS43IDg3LjEyIDIzMi4yIEMgODcuMyAyMzEuMTQgODcuNDggMjMxLjYzIDg3LjY5IDIyNy4yIFogTSA4Ni43MSAyMzMuNjggQyA4Ny45NyAyMzMuMyA4OS4yMyAyMzIuODggOTEuMDcgMjMxLjczIEMgODkuNDQgMjM1LjUyIDg2LjY0IDIzNy40OSA4NC4xOCAyMzguMzEgQyA4NS4wOCAyMzcuMzMgODUuOTYgMjM2LjEyIDg2LjcxIDIzMy42OCBaIE0gODUuMjYgMjM0LjA1IEMgODQuMDUgMjM3LjE5IDgyLjMyIDIzOC42MSA4MC44MiAyMzguOTQgTCA4MC44MiAyMzQuNjMgQyA4Mi4zNiAyMzQuNiA4My44NSAyMzQuNDIgODUuMjYgMjM0LjA1IFogTSA4MC44MSAyMzMuNDcgTCA4MC44MSAyMjguNDUgQyA4Mi4zMiAyMjguNDkgODQuMjkgMjI4LjE2IDg2LjQzIDIyNy42OSBDIDg2LjQzIDIyOS44MSA4Ni4xMSAyMzEuMzEgODUuNzcgMjMyLjc1IEMgODMuNzcgMjMzLjI4IDgyLjI0IDIzMy40MiA4MC44MSAyMzMuNDcgWiBNIDgwLjg5IDIyNy4yIEwgODAuODkgMjIyLjExIEMgODIuNDYgMjIyLjAzIDg0LjAxIDIyMS44MiA4NS41IDIyMS4zOCBDIDg2LjAxIDIyMi44NSA4Ni4yOSAyMjQuNTkgODYuNDkgMjI2LjQgQyA4NC43NyAyMjYuODkgODIuODggMjI3LjEyIDgwLjg5IDIyNy4yIFogTSA4MC43NiAyMTYuMDUgTCA4MS4yNSAyMTYuMDUgQyA4Mi4zNiAyMTYuNDIgODMuMTQgMjE3LjI3IDgzLjYgMjE3LjgzIEMgODQuMjcgMjE4LjY4IDg0LjY1IDIxOS40NSA4NS4wMSAyMjAuMjIgQyA4My44NyAyMjAuNTQgODIuNTQgMjIwLjgzIDgwLjc1IDIyMC45IFogTSA3OS41OCAyMjAuOTUgQyA3OC4xNyAyMjAuOSA3Ni43OCAyMjAuNjcgNzUuNCAyMjAuMjggQyA3NS44NiAyMTkuMTcgNzYuNDYgMjE4LjE2IDc3LjI3IDIxNy4zIEMgNzcuNzcgMjE2LjgxIDc4LjMxIDIxNi4zNyA3OS4xIDIxNi4xMSBMIDc5LjU4IDIxNi4xMSBaIE0gNzkuNjUgMjI3LjIxIEMgNzcuNTMgMjI3LjEyIDc1LjY3IDIyNi44NSA3NC4wMyAyMjYuNCBDIDc0LjE0IDIyNC45NSA3NC4xOCAyMjMuNTYgNzUuMDIgMjIxLjM4IEMgNzYuODYgMjIxLjk1IDc5IDIyMi4xMiA3OS42NiAyMjIuMSBaIE0gNzkuNTggMjI4LjQgTCA3OS41OSAyMzMuNDIgQyA3Ny45NyAyMzMuNDcgNzYuMzQgMjMzLjE5IDc0LjcxIDIzMi43OCBDIDc0LjIgMjMxIDczLjk4IDIyOS4yOSA3My45OCAyMjcuNjQgQyA3NS44MiAyMjguMTMgNzcuNjkgMjI4LjM2IDc5LjU4IDIyOC40IFogTSA3OS41OCAyMzQuNyBMIDc5LjU4IDIzOSBDIDc4LjcxIDIzOC44MSA3Ny45OCAyMzguMzUgNzcuMzUgMjM3LjcyIEMgNzYuMzMgMjM2LjcgNzUuNjUgMjM1LjQ2IDc1LjE0IDIzNC4yMiBDIDc2LjYxIDIzNC41MSA3OC4wOSAyMzQuNzMgNzkuNTggMjM0LjcgWiBNIDczLjcxIDIzMy43OCBDIDc0LjU1IDIzNi4yOCA3NS40MyAyMzcuMzQgNzYuMzIgMjM4LjM0IEMgNzIuNDMgMjM2LjkxIDcwLjU0IDIzNC4yOSA2OS40OCAyMzIuMDYgQyA3MC44NyAyMzIuNzYgNzIuMjQgMjMzLjQ3IDczLjcxIDIzMy43OCBaIE0gNjguODUgMjMwLjIxIEMgNjguNDYgMjI4Ljg0IDY4LjM1IDIyNy4yNyA2OC42OCAyMjUuMzggQyA2OS44IDIyNi4wNiA3MS4wNyAyMjYuNzEgNzIuNzMgMjI3LjI2IEMgNzIuNzIgMjI5LjEgNzIuOTEgMjMwLjc5IDczLjI5IDIzMi4zMyBDIDcyLjA3IDIzMS45OSA3MC42NyAyMzEuNCA2OC44NSAyMzAuMjEgWiBNIDY5LjA1IDIyNC4xNiBDIDY5LjU2IDIyMi40OCA3MC40MSAyMjEuMDcgNzEuNTIgMjE5Ljg3IEMgNzIuMzIgMjIwLjQgNzMuMDQgMjIwLjY4IDczLjggMjIxLjAxIEMgNzMuMTggMjIyLjY2IDcyLjkgMjI0LjUgNzIuODEgMjI2LjAzIEMgNzEuNjIgMjI1LjYyIDcwLjQzIDIyNS4xOCA2OS4wNSAyMjQuMTYgWiBNIDcyLjM3IDIxOC45NiBDIDczLjY0IDIxNy45MSA3NC44NyAyMTcuMjEgNzYuMDggMjE2Ljc2IEMgNzUuNDYgMjE3LjQ4IDc0LjgzIDIxOC4zOSA3NC4xNyAyMTkuOCBDIDczLjQ5IDIxOS41MiA3Mi44OCAyMTkuMjMgNzIuMzcgMjE4Ljk2IFogTSA4My4xOSAyMTQuNTMgTCA4My4xOSAyMDUuMDcgTCA0NC44NiAyMDUuMDcgTCA0NC44NiAyMjkuMzggQyA0NC44NiAyMjkuNzggNDUuMTggMjI5Ljk4IDQ1LjQ1IDIyOS45OCBMIDY2LjcyIDIyOS45OCBDIDY2Ljg3IDIzMC43NSA2Ny4wMyAyMzEuMjggNjcuMjEgMjMxLjggTCA0NS4zOCAyMzEuOCBDIDQ0LjEgMjMxLjggNDMgMjMwLjYzIDQzIDIyOS40NiBMIDQzIDIwMS40MyBDIDQzIDE5OS44MiA0NC40NCAxOTkgNDUuMzUgMTk5IEwgODIuNTIgMTk5IEMgODMuOTQgMTk5IDg1LjA1IDIwMC4wNSA4NS4wNSAyMDEuNDcgTCA4NS4wNSAyMTUuMDkgQyA4NC40OCAyMTQuODggODMuODUgMjE0LjY2IDgzLjE5IDIxNC41MyBaIE0gODMuMTkgMjAyLjY0IEwgODMuMTkgMjAwLjgxIEwgODEuMzQgMjAwLjgxIEwgODEuMzQgMjAyLjY0IFogTSA2MC4zMSAyMjYuOTQgTCA2MC4zMSAyMjIuMDggTCA2My40MSAyMjIuMDggTCA2My40MSAyMTguNDMgTCA1NS4zNyAyMTguNDMgTCA1NS4zNyAyMjIuMDggTCA1OC40NiAyMjIuMDggTCA1OC40NiAyMjYuOTQgTCA1MS4wNCAyMjYuOTQgTCA1MS4wNCAyMjIuMDggTCA1NC4xMyAyMjIuMDggTCA1NC4xMyAyMTcuMjIgTCA2My40MSAyMTcuMjIgTCA2My40MSAyMTMuNTYgTCA1OS43IDIxMy41NiBMIDU5LjcgMjA4LjEgTCA2OC4zNSAyMDguMSBMIDY4LjM1IDIxMy41NiBMIDY0LjY0IDIxMy41NiBMIDY0LjY0IDIxNy4yMiBMIDcxLjQ2IDIxNy4yMiBDIDcxIDIxNy41OCA3MC41NyAyMTcuOTggNzAuMTcgMjE4LjQzIEwgNjQuNjQgMjE4LjQzIEwgNjQuNjQgMjIyLjA4IEwgNjcuNjkgMjIyLjA4IEMgNjYuOTYgMjIzLjU2IDY2LjU4IDIyNS4zNiA2Ni41MSAyMjYuOTQgWiBNIDc5LjQ4IDIwMi42NCBMIDc5LjQ4IDIwMC44MSBMIDc3LjYzIDIwMC44MSBMIDc3LjYzIDIwMi42NCBaIE0gNzUuNzggMjAyLjY0IEwgNzUuNzggMjAwLjgxIEwgNzMuOTMgMjAwLjgxIEwgNzMuOTMgMjAyLjY0IFoiLz48L2c+PGc+PHBhdGggc3R5bGU9InN0cm9rZTogbGlnaHQtZGFyayhyZ2IoMCwgMCwgMCksIHJnYigxMzUsIDE5MiwgMjE3KSk7IiBwb2ludGVyLWV2ZW50cz0ic3Ryb2tlIiBzdHJva2UtbWl0ZXJsaW1pdD0iMTAiIHN0cm9rZS13aWR0aD0iNCIgc3Ryb2tlPSIjMDAwMDAwIiBmaWxsPSJub25lIiBkPSJNIDMyIDQ2IEwgNjcuNzggOSIvPjwvZz48Zz48cGF0aCBzdHlsZT0ic3Ryb2tlOiBsaWdodC1kYXJrKHJnYigwLCAwLCAwKSwgcmdiKDEzNSwgMTkyLCAyMTcpKTsiIHBvaW50ZXItZXZlbnRzPSJzdHJva2UiIHN0cm9rZS1taXRlcmxpbWl0PSIxMCIgc3Ryb2tlLXdpZHRoPSI0IiBzdHJva2U9IiMwMDAwMDAiIGZpbGw9Im5vbmUiIGQ9Ik0gNjIgNDYgTCA5Ny43OCA5Ii8+PC9nPjxnPjxwYXRoIHN0eWxlPSJzdHJva2U6IGxpZ2h0LWRhcmsocmdiKDAsIDAsIDApLCByZ2IoMTM1LCAxOTIsIDIxNykpOyIgcG9pbnRlci1ldmVudHM9InN0cm9rZSIgc3Ryb2tlLW1pdGVybGltaXQ9IjEwIiBzdHJva2Utd2lkdGg9IjQiIHN0cm9rZT0iIzAwMDAwMCIgZmlsbD0ibm9uZSIgZD0iTSA5MiA0NiBMIDEyNy43OCA5Ii8+PC9nPjxnPjxwYXRoIHN0eWxlPSJzdHJva2U6IGxpZ2h0LWRhcmsocmdiKDAsIDAsIDApLCByZ2IoMTM1LCAxOTIsIDIxNykpOyIgcG9pbnRlci1ldmVudHM9InN0cm9rZSIgc3Ryb2tlLW1pdGVybGltaXQ9IjEwIiBzdHJva2Utd2lkdGg9IjQiIHN0cm9rZT0iIzAwMDAwMCIgZmlsbD0ibm9uZSIgZD0iTSAxMjIgNDYuMDEgTCAxNTcuNzggOSIvPjwvZz48Zz48cGF0aCBzdHlsZT0ic3Ryb2tlOiBsaWdodC1kYXJrKHJnYigwLCAwLCAwKSwgcmdiKDEzNSwgMTkyLCAyMTcpKTsiIHBvaW50ZXItZXZlbnRzPSJzdHJva2UiIHN0cm9rZS1taXRlcmxpbWl0PSIxMCIgc3Ryb2tlLXdpZHRoPSI0IiBzdHJva2U9IiMwMDAwMDAiIGZpbGw9Im5vbmUiIGQ9Ik0gMTUyIDQ2LjAxIEwgMTg3Ljc4IDkiLz48L2c+PGc+PHBhdGggc3R5bGU9InN0cm9rZTogbGlnaHQtZGFyayhyZ2IoMCwgMCwgMCksIHJnYigxMzUsIDE5MiwgMjE3KSk7IiBwb2ludGVyLWV2ZW50cz0ic3Ryb2tlIiBzdHJva2UtbWl0ZXJsaW1pdD0iMTAiIHN0cm9rZS13aWR0aD0iNCIgc3Ryb2tlPSIjMDAwMDAwIiBmaWxsPSJub25lIiBkPSJNIDE4MiA0Ni4wMSBMIDIxNy43OCA5Ii8+PC9nPjxnPjxwYXRoIHN0eWxlPSJzdHJva2U6IGxpZ2h0LWRhcmsocmdiKDAsIDAsIDApLCByZ2IoMTM1LCAxOTIsIDIxNykpOyIgcG9pbnRlci1ldmVudHM9InN0cm9rZSIgc3Ryb2tlLW1pdGVybGltaXQ9IjEwIiBzdHJva2Utd2lkdGg9IjQiIHN0cm9rZT0iIzAwMDAwMCIgZmlsbD0ibm9uZSIgZD0iTSAyMTQuMTEgNDYuMDEgTCAyNDkuODkgOSIvPjwvZz48Zz48cGF0aCBzdHlsZT0ic3Ryb2tlOiBsaWdodC1kYXJrKHJnYigwLCAwLCAwKSwgcmdiKDEzNSwgMTkyLCAyMTcpKTsiIHBvaW50ZXItZXZlbnRzPSJzdHJva2UiIHN0cm9rZS1taXRlcmxpbWl0PSIxMCIgc3Ryb2tlLXdpZHRoPSI0IiBzdHJva2U9IiMwMDAwMDAiIGZpbGw9Im5vbmUiIGQ9Ik0gMjQyIDQ2LjAxIEwgMjc3Ljc4IDkiLz48L2c+PGc+PHBhdGggc3R5bGU9InN0cm9rZTogbGlnaHQtZGFyayhyZ2IoMCwgMCwgMCksIHJnYigxMzUsIDE5MiwgMjE3KSk7IiBwb2ludGVyLWV2ZW50cz0ic3Ryb2tlIiBzdHJva2UtbWl0ZXJsaW1pdD0iMTAiIHN0cm9rZS13aWR0aD0iNCIgc3Ryb2tlPSIjMDAwMDAwIiBmaWxsPSJub25lIiBkPSJNIDI3MiA0Ni4wMSBMIDMwNy43OCA5Ii8+PC9nPjxnPjxwYXRoIHN0eWxlPSJzdHJva2U6IGxpZ2h0LWRhcmsocmdiKDAsIDAsIDApLCByZ2IoMTM1LCAxOTIsIDIxNykpOyIgcG9pbnRlci1ldmVudHM9InN0cm9rZSIgc3Ryb2tlLW1pdGVybGltaXQ9IjEwIiBzdHJva2Utd2lkdGg9IjQiIHN0cm9rZT0iIzAwMDAwMCIgZmlsbD0ibm9uZSIgZD0iTSAzMDIgNDYuMDEgTCAzMzcuNzggOSIvPjwvZz48Zz48cGF0aCBzdHlsZT0ic3Ryb2tlOiBsaWdodC1kYXJrKHJnYigwLCAwLCAwKSwgcmdiKDEzNSwgMTkyLCAyMTcpKTsiIHBvaW50ZXItZXZlbnRzPSJzdHJva2UiIHN0cm9rZS1taXRlcmxpbWl0PSIxMCIgc3Ryb2tlLXdpZHRoPSI0IiBzdHJva2U9IiMwMDAwMDAiIGZpbGw9Im5vbmUiIGQ9Ik0gMzMyIDQ2LjAxIEwgMzY3Ljc4IDkiLz48L2c+PGc+PHBhdGggc3R5bGU9InN0cm9rZTogbGlnaHQtZGFyayhyZ2IoMCwgMCwgMCksIHJnYigxMzUsIDE5MiwgMjE3KSk7IiBwb2ludGVyLWV2ZW50cz0ic3Ryb2tlIiBzdHJva2UtbWl0ZXJsaW1pdD0iMTAiIHN0cm9rZS13aWR0aD0iNCIgc3Ryb2tlPSIjMDAwMDAwIiBmaWxsPSJub25lIiBkPSJNIDM2MiA0Ni4wMSBMIDM5Ny43OCA5Ii8+PC9nPjxnPjxwYXRoIHN0eWxlPSJzdHJva2U6IGxpZ2h0LWRhcmsocmdiKDAsIDAsIDApLCByZ2IoMTM1LCAxOTIsIDIxNykpOyIgcG9pbnRlci1ldmVudHM9InN0cm9rZSIgc3Ryb2tlLW1pdGVybGltaXQ9IjEwIiBzdHJva2Utd2lkdGg9IjQiIHN0cm9rZT0iIzAwMDAwMCIgZmlsbD0ibm9uZSIgZD0iTSAzOTIgNDYuMDEgTCA0MjcuNzggOSIvPjwvZz48L2c+PHN3aXRjaD48ZyByZXF1aXJlZEZlYXR1cmVzPSJodHRwOi8vd3d3LnczLm9yZy9UUi9TVkcxMS9mZWF0dXJlI0V4dGVuc2liaWxpdHkiLz48YSB0YXJnZXQ9Il9ibGFuayIgeGxpbms6aHJlZj0iaHR0cHM6Ly93d3cuZHJhd2lvLmNvbS9kb2MvZmFxL3N2Zy1leHBvcnQtdGV4dC1wcm9ibGVtcyIgdHJhbnNmb3JtPSJ0cmFuc2xhdGUoMCwtNSkiPjx0ZXh0IHk9IjEwMCUiIHg9IjUwJSIgZm9udC1zaXplPSIxMHB4IiB0ZXh0LWFuY2hvcj0ibWlkZGxlIj5UZXh0IGlzIG5vdCBTVkcgLSBjYW5ub3QgZGlzcGxheTwvdGV4dD48L2E+PC9zd2l0Y2g+PC9zdmc+;" vertex="1" parent="1">
          <mxGeometry x="190" y="140" width="213.33" height="120" as="geometry" />
        </mxCell>
      </root>
    </mxGraphModel>
  </diagram>
</mxfile>
